<?xml version="1.0" standalone="no"?>
<!DOCTYPE svg PUBLIC "-//W3C//DTD SVG 1.1//EN" "http://www.w3.org/Graphics/SVG/1.1/DTD/svg11.dtd" >
<svg xmlns="http://www.w3.org/2000/svg" xmlns:xlink="http://www.w3.org/1999/xlink" version="1.1">
<metadata></metadata>
<defs>
<font id="barlow_semi_condensedBlkIt" horiz-adv-x="1007" >
<font-face units-per-em="2048" ascent="1638" descent="-410" />
<missing-glyph horiz-adv-x="397" />
<glyph horiz-adv-x="0" />
<glyph unicode="&#xd;" horiz-adv-x="397" />
<glyph unicode=" "  horiz-adv-x="397" />
<glyph unicode="&#x09;" horiz-adv-x="397" />
<glyph unicode="&#xa0;" horiz-adv-x="397" />
<glyph unicode="!" horiz-adv-x="659" d="M98 186q0 63 36 119.5t92.5 89.5t113.5 33q78 0 134 -54.5t56 -133.5q0 -63 -32.5 -118.5t-88 -88.5t-120.5 -33q-86 0 -138.5 53t-52.5 133zM207 539l72 864q4 31 30 31h314q29 0 24 -31l-141 -864q-2 -14 -12.5 -22.5t-24.5 -8.5h-233q-15 0 -23 8t-6 23z" />
<glyph unicode="&#x22;" horiz-adv-x="837" d="M129 971l16 430q4 33 35 33h291q16 0 22.5 -9.5t4.5 -23.5l-88 -430q-6 -29 -33 -29h-221q-27 0 -27 29zM592 971l16 430q4 33 35 33h291q16 0 22.5 -9.5t4.5 -23.5l-89 -430q-6 -29 -32 -29h-222q-26 0 -26 29z" />
<glyph unicode="#" horiz-adv-x="1331" d="M53 354l33 267q2 14 11 22t22 8h129q6 0 11 4t5 9l31 116q4 12 -8 13h-76q-14 0 -21.5 8t-5.5 22l33 269q2 14 11.5 22t23.5 8h123q10 0 14 13l60 213q6 29 34 28h314q31 0 24 -33l-57 -208q-6 -12 10 -13h96q8 0 17 13l57 213q6 29 35 28h315q29 0 23 -33l-57 -208 q-2 -12 10 -13h80q14 0 21 -8t5 -22l-33 -269q-2 -14 -11 -22t-23 -8h-129q-6 0 -10.5 -4.5t-4.5 -8.5l-30 -116q-6 -12 8 -13h76q14 0 21 -8t5 -22l-33 -267q-6 -31 -34 -30h-123q-10 0 -15 -13l-59 -213q-6 -29 -35 -28h-313q-31 0 -25 32l58 209q6 12 -11 13h-96 q-6 0 -10 -4.5t-6 -8.5l-58 -213q-6 -29 -34 -28h-316q-14 0 -20 9t-2 23l57 209q2 6 -2 9.5t-8 3.5h-80q-14 0 -21.5 8t-5.5 22zM637 664q-2 -12 8 -13h100q7 0 11 4t6 9l29 116q6 12 -9 13h-98q-6 0 -10 -4.5t-6 -8.5z" />
<glyph unicode="$" horiz-adv-x="1013" d="M55 317q0 14 4 52l11 86q2 14 11 22t21 8h312q12 0 19 -8t5 -22l-2 -31l-2 -21q0 -39 21.5 -64.5t60.5 -25.5q43 0 68.5 30t25.5 65q0 33 -29.5 55t-99.5 55q-41 18 -86 43t-80 53q-84 70 -137 155t-53 202q0 18 4 55q20 160 121.5 268.5t263.5 143.5q8 2 12 14l9 111 q6 31 34 30h174q14 0 21.5 -8t5.5 -22l-16 -109q-4 -10 8 -14q141 -27 219 -117t78 -223q0 -16 -4 -58l-8 -65q-6 -31 -35 -31h-307q-14 0 -21.5 8.5t-5.5 22.5l4 29q4 47 -16.5 80.5t-67.5 33.5q-41 0 -70.5 -28.5t-29.5 -67.5q0 -35 29.5 -58.5t103.5 -62.5 q74 -35 112 -59q125 -86 184.5 -171t59.5 -200q0 -18 -4 -59q-20 -168 -125.5 -277.5t-271.5 -142.5q-14 -4 -15 -14l-6 -89q-2 -14 -11 -22t-24 -8h-176q-14 0 -21 8t-5 22l16 91q0 10 -10 14q-133 27 -206 113t-73 208z" />
<glyph unicode="%" horiz-adv-x="1556" d="M160 1061q0 102 52 192t140 143.5t187 53.5q125 0 207.5 -86t82.5 -215q0 -104 -52 -193.5t-139 -142.5t-185 -53q-127 0 -210 86t-83 215zM240 16q0 10 8 21l897 1374q14 23 39 23h198q20 0 21 -19q0 -8 -6 -18l-897 -1374q-14 -23 -39 -23h-199q-22 0 -22 16zM350 1085 q0 -57 36 -95t91 -38q64 0 113 51.5t49 122.5q0 55 -36 93t-89 38q-66 0 -115 -51t-49 -121zM834 285q0 102 52 192t139 143.5t185 53.5q127 0 210 -86t83 -215q0 -104 -52 -193.5t-139 -142.5t-186 -53q-127 0 -209.5 86t-82.5 215zM1024 309q0 -57 36 -95t91 -38 q63 0 112.5 51.5t49.5 122.5q0 55 -36 93t-89 38q-66 0 -115 -51t-49 -121z" />
<glyph unicode="&#x26;" horiz-adv-x="1366" d="M45 303q0 152 70.5 256.5t189.5 179.5q10 6 4 17q-57 86 -78.5 139t-21.5 102q0 29 2 43q23 184 156 297t329 113q182 0 296 -98.5t114 -259.5q0 -147 -75 -250t-202 -178q-10 -6 -4 -17l76 -100q4 -4 9 -4t8 4q70 68 118 143q12 18 27 19q6 0 16 -7l215 -135 q14 -10 15 -22q0 -6 -9 -19q-84 -133 -194 -243q-10 -8 -4 -17l65 -94q70 -98 95 -135q6 -9 6 -17q0 -20 -29 -20h-344q-25 0 -35 16l-37 47q-4 8 -18 5q-178 -86 -363 -86q-178 0 -287.5 80.5t-109.5 240.5zM426 377q0 -31 22.5 -51.5t65.5 -20.5q20 0 33 2q30 7 59 19 q12 6 6 16l-32 43q-10 14 -72 96q-6 10 -16 0q-55 -39 -64 -84q-2 -6 -2 -20zM584 1024q0 -16 9 -38.5t36 -61.5q6 -10 16 -4q84 55 84 116q0 31 -17.5 48.5t-47.5 17.5q-35 0 -57.5 -22.5t-22.5 -55.5z" />
<glyph unicode="'" horiz-adv-x="395" d="M129 971l16 430q4 33 35 33h312q16 0 22 -9.5t4 -23.5l-90 -430q-8 -29 -35 -29h-237q-27 0 -27 29z" />
<glyph unicode="(" horiz-adv-x="770" d="M35 479q0 104 14 211q61 500 369 840q16 18 39 18h307q23 0 22 -16q0 -8 -6 -21q-117 -178 -199.5 -371.5t-113.5 -449.5q-14 -109 -14 -217q0 -178 33.5 -320.5t91.5 -285.5q4 -12 4 -14q0 -10 -8.5 -16.5t-20.5 -6.5h-307q-25 0 -35 18q-176 276 -176 631z" />
<glyph unicode=")" horiz-adv-x="770" d="M74 -154q0 8 6 21q119 184 202 374.5t113 448.5q14 109 15 215q0 180 -35 323.5t-92 282.5q-2 6 -2 15q0 23 26 22h307q25 0 35 -18q176 -268 176 -629q0 -104 -14 -211q-33 -274 -130 -478t-239 -364q-16 -18 -39 -18h-307q-23 0 -22 16z" />
<glyph unicode="*" horiz-adv-x="757" d="M121 1067q0 18 22 29l129 65q14 8 2 17l-114 61q-14 8 -15 23q0 10 7 18l92 143q10 16 24 17q6 0 17 -6l108 -68q10 -8 15 8l12 123q2 14 11 22.5t24 8.5h145q14 0 21.5 -8.5t5.5 -22.5l-17 -123q-2 -6 1 -9t12 1l120 68q10 6 19 6q10 0 20 -17l58 -143q4 -8 4 -14 q0 -14 -23 -27l-129 -61q-6 -2 -6 -7.5t4 -9.5l117 -65q12 -6 12 -21q0 -10 -6 -20l-92 -142q-12 -16 -27 -16q-10 0 -16 4l-105 72q-4 2 -8 -1t-6 -9l-12 -123q-2 -14 -11.5 -22.5t-23.5 -8.5h-147q-13 0 -20 8t-5 23l16 125q2 6 -1 9t-11 -1l-123 -68q-8 -6 -18 -6t-21 16 l-59 140q-2 4 -2 12z" />
<glyph unicode="+" horiz-adv-x="905" d="M59 489l31 246q2 14 11.5 22.5t21.5 8.5h223q12 0 14 12l27 230q6 31 35 30h237q14 0 21.5 -8t5.5 -22l-29 -230q0 -12 11 -12h223q14 0 21.5 -8t5.5 -23l-31 -246q-2 -14 -11.5 -22t-23.5 -8h-221q-10 0 -15 -13l-26 -229q-6 -31 -35 -31h-238q-14 0 -21 8.5t-5 22.5 l28 229q0 12 -10 13h-223q-14 0 -21.5 8t-5.5 22z" />
<glyph unicode="," horiz-adv-x="495" d="M-16 -195l102 494q6 29 33 29h272q14 0 20.5 -9.5t2.5 -25.5l-183 -494q-10 -27 -34 -26h-187q-16 0 -22 9t-4 23z" />
<glyph unicode="-" horiz-adv-x="757" d="M55 451l33 266q2 14 11.5 22.5t21.5 8.5h618q14 0 21.5 -8.5t5.5 -22.5l-33 -266q-2 -14 -11 -22.5t-24 -8.5h-616q-14 0 -21.5 8t-5.5 23z" />
<glyph unicode="." horiz-adv-x="567" d="M47 168q0 20 2 31q6 57 43 106t90.5 78t106.5 29q78 0 135 -55.5t57 -135.5q0 -63 -32.5 -117.5t-90 -87t-122.5 -32.5q-84 0 -136.5 52t-52.5 132z" />
<glyph unicode="/" horiz-adv-x="956" d="M-6 18l4 17l688 1374q12 25 39 25h309q25 0 25 -19l-4 -16l-688 -1374q-12 -25 -39 -25h-310q-24 0 -24 18z" />
<glyph unicode="0" horiz-adv-x="1026" d="M57 375q0 51 4 78l66 528q27 217 168 345t356 128q195 0 304.5 -105.5t109.5 -289.5q0 -51 -4 -78l-66 -528q-27 -219 -169 -348.5t-357 -129.5q-193 0 -302.5 107.5t-109.5 292.5zM430 408q0 -47 20.5 -75t59.5 -28q43 0 72.5 35t35.5 92l70 567q2 10 2 29 q0 45 -21.5 70.5t-58.5 25.5q-43 0 -71.5 -33.5t-36.5 -91.5l-70 -567z" />
<glyph unicode="1" horiz-adv-x="626" d="M117 1112l28 236q4 25 29 34l145 45q19 7 37 7h326q14 0 21.5 -8.5t5.5 -22.5l-168 -1372q-2 -14 -11.5 -22.5t-23.5 -8.5h-313q-14 0 -21.5 8t-5.5 23l129 1042q0 12 -10 12l-142 -4q-14 0 -21 8.5t-5 22.5z" />
<glyph unicode="2" horiz-adv-x="1032" d="M18 31l31 264q4 23 21 39q293 268 452 436q82 84 125 150.5t43 119.5q0 37 -21.5 58.5t-58.5 21.5q-41 0 -69.5 -25.5t-32.5 -68.5l-8 -63q-2 -14 -11.5 -22.5t-21.5 -8.5h-320q-12 0 -19 8t-5 23l12 102q35 174 181.5 279.5t345.5 105.5q188 0 297.5 -101.5 t109.5 -265.5q0 -117 -46 -214t-146 -210q-70 -76 -250 -239l-84 -76q-6 -4 -5 -9t9 -5h418q14 0 21 -8.5t5 -22.5l-35 -268q-2 -14 -10 -22.5t-22 -8.5h-881q-12 0 -19.5 8t-5.5 23z" />
<glyph unicode="3" horiz-adv-x="1001" d="M49 453q4 31 35 30h315q31 0 27 -30v-21q0 -18 4 -51t21.5 -50.5t48.5 -17.5q27 0 49 18.5t37 49.5q18 49 28 123q4 49 4 65q0 57 -20 90t-53 33q-43 0 -92 -37q-10 -8 -25 -8q-12 0 -20 10l-136 183q-6 10 -6 18q0 14 15 27l282 207q6 6 5 10t-9 4h-364q-12 0 -19.5 8 t-5.5 23l33 266q2 14 10 22.5t23 8.5h817q12 0 19 -8.5t5 -22.5l-33 -275q-4 -23 -20 -36l-238 -197q-10 -10 2 -14q145 -23 183 -183q12 -50 12 -118q0 -47 -6 -103q-23 -166 -98 -278q-68 -104 -176.5 -159.5t-243.5 -55.5q-174 0 -285 91t-121 242q-8 55 -4 136z" />
<glyph unicode="4" horiz-adv-x="1163" d="M37 377l26 221q4 23 11 39l379 772q12 25 39 25h335q25 0 25 -19l-4 -16l-332 -694q-6 -14 6 -15h146q4 0 8 3t4 9l20 170q2 14 11.5 22.5t23.5 8.5h314q14 0 21 -8t5 -23l-20 -170q-2 -4 1 -8t9 -4h70q12 0 19 -8t5 -23l-35 -282q-2 -14 -10 -22.5t-22 -8.5h-70 q-10 0 -14 -12l-37 -303q-2 -14 -10.5 -22.5t-22.5 -8.5h-313q-14 0 -21.5 8t-5.5 23l37 303q0 12 -10 12h-564q-12 0 -19 8t-5 23z" />
<glyph unicode="5" horiz-adv-x="1005" d="M53 391q4 33 35 33h320q14 0 19 -6t7 -21l6 -24q14 -57 66 -58q27 0 48 16.5t32 43.5q16 31 24 84q2 14 2 39q0 27 -6 45q-6 27 -23.5 40t-41.5 13q-47 0 -74 -35q-18 -23 -39 -22h-326q-14 0 -21 8t-5 22l102 834q2 14 11.5 22.5t21.5 8.5h844q12 0 19 -8.5t5 -22.5 l-32 -268q-2 -14 -10.5 -22.5t-22.5 -8.5h-488q-12 0 -12 -12l-25 -201q-2 -6 2.5 -9t10.5 1q78 45 166 45q96 0 165.5 -37t110.5 -107q51 -90 51 -223q0 -45 -6 -98q-25 -182 -117 -299q-70 -86 -174 -132t-233 -46q-170 0 -276.5 82t-125.5 235q-6 27 -10 88z" />
<glyph unicode="6" horiz-adv-x="1005" d="M55 369q0 37 6 75l74 629q20 172 158.5 274.5t343.5 102.5q184 0 292.5 -89t108.5 -241q0 -31 -2 -47l-10 -76q-2 -14 -11 -22t-22 -8h-315q-12 0 -19.5 8t-5.5 22l4 35q4 35 -14 59.5t-49 24.5q-33 0 -58.5 -24.5t-29.5 -59.5l-19 -160q-2 -8 2.5 -10t10.5 2 q82 59 174 60q84 0 148.5 -35t103.5 -98q67 -100 67 -254q0 -25 -4 -74q-25 -193 -131 -316q-143 -162 -393 -161q-117 0 -205 41t-139 116q-66 98 -66 226zM434 422q0 -16 4 -45q10 -61 68 -62q53 0 84 64q14 35 22 90q4 37 4 51q0 31 -10 55q-14 47 -63 48q-45 0 -72 -41 q-25 -35 -33 -111q-4 -33 -4 -49z" />
<glyph unicode="7" horiz-adv-x="940" d="M100 1018l50 385q6 31 34 31h848q14 0 21.5 -8.5t5.5 -22.5l-35 -281q-2 -10 -10 -37l-496 -1060q-10 -25 -37 -25h-331q-25 0 -25 18l4 17l494 1055q4 14 -9 14h-190q-10 0 -14 -12l-9 -74q-2 -14 -11 -22.5t-23 -8.5h-240q-14 0 -21.5 8.5t-5.5 22.5z" />
<glyph unicode="8" horiz-adv-x="1001" d="M49 365q0 23 4 63q12 109 64 203q41 66 102 108q14 8 4 17q-53 51 -73 112q-18 53 -19 117q0 20 4 62q12 115 76 206q66 100 180.5 155.5t251.5 55.5q143 0 245.5 -59t139.5 -176q20 -57 21 -133q0 -123 -66 -228q-35 -57 -100 -108q-6 -4 -7.5 -8t3.5 -7q55 -41 79 -114 q21 -55 21 -131q0 -23 -4 -72q-14 -106 -60 -188q-66 -117 -186.5 -186.5t-269.5 -69.5q-145 0 -249 66.5t-142 189.5q-18 61 -19 125zM430 420q0 -29 4 -41q4 -31 21.5 -49.5t46.5 -18.5q27 0 47 17.5t33 46.5q18 27 24 84q4 33 4 47l-2 26q-4 37 -22.5 56.5t-48.5 19.5 q-61 0 -88 -76q-8 -23 -17 -71q-2 -14 -2 -41zM496 967q0 -49 19.5 -77t53.5 -28q27 0 50.5 18.5t35.5 51.5q10 20 19 69q2 10 2 31q0 20 -2 29q-4 35 -23.5 54.5t-48.5 19.5q-31 0 -55.5 -19.5t-34.5 -54.5q-6 -19 -14 -60z" />
<glyph unicode="9" horiz-adv-x="987" d="M45 309q0 18 4 51l8 76q2 14 11.5 22.5t21.5 8.5h316q12 0 19 -8t5 -23l-4 -35q-4 -35 14.5 -59.5t48.5 -24.5q35 0 59.5 24t29.5 60l20 160q0 16 -14 8q-78 -59 -174 -59q-166 0 -252 133q-68 106 -68 250q0 39 6 78q20 193 129 315q143 162 393 162q117 0 205 -41 t140 -117q66 -94 65 -229q0 -23 -4 -72l-76 -629q-20 -172 -158.5 -274t-343.5 -102q-182 0 -291.5 88t-109.5 237zM469 918q0 -37 8 -60q14 -47 64 -47q44 0 71 41q23 33 35 111q4 37 4 51q0 18 -4 43q-14 61 -69 61q-51 0 -82 -63q-16 -33 -25 -90q-2 -16 -2 -47z" />
<glyph unicode=":" horiz-adv-x="696" d="M121 186q0 63 36 119.5t93 89.5t115 33q76 0 133 -55.5t57 -132.5q0 -63 -33 -118.5t-89 -88.5t-122 -33q-86 0 -138 53t-52 133zM203 844q0 63 35.5 119.5t92 89t113.5 32.5q78 0 134.5 -54t56.5 -134q0 -63 -33 -118.5t-88 -88.5t-121 -33q-86 0 -138 53.5t-52 133.5z " />
<glyph unicode=";" horiz-adv-x="573" d="M29 -195l96 494q6 29 33 29h272q14 0 19.5 -9.5t1.5 -25.5l-179 -494q-6 -27 -34 -26h-185q-16 0 -22 9t-2 23zM131 782q0 63 36 119.5t92 89.5t116 33q76 0 133 -55.5t57 -132.5q0 -63 -32.5 -118.5t-89 -88.5t-121.5 -33q-86 0 -138.5 53t-52.5 133z" />
<glyph unicode="&#x3c;" horiz-adv-x="905" d="M55 449l35 278q2 25 25 35l811 342l16 4q20 0 16 -27l-36 -299q-4 -27 -27 -34l-430 -152q-8 -4 -9 -9t7 -7l393 -152q23 -10 18 -35l-36 -299q-2 -16 -13.5 -23.5t-25.5 1.5l-727 342q-18 10 -17 35z" />
<glyph unicode="=" horiz-adv-x="905" d="M59 301l31 246q2 14 11.5 22.5t21.5 8.5h768q12 0 19.5 -8t4.5 -23l-28 -246q-2 -14 -11.5 -22t-23.5 -8h-766q-14 0 -21.5 8t-5.5 22zM59 661l31 246q2 14 11.5 22.5t21.5 8.5h768q12 0 19.5 -8t4.5 -23l-28 -246q-2 -14 -11.5 -22t-23.5 -8h-766q-14 0 -21.5 8t-5.5 22 z" />
<glyph unicode="&#x3e;" horiz-adv-x="905" d="M12 94l37 299q4 27 27 35l430 152q8 4 9 9t-7 7l-393 152q-23 10 -19 34l37 299q2 16 13.5 23.5t25.5 -0.5l727 -342q18 -10 16 -35l-34 -278q-2 -25 -25 -35l-811 -342l-16 -4q-20 0 -17 26z" />
<glyph unicode="?" horiz-adv-x="1038" d="M111 989l2 10q16 133 92 236.5t197.5 161t271.5 57.5q197 0 310.5 -98.5t113.5 -265.5q0 -18 -4 -60q-12 -92 -49 -156.5t-84.5 -104.5t-116.5 -85q-70 -47 -106 -82t-42 -86v-2q-2 -14 -10 -22.5t-22 -8.5h-310q-30 0 -26 29l2 29q10 80 46 139t81 96t114 82 q74 47 109 82t35 84q0 37 -24.5 58.5t-69.5 21.5q-57 0 -93 -30t-43 -75v-8q-2 -29 -32 -28l-314 14q-12 0 -20 4t-8 8zM289 162q0 59 31.5 110.5t83 81t108.5 29.5q72 0 123 -50t51 -122q0 -90 -67.5 -155.5t-157.5 -65.5q-74 0 -123 49t-49 123z" />
<glyph unicode="@" horiz-adv-x="1552" d="M55 395q0 111 29 219q59 233 198.5 411.5t327 276t387.5 97.5q174 0 304.5 -65.5t201 -186.5t70.5 -283q0 -94 -25 -198q-51 -209 -171 -325t-290 -116q-139 0 -210 76q-6 6 -17 -2q-43 -43 -103.5 -59.5t-140.5 -16.5q-86 0 -133 59.5t-43 166.5q0 45 27 163 q23 86 47 138q45 117 115.5 176t161.5 59q84 0 127 -41q4 -4 7 -6t5 0v6q8 29 37 29h184q31 0 23 -33l-82 -324q-10 -45 -11 -69q0 -84 64 -84q49 0 85 55t58 146q20 84 21 163q0 164 -93.5 251t-263.5 87q-139 0 -267 -72.5t-221 -199.5t-134 -285q-25 -94 -25 -172 q0 -172 99.5 -264t246.5 -92q137 0 260 74q8 6 19 6q14 0 20 -15l74 -137q4 -12 4 -16q0 -14 -16 -27q-90 -57 -202 -92t-230 -35q-152 0 -271 69.5t-186.5 196.5t-67.5 291zM690 487q2 -27 12.5 -40t32.5 -13q41 0 68 53q29 63 39 115q8 41 16 113v10q0 41 -43 41 q-47 0 -70 -53q-8 -14 -19 -48t-19 -69q-20 -82 -17 -109z" />
<glyph unicode="A" horiz-adv-x="1236" d="M2 35l522 1372q10 27 35 27h393q25 0 29 -27l184 -1372v-4q0 -31 -30 -31h-330q-29 0 -31 27l-12 157q-4 10 -10 11h-299q-8 0 -13 -11l-53 -157q-10 -27 -37 -27h-325q-16 0 -22.5 9t-0.5 26zM547 504q-6 -15 10 -15h166q14 0 14 15l-35 420q0 8 -5 8t-7 -8z" />
<glyph unicode="B" horiz-adv-x="1093" d="M29 31l170 1372q2 14 10 22.5t22 8.5h439q440 0 440 -332q0 -23 -4 -72q-25 -193 -166 -280q-12 -8 -2 -15q121 -94 121 -260q0 -18 -4 -63q-25 -205 -170.5 -308.5t-352.5 -103.5h-477q-14 0 -21 8t-5 23zM440 342q0 -12 13 -12h104q59 0 95 39t36 114q0 47 -25.5 74 t-72.5 27h-107q-10 0 -14 -13zM508 889q0 -12 10 -12h86q66 0 99.5 35.5t33.5 103.5q0 88 -104 88h-86q-11 0 -15 -12z" />
<glyph unicode="C" horiz-adv-x="1079" d="M63 391q0 49 5 76l61 506q18 143 93 251.5t194 167t264 58.5q203 0 320.5 -105.5t117.5 -287.5q0 -20 -4 -70q-2 -14 -11 -23.5t-22 -9.5l-315 -14q-31 0 -29 25l4 26q2 8 2 23q0 49 -27.5 77.5t-74.5 28.5q-53 0 -91 -35.5t-44 -93.5l-68 -549q-2 -8 -2 -22 q0 -49 29 -78t76 -29q53 0 89 35t44 94l4 25q2 29 33 29l311 -15q12 0 20.5 -5t8.5 -11l-2 -14q-16 -139 -91 -246t-194 -164t-264 -57q-201 0 -319 109.5t-118 297.5z" />
<glyph unicode="D" horiz-adv-x="1093" d="M29 31l170 1372q2 14 10 22.5t22 8.5h451q205 0 324.5 -102.5t119.5 -274.5q0 -16 -4 -58l-69 -563q-16 -129 -90 -228t-192 -153.5t-265 -54.5h-451q-14 0 -21 8t-5 23zM440 342q1 -12 13 -12l96 2q49 0 87 41t48 108l59 473q2 10 2 27q0 57 -27.5 90t-74.5 33h-96 q-10 0 -15 -12z" />
<glyph unicode="E" d="M29 31l170 1372q2 14 10 22.5t22 8.5h840q14 0 21.5 -8.5t5.5 -22.5l-33 -268q-2 -15 -11.5 -23t-21.5 -8h-485q-10 0 -15 -12l-22 -193q0 -12 10 -12h281q12 0 19 -8.5t5 -22.5l-32 -266q-2 -14 -10.5 -22.5t-22.5 -8.5h-281q-12 0 -12 -12l-27 -205q0 -12 13 -12h483 q14 0 21.5 -8.5t5.5 -22.5l-33 -268q-2 -14 -11.5 -22.5t-23.5 -8.5h-840q-14 0 -21 8t-5 23z" />
<glyph unicode="F" horiz-adv-x="978" d="M29 31l170 1372q2 14 10 22.5t22 8.5h840q14 0 21.5 -8.5t5.5 -22.5l-33 -268q-2 -15 -11.5 -23t-21.5 -8h-485q-10 0 -15 -12l-22 -193q0 -12 10 -12h281q12 0 19 -8.5t5 -22.5l-32 -266q-2 -14 -10.5 -22.5t-22.5 -8.5h-281q-12 0 -12 -12l-64 -516q-2 -14 -11 -22.5 t-23 -8.5h-314q-14 0 -21 8t-5 23z" />
<glyph unicode="G" horiz-adv-x="1077" d="M63 387q0 49 5 76l61 510q16 143 91 250.5t195 167t265 59.5q133 0 232.5 -49t153.5 -138t54 -202q0 -20 -4 -62l-4 -34q-2 -14 -11 -22.5t-24 -8.5h-313q-14 0 -21.5 8t-5.5 23l4 30q1 10 1 19q0 41 -22 70q-26 36 -79 36t-91 -39t-46 -102l-64 -522q-2 -8 -2 -27 q0 -51 32 -84t79 -33q51 0 86 33t43 90l6 62q4 12 -10 12h-92q-14 0 -21.5 8t-5.5 23l31 241q2 14 10 22.5t22 8.5h445q14 0 21.5 -8t5.5 -23l-41 -329q-16 -139 -91 -246t-194 -165t-264 -58q-201 0 -319 109.5t-118 293.5z" />
<glyph unicode="H" horiz-adv-x="1091" d="M29 31l170 1372q2 14 10 22.5t22 8.5h314q14 0 21 -8.5t5 -22.5l-61 -504q-2 -12 10 -12h199q12 0 14 12l62 504q2 14 10 22.5t22 8.5h314q14 0 21 -8.5t5 -22.5l-168 -1372q-2 -14 -11 -22.5t-23 -8.5h-314q-14 0 -21 8t-5 23l63 514q2 4 -1 8t-9 4h-199q-12 0 -12 -12 l-64 -514q-2 -14 -11 -22.5t-23 -8.5h-314q-14 0 -21 8t-5 23z" />
<glyph unicode="I" horiz-adv-x="501" d="M29 31l170 1372q2 14 10 22.5t22 8.5h314q14 0 21 -8.5t5 -22.5l-168 -1372q-2 -14 -11 -22.5t-23 -8.5h-314q-14 0 -21 8t-5 23z" />
<glyph unicode="J" horiz-adv-x="1060" d="M29 371q0 18 4 63l12 94q2 14 11.5 22.5t21.5 8.5h315q12 0 19.5 -8t5.5 -23l-10 -94q-2 -8 -2 -20q0 -45 27.5 -73t72.5 -28q51 0 88 34t43 87l119 969q2 14 11 22.5t24 8.5h311q14 0 21 -8.5t5 -22.5l-118 -969q-16 -133 -90 -235.5t-192 -158.5t-263 -56 q-201 0 -318.5 105.5t-117.5 281.5z" />
<glyph unicode="K" horiz-adv-x="1146" d="M29 31l170 1372q2 14 10 22.5t22 8.5h314q14 0 21 -8.5t5 -22.5l-55 -447q0 -10 4 -11t10 7l312 461q12 20 37 21h344q25 0 24 -17q0 -4 -8 -20l-420 -596q-2 -4 -2 -17l266 -747q2 -4 2 -12q0 -25 -28 -25h-342q-25 0 -31 23l-158 462q-2 8 -7 7.5t-9 -7.5l-57 -88 q-6 -8 -7 -14l-43 -352q-2 -14 -11 -22.5t-23 -8.5h-314q-14 0 -21 8t-5 23z" />
<glyph unicode="L" horiz-adv-x="1013" d="M29 31l170 1372q2 14 10 22.5t22 8.5h314q14 0 21 -8.5t5 -22.5l-131 -1061q0 -12 13 -12h497q14 0 21.5 -8.5t5.5 -22.5l-33 -268q-2 -14 -11 -22.5t-24 -8.5h-854q-14 0 -21 8t-5 23z" />
<glyph unicode="M" horiz-adv-x="1271" d="M25 31l168 1372q2 14 10 22.5t22 8.5h312q25 0 32 -21l152 -338q2 -6 7 -6t7 6l236 338q12 20 37 21h311q12 0 19.5 -8.5t4.5 -22.5l-167 -1372q-2 -14 -11.5 -22.5t-21.5 -8.5h-316q-12 0 -19 8t-5 23l96 788q2 8 -3 10t-9 -6l-156 -219q-12 -20 -37 -20h-53 q-25 0 -33 20l-100 221q-4 8 -8 6t-6 -10l-97 -790q-2 -14 -11 -22.5t-21 -8.5h-316q-12 0 -19 8t-5 23z" />
<glyph unicode="N" horiz-adv-x="1177" d="M29 31l170 1372q2 14 10 22.5t22 8.5h326q25 0 31 -23l194 -666q2 -8 8.5 -7t6.5 12l77 653q6 31 35 31h312q14 0 21 -8.5t5 -22.5l-168 -1372q-2 -14 -11 -22.5t-24 -8.5h-325q-27 0 -33 25l-192 671q-4 8 -9.5 7t-5.5 -9l-78 -663q-2 -14 -11 -22.5t-23 -8.5h-312 q-14 0 -21 8t-5 23z" />
<glyph unicode="O" horiz-adv-x="1097" d="M63 397q0 49 5 76l59 488q18 147 94 257.5t197 171t268 60.5q207 0 325.5 -111.5t118.5 -302.5q0 -49 -4 -75l-59 -488q-18 -147 -94 -259t-197 -173t-270 -61q-205 0 -324 112.5t-119 304.5zM438 430q0 -55 29 -88t80 -33q57 0 97 41t48 109l64 512l2 24q0 57 -31 91 t-82 34q-55 0 -95 -41t-48 -108l-62 -512q-2 -10 -2 -29z" />
<glyph unicode="P" horiz-adv-x="1075" d="M25 31l168 1372q2 14 10 22.5t22 8.5h514q179 0 284 -107.5t105 -286.5q0 -23 -4 -71q-16 -135 -83.5 -236.5t-174 -158t-235.5 -56.5h-162q-10 0 -14 -12l-58 -475q-2 -14 -11 -22.5t-21 -8.5h-316q-12 0 -19 8t-5 23zM496 831q0 -12 10 -12h96q66 0 108 45t42 123 q0 55 -32 86t-83 31h-96q-12 0 -13 -12z" />
<glyph unicode="Q" horiz-adv-x="1071" d="M63 397q0 47 5 74l59 477q18 150 93 263.5t191.5 176t260.5 62.5q200 0 315 -114.5t115 -307.5q0 -53 -4 -80l-60 -477q-20 -164 -110 -282.5t-232 -170.5q-12 -4 -12 -14l-18 -151q-2 -14 -11.5 -22.5t-23.5 -8.5h-314q-14 0 -21 8t-5 23l20 151q0 10 -8 14 q-115 45 -177.5 143.5t-62.5 235.5zM438 426q0 -51 25.5 -82t68.5 -31q51 0 87 39t45 105l65 522q2 10 2 27q0 53 -26.5 83.5t-71.5 30.5q-49 0 -85 -39t-44 -102l-64 -522q-2 -10 -2 -31z" />
<glyph unicode="R" horiz-adv-x="1097" d="M29 31l170 1372q2 14 10 22.5t22 8.5h525q172 0 274.5 -104.5t102.5 -276.5q0 -49 -5 -76q-14 -125 -76.5 -220t-160.5 -149q-8 -6 -8 -16l137 -557v-8q0 -27 -29 -27h-327q-25 0 -31 25l-107 516q0 10 -12 10h-35q-10 0 -14 -12l-62 -508q-2 -14 -11 -22.5t-23 -8.5 h-314q-14 0 -21 8t-5 23zM504 856q0 -12 10 -12h107q59 0 99 42t40 109q0 51 -30 80t-79 29h-104q-11 0 -15 -12z" />
<glyph unicode="S" horiz-adv-x="1052" d="M53 348q0 20 4 58l6 49q2 14 11.5 22t23.5 8h310q14 0 21 -8t5 -22l-4 -31q-1 -7 -1 -14q1 -36 27 -64q32 -33 89 -33q53 0 79.5 29t26.5 66q0 33 -29.5 57t-113.5 70l-41 20q-96 49 -167 99.5t-121 130t-50 188.5q0 141 68.5 249.5t189.5 168t268 59.5q129 0 228.5 -47 t155 -133t55.5 -201q0 -18 -4 -59l-5 -33q-2 -14 -11 -22.5t-21 -8.5h-310q-12 0 -19 8.5t-5 22.5l2 29q1 7 1 15q0 37 -26 65q-30 34 -90 34q-47 0 -76.5 -27.5t-29.5 -72.5q0 -41 42 -75t154 -93l60 -37q90 -53 144 -95t91 -105.5t37 -151.5q0 -16 -4 -53 q-16 -129 -89 -225.5t-188.5 -148.5t-257.5 -52q-200 0 -318 99t-118 265z" />
<glyph unicode="T" horiz-adv-x="1087" d="M135 1135l33 268q2 14 11 22.5t24 8.5h954q14 0 21.5 -8.5t5.5 -22.5l-33 -268q-2 -14 -11.5 -22.5t-23.5 -8.5h-280q-10 0 -15 -12l-131 -1061q-2 -14 -10 -22.5t-23 -8.5h-313q-14 0 -21.5 8t-5.5 23l132 1061q0 12 -11 12h-276q-14 0 -21.5 8t-5.5 23z" />
<glyph unicode="U" horiz-adv-x="1091" d="M72 391q0 23 4 72l117 940q2 14 10 22.5t22 8.5h314q14 0 21 -8.5t5 -22.5l-116 -959q-2 -8 -3 -24q0 -49 27 -78t72 -29q51 0 87 37t42 94l119 959q2 14 10 22.5t22 8.5h314q14 0 21 -8.5t5 -22.5l-114 -940q-18 -143 -92 -252t-192 -168t-263 -59q-199 0 -315.5 110.5 t-116.5 296.5z" />
<glyph unicode="V" horiz-adv-x="1159" d="M170 1399v8q0 12 8 19.5t23 7.5h340q27 0 30 -29l43 -795q2 -8 7.5 -8t7.5 8l235 795q10 29 35 29h332q16 0 22.5 -9.5t-0.5 -25.5l-510 -1372q-10 -27 -34 -27h-344q-23 0 -27 27z" />
<glyph unicode="W" horiz-adv-x="1566" d="M129 1399q0 35 31 35h332q29 0 30 -27l35 -649q2 -8 7 -8t7 8l195 647q10 29 35 29h246q29 0 30 -27l41 -649q0 -8 6 -8t9 8l184 647q6 29 35 29h327q33 0 23 -35l-473 -1372q-10 -27 -35 -27h-297q-27 0 -27 29l-30 680q0 8 -5.5 8t-9.5 -8l-180 -680q-6 -29 -35 -29 h-286q-25 0 -29 27z" />
<glyph unicode="X" horiz-adv-x="1155" d="M4 18q0 10 6 19l396 672q2 6 2 16l-230 672q-2 4 -2 12q0 10 8.5 17.5t20.5 7.5h332q12 0 21 -6.5t11 -18.5l93 -334q4 -8 9 -8t7 8l178 334q12 25 39 25h326q12 0 19 -5.5t7 -13.5t-6 -18l-393 -672q-4 -10 -2 -16l227 -672q2 -4 2 -12q0 -10 -8 -17.5t-23 -7.5h-325 q-25 0 -31 23l-98 335q-2 8 -7 8.5t-10 -8.5l-176 -333q-12 -25 -39 -25h-327q-13 0 -20 5t-7 13z" />
<glyph unicode="Y" horiz-adv-x="1153" d="M174 1409q0 25 31 25h334q12 0 20 -7.5t10 -19.5l78 -446q2 -8 7 -8.5t8 8.5l184 446q4 12 15 19.5t22 7.5h338q25 0 24 -19l-4 -16l-455 -887l-4 -16l-57 -461q-2 -14 -10 -22.5t-23 -8.5h-313q-14 0 -21.5 8t-5.5 23l56 461q4 8 0 16l-232 887q-2 4 -2 10z" />
<glyph unicode="Z" horiz-adv-x="978" d="M0 31l35 288q2 16 16 37l570 734q4 6 3 10t-10 4h-452q-14 0 -21.5 8t-5.5 23l33 268q2 14 11 22.5t24 8.5h844q14 0 21 -8.5t5 -22.5l-37 -287q-2 -20 -16 -37l-571 -735q-6 -6 -4.5 -10t10.5 -4h456q12 0 19.5 -8.5t5.5 -22.5l-33 -268q-2 -14 -10 -22.5t-23 -8.5h-843 q-15 0 -22 8t-5 23z" />
<glyph unicode="[" horiz-adv-x="808" d="M-12 -305l239 1950q2 14 11.5 22t23.5 8h494q14 0 21 -8t5 -22l-32 -269q-2 -14 -11.5 -22t-23.5 -8h-140q-4 0 -8 -3.5t-4 -9.5l-164 -1327q0 -12 11 -12h139q14 0 21.5 -8.5t4.5 -22.5l-32 -268q-2 -14 -11.5 -22.5t-21.5 -8.5h-496q-14 0 -21 8.5t-5 22.5z" />
<glyph unicode="\" horiz-adv-x="956" d="M164 1409q0 25 31 25h309q27 0 33 -25l350 -1374v-8q0 -27 -29 -27h-309q-27 0 -33 25l-350 1374q-2 4 -2 10z" />
<glyph unicode="]" horiz-adv-x="808" d="M111 -305l34 268q2 14 10.5 22.5t22.5 8.5h139q12 0 13 12l164 1327q0 12 -11 13h-139q-14 0 -21.5 8t-5.5 22l33 269q2 14 11.5 22t23.5 8h494q14 0 21 -8t5 -22l-239 -1950q-2 -14 -11.5 -22.5t-21.5 -8.5h-496q-14 0 -21 8.5t-5 22.5z" />
<glyph unicode="^" horiz-adv-x="921" d="M86 614l4 17l340 778q10 25 37 25h256q25 0 31 -25l153 -778v-8q0 -27 -26 -27h-254q-25 0 -29 27l-45 383q0 10 -6 10t-10 -10l-142 -383q-6 -27 -35 -27h-251q-11 0 -17 5t-6 13z" />
<glyph unicode="_" horiz-adv-x="993" d="M-16 31l28 225q2 14 10.5 22.5t22.5 8.5h895q12 0 19.5 -8.5t5.5 -22.5l-27 -225q-2 -14 -11 -22.5t-24 -8.5h-893q-14 0 -21 8t-5 23z" />
<glyph unicode="`" horiz-adv-x="536" d="M172 1397q0 8 8 14t21 6h290q27 0 35 -20l80 -191q2 -4 2 -12q0 -25 -29 -25h-243q-25 0 -35 19l-123 192q-6 10 -6 17z" />
<glyph unicode="a" horiz-adv-x="1017" d="M68 383q0 72 12 172q8 63 16 103t25 92q47 158 136 244.5t216 86.5q61 0 107.5 -13t81.5 -52q4 -6 8 -5t6 9l2 14q2 15 10 23t23 8h313q14 0 21.5 -8t5.5 -23l-123 -1003q-2 -14 -11.5 -22.5t-21.5 -8.5h-315q-12 0 -19.5 8t-5.5 23l2 16q0 8 -4 10t-10 -4 q-79 -69 -201 -69h-4q-125 0 -190.5 93t-77.5 257q-2 16 -2 49zM440 406q0 -41 17.5 -67t48.5 -26t55.5 27t34.5 72q8 33 10 49l10 76q2 18 6.5 58t4.5 71q0 39 -18.5 62.5t-49.5 23.5q-29 0 -52.5 -25t-35.5 -68q-10 -29 -14 -67.5t-6 -56.5q-2 -16 -6.5 -56.5t-4.5 -72.5z " />
<glyph unicode="b" horiz-adv-x="1021" d="M23 31l167 1372q2 14 10.5 22.5t22.5 8.5h314q14 0 21 -8.5t5 -22.5l-47 -383q0 -16 14 -4q43 39 93.5 52t111.5 13q127 0 193.5 -88t77.5 -243q2 -23 2 -64q0 -59 -11 -131q-14 -133 -43 -221q-51 -164 -140 -257t-214 -93q-127 0 -188 69q-4 6 -8.5 5t-6.5 -7l-2 -20 q-2 -14 -11 -22.5t-22 -8.5h-315q-12 0 -19.5 8t-4.5 23zM446 412q0 -45 17.5 -72t50.5 -27q31 0 54.5 28t33.5 71q8 31 13.5 69.5t7.5 53.5q2 16 6 48.5t4 55.5q0 51 -17.5 82t-48.5 31q-33 0 -56.5 -26t-33.5 -67q-6 -25 -20 -124l-8 -74q-2 -16 -3 -49z" />
<glyph unicode="c" horiz-adv-x="997" d="M57 393q0 86 9 144q12 102 45 206q47 156 178 247t313 91q176 0 284.5 -88t119.5 -239q2 -23 2 -68q-2 -29 -31 -33l-315 -30h-5q-12 0 -19 7t-5 21q0 25 -2 35q-10 66 -72 66q-61 0 -88 -72q-14 -41 -31 -145q-8 -82 -8 -109q0 -16 4 -45q10 -68 70 -68q66 0 86 72l8 29 q10 31 37 28l307 -28q27 -2 25 -33l-13 -47q-45 -168 -175 -259t-314 -91t-290.5 90t-117.5 254q-2 20 -2 65z" />
<glyph unicode="d" horiz-adv-x="1021" d="M68 383q0 72 12 172q8 63 16 103t25 92q47 158 136 244.5t216 86.5q61 0 107.5 -13t81.5 -52q4 -6 8 -5t6 9l47 383q2 14 10 22.5t23 8.5h313q14 0 21.5 -8.5t5.5 -22.5l-168 -1372q-2 -14 -11.5 -22.5t-21.5 -8.5h-315q-12 0 -19.5 8t-5.5 23l2 16q0 8 -4 10t-10 -4 q-79 -69 -201 -69h-4q-125 0 -190.5 93t-77.5 257q-2 16 -2 49zM440 406q0 -41 17.5 -67t48.5 -26t55.5 27t34.5 72q8 33 10 49l10 76q2 18 6.5 58t4.5 71q0 39 -18.5 62.5t-49.5 23.5q-29 0 -52.5 -25t-35.5 -68q-10 -29 -14 -67.5t-6 -56.5q-2 -16 -6.5 -56.5t-4.5 -72.5z " />
<glyph unicode="e" horiz-adv-x="1005" d="M63 412q0 76 11 151q8 59 18 111q47 195 175 301t335 106q209 0 303 -110.5t94 -323.5q0 -74 -10 -182q-2 -31 -35 -31h-510q-12 0 -12 -12q-2 -10 -1 -21.5t1 -15.5q4 -35 29.5 -54.5t66.5 -19.5q72 1 111 58q10 14 19.5 18t21.5 2l252 -45q16 -4 21 -13t-3 -24 q-61 -152 -185 -237.5t-286 -85.5q-168 0 -275.5 89t-131.5 232q-8 43 -9 107zM461 643q-6 -12 8 -12h149q10 0 11 8q0 27 -2 39q-8 74 -72 74q-33 0 -52.5 -17.5t-31.5 -56.5q-8 -27 -10 -35z" />
<glyph unicode="f" horiz-adv-x="712" d="M92 809l27 225q2 14 11 22.5t24 8.5h67q4 0 9.5 3t5.5 9l8 62q20 164 115.5 230.5t285.5 66.5q53 0 82 -2h33q14 0 21 -8.5t5 -22.5l-24 -195q-2 -14 -10.5 -22t-22.5 -8h-35q-72 -8 -82 -74l-4 -27q0 -12 10 -12h125q13 0 20 -8t5 -23l-27 -225q-2 -14 -11 -22.5 t-23 -8.5h-123q-12 0 -13 -12l-90 -735q-2 -14 -11 -22.5t-24 -8.5h-313q-14 0 -21.5 8t-5.5 23l91 735q2 4 -1 8t-10 4h-69q-12 0 -19.5 8.5t-5.5 22.5z" />
<glyph unicode="g" horiz-adv-x="1024" d="M53 373q0 43 13 166q20 160 45 215l4 14q43 150 137 231.5t231 81.5q121 0 179 -88q4 -8 9 -6t5 10l6 37q2 15 10 23t23 8h313q14 0 21.5 -8t5.5 -23l-115 -930q-33 -266 -194.5 -393t-428.5 -127q-68 0 -155 10q-25 4 -23 33l41 275q6 33 37 26q51 -8 107 -8 q96 0 154.5 36t80.5 112v2q0 8 -6 11t-14 -5q-74 -66 -183 -66q-131 0 -210.5 75t-88.5 232q-2 6 -2 15q-2 10 -2 41zM434 440q0 -33 2 -47q4 -33 22.5 -51t47.5 -18h2q59 0 84 67q18 57 29 148q8 77 8 125v18q-12 70 -72 70q-27 0 -49.5 -18.5t-32.5 -49.5 q-25 -70 -35 -147q-6 -49 -6 -97z" />
<glyph unicode="h" d="M20 31l168 1372q2 14 11.5 22.5t21.5 8.5h316q12 0 19 -8.5t5 -22.5l-51 -420v-2q0 -6 5 -5t11 7q82 98 209 98q131 0 203 -78.5t72 -220.5q0 -49 -4 -75l-84 -676q-2 -14 -11.5 -22.5t-21.5 -8.5h-316q-12 0 -19 8t-5 23l76 620l2 21q0 37 -18.5 58.5t-47.5 21.5 q-37 0 -61.5 -27t-30.5 -74l-76 -620q-2 -14 -11 -22.5t-22 -8.5h-315q-12 0 -19.5 8t-5.5 23z" />
<glyph unicode="i" horiz-adv-x="509" d="M33 31l125 1003q2 14 10 22.5t22 8.5h314q14 0 21 -8t5 -23l-122 -1003q-2 -14 -11.5 -22.5t-23.5 -8.5h-314q-14 0 -21 8t-5 23zM166 1288q0 109 68.5 179.5t171.5 70.5q86 0 136 -49t50 -131q0 -111 -67.5 -180.5t-172.5 -69.5q-84 0 -135 49t-51 131z" />
<glyph unicode="j" horiz-adv-x="493" d="M-236 -381l33 260q2 31 35 31q16 -1 31 -1q81 0 117 29q43 33 53 119l121 977q2 14 10 22.5t22 8.5h314q14 0 21 -8t5 -23l-118 -975q-25 -188 -75 -287.5t-174 -144.5q-109 -40 -312 -40q-27 0 -56 1q-31 0 -27 31zM162 1290q0 63 34.5 119.5t90 90.5t114.5 34 q76 0 131.5 -55.5t55.5 -135.5q0 -63 -33 -118.5t-88 -88t-119 -32.5q-86 0 -136 52t-50 134z" />
<glyph unicode="k" horiz-adv-x="1026" d="M20 31l168 1372q2 14 11.5 22.5t21.5 8.5h316q12 0 19 -8.5t5 -22.5l-69 -578q-2 -8 3 -10t9 6l158 223q12 20 36 21h338q25 0 25 -16q0 -10 -8 -21l-283 -364q-4 -4 -4 -17l192 -610q2 -4 3 -12q0 -25 -29 -25h-326q-25 0 -31 25l-86 342q-2 8 -7 8t-9 -8l-43 -72 q-6 -8 -6 -14l-31 -250q-2 -14 -11 -22.5t-22 -8.5h-315q-12 0 -19.5 8t-5.5 23z" />
<glyph unicode="l" horiz-adv-x="485" d="M20 31l168 1372q2 14 11.5 22.5t21.5 8.5h316q12 0 19 -8.5t5 -22.5l-168 -1372q-2 -14 -11 -22.5t-22 -8.5h-315q-12 0 -19.5 8t-5.5 23z" />
<glyph unicode="m" horiz-adv-x="1529" d="M20 31l123 1003q2 14 10.5 22.5t22.5 8.5h313q14 0 21.5 -8t5.5 -23l-6 -47q0 -8 4 -10t10 6q88 98 221 98q90 0 150.5 -37.5t89.5 -109.5q0 -6 4 -6q8 0 17 12q51 76 119.5 108.5t140.5 32.5q133 0 200.5 -74.5t67.5 -215.5q0 -41 -6 -84l-84 -676q-2 -14 -11.5 -22.5 t-21.5 -8.5h-315q-12 0 -19.5 8t-5.5 23l76 620q2 8 2 23q0 37 -17.5 57.5t-46.5 20.5q-35 0 -58 -28t-30 -73l-75 -620q-2 -14 -11.5 -22.5t-21.5 -8.5h-316q-12 0 -19 8t-5 23l76 620l2 21q0 37 -18.5 58.5t-49.5 21.5q-27 0 -50.5 -18.5t-33.5 -49.5l-4 -16l-78 -637 q-2 -14 -11 -22.5t-22 -8.5h-315q-12 0 -19.5 8t-5.5 23z" />
<glyph unicode="n" d="M20 31l123 1003q2 14 10.5 22.5t22.5 8.5h313q14 0 21.5 -8t5.5 -23l-6 -51v-2q0 -6 5 -5t11 7q82 98 209 98q131 0 203 -78.5t72 -220.5q0 -49 -4 -75l-84 -676q-2 -14 -11.5 -22.5t-21.5 -8.5h-316q-12 0 -19 8t-5 23l76 620l2 21q0 37 -18.5 58.5t-47.5 21.5 q-37 0 -61.5 -27t-30.5 -74l-76 -620q-2 -14 -11 -22.5t-22 -8.5h-315q-12 0 -19.5 8t-5.5 23z" />
<glyph unicode="o" horiz-adv-x="1013" d="M53 360q0 68 13 175q10 96 34 182q45 168 177.5 266t324.5 98q190 0 297 -98t111 -264v-18q0 -63 -11 -164q-10 -86 -28 -170q-43 -180 -175 -281.5t-331 -101.5q-195 0 -303.5 100t-108.5 276zM430 412q0 -45 19.5 -72t56.5 -27q35 0 61.5 27t36.5 72q8 31 13.5 69.5 t7.5 53.5q8 88 10 124q-2 43 -21.5 68t-54.5 25q-37 0 -62.5 -25t-35.5 -68q-6 -25 -21 -124q-2 -16 -6 -54.5t-4 -68.5z" />
<glyph unicode="p" horiz-adv-x="1024" d="M-23 -338l170 1372q2 14 10.5 22.5t22.5 8.5h314q14 0 21 -8t5 -23l-2 -16q-2 -8 2 -10t12 4q77 69 201 69h4q135 0 203 -108.5t68 -290.5q-1 -70 -13 -172q-10 -70 -18 -109t-23 -86q-47 -156 -136 -243.5t-216 -87.5q-61 0 -107 13t-81 52q-6 6 -10.5 5t-4.5 -9 l-47 -383q-2 -14 -11 -22.5t-24 -8.5h-313q-14 0 -21.5 8.5t-5.5 22.5zM446 406q0 -43 18.5 -68t51.5 -25q29 0 52.5 24.5t35.5 68.5q10 34 14.5 74t4.5 50q10 61 12 123q0 43 -17.5 71t-48.5 28t-56.5 -28t-35.5 -71q-8 -33 -10 -49l-8 -74q-10 -66 -13 -124z" />
<glyph unicode="q" horiz-adv-x="1024" d="M63 371q0 37 11 139q18 135 43 221q51 164 141 257t215 93t189 -69q4 -6 8 -4t6 10l2 16q2 15 10 23t23 8h313q14 0 21.5 -8t5.5 -23l-168 -1372q-2 -14 -11.5 -22.5t-23.5 -8.5h-313q-14 0 -21.5 8.5t-5.5 22.5l47 383q2 8 -2 9t-10 -5q-45 -39 -95.5 -52t-109.5 -13 q-137 0 -206 103t-69 284zM438 418q0 -47 17.5 -76t50.5 -29t56.5 26t33.5 67q12 63 18 122l11 76q2 16 2 49q-2 45 -19.5 72t-48.5 27t-55.5 -28t-34.5 -71q-12 -61 -18 -123q-12 -78 -13 -112z" />
<glyph unicode="r" horiz-adv-x="737" d="M20 33l123 1001q2 14 10.5 22.5t22.5 8.5h313q14 0 21.5 -8t5.5 -23l-6 -45q0 -18 12 -6q76 96 185 96h5q56 0 87 -22q12 -8 12 -23q0 -10 -2 -16l-88 -320q-4 -16 -13.5 -20t-23.5 0q-20 6 -55 6q-37 0 -64 -8q-41 -14 -71.5 -46t-36.5 -77l-64 -520q-2 -14 -11 -22.5 t-22 -8.5h-315q-12 0 -19.5 8t-5.5 23z" />
<glyph unicode="s" horiz-adv-x="950" d="M31 276q0 27 2 41l2 13q2 14 11 22t22 8h299q29 0 28 -12l-2 -12q-4 -33 20.5 -51.5t61.5 -18.5q33 0 53.5 13.5t20.5 35.5q0 27 -28.5 39.5t-96.5 28.5q-100 23 -152 45q-178 76 -178 254q0 29 2 45q20 164 148.5 259t318.5 95q180 0 284.5 -87t104.5 -234q0 -33 -2 -49 q-2 -10 -11 -16.5t-21 -6.5h-289q-29 0 -29 17l2 16q4 31 -14.5 47t-52.5 16q-33 0 -56.5 -18t-23.5 -43q0 -29 34.5 -45t104.5 -31q14 -4 45 -11t55 -15q109 -37 171.5 -98.5t62.5 -166.5q0 -25 -2 -39q-20 -158 -151.5 -245.5t-330.5 -87.5q-194 0 -303.5 78.5 t-109.5 213.5z" />
<glyph unicode="t" horiz-adv-x="694" d="M80 809l26 225q2 14 11.5 22.5t23.5 8.5h78q4 0 9 3t5 9l29 232q2 14 11.5 22t21.5 8h299q14 0 21.5 -8t5.5 -22l-29 -232q-2 -12 10 -12h123q14 0 21.5 -8t5.5 -23l-29 -225q-2 -14 -11.5 -22.5t-21.5 -8.5h-123q-14 0 -14 -12l-43 -350q-1 -9 -1 -17q0 -65 58 -65h37 q14 0 21.5 -8.5t5.5 -22.5l-33 -266q-4 -31 -33 -33l-123 -2q-158 0 -234.5 44t-76.5 163q0 31 2 49l62 508q2 4 -1.5 8t-9.5 4h-78q-14 0 -21 8.5t-5 22.5z" />
<glyph unicode="u" d="M49 262q0 45 4 70l86 702q2 14 10.5 22.5t22.5 8.5h313q14 0 21.5 -8t5.5 -23l-76 -618l-2 -23q0 -37 18.5 -58.5t47.5 -21.5q37 0 61.5 28t30.5 75l76 618q2 15 11 23t21 8h314q14 0 21 -8t5 -23l-122 -1003q-2 -14 -11.5 -22.5t-21.5 -8.5h-316q-12 0 -19 8t-5 23l4 39 q2 8 -2 9t-12 -5q-76 -90 -220 -90q-119 0 -192.5 70.5t-73.5 207.5z" />
<glyph unicode="v" horiz-adv-x="1017" d="M117 1030v8q0 27 28 27h342q31 0 29 -29l16 -477q0 -8 4.5 -8t6.5 8l133 477q6 29 35 29l344 -4q14 0 19 -9.5t-1 -25.5l-389 -999q-10 -27 -37 -27h-354q-27 0 -31 27z" />
<glyph unicode="w" horiz-adv-x="1468" d="M115 1030v8q0 12 8 19.5t22 7.5h312q29 0 28 -29l13 -473q2 -8 7 -8t7 8l135 473q6 29 37 29h272q25 0 29 -29l25 -475q2 -8 7 -8t7 8l137 475q10 29 37 29l307 -4q16 0 22.5 -9.5t-1.5 -25.5l-375 -999q-10 -27 -35 -27h-313q-29 0 -31 27l-31 381q0 8 -5 8t-9 -8 l-113 -379q-10 -29 -34 -29h-308q-24 0 -28 27z" />
<glyph unicode="x" horiz-adv-x="1052" d="M-6 16q0 8 6 21l324 487q2 6 2 17l-203 487q-4 12 -4 14q0 10 8 16.5t20 6.5h338q23 0 33 -23l62 -172q2 -8 7 -8t9 8l106 172q16 23 37 23h348q25 0 25 -18q0 -8 -6 -19l-324 -487q-4 -8 -2 -17l203 -487q4 -12 4 -14q0 -10 -8 -16.5t-21 -6.5h-337q-20 0 -31 23 l-66 178q-2 6 -6 6t-8 -6l-107 -178q-10 -23 -36 -23h-351q-22 0 -22 16z" />
<glyph unicode="y" horiz-adv-x="987" d="M-20 -377l30 254q4 31 15 31h10q119 0 172 16.5t57 67.5q2 6 2 16l-153 1022v8q0 27 28 27h336q29 0 27 -29l14 -475q0 -8 4 -8t8 10l125 473q6 29 35 29l338 -2q33 0 21 -35l-414 -1032q-66 -158 -131.5 -240t-181 -123t-320.5 -41h-12q-14 0 -10 31z" />
<glyph unicode="z" horiz-adv-x="845" d="M-10 31l37 295q4 27 18 39l344 337q4 6 3 10.5t-7 4.5h-266q-14 0 -21.5 8t-5.5 23l35 286q2 14 11 22.5t22 8.5h702q14 0 21.5 -8t5.5 -23l-37 -295q-2 -20 -21 -39l-362 -338q-4 -6 -3 -10t7 -4h318q12 0 19 -8t5 -23l-35 -286q-2 -14 -11 -22.5t-21 -8.5h-732 q-14 0 -21 8t-5 23z" />
<glyph unicode="{" horiz-adv-x="813" d="M94 555l29 238q4 29 33 32q127 14 147 181l49 403q16 125 100.5 195.5t219.5 70.5h211q14 0 21 -8t5 -22l-32 -269q-2 -14 -11.5 -22t-23.5 -8h-29q-37 0 -70.5 -34t-40.5 -81l-34 -285q-25 -201 -154 -264q-14 -8 -2 -14q94 -51 94 -199q0 -20 -4 -70l-37 -290 q-6 -47 19.5 -81t62.5 -34h29q14 0 21.5 -8.5t4.5 -22.5l-32 -268q-2 -14 -11.5 -22.5t-21.5 -8.5h-211q-123 0 -190.5 59.5t-67.5 163.5q0 29 2 43l51 410q2 14 2 43q0 127 -104 139q-29 4 -25 33z" />
<glyph unicode="|" horiz-adv-x="438" d="M-23 -133l205 1659q2 14 10.5 22t22.5 8h313q14 0 21.5 -8t5.5 -22l-205 -1659q-2 -14 -10 -22.5t-23 -8.5h-313q-14 0 -21.5 8.5t-5.5 22.5z" />
<glyph unicode="}" horiz-adv-x="813" d="M-12 -305l32 268q6 31 35 31h29q39 0 71.5 33.5t39.5 81.5l34 290q25 203 154 269q16 6 4 14q-94 51 -94 197q0 18 4 67l35 285q6 47 -18.5 81t-63.5 34h-29q-14 0 -21 8t-5 22l32 269q2 14 11.5 22t23.5 8h209q123 0 190.5 -59.5t67.5 -163.5q0 -29 -2 -43l-49 -403 q-4 -33 -4 -48q0 -121 104 -133q31 -2 27 -32l-29 -238q-6 -31 -35 -33q-125 -14 -145 -182l-51 -410q-14 -125 -99.5 -195.5t-220.5 -70.5h-211q-14 0 -21 8.5t-5 22.5z" />
<glyph unicode="~" horiz-adv-x="1058" d="M74 549q0 6 4 18q49 106 146.5 177t199.5 71q45 0 81 -13.5t73 -37.5q14 -8 41.5 -26.5t49 -28t42.5 -9.5q57 0 106 64q12 16 27 16q8 0 16 -6l176 -123q14 -10 15 -24q0 -6 -7 -17q-57 -102 -152 -170.5t-194 -68.5q-73 0 -143 47q-8 6 -37 25.5t-56.5 30.5t-51.5 11 q-66 0 -123 -65q-12 -14 -25 -14q-6 0 -16 6l-160 114q-12 10 -12 23z" />
<glyph unicode="&#xa1;" horiz-adv-x="659" d="M111 47l143 864q2 15 11 23t24 8h233q14 0 22.5 -8t6.5 -23l-70 -864q-4 -31 -32 -31h-314q-29 0 -24 31zM223 1210q0 63 33 118.5t89 88.5t122 33q84 0 136 -52t52 -132q0 -63 -34.5 -119.5t-91 -90.5t-115.5 -34q-76 0 -133.5 55.5t-57.5 132.5z" />
<glyph unicode="&#xa2;" horiz-adv-x="997" d="M80 578q0 86 8 143q16 119 45 207q37 117 121 199.5t205 117.5q10 4 12 12l8 142q0 31 33 31h252q31 0 24 -31l-26 -139q0 -8 10 -13q113 -31 180.5 -111.5t75.5 -197.5q2 -23 2 -68q-2 -29 -31 -32l-315 -31h-4q-12 0 -19.5 7t-5.5 22q0 25 -2 34q-10 66 -71 66t-88 -72 q-14 -41 -31 -145q-6 -61 -6 -109q0 -31 2 -45q10 -68 69 -67q66 0 86 71l9 29q10 31 36 29l308 -29q27 -2 24 -33l-12 -47q-35 -131 -123 -216t-215 -118q-8 -2 -12 -12l-8 -137q0 -31 -33 -31h-252q-31 0 -25 31l27 141q0 8 -10 12q-113 33 -175.5 117t-70.5 207 q-2 20 -2 66z" />
<glyph unicode="&#xa3;" horiz-adv-x="1136" d="M98 31l35 276q4 23 23 37q37 33 52 66.5t23 91.5l5 45q4 12 -11 12h-100q-14 0 -21.5 8t-5.5 23l31 248q2 14 10 22t23 8h102q12 0 12 13l13 92q27 227 163 352t343 125q172 0 271 -96.5t122 -268.5v-6q0 -25 -29 -28l-303 -43h-6q-20 0 -25 24q-14 88 -69 88 q-76 0 -92 -133l-13 -106q-2 -12 11 -13h290q14 0 21.5 -8t5.5 -22l-31 -248q-2 -14 -11 -22.5t-22 -8.5h-292q-12 0 -13 -12l-6 -45q-12 -97 -67 -158q-4 -6 -3 -10t9 -4h524q14 0 21.5 -8.5t5.5 -22.5l-33 -268q-2 -14 -11.5 -22.5t-23.5 -8.5h-901q-14 0 -21.5 8t-5.5 23 z" />
<glyph unicode="&#xa4;" horiz-adv-x="1206" d="M33 254q0 12 12 25l135 122q8 8 6 19q-25 68 -24 143q0 141 69 256q6 10 -2 19l-112 131q-6 10 -6 18q0 12 14 25l213 174q14 10 22 10q10 0 21 -10l100 -119q4 -8 17 -4q94 41 196 41q104 0 191 -45q12 -2 18 4l137 123q10 10 21 10q10 0 20 -10l172 -174q8 -8 9 -19 q0 -12 -13 -24l-153 -142q-10 -6 -6 -16q16 -61 16 -121q0 -20 -4 -65q-13 -105 -64 -195q-6 -10 2 -18l113 -133q6 -8 6 -19q0 -12 -14 -24l-213 -175q-14 -10 -23 -10q-10 0 -20 10l-105 121q-4 6 -16 4q-92 -41 -193 -41q-96 0 -176 37q-12 2 -18 -4l-127 -117 q-14 -10 -23 -10q-8 0 -18 10l-172 175q-8 8 -8 18zM481 606q0 -57 39 -97t96 -40q59 0 110.5 46t59.5 110q7 63 -33 109t-100 46q-66 0 -119 -52t-53 -122z" />
<glyph unicode="&#xa5;" horiz-adv-x="1212" d="M154 225l16 146q2 14 11 22t24 8h215q4 0 9 3.5t5 9.5l6 47q0 12 -10 12h-217q-14 0 -21.5 8t-5.5 23l19 145q2 14 11 22.5t22 8.5h147q12 0 10 14l-184 705v8q0 27 29 27h335q12 0 20.5 -7.5t10.5 -19.5l76 -446q2 -8 7 -8.5t9 8.5l185 446q10 27 37 27h337 q23 -1 23 -19l-4 -16l-361 -705q-6 -14 7 -14h143q14 0 21.5 -8t5.5 -23l-19 -145q-2 -14 -11 -22.5t-22 -8.5h-213q-10 0 -14 -12l-6 -47q0 -12 10 -13h213q14 0 21.5 -8t5.5 -22l-19 -146q-2 -14 -10 -22t-22 -8h-213q-10 0 -15 -13l-16 -147q-2 -14 -11.5 -22.5 t-23.5 -8.5h-313q-14 0 -21.5 8t-5.5 23l19 147q4 12 -11 13h-217q-12 0 -19 8t-5 22z" />
<glyph unicode="&#xa6;" horiz-adv-x="438" d="M-23 -133l84 686q2 14 11.5 22.5t23.5 8.5h314q14 0 21 -8.5t5 -22.5l-86 -686q-2 -14 -10 -22.5t-23 -8.5h-313q-14 0 -21.5 8.5t-5.5 22.5zM96 840l86 686q2 14 10.5 22t22.5 8h313q14 0 21.5 -8t5.5 -22l-84 -686q-2 -14 -11 -22.5t-24 -8.5h-313q-14 0 -21.5 8 t-5.5 23z" />
<glyph unicode="&#xa7;" horiz-adv-x="987" d="M4 -111q0 27 2 41l4 64q6 31 33 31h313q31 0 27 -23l-2 -25q-4 -31 14.5 -50t53.5 -19q31 0 54 19.5t23 45.5q0 33 -45 65t-164 93q-92 49 -145 97t-80 110q-25 55 -24 115q0 137 90 241q41 47 104 84q12 12 2 19q-61 53 -94 111.5t-33 133.5q0 113 64.5 206t178.5 147.5 t253 54.5q180 0 290.5 -88t110.5 -236q0 -16 -4 -49l-4 -37q-2 -14 -11 -22t-24 -8h-313q-14 0 -21.5 5t-5.5 13l2 19q4 33 -14 53t-51 20q-35 0 -56.5 -19.5t-21.5 -51.5q0 -41 35 -66t127 -70q94 -45 154.5 -82.5t97.5 -85.5q51 -63 51 -157q0 -61 -18.5 -118.5 t-53.5 -104.5q-57 -84 -127 -117q-14 -6 -4 -17q66 -57 96.5 -112.5t30.5 -126.5q0 -127 -66.5 -220.5t-181 -142.5t-254.5 -49q-184 0 -288.5 84t-104.5 225zM446 508q0 -25 13 -41q16 -23 55 -23q41 0 61 25q16 14 21 47v14q0 14 -4 31l-8 10q-20 20 -52 21q-41 0 -63 -25 q-16 -16 -23 -49v-10z" />
<glyph unicode="&#xa8;" horiz-adv-x="780" d="M139 1280q0 90 57.5 147.5t139.5 57.5q70 0 110 -41t40 -111q0 -90 -55.5 -147.5t-137.5 -57.5q-70 0 -112 41t-42 111zM539 1278q0 92 55 149.5t139 57.5q70 0 111 -41t41 -111q0 -90 -55.5 -147.5t-139.5 -57.5q-69 0 -110 41t-41 109z" />
<glyph unicode="&#xa9;" horiz-adv-x="1533" d="M94 621q0 53 6 108q25 203 137.5 368t287.5 259t378 94q188 0 332.5 -80t224.5 -221t80 -320q0 -47 -6 -100q-27 -215 -140.5 -384t-289.5 -265t-381 -96q-186 0 -328.5 80.5t-221.5 225t-79 331.5zM297 645q0 -135 56.5 -238.5t158.5 -161t236 -57.5q147 0 274 69 t209 192.5t100 279.5q4 49 4 72q0 129 -57 229t-161.5 157.5t-237.5 57.5q-145 0 -271.5 -67.5t-207.5 -185.5t-97 -263q-6 -43 -6 -84zM563 563q0 23 2 35l31 244q14 106 86 168.5t180 62.5q98 0 156.5 -50t58.5 -138q0 -23 -2 -35q0 -6 -9 -11t-22 -5l-131 -7h-6 q-10 0 -16 4.5t-4 8.5v14q4 25 -8.5 40t-36.5 15q-20 0 -35.5 -15t-20.5 -40l-32 -270q-4 -25 8 -39.5t35 -14.5t39 14.5t18 39.5q2 27 33 26l129 -4q29 0 28 -8v-8q-14 -102 -86.5 -163.5t-181.5 -61.5q-98 0 -155.5 54t-57.5 144z" />
<glyph unicode="&#xaa;" horiz-adv-x="632" d="M33 514l12 92q2 15 10 23t23 8h536q14 0 21.5 -8t5.5 -23l-12 -92q-2 -14 -10.5 -22.5t-22.5 -8.5h-537q-14 0 -21 8.5t-5 22.5zM88 903q0 25 2 39q29 223 311 223h70q12 0 12 13l2 12q4 33 -13 52.5t-48 19.5q-20 0 -36.5 -8.5t-27.5 -22.5q-8 -14 -15 -20.5t-19 -4.5 l-158 11q-33 4 -25 32q20 86 104.5 143.5t194.5 57.5q115 0 190 -57.5t75 -147.5q0 -16 -2 -24l-56 -451q-2 -14 -11 -22.5t-24 -8.5h-153q-14 0 -21.5 5.5t-7.5 13.5q2 6 -2 7t-10 -3q-47 -33 -123 -33q-92 0 -150.5 42t-58.5 132zM307 940q0 -37 53 -37q41 0 68 22.5 t31 49.5l2 10q0 12 -10 12h-54q-90 0 -90 -57z" />
<glyph unicode="&#xab;" horiz-adv-x="931" d="M100 571q0 10 6 25l177 313q12 23 36 23h242q12 0 19.5 -5t7.5 -14q0 -8 -6 -18l-185 -311q-4 -10 -2 -17l107 -311q2 -4 2 -12q0 -10 -8.5 -17.5t-22.5 -7.5h-242q-25 0 -30 23l-99 313q-2 6 -2 16zM449 569q0 12 8 27l176 313q10 23 35 23h243q25 0 25 -19q0 -8 -6 -18 l-182 -311q-4 -8 -3 -17l107 -311q2 -4 2 -10q0 -12 -8 -19.5t-23 -7.5h-241q-25 0 -31 23l-100 313z" />
<glyph unicode="&#xac;" horiz-adv-x="905" d="M59 487l31 246q2 15 11.5 23t21.5 8h768q12 0 19.5 -8t4.5 -23l-53 -436q-2 -14 -10 -22.5t-23 -8.5h-237q-14 0 -21.5 8.5t-5.5 22.5l19 147q0 12 -11 13h-487q-14 0 -21.5 8t-5.5 22z" />
<glyph unicode="&#xad;" horiz-adv-x="757" d="M55 451l33 266q2 14 11.5 22.5t21.5 8.5h618q14 0 21.5 -8.5t5.5 -22.5l-33 -266q-2 -14 -11 -22.5t-24 -8.5h-616q-14 0 -21.5 8t-5.5 23z" />
<glyph unicode="&#xae;" horiz-adv-x="866" d="M104 971q0 23 5 67q14 117 78.5 211t166 147.5t217.5 53.5q109 0 192 -46t129 -127t46 -183q0 -18 -4 -56q-14 -125 -80 -223t-167 -153.5t-220 -55.5q-162 0 -262.5 100.5t-100.5 264.5zM244 995q0 -113 66.5 -181.5t174.5 -68.5q119 0 208 82t104 211q2 12 2 35 q0 104 -67.5 171t-176.5 67q-86 0 -157.5 -42t-112.5 -115t-41 -159zM371 872l41 324q2 14 10 22.5t22 8.5h125q51 0 81 -31t30 -80q0 -77 -55 -112q-10 -6 -9 -17l21 -110v-7q0 -29 -29 -28h-57q-29 0 -31 26l-16 101q0 10 -2 10t-6 -12l-11 -95q-2 -14 -11 -22t-23 -8h-54 q-14 0 -21 8t-5 22zM510 1077q0 -12 10 -12h12q12 0 21.5 10t11.5 23v4q0 12 -7 19t-17 7h-13q-10 0 -14 -12z" />
<glyph unicode="&#xaf;" horiz-adv-x="538" d="M106 1198l25 195q2 14 11.5 22t21.5 8h479q14 0 21.5 -8t5.5 -22l-25 -195q-2 -14 -10 -22.5t-23 -8.5h-479q-14 0 -21.5 8.5t-5.5 22.5z" />
<glyph unicode="&#xb0;" horiz-adv-x="727" d="M137 1253q0 109 54.5 201t143.5 146.5t191 54.5q131 0 217 -87t86 -220q0 -109 -54 -202t-143 -148.5t-192 -55.5q-131 0 -217 89t-86 222zM377 1284q0 -41 26.5 -67.5t65.5 -26.5q49 0 84 37t35 88q0 43 -24.5 70.5t-65.5 27.5q-47 0 -84 -38t-37 -91z" />
<glyph unicode="&#xb1;" horiz-adv-x="905" d="M59 30l31 246q2 14 11.5 22.5t21.5 8.5h768q12 0 19.5 -8t4.5 -23l-28 -246q-2 -14 -11.5 -22t-23.5 -8h-766q-14 0 -21.5 8t-5.5 22zM59 735l31 246q2 14 11.5 22.5t21.5 8.5h223q12 0 14 12l27 230q6 31 35 30h237q14 0 21.5 -8t5.5 -22l-29 -230q0 -12 11 -12h223 q14 0 21.5 -8t5.5 -23l-31 -246q-2 -14 -11.5 -22t-23.5 -8h-221q-10 0 -15 -13l-26 -229q-6 -31 -35 -31h-238q-14 0 -21 8.5t-5 22.5l28 229q0 12 -10 13h-223q-14 0 -21.5 8t-5.5 22z" />
<glyph unicode="&#xb2;" horiz-adv-x="630" d="M2 848l18 153q4 23 21 39l59 51q25 23 92.5 84.5t110.5 106.5q90 90 98 145v11q0 43 -41 43q-23 0 -38 -14.5t-19 -37.5l-2 -24q-2 -14 -11 -22.5t-24 -8.5h-176q-14 0 -21.5 8t-5.5 23l7 49q20 109 107 171t212 62q117 0 183.5 -57t66.5 -166q0 -74 -23.5 -128 t-72.5 -113q-31 -37 -142 -140l-47 -43q-6 -6 -4 -11t8 -5h207q14 0 21.5 -8.5t5.5 -22.5l-19 -145q-2 -14 -10 -22.5t-22 -8.5h-512q-15 0 -22 8t-5 23z" />
<glyph unicode="&#xb3;" horiz-adv-x="616" d="M33 1040l2 37q0 31 31 31h174q25 0 28 -29q0 -20 2 -31q14 -37 37 -36q31 0 47 36q12 29 17 72q2 16 2 41q0 29 -4 39q-10 27 -35 27q-20 0 -47 -17q-10 -8 -23 -8q-12 0 -20 10l-72 99q-6 10 -6 16q0 14 18 27l146 102q8 6 6 10t-8 4h-195q-14 0 -21.5 8.5t-5.5 22.5 l17 143q6 31 35 31h469q12 0 19 -8t5 -23l-18 -151q-4 -25 -21 -37l-100 -84q-14 -10 -2 -16q33 -18 54.5 -55t29.5 -85q4 -18 4 -61q0 -33 -2 -51q-6 -49 -18 -88q-35 -98 -111 -154.5t-184 -56.5q-106 0 -173 55t-75 148z" />
<glyph unicode="&#xb4;" horiz-adv-x="536" d="M141 1186q0 10 8 20l125 191q12 20 39 20h293q23 0 23 -16q0 -6 -11 -21l-170 -192q-16 -18 -39 -19h-243q-25 1 -25 17z" />
<glyph unicode="&#xb5;" horiz-adv-x="1013" d="M-31 -379l174 1413q2 14 10.5 22.5t22.5 8.5h316q14 0 21 -8t5 -23l-76 -618q-2 -8 -2 -23q0 -39 17.5 -59.5t48.5 -20.5q37 0 61.5 28t30.5 75l76 618q2 15 10 23t23 8h313q14 0 21.5 -8t5.5 -23l-123 -1003q-2 -14 -11.5 -22.5t-21.5 -8.5h-316q-12 0 -19 8t-5 23l4 39 q2 8 -3 9t-11 -5q-55 -66 -142 -82q-12 -4 -12 -15l-45 -356q-2 -14 -10 -22.5t-23 -8.5h-313q-14 0 -21.5 8.5t-5.5 22.5z" />
<glyph unicode="&#xb6;" horiz-adv-x="1193" d="M104 903q0 20 5 70q27 207 169 334t363 127h604q14 0 21.5 -8.5t5.5 -22.5l-219 -1782q-2 -14 -11.5 -22.5t-23.5 -8.5h-230q-14 0 -21 8.5t-5 22.5l186 1512q0 12 -10 12h-100q-12 0 -13 -12l-186 -1512q-2 -14 -11.5 -22.5t-21.5 -8.5h-231q-14 0 -21.5 8.5t-5.5 22.5 l109 883q4 10 -8 14q-160 23 -252.5 124t-92.5 261z" />
<glyph unicode="&#xb7;" horiz-adv-x="430" d="M-19 168q0 20 2 31q6 57 43 106t90.5 78t106.5 29q78 0 135 -55.5t57 -135.5q0 -63 -32.5 -117.5t-90 -87t-122.5 -32.5q-84 0 -136.5 52t-52.5 132z" />
<glyph unicode="&#xb8;" horiz-adv-x="360" d="M-70 -342l31 129q4 16 13.5 19.5t23.5 -1.5q45 -6 63 33q4 12 5 23q0 43 -62 102q-12 12 -12 21q0 16 26 16h166q23 0 37 -14q74 -80 74 -170q0 -49 -16 -84q-29 -72 -85.5 -103.5t-123.5 -31.5q-63 0 -125 24q-21 8 -15 37z" />
<glyph unicode="&#xb9;" horiz-adv-x="364" d="M61 848l76 610q0 4 -4 8t-8 4l-23 2q-14 0 -21 8.5t-5 22.5l14 117q2 20 27 35l26 14q19 8 39 8h187q12 0 19 -8t5 -23l-98 -798q-2 -14 -10.5 -22.5t-22.5 -8.5h-174q-14 0 -21.5 8t-5.5 23z" />
<glyph unicode="&#xba;" horiz-adv-x="655" d="M57 514l11 92q6 31 34 31h537q12 0 19.5 -8t5.5 -23l-11 -92q-2 -14 -11 -22.5t-21 -8.5h-537q-14 0 -21.5 8.5t-5.5 22.5zM115 999q0 53 6 91q8 76 29 141q33 102 116.5 160.5t202.5 58.5q113 0 180.5 -57.5t73.5 -161.5q4 -37 4 -62q0 -37 -4 -77q-14 -90 -35 -140 q-33 -106 -114.5 -164.5t-196.5 -58.5q-117 0 -185.5 57.5t-74.5 165.5q-2 14 -2 47zM350 1018q0 -20 2 -31q2 -51 51 -51q40 0 60 51q14 39 22 103q6 55 4 100q-2 27 -16 41t-35 14q-39 0 -61 -55q-12 -31 -21 -100q0 -10 -3 -33t-3 -39z" />
<glyph unicode="&#xbb;" horiz-adv-x="931" d="M68 238q0 10 6 18l182 311q4 8 2 17l-106 311q-2 4 -2 10q0 12 8 19.5t22 7.5h242q25 0 31 -23l100 -313l2 -14q0 -12 -8 -27l-176 -313q-10 -23 -37 -23h-242q-24 1 -24 19zM428 238q0 10 6 18l182 311q4 8 2 17l-106 311q-2 4 -2 10q0 12 8 19.5t22 7.5h242 q25 0 31 -23l100 -313l2 -14q0 -12 -8 -27l-176 -313q-10 -23 -37 -23h-242q-24 1 -24 19z" />
<glyph unicode="&#xbc;" horiz-adv-x="1583" d="M61 604l76 610q0 4 -4 8t-8 4l-23 2q-14 0 -21 8.5t-5 22.5l14 117q2 20 27 35l26 14q19 8 39 8h187q12 0 19 -8t5 -23l-98 -798q-2 -14 -10.5 -22.5t-22.5 -8.5h-174q-14 0 -21.5 8t-5.5 23zM139 16q0 8 7 21l929 1376q12 20 39 21h197q23 0 22 -17q0 -8 -6 -20 l-928 -1377q-12 -20 -36 -20h-199q-25 0 -25 16zM907 233l16 125q2 20 11 37l215 441q12 25 39 24h184q25 0 25 -18l-5 -17l-184 -389q-4 -14 8 -14h68q12 0 14 12l11 80q2 14 10 22.5t22 8.5h174q14 0 21.5 -8.5t5.5 -22.5l-10 -80q0 -12 10 -12h25q14 0 21 -8t5 -23 l-20 -158q-2 -14 -10.5 -22t-22.5 -8h-25q-12 0 -12 -13l-20 -159q-2 -14 -11.5 -22.5t-21.5 -8.5h-176q-12 0 -19.5 8t-5.5 23l19 159q4 12 -11 13h-323q-14 0 -21.5 8t-5.5 22z" />
<glyph unicode="&#xbd;" horiz-adv-x="1507" d="M61 604l76 610q0 4 -4 8t-8 4l-23 2q-14 0 -21 8.5t-5 22.5l14 117q2 20 27 35l26 14q19 8 39 8h187q12 0 19 -8t5 -23l-98 -798q-2 -14 -10.5 -22.5t-22.5 -8.5h-174q-14 0 -21.5 8t-5.5 23zM139 16q0 8 7 21l929 1376q12 20 39 21h197q23 0 22 -17q0 -8 -6 -20 l-928 -1377q-12 -20 -36 -20h-199q-25 0 -25 16zM905 31l18 153q4 23 21 39l59 51q25 23 92.5 84.5t110.5 106.5q90 90 98 145v11q0 43 -41 43q-23 0 -38 -14.5t-19 -37.5l-2 -24q-2 -14 -11 -22.5t-24 -8.5h-176q-14 0 -21.5 8t-5.5 23l7 49q20 109 107 171t212 62 q117 0 183.5 -57t66.5 -166q0 -74 -23.5 -128t-72.5 -113q-31 -37 -142 -140l-47 -43q-6 -6 -4 -11t8 -5h207q14 0 21.5 -8.5t5.5 -22.5l-19 -145q-2 -14 -10 -22.5t-22 -8.5h-512q-15 0 -22 8t-5 23z" />
<glyph unicode="&#xbe;" horiz-adv-x="1748" d="M33 798l2 37q0 31 31 31h174q25 0 28 -29q0 -20 2 -31q14 -37 37 -36q31 0 47 36q12 29 17 72q2 16 2 41q0 29 -4 39q-10 27 -35 27q-20 0 -47 -17q-10 -8 -23 -8q-12 0 -20 10l-72 99q-6 10 -6 16q0 14 18 27l146 102q8 6 6 10t-8 4h-195q-14 0 -21.5 8.5t-5.5 22.5 l17 143q6 31 35 31h469q12 0 19 -8t5 -23l-18 -151q-4 -25 -21 -37l-100 -84q-14 -10 -2 -16q33 -18 54.5 -55t29.5 -85q4 -18 4 -61q0 -33 -2 -51q-6 -49 -18 -88q-35 -98 -111 -154.5t-184 -56.5q-106 0 -173 55t-75 148zM309 16q0 8 7 21l929 1376q12 20 39 21h197 q23 0 22 -17q0 -8 -6 -20l-928 -1377q-12 -20 -36 -20h-199q-25 0 -25 16zM1077 233l16 125q2 20 11 37l215 441q12 25 39 24h184q25 0 25 -18l-5 -17l-184 -389q-4 -14 8 -14h68q12 0 14 12l11 80q2 14 10 22.5t22 8.5h174q14 0 21.5 -8.5t5.5 -22.5l-10 -80q0 -12 10 -12 h25q14 0 21 -8t5 -23l-20 -158q-2 -14 -10.5 -22t-22.5 -8h-25q-12 0 -12 -13l-20 -159q-2 -14 -11.5 -22.5t-21.5 -8.5h-176q-12 0 -19.5 8t-5.5 23l19 159q4 12 -11 13h-323q-14 0 -21.5 8t-5.5 22z" />
<glyph unicode="&#xbf;" horiz-adv-x="1038" d="M-12 -66q0 18 4 60q12 92 49 156.5t84 104.5t117 85q72 47 106.5 82t40.5 86v2q2 14 10.5 22.5t22.5 8.5h309q31 0 27 -29l-4 -29q-10 -80 -46 -139t-80 -96t-114 -82q-74 -47 -108.5 -82t-34.5 -84q0 -37 24.5 -58.5t69.5 -21.5q57 0 93 30t40 75l2 8q2 29 33 28 l313 -14q12 0 20.5 -4t6.5 -8v-10q-16 -133 -92 -236.5t-198 -161t-271 -57.5q-197 0 -310.5 98.5t-113.5 265.5zM399 813q0 90 68 155.5t158 65.5q73 0 122.5 -49t49.5 -123q0 -59 -32 -110.5t-83 -81t-109 -29.5q-72 0 -123 50t-51 122z" />
<glyph unicode="&#xc0;" horiz-adv-x="1236" d="M2 35l522 1372q10 27 35 27h393q25 0 29 -27l184 -1372v-4q0 -31 -30 -31h-330q-29 0 -31 27l-12 157q-4 10 -10 11h-299q-8 0 -13 -11l-53 -157q-10 -27 -37 -27h-325q-16 0 -22.5 9t-0.5 26zM445 1766q0 8 8 14t21 6h290q27 0 35 -20l80 -191q2 -4 2 -12q0 -25 -29 -25 h-243q-25 0 -35 19l-123 192q-6 10 -6 17zM547 504q-6 -15 10 -15h166q14 0 14 15l-35 420q0 8 -5 8t-7 -8z" />
<glyph unicode="&#xc1;" horiz-adv-x="1236" d="M2 35l522 1372q10 27 35 27h393q25 0 29 -27l184 -1372v-4q0 -31 -30 -31h-330q-29 0 -31 27l-12 157q-4 10 -10 11h-299q-8 0 -13 -11l-53 -157q-10 -27 -37 -27h-325q-16 0 -22.5 9t-0.5 26zM547 504q-6 -15 10 -15h166q14 0 14 15l-35 420q0 8 -5 8t-7 -8zM569 1555 q0 10 8 20l125 191q12 20 39 20h293q23 0 23 -16q0 -6 -11 -21l-170 -192q-16 -18 -39 -19h-243q-25 1 -25 17z" />
<glyph unicode="&#xc2;" horiz-adv-x="1236" d="M2 35l522 1372q10 27 35 27h393q25 0 29 -27l184 -1372v-4q0 -31 -30 -31h-330q-29 0 -31 27l-12 157q-4 10 -10 11h-299q-8 0 -13 -11l-53 -157q-10 -27 -37 -27h-325q-16 0 -22.5 9t-0.5 26zM393 1555q0 6 10 20l160 207q16 20 39 21h313q25 0 35 -21l113 -207l4 -16 q0 -20 -27 -21h-223q-25 0 -33 23l-32 90q-6 12 -17 0l-55 -90q-12 -23 -37 -23h-225q-25 1 -25 17zM547 504q-6 -15 10 -15h166q14 0 14 15l-35 420q0 8 -5 8t-7 -8z" />
<glyph unicode="&#xc3;" horiz-adv-x="1236" d="M2 35l522 1372q10 27 35 27h393q25 0 29 -27l184 -1372v-4q0 -31 -30 -31h-330q-29 0 -31 27l-12 157q-4 10 -10 11h-299q-8 0 -13 -11l-53 -157q-10 -27 -37 -27h-325q-16 0 -22.5 9t-0.5 26zM461 1661q0 4 4 17q37 80 95.5 122t121.5 42q35 0 66 -12.5t63 -35.5 q43 -33 78 -32q37 0 66 30q23 27 41 11l98 -78q10 -6 10 -23q0 -14 -14 -35q-45 -70 -103.5 -103.5t-115.5 -33.5q-33 0 -57.5 10.5t-59.5 30.5q-23 14 -40 22.5t-32 8.5q-39 0 -65 -35q-10 -16 -27 -16q-8 0 -16 6l-101 82q-12 10 -12 22zM547 504q-6 -15 10 -15h166 q14 0 14 15l-35 420q0 8 -5 8t-7 -8z" />
<glyph unicode="&#xc4;" horiz-adv-x="1236" d="M2 35l522 1372q10 27 35 27h393q25 0 29 -27l184 -1372v-4q0 -31 -30 -31h-330q-29 0 -31 27l-12 157q-4 10 -10 11h-299q-8 0 -13 -11l-53 -157q-10 -27 -37 -27h-325q-16 0 -22.5 9t-0.5 26zM376 1649q0 90 57.5 147.5t139.5 57.5q70 0 110 -41t40 -111 q0 -90 -55.5 -147.5t-137.5 -57.5q-70 0 -112 41t-42 111zM547 504q-6 -15 10 -15h166q14 0 14 15l-35 420q0 8 -5 8t-7 -8zM776 1647q0 92 55 149.5t139 57.5q70 0 111 -41t41 -111q0 -90 -55.5 -147.5t-139.5 -57.5q-69 0 -110 41t-41 109z" />
<glyph unicode="&#xc5;" horiz-adv-x="1236" d="M2 35l522 1372q10 27 35 27h393q25 0 29 -27l184 -1372v-4q0 -31 -30 -31h-330q-29 0 -31 27l-12 157q-4 10 -10 11h-299q-8 0 -13 -11l-53 -157q-10 -27 -37 -27h-325q-16 0 -22.5 9t-0.5 26zM524 1710q0 74 37 135.5t97.5 98.5t129.5 37q90 0 147.5 -58.5t57.5 -148.5 q0 -74 -37 -135.5t-97 -98t-130 -36.5q-90 0 -147.5 58t-57.5 148zM547 504q-6 -15 10 -15h166q14 0 14 15l-35 420q0 8 -5 8t-7 -8zM688 1733q0 -27 17.5 -45.5t44.5 -18.5q32 0 55.5 26t23.5 60q0 29 -17 46.5t-44 17.5q-33 0 -56.5 -25.5t-23.5 -60.5z" />
<glyph unicode="&#xc6;" horiz-adv-x="1767" d="M4 18q0 10 6 19l766 1374q8 23 35 23h1022q14 0 21.5 -8.5t5.5 -22.5l-33 -268q-6 -31 -35 -31h-487q-14 0 -15 -12l-24 -193q0 -12 12 -12h283q14 0 21 -8.5t5 -22.5l-33 -266q-2 -14 -11 -22.5t-21 -8.5h-285q-10 0 -14 -12l-25 -205q0 -12 10 -12h490q12 0 19 -8.5 t5 -22.5l-32 -268q-2 -14 -10.5 -22.5t-22.5 -8.5h-844q-14 0 -21.5 8t-5.5 23l19 151q4 12 -10 13h-291q-12 0 -15 -11l-83 -159q-12 -25 -39 -25h-338q-25 0 -25 18zM655 504q-5 -15 9 -15h167q12 0 13 13l53 436q2 8 -3 9t-9 -7z" />
<glyph unicode="&#xc7;" horiz-adv-x="1079" d="M63 391q0 49 5 76l61 506q18 143 93 251.5t194 167t264 58.5q203 0 320.5 -105.5t117.5 -287.5q0 -20 -4 -70l-2 -14q0 -8 -9 -13.5t-22 -5.5l-315 -14q-31 0 -29 25l4 26q2 8 2 23q0 49 -27.5 77.5t-74.5 28.5q-53 0 -91 -35.5t-44 -93.5l-68 -549q-2 -8 -2 -22 q0 -49 29 -78t76 -29q53 0 89 35t44 94l4 25q2 29 33 29l311 -15q12 0 20.5 -5t8.5 -11l-2 -14q-20 -178 -135 -299t-289 -156q-6 -2 -8.5 -7t1.5 -9q51 -66 52 -144q0 -39 -17 -82q-29 -72 -85 -103.5t-124 -31.5q-63 0 -125 25q-20 8 -14 37l31 129q2 20 20 20q10 0 17 -2 q45 -6 63 33q4 12 4 20q0 51 -71 113q-6 6 -13 8q-139 35 -216 136.5t-77 252.5z" />
<glyph unicode="&#xc8;" d="M29 31l170 1372q2 14 10 22.5t22 8.5h840q14 0 21.5 -8.5t5.5 -22.5l-33 -268q-2 -15 -11.5 -23t-21.5 -8h-485q-10 0 -15 -12l-22 -193q0 -12 10 -12h281q12 0 19 -8.5t5 -22.5l-32 -266q-2 -14 -10.5 -22.5t-22.5 -8.5h-281q-12 0 -12 -12l-27 -205q0 -12 13 -12h483 q14 0 21.5 -8.5t5.5 -22.5l-33 -268q-2 -14 -11.5 -22.5t-23.5 -8.5h-840q-14 0 -21 8t-5 23zM338 1792q0 8 8 14t21 6h290q27 0 35 -20l80 -191q2 -4 2 -12q0 -25 -29 -25h-243q-25 0 -35 19l-123 192q-6 10 -6 17z" />
<glyph unicode="&#xc9;" d="M29 31l170 1372q2 14 10 22.5t22 8.5h840q14 0 21.5 -8.5t5.5 -22.5l-33 -268q-2 -15 -11.5 -23t-21.5 -8h-485q-10 0 -15 -12l-22 -193q0 -12 10 -12h281q12 0 19 -8.5t5 -22.5l-32 -266q-2 -14 -10.5 -22.5t-22.5 -8.5h-281q-12 0 -12 -12l-27 -205q0 -12 13 -12h483 q14 0 21.5 -8.5t5.5 -22.5l-33 -268q-2 -14 -11.5 -22.5t-23.5 -8.5h-840q-14 0 -21 8t-5 23zM463 1581q0 10 8 20l125 191q12 20 39 20h293q23 0 23 -16q0 -6 -11 -21l-170 -192q-16 -18 -39 -19h-243q-25 1 -25 17z" />
<glyph unicode="&#xca;" d="M29 31l170 1372q2 14 10 22.5t22 8.5h840q14 0 21.5 -8.5t5.5 -22.5l-33 -268q-2 -15 -11.5 -23t-21.5 -8h-485q-10 0 -15 -12l-22 -193q0 -12 10 -12h281q12 0 19 -8.5t5 -22.5l-32 -266q-2 -14 -10.5 -22.5t-22.5 -8.5h-281q-12 0 -12 -12l-27 -205q0 -12 13 -12h483 q14 0 21.5 -8.5t5.5 -22.5l-33 -268q-2 -14 -11.5 -22.5t-23.5 -8.5h-840q-14 0 -21 8t-5 23zM286 1581q0 6 10 20l160 207q16 20 39 21h313q25 0 35 -21l113 -207l4 -16q0 -20 -27 -21h-223q-25 0 -33 23l-32 90q-6 12 -17 0l-55 -90q-12 -23 -37 -23h-225q-25 1 -25 17z " />
<glyph unicode="&#xcb;" d="M29 31l170 1372q2 14 10 22.5t22 8.5h840q14 0 21.5 -8.5t5.5 -22.5l-33 -268q-2 -15 -11.5 -23t-21.5 -8h-485q-10 0 -15 -12l-22 -193q0 -12 10 -12h281q12 0 19 -8.5t5 -22.5l-32 -266q-2 -14 -10.5 -22.5t-22.5 -8.5h-281q-12 0 -12 -12l-27 -205q0 -12 13 -12h483 q14 0 21.5 -8.5t5.5 -22.5l-33 -268q-2 -14 -11.5 -22.5t-23.5 -8.5h-840q-14 0 -21 8t-5 23zM270 1675q0 90 57.5 147.5t139.5 57.5q70 0 110 -41t40 -111q0 -90 -55.5 -147.5t-137.5 -57.5q-70 0 -112 41t-42 111zM670 1673q0 92 55 149.5t139 57.5q70 0 111 -41t41 -111 q0 -90 -55.5 -147.5t-139.5 -57.5q-69 0 -110 41t-41 109z" />
<glyph unicode="&#xcc;" horiz-adv-x="501" d="M29 31l170 1372q2 14 10 22.5t22 8.5h314q14 0 21 -8.5t5 -22.5l-168 -1372q-2 -14 -11 -22.5t-23 -8.5h-314q-14 0 -21 8t-5 23zM68 1792q0 8 8 14t21 6h290q27 0 35 -20l80 -191q2 -4 2 -12q0 -25 -29 -25h-243q-25 0 -35 19l-123 192q-6 10 -6 17z" />
<glyph unicode="&#xcd;" horiz-adv-x="501" d="M29 31l170 1372q2 14 10 22.5t22 8.5h314q14 0 21 -8.5t5 -22.5l-168 -1372q-2 -14 -11 -22.5t-23 -8.5h-314q-14 0 -21 8t-5 23zM192 1581q0 10 8 20l125 191q12 20 39 20h293q23 0 23 -16q0 -6 -11 -21l-170 -192q-16 -18 -39 -19h-243q-25 1 -25 17z" />
<glyph unicode="&#xce;" horiz-adv-x="501" d="M14 1581q0 6 10 20l160 207q16 20 39 21h313q25 0 35 -21l113 -207l4 -16q0 -20 -27 -21h-223q-25 0 -33 23l-32 90q-6 12 -17 0l-55 -90q-12 -23 -37 -23h-225q-25 1 -25 17zM29 31l170 1372q2 14 10 22.5t22 8.5h314q14 0 21 -8.5t5 -22.5l-168 -1372q-2 -14 -11 -22.5 t-23 -8.5h-314q-14 0 -21 8t-5 23z" />
<glyph unicode="&#xcf;" horiz-adv-x="501" d="M-2 1675q0 90 57.5 147.5t139.5 57.5q70 0 110 -41t40 -111q0 -90 -55.5 -147.5t-137.5 -57.5q-70 0 -112 41t-42 111zM29 31l170 1372q2 14 10 22.5t22 8.5h314q14 0 21 -8.5t5 -22.5l-168 -1372q-2 -14 -11 -22.5t-23 -8.5h-314q-14 0 -21 8t-5 23zM398 1673 q0 92 55 149.5t139 57.5q70 0 111 -41t41 -111q0 -90 -55.5 -147.5t-139.5 -57.5q-69 0 -110 41t-41 109z" />
<glyph unicode="&#xd0;" horiz-adv-x="1159" d="M92 31l72 581q2 4 -1 8.5t-9 4.5h-21q-14 0 -21.5 8t-5.5 22l21 174q2 14 11 22.5t24 8.5h20q12 0 15 12l65 531q2 14 10.5 22.5t22.5 8.5h450q205 0 325 -102.5t120 -274.5q0 -16 -4 -58l-70 -563q-16 -129 -90 -228t-191.5 -153.5t-265.5 -54.5h-450q-14 0 -21.5 8 t-5.5 23zM506 342q-2 -12 10 -12l96 2q49 0 87 41t49 108l59 473q2 10 2 27q0 57 -27.5 90t-74.5 33h-97q-10 0 -14 -12l-27 -220q0 -12 11 -12h59q14 0 21.5 -8t5.5 -23l-21 -174q-2 -14 -11 -22t-24 -8h-59q-12 0 -12 -13z" />
<glyph unicode="&#xd1;" horiz-adv-x="1177" d="M29 31l170 1372q2 14 10 22.5t22 8.5h326q25 0 31 -23l194 -666q2 -8 8.5 -7t6.5 12l77 653q6 31 35 31h312q14 0 21 -8.5t5 -22.5l-168 -1372q-2 -14 -11 -22.5t-24 -8.5h-325q-27 0 -33 25l-192 671q-4 8 -9.5 7t-5.5 -9l-78 -663q-2 -14 -11 -22.5t-23 -8.5h-312 q-14 0 -21 8t-5 23zM418 1687q0 4 4 17q37 80 95.5 122t121.5 42q35 0 66 -12.5t63 -35.5q43 -33 78 -32q37 0 66 30q23 27 41 11l98 -78q10 -6 10 -23q0 -14 -14 -35q-45 -70 -103.5 -103.5t-115.5 -33.5q-33 0 -57.5 10.5t-59.5 30.5q-23 14 -40 22.5t-32 8.5 q-39 0 -65 -35q-10 -16 -27 -16q-8 0 -16 6l-101 82q-12 10 -12 22z" />
<glyph unicode="&#xd2;" horiz-adv-x="1097" d="M63 397q0 49 5 76l59 488q18 147 94 257.5t197 171t268 60.5q207 0 325.5 -111.5t118.5 -302.5q0 -49 -4 -75l-59 -488q-18 -147 -94 -259t-197 -173t-270 -61q-205 0 -324 112.5t-119 304.5zM373 1782q0 8 8 14t21 6h290q27 0 35 -20l80 -191q2 -4 2 -12q0 -25 -29 -25 h-243q-25 0 -35 19l-123 192q-6 10 -6 17zM438 430q0 -55 29 -88t80 -33q57 0 97 41t48 109l64 512l2 24q0 57 -31 91t-82 34q-55 0 -95 -41t-48 -108l-62 -512q-2 -10 -2 -29z" />
<glyph unicode="&#xd3;" horiz-adv-x="1097" d="M63 397q0 49 5 76l59 488q18 147 94 257.5t197 171t268 60.5q207 0 325.5 -111.5t118.5 -302.5q0 -49 -4 -75l-59 -488q-18 -147 -94 -259t-197 -173t-270 -61q-205 0 -324 112.5t-119 304.5zM438 430q0 -55 29 -88t80 -33q57 0 97 41t48 109l64 512l2 24q0 57 -31 91 t-82 34q-55 0 -95 -41t-48 -108l-62 -512q-2 -10 -2 -29zM497 1571q0 10 8 20l125 191q12 20 39 20h293q23 0 23 -16q0 -6 -11 -21l-170 -192q-16 -18 -39 -19h-243q-25 1 -25 17z" />
<glyph unicode="&#xd4;" horiz-adv-x="1097" d="M63 397q0 49 5 76l59 488q18 147 94 257.5t197 171t268 60.5q207 0 325.5 -111.5t118.5 -302.5q0 -49 -4 -75l-59 -488q-18 -147 -94 -259t-197 -173t-270 -61q-205 0 -324 112.5t-119 304.5zM321 1571q0 6 10 20l160 207q16 20 39 21h313q25 0 35 -21l113 -207l4 -16 q0 -20 -27 -21h-223q-25 0 -33 23l-32 90q-6 12 -17 0l-55 -90q-12 -23 -37 -23h-225q-25 1 -25 17zM438 430q0 -55 29 -88t80 -33q57 0 97 41t48 109l64 512l2 24q0 57 -31 91t-82 34q-55 0 -95 -41t-48 -108l-62 -512q-2 -10 -2 -29z" />
<glyph unicode="&#xd5;" horiz-adv-x="1097" d="M63 397q0 49 5 76l59 488q18 147 94 257.5t197 171t268 60.5q207 0 325.5 -111.5t118.5 -302.5q0 -49 -4 -75l-59 -488q-18 -147 -94 -259t-197 -173t-270 -61q-205 0 -324 112.5t-119 304.5zM389 1677q0 4 4 17q37 80 95.5 122t121.5 42q35 0 66 -12.5t63 -35.5 q43 -33 78 -32q37 0 66 30q23 27 41 11l98 -78q10 -6 10 -23q0 -14 -14 -35q-45 -70 -103.5 -103.5t-115.5 -33.5q-33 0 -57.5 10.5t-59.5 30.5q-23 14 -40 22.5t-32 8.5q-39 0 -65 -35q-10 -16 -27 -16q-8 0 -16 6l-101 82q-12 10 -12 22zM438 430q0 -55 29 -88t80 -33 q57 0 97 41t48 109l64 512l2 24q0 57 -31 91t-82 34q-55 0 -95 -41t-48 -108l-62 -512q-2 -10 -2 -29z" />
<glyph unicode="&#xd6;" horiz-adv-x="1097" d="M63 397q0 49 5 76l59 488q18 147 94 257.5t197 171t268 60.5q207 0 325.5 -111.5t118.5 -302.5q0 -49 -4 -75l-59 -488q-18 -147 -94 -259t-197 -173t-270 -61q-205 0 -324 112.5t-119 304.5zM305 1665q0 90 57.5 147.5t139.5 57.5q70 0 110 -41t40 -111 q0 -90 -55.5 -147.5t-137.5 -57.5q-70 0 -112 41t-42 111zM438 430q0 -55 29 -88t80 -33q57 0 97 41t48 109l64 512l2 24q0 57 -31 91t-82 34q-55 0 -95 -41t-48 -108l-62 -512q-2 -10 -2 -29zM705 1663q0 92 55 149.5t139 57.5q70 0 111 -41t41 -111q0 -90 -55.5 -147.5 t-139.5 -57.5q-69 0 -110 41t-41 109z" />
<glyph unicode="&#xd7;" horiz-adv-x="874" d="M66 438q0 14 14 27l176 162q4 4 4 9t-2 7l-137 162q-8 8 -8 18q0 14 14 27l186 172q10 10 25 10q12 0 20 -10l138 -162q2 -2 6 -2t8 2l178 162q10 10 23 10q12 0 20 -10l146 -172q8 -9 8 -21t-13 -24l-178 -162q-6 -6 -2 -16l137 -162q8 -8 9 -21q0 -12 -13 -24 l-188 -172q-14 -10 -25 -10q-10 0 -20 10l-137 162q-2 4 -6.5 3t-8.5 -3l-178 -162q-10 -10 -22 -10q-10 0 -21 10l-145 172q-8 8 -8 18z" />
<glyph unicode="&#xd8;" horiz-adv-x="1097" d="M63 397q0 23 5 76l59 488q18 147 94 257.5t197 171t268 60.5q127 0 219 -43q12 -4 17 6l36 60q12 23 35 22h103q25 0 24 -18q0 -8 -6 -19l-78 -129q-4 -10 2 -18q92 -109 92 -275q0 -49 -4 -75l-59 -488q-18 -147 -94 -259t-197 -173t-270 -61q-127 0 -225 47 q-8 4 -17 -7l-35 -59q-16 -23 -36 -22h-101q-25 0 -24 18q0 8 6 18l78 131q6 10 0 19q-88 102 -89 272zM465 344q29 -35 82 -35q57 0 97 41t48 109l41 327q0 8 -5 9.5t-9 -7.5l-254 -428q-4 -10 0 -16zM465 664q-2 -8 4 -9.5t10 7.5l246 413q4 10 -2 19q-31 27 -78 26 q-55 0 -95 -41t-48 -108z" />
<glyph unicode="&#xd9;" horiz-adv-x="1091" d="M72 391q0 23 4 72l117 940q2 14 10 22.5t22 8.5h314q14 0 21 -8.5t5 -22.5l-116 -959q-2 -8 -3 -24q0 -49 27 -78t72 -29q51 0 87 37t42 94l119 959q2 14 10 22.5t22 8.5h314q14 0 21 -8.5t5 -22.5l-114 -940q-18 -143 -92 -252t-192 -168t-263 -59q-199 0 -315.5 110.5 t-116.5 296.5zM371 1792q0 8 8 14t21 6h290q27 0 35 -20l80 -191q2 -4 2 -12q0 -25 -29 -25h-243q-25 0 -35 19l-123 192q-6 10 -6 17z" />
<glyph unicode="&#xda;" horiz-adv-x="1091" d="M72 391q0 23 4 72l117 940q2 14 10 22.5t22 8.5h314q14 0 21 -8.5t5 -22.5l-116 -959q-2 -8 -3 -24q0 -49 27 -78t72 -29q51 0 87 37t42 94l119 959q2 14 10 22.5t22 8.5h314q14 0 21 -8.5t5 -22.5l-114 -940q-18 -143 -92 -252t-192 -168t-263 -59q-199 0 -315.5 110.5 t-116.5 296.5zM495 1581q0 10 8 20l125 191q12 20 39 20h293q23 0 23 -16q0 -6 -11 -21l-170 -192q-16 -18 -39 -19h-243q-25 1 -25 17z" />
<glyph unicode="&#xdb;" horiz-adv-x="1091" d="M72 391q0 23 4 72l117 940q2 14 10 22.5t22 8.5h314q14 0 21 -8.5t5 -22.5l-116 -959q-2 -8 -3 -24q0 -49 27 -78t72 -29q51 0 87 37t42 94l119 959q2 14 10 22.5t22 8.5h314q14 0 21 -8.5t5 -22.5l-114 -940q-18 -143 -92 -252t-192 -168t-263 -59q-199 0 -315.5 110.5 t-116.5 296.5zM319 1581q0 6 10 20l160 207q16 20 39 21h313q25 0 35 -21l113 -207l4 -16q0 -20 -27 -21h-223q-25 0 -33 23l-32 90q-6 12 -17 0l-55 -90q-12 -23 -37 -23h-225q-25 1 -25 17z" />
<glyph unicode="&#xdc;" horiz-adv-x="1091" d="M72 391q0 23 4 72l117 940q2 14 10 22.5t22 8.5h314q14 0 21 -8.5t5 -22.5l-116 -959q-2 -8 -3 -24q0 -49 27 -78t72 -29q51 0 87 37t42 94l119 959q2 14 10 22.5t22 8.5h314q14 0 21 -8.5t5 -22.5l-114 -940q-18 -143 -92 -252t-192 -168t-263 -59q-199 0 -315.5 110.5 t-116.5 296.5zM303 1675q0 90 57.5 147.5t139.5 57.5q70 0 110 -41t40 -111q0 -90 -55.5 -147.5t-137.5 -57.5q-70 0 -112 41t-42 111zM703 1673q0 92 55 149.5t139 57.5q70 0 111 -41t41 -111q0 -90 -55.5 -147.5t-139.5 -57.5q-69 0 -110 41t-41 109z" />
<glyph unicode="&#xdd;" horiz-adv-x="1153" d="M174 1409q0 25 31 25h334q12 0 20 -7.5t10 -19.5l78 -446q2 -8 7 -8.5t8 8.5l184 446q4 12 15 19.5t22 7.5h338q25 0 24 -19l-4 -16l-455 -887l-4 -16l-57 -461q-2 -14 -10 -22.5t-23 -8.5h-313q-14 0 -21.5 8t-5.5 23l56 461q4 8 0 16l-232 887q-2 4 -2 10zM526 1555 q0 10 8 20l125 191q12 20 39 20h293q23 0 23 -16q0 -6 -11 -21l-170 -192q-16 -18 -39 -19h-243q-25 1 -25 17z" />
<glyph unicode="&#xde;" horiz-adv-x="1062" d="M25 31l168 1372q2 14 10 22.5t22 8.5h314q14 0 21 -8.5t5 -22.5l-26 -219q0 -12 10 -13h149q179 0 283 -106.5t104 -282.5q0 -23 -4 -71q-16 -133 -85.5 -234.5t-177 -158t-232.5 -56.5h-148q-10 0 -14 -12l-27 -219q-2 -14 -11 -22.5t-21 -8.5h-316q-12 0 -19 8t-5 23z M465 580q-2 -12 10 -13h86q64 0 107 41t43 119q0 57 -32 86t-85 29h-86q-12 0 -12 -13z" />
<glyph unicode="&#xdf;" horiz-adv-x="1097" d="M23 33l112 923q29 236 169 365t368 129q209 0 327.5 -93t118.5 -255q0 -18 -4 -55q-10 -84 -47 -145.5t-104 -106.5q-12 -6 -2 -17q53 -41 81.5 -110.5t28.5 -161.5q0 -20 -4 -70q-27 -209 -175.5 -322.5t-406.5 -113.5q-29 0 -24 31l33 266q2 14 10 22.5t20 8.5h29 q68 0 110 48t42 132q0 57 -31 88t-84 31h-27q-14 0 -20 8t-4 22l28 238q2 14 10.5 22.5t22.5 8.5h29q49 0 80.5 33.5t31.5 82.5q0 80 -92 80q-49 0 -88 -30.5t-45 -83.5l-121 -977q-2 -14 -11 -22.5t-22 -8.5l-315 2q-12 0 -19.5 8t-4.5 23z" />
<glyph unicode="&#xe0;" horiz-adv-x="1017" d="M68 383q0 72 12 172q8 63 16 103t25 92q47 158 136 244.5t216 86.5q61 0 107.5 -13t81.5 -52q4 -6 8 -5t6 9l2 14q2 15 10 23t23 8h313q14 0 21.5 -8t5.5 -23l-123 -1003q-2 -14 -11.5 -22.5t-21.5 -8.5h-315q-12 0 -19.5 8t-5.5 23l2 16q0 8 -4 10t-10 -4 q-80 -70 -205 -69q-125 0 -190.5 93t-77.5 257q-2 16 -2 49zM336 1397q0 8 8 14t21 6h290q27 0 35 -20l80 -191q2 -4 2 -12q0 -25 -29 -25h-243q-25 0 -35 19l-123 192q-6 10 -6 17zM440 406q0 -41 17.5 -67t48.5 -26t55.5 27t34.5 72q8 33 10 49l10 76q2 18 6.5 58t4.5 71 q0 39 -18.5 62.5t-49.5 23.5q-29 0 -52.5 -25t-35.5 -68q-10 -29 -14 -67.5t-6 -56.5q-2 -16 -6.5 -56.5t-4.5 -72.5z" />
<glyph unicode="&#xe1;" horiz-adv-x="1017" d="M68 383q0 72 12 172q8 63 16 103t25 92q47 158 136 244.5t216 86.5q61 0 107.5 -13t81.5 -52q4 -6 8 -5t6 9l2 14q2 15 10 23t23 8h313q14 0 21.5 -8t5.5 -23l-123 -1003q-2 -14 -11.5 -22.5t-21.5 -8.5h-315q-12 0 -19.5 8t-5.5 23l2 16q0 8 -4 10t-10 -4 q-80 -70 -205 -69q-125 0 -190.5 93t-77.5 257q-2 16 -2 49zM440 406q0 -41 17.5 -67t48.5 -26t55.5 27t34.5 72q8 33 10 49l10 76q2 18 6.5 58t4.5 71q0 39 -18.5 62.5t-49.5 23.5q-29 0 -52.5 -25t-35.5 -68q-10 -29 -14 -67.5t-6 -56.5q-2 -16 -6.5 -56.5t-4.5 -72.5z M461 1186q0 10 8 20l125 191q12 20 39 20h293q23 0 23 -16q0 -6 -11 -21l-170 -192q-16 -18 -39 -19h-243q-25 1 -25 17z" />
<glyph unicode="&#xe2;" horiz-adv-x="1017" d="M68 383q0 72 12 172q8 63 16 103t25 92q47 158 136 244.5t216 86.5q61 0 107.5 -13t81.5 -52q4 -6 8 -5t6 9l2 14q2 15 10 23t23 8h313q14 0 21.5 -8t5.5 -23l-123 -1003q-2 -14 -11.5 -22.5t-21.5 -8.5h-315q-12 0 -19.5 8t-5.5 23l2 16q0 8 -4 10t-10 -4 q-80 -70 -205 -69q-125 0 -190.5 93t-77.5 257q-2 16 -2 49zM284 1186q0 6 10 20l160 207q16 20 39 21h313q25 0 35 -21l113 -207l4 -16q0 -20 -27 -21h-223q-25 0 -33 23l-32 90q-6 12 -17 0l-55 -90q-12 -23 -37 -23h-225q-25 1 -25 17zM440 406q0 -41 17.5 -67t48.5 -26 t55.5 27t34.5 72q8 33 10 49l10 76q2 18 6.5 58t4.5 71q0 39 -18.5 62.5t-49.5 23.5q-29 0 -52.5 -25t-35.5 -68q-10 -29 -14 -67.5t-6 -56.5q-2 -16 -6.5 -56.5t-4.5 -72.5z" />
<glyph unicode="&#xe3;" horiz-adv-x="1017" d="M68 383q0 72 12 172q8 63 16 103t25 92q47 158 136 244.5t216 86.5q61 0 107.5 -13t81.5 -52q4 -6 8 -5t6 9l2 14q2 15 10 23t23 8h313q14 0 21.5 -8t5.5 -23l-123 -1003q-2 -14 -11.5 -22.5t-21.5 -8.5h-315q-12 0 -19.5 8t-5.5 23l2 16q0 8 -4 10t-10 -4 q-80 -70 -205 -69q-125 0 -190.5 93t-77.5 257q-2 16 -2 49zM352 1292q0 4 4 17q37 80 95.5 122t121.5 42q35 0 66 -12.5t63 -35.5q43 -33 78 -32q37 0 66 30q23 27 41 11l98 -78q10 -6 10 -23q0 -14 -14 -35q-45 -70 -103.5 -103.5t-115.5 -33.5q-33 0 -57.5 10.5 t-59.5 30.5q-23 14 -40 22.5t-32 8.5q-39 0 -65 -35q-10 -16 -27 -16q-8 0 -16 6l-101 82q-12 10 -12 22zM440 406q0 -41 17.5 -67t48.5 -26t55.5 27t34.5 72q8 33 10 49l10 76q2 18 6.5 58t4.5 71q0 39 -18.5 62.5t-49.5 23.5q-29 0 -52.5 -25t-35.5 -68q-10 -29 -14 -67.5 t-6 -56.5q-2 -16 -6.5 -56.5t-4.5 -72.5z" />
<glyph unicode="&#xe4;" horiz-adv-x="1017" d="M68 383q0 72 12 172q8 63 16 103t25 92q47 158 136 244.5t216 86.5q61 0 107.5 -13t81.5 -52q4 -6 8 -5t6 9l2 14q2 15 10 23t23 8h313q14 0 21.5 -8t5.5 -23l-123 -1003q-2 -14 -11.5 -22.5t-21.5 -8.5h-315q-12 0 -19.5 8t-5.5 23l2 16q0 8 -4 10t-10 -4 q-80 -70 -205 -69q-125 0 -190.5 93t-77.5 257q-2 16 -2 49zM268 1280q0 90 57.5 147.5t139.5 57.5q70 0 110 -41t40 -111q0 -90 -55.5 -147.5t-137.5 -57.5q-70 0 -112 41t-42 111zM440 406q0 -41 17.5 -67t48.5 -26t55.5 27t34.5 72q8 33 10 49l10 76q2 18 6.5 58t4.5 71 q0 39 -18.5 62.5t-49.5 23.5q-29 0 -52.5 -25t-35.5 -68q-10 -29 -14 -67.5t-6 -56.5q-2 -16 -6.5 -56.5t-4.5 -72.5zM668 1278q0 92 55 149.5t139 57.5q70 0 111 -41t41 -111q0 -90 -55.5 -147.5t-139.5 -57.5q-69 0 -110 41t-41 109z" />
<glyph unicode="&#xe5;" horiz-adv-x="1017" d="M68 383q0 72 12 172q8 63 16 103t25 92q47 158 136 244.5t216 86.5q61 0 107.5 -13t81.5 -52q4 -6 8 -5t6 9l2 14q2 15 10 23t23 8h313q14 0 21.5 -8t5.5 -23l-123 -1003q-2 -14 -11.5 -22.5t-21.5 -8.5h-315q-12 0 -19.5 8t-5.5 23l2 16q0 8 -4 10t-10 -4 q-80 -70 -205 -69q-125 0 -190.5 93t-77.5 257q-2 16 -2 49zM416 1341q0 74 37 135.5t97.5 98.5t129.5 37q90 0 147.5 -58.5t57.5 -148.5q0 -74 -37 -135.5t-97 -98t-130 -36.5q-90 0 -147.5 58t-57.5 148zM440 406q0 -41 17.5 -67t48.5 -26t55.5 27t34.5 72q8 33 10 49 l10 76q2 18 6.5 58t4.5 71q0 39 -18.5 62.5t-49.5 23.5q-29 0 -52.5 -25t-35.5 -68q-10 -29 -14 -67.5t-6 -56.5q-2 -16 -6.5 -56.5t-4.5 -72.5zM580 1364q0 -27 17.5 -45.5t44.5 -18.5q32 0 55.5 26t23.5 60q0 29 -17 46.5t-44 17.5q-33 0 -56.5 -25.5t-23.5 -60.5z" />
<glyph unicode="&#xe6;" horiz-adv-x="1544" d="M18 254q0 16 5 57q20 168 132.5 241t319.5 73h127q12 0 12 12l4 37q4 35 -16 56.5t-59 21.5q-27 0 -48.5 -10.5t-31.5 -28.5q-8 -14 -16.5 -20.5t-20.5 -4.5l-315 25q-27 4 -25 32q20 98 91 175t172.5 119t211.5 42q92 0 164 -29.5t119 -80.5q8 -8 16 0q53 47 130 78.5 t165 31.5q164 0 271.5 -93t115.5 -249q4 -115 -16 -293q-6 -31 -35 -30h-502q-12 0 -12 -13l2 -8q-2 -8 0 -16q14 -70 104 -70q72 0 121 49q25 20 41 11l207 -99q14 -8 14 -24q0 -10 -4 -17q-61 -119 -165.5 -182t-247.5 -63q-119 0 -201 39.5t-103 95.5q-4 12 -8 8 q-37 -59 -143.5 -101t-243.5 -42q-145 0 -238.5 62.5t-93.5 207.5zM401 330q-4 -35 13.5 -56.5t52.5 -21.5q39 0 72.5 26.5t40.5 65.5l6 59q4 12 -11 13h-69q-43 0 -70.5 -22.5t-34.5 -63.5zM1004 637q0 -6 1 -9t7 -3h145q10 0 12 12v41q-4 35 -21.5 54.5t-45.5 19.5 q-31 0 -54.5 -19.5t-33.5 -54.5z" />
<glyph unicode="&#xe7;" horiz-adv-x="997" d="M57 393q0 86 9 144q12 102 45 206q47 156 178 247t313 91q176 0 284.5 -88t119.5 -239q2 -23 2 -68q-2 -29 -31 -33l-315 -30h-5q-12 0 -19 7t-5 21q0 25 -2 35q-10 66 -72 66q-61 0 -88 -72q-14 -41 -31 -145q-8 -82 -8 -109q0 -16 4 -45q10 -68 70 -68q66 0 86 72l8 29 q10 31 37 28l307 -28q27 -2 25 -33l-13 -47q-35 -133 -126 -219t-224 -117q-16 -4 -6 -16q53 -70 53 -144q0 -41 -18 -84q-29 -72 -85 -103.5t-124 -31.5q-63 0 -125 25q-20 8 -14 37l30 129q4 16 13.5 19t23.5 -1q45 -6 64 33q4 12 4 20q0 47 -66 107q-4 4 -12 8 q-129 29 -202.5 114t-82.5 218q-2 20 -2 65z" />
<glyph unicode="&#xe8;" horiz-adv-x="1005" d="M63 412q0 76 11 151q8 59 18 111q47 195 175 301t335 106q209 0 303 -110.5t94 -323.5q0 -74 -10 -182q-2 -31 -35 -31h-510q-12 0 -12 -12q-2 -10 -1 -21.5t1 -15.5q4 -35 29.5 -54.5t66.5 -19.5q72 1 111 58q10 14 19.5 18t21.5 2l252 -45q16 -4 21 -13t-3 -24 q-61 -152 -185 -237.5t-286 -85.5q-168 0 -275.5 89t-131.5 232q-8 43 -9 107zM326 1413q0 8 8 14t21 6h290q27 0 35 -20l80 -191q2 -4 2 -12q0 -25 -29 -25h-243q-25 0 -35 19l-123 192q-6 10 -6 17zM461 643q-6 -12 8 -12h149q10 0 11 8q0 27 -2 39q-8 74 -72 74 q-33 0 -52.5 -17.5t-31.5 -56.5q-8 -27 -10 -35z" />
<glyph unicode="&#xe9;" horiz-adv-x="1005" d="M63 412q0 76 11 151q8 59 18 111q47 195 175 301t335 106q209 0 303 -110.5t94 -323.5q0 -74 -10 -182q-2 -31 -35 -31h-510q-12 0 -12 -12q-2 -10 -1 -21.5t1 -15.5q4 -35 29.5 -54.5t66.5 -19.5q72 1 111 58q10 14 19.5 18t21.5 2l252 -45q16 -4 21 -13t-3 -24 q-61 -152 -185 -237.5t-286 -85.5q-168 0 -275.5 89t-131.5 232q-8 43 -9 107zM450 1202q0 10 8 20l125 191q12 20 39 20h293q23 0 23 -16q0 -6 -11 -21l-170 -192q-16 -18 -39 -19h-243q-25 1 -25 17zM461 643q-6 -12 8 -12h149q10 0 11 8q0 27 -2 39q-8 74 -72 74 q-33 0 -52.5 -17.5t-31.5 -56.5q-8 -27 -10 -35z" />
<glyph unicode="&#xea;" horiz-adv-x="1005" d="M63 412q0 76 11 151q8 59 18 111q47 195 175 301t335 106q209 0 303 -110.5t94 -323.5q0 -74 -10 -182q-2 -31 -35 -31h-510q-12 0 -12 -12q-2 -10 -1 -21.5t1 -15.5q4 -35 29.5 -54.5t66.5 -19.5q72 1 111 58q10 14 19.5 18t21.5 2l252 -45q16 -4 21 -13t-3 -24 q-61 -152 -185 -237.5t-286 -85.5q-168 0 -275.5 89t-131.5 232q-8 43 -9 107zM274 1202q0 6 10 20l160 207q16 20 39 21h313q25 0 35 -21l113 -207l4 -16q0 -20 -27 -21h-223q-25 0 -33 23l-32 90q-6 12 -17 0l-55 -90q-12 -23 -37 -23h-225q-25 1 -25 17zM461 643 q-6 -12 8 -12h149q10 0 11 8q0 27 -2 39q-8 74 -72 74q-33 0 -52.5 -17.5t-31.5 -56.5q-8 -27 -10 -35z" />
<glyph unicode="&#xeb;" horiz-adv-x="1005" d="M63 412q0 76 11 151q8 59 18 111q47 195 175 301t335 106q209 0 303 -110.5t94 -323.5q0 -74 -10 -182q-2 -31 -35 -31h-510q-12 0 -12 -12q-2 -10 -1 -21.5t1 -15.5q4 -35 29.5 -54.5t66.5 -19.5q72 1 111 58q10 14 19.5 18t21.5 2l252 -45q16 -4 21 -13t-3 -24 q-61 -152 -185 -237.5t-286 -85.5q-168 0 -275.5 89t-131.5 232q-8 43 -9 107zM258 1296q0 90 57.5 147.5t139.5 57.5q70 0 110 -41t40 -111q0 -90 -55.5 -147.5t-137.5 -57.5q-70 0 -112 41t-42 111zM461 643q-6 -12 8 -12h149q10 0 11 8q0 27 -2 39q-8 74 -72 74 q-33 0 -52.5 -17.5t-31.5 -56.5q-8 -27 -10 -35zM658 1294q0 92 55 149.5t139 57.5q70 0 111 -41t41 -111q0 -90 -55.5 -147.5t-139.5 -57.5q-69 0 -110 41t-41 109z" />
<glyph unicode="&#xec;" horiz-adv-x="489" d="M20 31l123 1003q2 14 10.5 22.5t22.5 8.5h313q14 0 21.5 -8t5.5 -23l-123 -1003q-2 -14 -11 -22.5t-22 -8.5h-315q-12 0 -19.5 8t-5.5 23zM53 1424q0 8 8 14t21 6h290q27 0 35 -20l80 -191q2 -4 2 -12q0 -25 -29 -25h-243q-25 0 -35 19l-123 192q-6 10 -6 17z" />
<glyph unicode="&#xed;" horiz-adv-x="489" d="M20 31l123 1003q2 14 10.5 22.5t22.5 8.5h313q14 0 21.5 -8t5.5 -23l-123 -1003q-2 -14 -11 -22.5t-22 -8.5h-315q-12 0 -19.5 8t-5.5 23zM178 1213q0 10 8 20l125 191q12 20 39 20h293q23 0 23 -16q0 -6 -11 -21l-170 -192q-16 -18 -39 -19h-243q-25 1 -25 17z" />
<glyph unicode="&#xee;" horiz-adv-x="489" d="M0 1213q0 6 10 20l160 207q16 20 39 21h313q25 0 35 -21l113 -207l4 -16q0 -20 -27 -21h-223q-25 0 -33 23l-32 90q-6 12 -17 0l-55 -90q-12 -23 -37 -23h-225q-25 1 -25 17zM20 31l123 1003q2 14 10.5 22.5t22.5 8.5h313q14 0 21.5 -8t5.5 -23l-123 -1003 q-2 -14 -11 -22.5t-22 -8.5h-315q-12 0 -19.5 8t-5.5 23z" />
<glyph unicode="&#xef;" horiz-adv-x="489" d="M-17 1307q0 90 57.5 147.5t139.5 57.5q70 0 110 -41t40 -111q0 -90 -55.5 -147.5t-137.5 -57.5q-70 0 -112 41t-42 111zM20 31l123 1003q2 14 10.5 22.5t22.5 8.5h313q14 0 21.5 -8t5.5 -23l-123 -1003q-2 -14 -11 -22.5t-22 -8.5h-315q-12 0 -19.5 8t-5.5 23zM383 1305 q0 92 55 149.5t139 57.5q70 0 111 -41t41 -111q0 -90 -55.5 -147.5t-139.5 -57.5q-69 0 -110 41t-41 109z" />
<glyph unicode="&#xf0;" horiz-adv-x="1005" d="M41 385q0 45 6 94q8 76 41 172q27 106 107.5 182t183.5 93q63 18 133 18q47 0 84 -10q4 -4 8 0t2 10q-27 78 -41 107q0 4 -4 7t-8 1l-178 -43l-10 -2q-18 0 -23 24l-14 117q0 33 26 39l117 27q14 4 8 16q-35 63 -94 160q-4 6 -4 16q0 20 27 21h313q20 0 33 -19 q27 -47 55 -102q4 -10 14 -6l154 36l10 3q23 0 23 -25l14 -119v-4q0 -27 -27 -33l-92 -22q-6 -2 -8 -7.5t0 -13.5q90 -213 86 -422q2 -18 2 -57q0 -72 -10 -164q-12 -96 -41 -172q-47 -150 -174 -236.5t-309 -86.5q-180 0 -288 86t-118 237q-4 53 -4 78zM418 426 q0 -12 4 -66q4 -31 21.5 -49t45.5 -18q51 0 82 67q2 9 11.5 39.5t15.5 73.5q4 37 4 47q0 14 -4 64q-10 66 -66 65q-57 0 -86 -65q-18 -66 -24 -111q-4 -37 -4 -47z" />
<glyph unicode="&#xf1;" d="M20 31l123 1003q2 14 10.5 22.5t22.5 8.5h313q14 0 21.5 -8t5.5 -23l-6 -51v-2q0 -6 5 -5t11 7q82 98 209 98q131 0 203 -78.5t72 -220.5q0 -49 -4 -75l-84 -676q-2 -14 -11.5 -22.5t-21.5 -8.5h-316q-12 0 -19 8t-5 23l76 620l2 21q0 37 -18.5 58.5t-47.5 21.5 q-37 0 -61.5 -27t-30.5 -74l-76 -620q-2 -14 -11 -22.5t-22 -8.5h-315q-12 0 -19.5 8t-5.5 23zM354 1292q0 4 4 17q37 80 95.5 122t121.5 42q35 0 66 -12.5t63 -35.5q43 -33 78 -32q37 0 66 30q23 27 41 11l98 -78q10 -6 10 -23q0 -14 -14 -35q-45 -70 -103.5 -103.5 t-115.5 -33.5q-33 0 -57.5 10.5t-59.5 30.5q-23 14 -40 22.5t-32 8.5q-39 0 -65 -35q-10 -16 -27 -16q-8 0 -16 6l-101 82q-12 10 -12 22z" />
<glyph unicode="&#xf2;" horiz-adv-x="1013" d="M53 360q0 68 13 175q10 96 34 182q45 168 177.5 266t324.5 98q190 0 297 -98t111 -264q2 -66 -11 -182q-10 -86 -28 -170q-43 -180 -175 -281.5t-331 -101.5q-195 0 -303.5 100t-108.5 276zM330 1413q0 8 8 14t21 6h290q27 0 35 -20l80 -191q2 -4 2 -12q0 -25 -29 -25 h-243q-25 0 -35 19l-123 192q-6 10 -6 17zM430 412q0 -45 19.5 -72t56.5 -27q35 0 61.5 27t36.5 72q8 31 13.5 69.5t7.5 53.5q8 88 10 124q-2 43 -21.5 68t-54.5 25q-37 0 -62.5 -25t-35.5 -68q-6 -25 -21 -124q-2 -16 -6 -54.5t-4 -68.5z" />
<glyph unicode="&#xf3;" horiz-adv-x="1013" d="M53 360q0 68 13 175q10 96 34 182q45 168 177.5 266t324.5 98q190 0 297 -98t111 -264q2 -66 -11 -182q-10 -86 -28 -170q-43 -180 -175 -281.5t-331 -101.5q-195 0 -303.5 100t-108.5 276zM430 412q0 -45 19.5 -72t56.5 -27q35 0 61.5 27t36.5 72q8 31 13.5 69.5 t7.5 53.5q8 88 10 124q-2 43 -21.5 68t-54.5 25q-37 0 -62.5 -25t-35.5 -68q-6 -25 -21 -124q-2 -16 -6 -54.5t-4 -68.5zM454 1202q0 10 8 20l125 191q12 20 39 20h293q23 0 23 -16q0 -6 -11 -21l-170 -192q-16 -18 -39 -19h-243q-25 1 -25 17z" />
<glyph unicode="&#xf4;" horiz-adv-x="1013" d="M53 360q0 68 13 175q10 96 34 182q45 168 177.5 266t324.5 98q190 0 297 -98t111 -264q2 -66 -11 -182q-10 -86 -28 -170q-43 -180 -175 -281.5t-331 -101.5q-195 0 -303.5 100t-108.5 276zM278 1202q0 6 10 20l160 207q16 20 39 21h313q25 0 35 -21l113 -207l4 -16 q0 -20 -27 -21h-223q-25 0 -33 23l-32 90q-6 12 -17 0l-55 -90q-12 -23 -37 -23h-225q-25 1 -25 17zM430 412q0 -45 19.5 -72t56.5 -27q35 0 61.5 27t36.5 72q8 31 13.5 69.5t7.5 53.5q8 88 10 124q-2 43 -21.5 68t-54.5 25q-37 0 -62.5 -25t-35.5 -68q-6 -25 -21 -124 q-2 -16 -6 -54.5t-4 -68.5z" />
<glyph unicode="&#xf5;" horiz-adv-x="1013" d="M53 360q0 68 13 175q10 96 34 182q45 168 177.5 266t324.5 98q190 0 297 -98t111 -264q2 -66 -11 -182q-10 -86 -28 -170q-43 -180 -175 -281.5t-331 -101.5q-195 0 -303.5 100t-108.5 276zM346 1308q0 4 4 17q37 80 95.5 122t121.5 42q35 0 66 -12.5t63 -35.5 q43 -33 78 -32q37 0 66 30q23 27 41 11l98 -78q10 -6 10 -23q0 -14 -14 -35q-45 -70 -103.5 -103.5t-115.5 -33.5q-33 0 -57.5 10.5t-59.5 30.5q-23 14 -40 22.5t-32 8.5q-39 0 -65 -35q-10 -16 -27 -16q-8 0 -16 6l-101 82q-12 10 -12 22zM430 412q0 -45 19.5 -72t56.5 -27 q35 0 61.5 27t36.5 72q8 31 13.5 69.5t7.5 53.5q8 88 10 124q-2 43 -21.5 68t-54.5 25q-37 0 -62.5 -25t-35.5 -68q-6 -25 -21 -124q-2 -16 -6 -54.5t-4 -68.5z" />
<glyph unicode="&#xf6;" horiz-adv-x="1013" d="M53 360q0 68 13 175q10 96 34 182q45 168 177.5 266t324.5 98q190 0 297 -98t111 -264q2 -66 -11 -182q-10 -86 -28 -170q-43 -180 -175 -281.5t-331 -101.5q-195 0 -303.5 100t-108.5 276zM262 1296q0 90 57.5 147.5t139.5 57.5q70 0 110 -41t40 -111 q0 -90 -55.5 -147.5t-137.5 -57.5q-70 0 -112 41t-42 111zM430 412q0 -45 19.5 -72t56.5 -27q35 0 61.5 27t36.5 72q8 31 13.5 69.5t7.5 53.5q8 88 10 124q-2 43 -21.5 68t-54.5 25q-37 0 -62.5 -25t-35.5 -68q-6 -25 -21 -124q-2 -16 -6 -54.5t-4 -68.5zM662 1294 q0 92 55 149.5t139 57.5q70 0 111 -41t41 -111q0 -90 -55.5 -147.5t-139.5 -57.5q-69 0 -110 41t-41 109z" />
<glyph unicode="&#xf7;" horiz-adv-x="905" d="M61 496l29 245q6 31 35 31h766q14 0 21.5 -8t5.5 -23l-31 -245q-2 -14 -10.5 -22.5t-22.5 -8.5h-768q-12 0 -19.5 8t-5.5 23zM287 240q0 74 54 129t126 55q59 0 99 -42t40 -101q0 -72 -54 -127.5t-124 -55.5q-59 0 -100 41t-41 101zM375 967q0 74 55 128t127 54 q57 0 98 -42t41 -101q0 -74 -55 -128.5t-125 -54.5q-61 0 -101 41t-40 103z" />
<glyph unicode="&#xf8;" horiz-adv-x="1013" d="M53 360q0 68 13 175q10 96 34 182q45 168 177.5 266t324.5 98q131 0 221 -47q10 -2 19 6l55 76q12 14 25 14q6 0 16 -6l51 -43q10 -10 10 -20q0 -12 -8 -23l-55 -75q-6 -10 0 -17q74 -94 74 -250q-1 -81 -11 -159q-10 -86 -28 -170q-43 -180 -175 -281.5t-331 -101.5 q-121 0 -213 41q-10 4 -16 -7l-54 -69q-12 -14 -24 -15q-6 0 -17 7l-49 43q-12 8 -12 22q0 10 8 21l49 65q6 10 0 19q-84 94 -84 249zM440 524q-2 -8 3.5 -11t9.5 5l149 203q8 10 0 16q-20 14 -43 15q-37 0 -62.5 -25t-35.5 -68q-6 -25 -21 -124v-11zM471 336q-8 -10 2 -17 q16 -6 33 -6q35 0 61.5 27t36.5 72q8 30 13.5 69t7.5 54v1t-2 1q-4 0 -15 -15z" />
<glyph unicode="&#xf9;" d="M49 262q0 45 4 70l86 702q2 14 10.5 22.5t22.5 8.5h313q14 0 21.5 -8t5.5 -23l-76 -618l-2 -23q0 -37 18.5 -58.5t47.5 -21.5q37 0 61.5 28t30.5 75l76 618q2 15 11 23t21 8h314q14 0 21 -8t5 -23l-122 -1003q-2 -14 -11.5 -22.5t-21.5 -8.5h-316q-12 0 -19 8t-5 23l4 39 q2 8 -2 9t-12 -5q-76 -90 -220 -90q-119 0 -192.5 70.5t-73.5 207.5zM324 1397q0 8 8 14t21 6h290q27 0 35 -20l80 -191q2 -4 2 -12q0 -25 -29 -25h-243q-25 0 -35 19l-123 192q-6 10 -6 17z" />
<glyph unicode="&#xfa;" d="M49 262q0 45 4 70l86 702q2 14 10.5 22.5t22.5 8.5h313q14 0 21.5 -8t5.5 -23l-76 -618l-2 -23q0 -37 18.5 -58.5t47.5 -21.5q37 0 61.5 28t30.5 75l76 618q2 15 11 23t21 8h314q14 0 21 -8t5 -23l-122 -1003q-2 -14 -11.5 -22.5t-21.5 -8.5h-316q-12 0 -19 8t-5 23l4 39 q2 8 -2 9t-12 -5q-76 -90 -220 -90q-119 0 -192.5 70.5t-73.5 207.5zM448 1186q0 10 8 20l125 191q12 20 39 20h293q23 0 23 -16q0 -6 -11 -21l-170 -192q-16 -18 -39 -19h-243q-25 1 -25 17z" />
<glyph unicode="&#xfb;" d="M49 262q0 45 4 70l86 702q2 14 10.5 22.5t22.5 8.5h313q14 0 21.5 -8t5.5 -23l-76 -618l-2 -23q0 -37 18.5 -58.5t47.5 -21.5q37 0 61.5 28t30.5 75l76 618q2 15 11 23t21 8h314q14 0 21 -8t5 -23l-122 -1003q-2 -14 -11.5 -22.5t-21.5 -8.5h-316q-12 0 -19 8t-5 23l4 39 q2 8 -2 9t-12 -5q-76 -90 -220 -90q-119 0 -192.5 70.5t-73.5 207.5zM272 1186q0 6 10 20l160 207q16 20 39 21h313q25 0 35 -21l113 -207l4 -16q0 -20 -27 -21h-223q-25 0 -33 23l-32 90q-6 12 -17 0l-55 -90q-12 -23 -37 -23h-225q-25 1 -25 17z" />
<glyph unicode="&#xfc;" d="M49 262q0 45 4 70l86 702q2 14 10.5 22.5t22.5 8.5h313q14 0 21.5 -8t5.5 -23l-76 -618l-2 -23q0 -37 18.5 -58.5t47.5 -21.5q37 0 61.5 28t30.5 75l76 618q2 15 11 23t21 8h314q14 0 21 -8t5 -23l-122 -1003q-2 -14 -11.5 -22.5t-21.5 -8.5h-316q-12 0 -19 8t-5 23l4 39 q2 8 -2 9t-12 -5q-76 -90 -220 -90q-119 0 -192.5 70.5t-73.5 207.5zM256 1280q0 90 57.5 147.5t139.5 57.5q70 0 110 -41t40 -111q0 -90 -55.5 -147.5t-137.5 -57.5q-70 0 -112 41t-42 111zM656 1278q0 92 55 149.5t139 57.5q70 0 111 -41t41 -111q0 -90 -55.5 -147.5 t-139.5 -57.5q-69 0 -110 41t-41 109z" />
<glyph unicode="&#xfd;" horiz-adv-x="987" d="M-20 -377l30 254q4 31 15 31h10q119 0 172 16.5t57 67.5q2 6 2 16l-153 1022v8q0 27 28 27h336q29 0 27 -29l14 -475q0 -8 4 -8t8 10l125 473q6 29 35 29l338 -2q33 0 21 -35l-414 -1032q-66 -158 -131.5 -240t-181 -123t-320.5 -41h-12q-14 0 -10 31zM440 1200 q0 10 8 20l125 191q12 20 39 20h293q23 0 23 -16q0 -6 -11 -21l-170 -192q-16 -18 -39 -19h-243q-25 1 -25 17z" />
<glyph unicode="&#xfe;" horiz-adv-x="1001" d="M-31 -379l219 1782q2 14 11.5 22.5t21.5 8.5h316q12 0 19 -8.5t5 -22.5l-45 -367q0 -16 14 -8q68 53 187 53q127 0 193.5 -88t76.5 -243q2 -25 2 -68q0 -53 -8 -127q-18 -139 -45 -221q-49 -164 -139 -257t-215 -93q-111 0 -174 57q-4 4 -8.5 2t-6.5 -10l-51 -412 q-2 -14 -10 -22.5t-23 -8.5h-313q-14 0 -21.5 8.5t-5.5 22.5zM436 358q16 -45 60 -45q31 0 55 28t35 71q4 18 7 42.5t5 39.5l6 41q2 16 6 48.5t4 55.5q0 53 -16 83t-49 30q-41 0 -68 -41q-6 -4 -6 -15l-39 -321q-4 -6 0 -17z" />
<glyph unicode="&#xff;" horiz-adv-x="987" d="M-20 -377l30 254q4 31 15 31h10q119 0 172 16.5t57 67.5q2 6 2 16l-153 1022v8q0 27 28 27h336q29 0 27 -29l14 -475q0 -8 4 -8t8 10l125 473q6 29 35 29l338 -2q33 0 21 -35l-414 -1032q-66 -158 -131.5 -240t-181 -123t-320.5 -41h-12q-14 0 -10 31zM247 1294 q0 90 57.5 147.5t139.5 57.5q70 0 110 -41t40 -111q0 -90 -55.5 -147.5t-137.5 -57.5q-70 0 -112 41t-42 111zM647 1292q0 92 55 149.5t139 57.5q70 0 111 -41t41 -111q0 -90 -55.5 -147.5t-139.5 -57.5q-69 0 -110 41t-41 109z" />
<glyph unicode="&#x152;" horiz-adv-x="1622" d="M63 393q0 53 5 80l59 488q18 143 88 254.5t170 173t203 61.5q117 0 205 -59q6 -2 10 -2t4 4l2 10q2 14 10 22.5t23 8.5h844q14 0 21 -8.5t5 -22.5l-33 -268q-2 -15 -11 -23t-23 -8h-488q-10 0 -14 -12l-23 -193q-2 -4 1 -8t9 -4h283q14 0 21.5 -8.5t5.5 -22.5l-33 -266 q-2 -14 -10 -22.5t-23 -8.5h-284q-12 0 -13 -12l-26 -205q0 -12 10 -12h489q14 0 21.5 -8.5t5.5 -22.5l-33 -268q-6 -31 -35 -31h-843q-14 0 -21.5 7t-5.5 18v6q2 6 -2 9t-10 -1q-102 -59 -219 -59q-94 0 -173 51t-125.5 145t-46.5 217zM438 430q0 -55 29 -88t80 -33 q57 0 97 41t48 109l64 512l2 24q0 57 -31 91t-82 34q-55 0 -95 -41t-48 -108l-62 -512q-2 -10 -2 -29z" />
<glyph unicode="&#x153;" horiz-adv-x="1583" d="M57 397q0 86 9 138q16 125 45 208q47 156 176 247t311 91q166 0 268 -125q8 -6 17 0q131 125 297 125q180 0 288.5 -94t114.5 -246q0 -147 -14 -274q-2 -31 -33 -31h-506q-12 0 -12 -12l2 -37q10 -78 104 -78q66 0 119 49l10 13q16 16 37 6l205 -96q14 -8 14 -25 q0 -10 -4 -16q-127 -256 -444 -256q-180 0 -283 122q-8 6 -16 0q-133 -123 -301 -122q-182 0 -286.5 91t-115.5 253q-2 20 -2 69zM434 428q0 -35 2 -49q4 -31 21.5 -48.5t44.5 -17.5t48 17.5t34 48.5q18 58 32 156q6 59 7 104q0 35 -2 49q-2 31 -19.5 47.5t-46.5 16.5 q-27 0 -48.5 -16.5t-33.5 -47.5q-20 -59 -33 -153q-6 -57 -6 -107zM1047 637q-2 -12 8 -12h143q12 0 12 10v43q-10 74 -69 74q-29 0 -51.5 -19.5t-34.5 -54.5z" />
<glyph unicode="&#x178;" horiz-adv-x="1153" d="M174 1409q0 25 31 25h334q12 0 20 -7.5t10 -19.5l78 -446q2 -8 7 -8.5t8 8.5l184 446q4 12 15 19.5t22 7.5h338q25 0 24 -19l-4 -16l-455 -887l-4 -16l-57 -461q-2 -14 -10 -22.5t-23 -8.5h-313q-14 0 -21.5 8t-5.5 23l56 461q4 8 0 16l-232 887q-2 4 -2 10zM333 1649 q0 90 57.5 147.5t139.5 57.5q70 0 110 -41t40 -111q0 -90 -55.5 -147.5t-137.5 -57.5q-70 0 -112 41t-42 111zM733 1647q0 92 55 149.5t139 57.5q70 0 111 -41t41 -111q0 -90 -55.5 -147.5t-139.5 -57.5q-69 0 -110 41t-41 109z" />
<glyph unicode="&#x2c6;" horiz-adv-x="708" d="M123 1186q0 6 10 20l160 207q16 20 39 21h313q25 0 35 -21l113 -207l4 -16q0 -20 -27 -21h-223q-25 0 -33 23l-32 90q-6 12 -17 0l-55 -90q-12 -23 -37 -23h-225q-25 1 -25 17z" />
<glyph unicode="&#x2dc;" horiz-adv-x="692" d="M143 1292q0 4 4 17q37 80 95.5 122t121.5 42q35 0 66 -12.5t63 -35.5q43 -33 78 -32q37 0 66 30q23 27 41 11l98 -78q10 -6 10 -23q0 -14 -14 -35q-45 -70 -103.5 -103.5t-115.5 -33.5q-33 0 -57.5 10.5t-59.5 30.5q-23 14 -40 22.5t-32 8.5q-39 0 -65 -35 q-10 -16 -27 -16q-8 0 -16 6l-101 82q-12 10 -12 22z" />
<glyph unicode="&#x2000;" horiz-adv-x="990" />
<glyph unicode="&#x2001;" horiz-adv-x="1981" />
<glyph unicode="&#x2002;" horiz-adv-x="990" />
<glyph unicode="&#x2003;" horiz-adv-x="1981" />
<glyph unicode="&#x2004;" horiz-adv-x="660" />
<glyph unicode="&#x2005;" horiz-adv-x="495" />
<glyph unicode="&#x2006;" horiz-adv-x="330" />
<glyph unicode="&#x2007;" horiz-adv-x="330" />
<glyph unicode="&#x2008;" horiz-adv-x="247" />
<glyph unicode="&#x2009;" horiz-adv-x="396" />
<glyph unicode="&#x200a;" horiz-adv-x="110" />
<glyph unicode="&#x2010;" horiz-adv-x="757" d="M55 451l33 266q2 14 11.5 22.5t21.5 8.5h618q14 0 21.5 -8.5t5.5 -22.5l-33 -266q-2 -14 -11 -22.5t-24 -8.5h-616q-14 0 -21.5 8t-5.5 23z" />
<glyph unicode="&#x2011;" horiz-adv-x="757" d="M55 451l33 266q2 14 11.5 22.5t21.5 8.5h618q14 0 21.5 -8.5t5.5 -22.5l-33 -266q-2 -14 -11 -22.5t-24 -8.5h-616q-14 0 -21.5 8t-5.5 23z" />
<glyph unicode="&#x2012;" horiz-adv-x="757" d="M55 451l33 266q2 14 11.5 22.5t21.5 8.5h618q14 0 21.5 -8.5t5.5 -22.5l-33 -266q-2 -14 -11 -22.5t-24 -8.5h-616q-14 0 -21.5 8t-5.5 23z" />
<glyph unicode="&#x2013;" horiz-adv-x="874" d="M55 451l33 268q2 14 11.5 22.5t21.5 8.5h735q14 0 21.5 -8.5t5.5 -22.5l-33 -268q-2 -14 -11.5 -22.5t-21.5 -8.5h-735q-14 0 -21.5 8t-5.5 23z" />
<glyph unicode="&#x2014;" horiz-adv-x="1224" d="M55 453l33 266q2 14 11.5 22.5t21.5 8.5h1087q14 0 21.5 -8.5t5.5 -22.5l-33 -266q-2 -14 -11 -22.5t-24 -8.5h-1085q-14 0 -21.5 8t-5.5 23z" />
<glyph unicode="&#x2018;" horiz-adv-x="475" d="M90 961l4 16l211 432q12 25 37 25h236q33 0 24 -33l-141 -432q-8 -27 -37 -27h-309q-25 1 -25 19z" />
<glyph unicode="&#x2019;" horiz-adv-x="475" d="M86 975l141 432q8 27 37 27h309q25 -1 25 -19l-4 -16l-213 -432q-12 -25 -37 -25h-233q-33 0 -25 33z" />
<glyph unicode="&#x201a;" horiz-adv-x="1191" d="M-16 -195l102 494q6 29 33 29h272q14 0 20.5 -9.5t2.5 -25.5l-183 -494q-10 -27 -34 -26h-187q-16 0 -22 9t-4 23z" />
<glyph unicode="&#x201c;" horiz-adv-x="843" d="M91 951.5q-5 9.5 1 25.5l197 432q10 25 37 25h221q33 0 24 -33l-129 -430q-10 -29 -34 -29h-295q-17 0 -22 9.5zM494.5 951.5q-5.5 9.5 1.5 25.5l192 432q10 25 37 25h223q31 0 23 -33l-125 -430q-6 -29 -35 -29h-297q-14 0 -19.5 9.5z" />
<glyph unicode="&#x201d;" horiz-adv-x="843" d="M86 975l125 430q6 29 35 29h295q16 0 21 -9.5t-1 -25.5l-192 -432q-10 -25 -37 -25h-223q-31 0 -23 33zM485 975l129 430q10 29 35 29h295q17 0 22 -9.5t-1 -25.5l-197 -432q-10 -25 -37 -25h-221q-33 0 -25 33z" />
<glyph unicode="&#x201e;" horiz-adv-x="872" d="M86 -194l125 430q6 29 35 29h295q16 0 21 -9.5t-1 -25.5l-192 -432q-10 -25 -37 -25h-223q-31 0 -23 33zM485 -194l129 430q10 29 35 29h295q17 0 22 -9.5t-1 -25.5l-197 -432q-10 -25 -37 -25h-221q-33 0 -25 33z" />
<glyph unicode="&#x2022;" horiz-adv-x="630" d="M70 541q0 88 44 161.5t116.5 117.5t154.5 44q102 0 171 -69.5t69 -176.5q0 -86 -43 -160.5t-116 -119.5t-153 -45q-104 0 -173.5 71.5t-69.5 176.5z" />
<glyph unicode="&#x2026;" horiz-adv-x="1703" d="M47 168q0 20 2 31q6 57 43 106t90.5 78t106.5 29q78 0 135 -55.5t57 -135.5q0 -63 -32.5 -117.5t-90 -87t-122.5 -32.5q-84 0 -136.5 52t-52.5 132zM633 168q0 20 2 31q6 57 43 106t90.5 78t106.5 29q78 0 135 -55.5t57 -135.5q0 -63 -32.5 -117.5t-90 -87t-122.5 -32.5 q-84 0 -136.5 52t-52.5 132zM1221 168q0 20 2 31q6 57 43 106t90.5 78t106.5 29q78 0 135 -55.5t57 -135.5q0 -63 -32.5 -117.5t-90 -87t-122.5 -32.5q-84 0 -136.5 52t-52.5 132z" />
<glyph unicode="&#x202f;" horiz-adv-x="396" />
<glyph unicode="&#x2039;" horiz-adv-x="591" d="M100 571q0 10 6 25l177 313q12 23 36 23h242q12 0 19.5 -5t7.5 -14q0 -8 -6 -18l-185 -311q-4 -10 -2 -17l107 -311q2 -4 2 -12q0 -10 -8.5 -17.5t-22.5 -7.5h-242q-25 0 -30 23l-99 313q-2 6 -2 16z" />
<glyph unicode="&#x203a;" horiz-adv-x="583" d="M68 238q0 10 6 18l182 311q4 8 2 17l-106 311q-2 4 -2 10q0 12 8 19.5t22 7.5h242q25 0 31 -23l100 -313l2 -14q0 -12 -8 -27l-176 -313q-10 -23 -37 -23h-242q-24 1 -24 19z" />
<glyph unicode="&#x205f;" horiz-adv-x="495" />
<glyph unicode="&#x20ac;" horiz-adv-x="1136" d="M76 537l16 131q2 14 11.5 22t21.5 8h102q12 0 13 13l2 14q4 12 -11 12h-100q-14 0 -21.5 8.5t-5.5 22.5l17 131q2 14 10 22.5t23 8.5h102q12 0 12 12l6 51q27 209 165.5 333t342.5 124q180 0 286 -92t114 -254v-4q0 -27 -29 -31l-319 -37h-7q-20 0 -22 27q-4 29 -20.5 45 t-43.5 16q-35 0 -59.5 -29.5t-30.5 -78.5l-8 -70q-2 -12 10 -12h283q33 0 20 -35l-51 -131q-10 -27 -37 -27h-239q-12 0 -13 -12l-2 -14q-2 -12 11 -13h217q16 0 22 -9t0 -25l-51 -132q-4 -12 -14.5 -19t-22.5 -7h-176q-12 0 -12 -12l-10 -72q-2 -8 -3 -25q0 -39 17.5 -61.5 t50.5 -22.5q55 0 82 68q8 31 37 27l301 -54q29 -8 20 -35q-51 -158 -179 -246.5t-302 -88.5q-186 0 -292.5 104.5t-106.5 286.5q0 23 4 71l6 48q4 12 -10 12h-101q-14 0 -21 8t-5 23z" />
<glyph unicode="&#x2122;" horiz-adv-x="1228" d="M137 1292l13 111q6 31 34 31h480q12 0 19 -8.5t5 -22.5l-12 -111q-2 -14 -11.5 -22t-23.5 -8h-131q-12 0 -12 -13l-62 -504q-6 -31 -35 -30h-135q-14 0 -21 8t-5 22l63 504q0 12 -10 13h-129q-14 0 -21.5 8t-5.5 22zM666 745l79 658q6 31 35 31h140q23 0 32 -19l68 -115 q6 -10 16 0l94 115q16 19 39 19h138q14 0 21 -8.5t5 -22.5l-82 -658q-2 -14 -10 -22t-22 -8h-136q-14 0 -21 8t-5 22l45 373q2 8 -3 10t-9 -6l-60 -69q-12 -18 -35 -19q-23 0 -32 19l-41 71q-4 8 -9.5 5t-7.5 -11l-45 -373q-2 -14 -11 -22t-22 -8h-135q-14 0 -21 8t-5 22z " />
<glyph unicode="&#x25fc;" horiz-adv-x="1064" d="M0 0v1065h1065v-1065h-1065z" />
</font>
</defs>
</svg>
