<?xml version="1.0" standalone="no"?>
<!DOCTYPE svg PUBLIC "-//W3C//DTD SVG 1.1//EN" "http://www.w3.org/Graphics/SVG/1.1/DTD/svg11.dtd" >
<svg xmlns="http://www.w3.org/2000/svg" xmlns:xlink="http://www.w3.org/1999/xlink" version="1.1">
<metadata></metadata>
<defs>
<font id="barlow_semi_condensedXBd" horiz-adv-x="1028" >
<font-face units-per-em="2048" ascent="1638" descent="-410" />
<missing-glyph horiz-adv-x="409" />
<glyph horiz-adv-x="0" />
<glyph unicode="&#xd;" horiz-adv-x="409" />
<glyph unicode=" "  horiz-adv-x="409" />
<glyph unicode="&#x09;" horiz-adv-x="409" />
<glyph unicode="&#xa0;" horiz-adv-x="409" />
<glyph unicode="!" horiz-adv-x="663" d="M127 199q0 80 61.5 138t139.5 58q80 0 141 -58t61 -138q0 -82 -57 -139.5t-145 -57.5t-144.5 57.5t-56.5 139.5zM162 1409q0 25 24 25h291q25 0 25 -25l-35 -885q0 -10 -7 -17t-18 -7h-221q-10 0 -17 7t-7 17z" />
<glyph unicode="&#x22;" horiz-adv-x="796" d="M23 1407v4q0 20 22 21h274q27 0 23 -25l-33 -430q-2 -10 -9 -17.5t-17 -7.5h-203q-10 0 -17.5 7.5t-9.5 17.5zM459 1407v4q0 20 22 21h275q27 0 22 -25l-33 -430q-2 -10 -9 -17.5t-17 -7.5h-203q-10 0 -17 7.5t-10 17.5z" />
<glyph unicode="#" horiz-adv-x="1353" d="M66 365v239q0 10 7 17.5t17 7.5h141q12 0 13 10l22 160q0 10 -8 10h-94q-10 0 -17.5 7t-7.5 18v241q0 10 7.5 17.5t17.5 7.5h137q12 0 12 10l37 246q2 23 27 22l291 -2q25 0 22 -26l-35 -240q0 -10 9 -10h141q12 0 12 10l37 246q2 23 27 22l290 -2q25 0 23 -26l-35 -240 q0 -10 8 -10h97q10 0 17 -7.5t7 -17.5v-241q0 -11 -7 -18t-17 -7h-142q-12 0 -12 -10l-23 -160q0 -10 9 -10h94q10 0 17 -7.5t7 -17.5l-2 -239q0 -10 -7 -17.5t-17 -7.5h-137q-12 0 -13 -10l-34 -244q-2 -23 -27 -23h-291q-25 0 -22 27l34 240q0 10 -8 10h-143 q-12 0 -12 -10l-35 -244q-2 -23 -27 -23h-291q-25 0 -22 27l35 240q0 10 -9 10h-96q-10 0 -17 7t-7 18zM584 639q0 -10 8 -10h143q13 0 13 10l22 160q0 10 -8 10h-144q-12 0 -12 -10z" />
<glyph unicode="$" horiz-adv-x="1034" d="M59 1038q0 158 89.5 264.5t246.5 135.5q10 4 11 12l-3 123q0 10 7.5 17t17.5 7h164q10 0 17 -7t7 -17l-2 -119q0 -8 11 -12q164 -27 257 -131.5t93 -261.5v-68q0 -10 -7 -17.5t-18 -7.5h-286q-10 0 -17.5 7.5t-7.5 17.5v35q0 61 -33 102t-94 41q-53 0 -86 -31.5 t-33 -83.5q0 -47 39 -77.5t131 -77.5q70 -35 111 -58q162 -94 234.5 -191t72.5 -237q0 -165 -93 -275t-261 -136q-10 -4 -11 -12l5 -101q0 -10 -7.5 -17t-17.5 -7h-170q-10 0 -17.5 7t-7.5 17l5 105q0 8 -11 12q-156 27 -242.5 125t-86.5 244v86q0 10 7 17t17 7h287 q10 0 17 -7t7 -17v-39q0 -59 34 -98.5t93 -39.5q55 0 86 34t31 81q0 45 -39 75t-123 68q-117 55 -170 95q-117 82 -185.5 177t-68.5 234z" />
<glyph unicode="%" horiz-adv-x="1615" d="M86 1116q0 92 45 169t122 121t167 44t166 -45t121 -122t45 -167q0 -92 -44 -169t-121 -122t-167 -45t-167 45t-122 122t-45 169zM262 1116q0 -68 46 -116t112 -48q65 0 110 48.5t45 115.5q0 68 -45 115t-110 47q-66 0 -112 -47t-46 -115zM305 8q-4 8 2 21l758 1388 q10 16 31 17h188q14 0 18.5 -8.5t-2.5 -20.5l-757 -1389q-10 -16 -31 -16h-188q-15 0 -19 8zM870 319q0 90 45.5 167t122 122t166.5 45t167 -45t121 -121.5t44 -167.5q0 -92 -44 -168.5t-120 -121.5t-168 -45q-90 0 -166.5 45t-122 121.5t-45.5 168.5zM1047 319 q0 -70 46 -116.5t111 -46.5q66 0 111 47t45 116q0 66 -46 114t-110 48q-63 0 -110 -48t-47 -114z" />
<glyph unicode="&#x26;" horiz-adv-x="1378" d="M57 354q0 133 61.5 224.5t170.5 160.5q8 8 2 15q-92 115 -121 175t-29 128q0 178 116 285.5t308 107.5q127 0 228.5 -50t159 -139.5t57.5 -205.5q0 -127 -64.5 -215t-177.5 -160q-10 -6 -4 -14q100 -117 131 -154q8 -8 16 0q70 84 107 154q12 23 35 10l215 -123 q20 -14 8 -33q-78 -143 -168 -246q-6 -6 0 -12l104 -127l88 -104q7 -9 7 -17q0 -14 -21 -14h-321q-18 0 -31 14l-55 62q-4 6 -15 2q-172 -96 -368 -96q-195 0 -317 94t-122 278zM397 375q0 -45 32 -76t89 -31q23 0 35 2q53 10 106 37q12 8 3 15l-62 69l-102 117q-6 8 -15 2 q-43 -31 -64.5 -63.5t-21.5 -71.5zM481 1051q0 -27 13.5 -52.5t62.5 -89.5q6 -8 14 -2q47 33 73 67t26 75q0 43 -27 68.5t-70 25.5t-67.5 -25.5t-24.5 -66.5z" />
<glyph unicode="'" horiz-adv-x="378" d="M23 1409v4q0 20 22 21h291q29 0 24 -25l-34 -432q-4 -23 -27 -23h-219q-10 0 -17.5 7.5t-9.5 17.5z" />
<glyph unicode="(" horiz-adv-x="737" d="M2 686q0 508 264 850q8 14 29 14h285q14 0 19 -8t-3 -20q-94 -176 -153.5 -378t-59.5 -458t59.5 -457.5t153.5 -378.5q4 -8 4 -14q0 -14 -20 -14h-285q-21 0 -29 14q-264 346 -264 850z" />
<glyph unicode=")" horiz-adv-x="737" d="M137 1536q0 14 21 14h284q20 0 29 -14q264 -342 264 -850q0 -504 -264 -850q-9 -14 -29 -14h-284q-14 0 -19.5 8t2.5 20q94 176 153.5 378t59.5 458t-59 458t-154 378q-4 8 -4 14z" />
<glyph unicode="*" horiz-adv-x="780" d="M35 1063q0 14 14 20l148 80q10 6 0 13l-148 75q-10 4 -13 14.5t3 20.5l70 131q6 10 15 13.5t19 -3.5l142 -81q4 -4 8 -2t4 8l-2 151q0 10 7 17.5t17 7.5h142q10 0 17 -7.5t7 -17.5l-2 -151q0 -6 4.5 -8.5t8.5 2.5l139 81q8 4 12 5q14 0 23 -15l71 -131q4 -8 4 -14 q0 -14 -14 -21l-147 -75q-8 -6 0 -13l147 -80q10 -4 13.5 -14t-3.5 -20l-71 -131q-12 -23 -33 -11l-141 86q-4 4 -8.5 2t-4.5 -8l2 -153q0 -10 -7 -17.5t-17 -7.5h-142q-10 0 -17 7t-7 18l2 153q0 6 -4 8t-8 -2l-142 -82q-8 -4 -12 -4q-14 0 -22 15l-70 127q-4 8 -4 14z" />
<glyph unicode="+" horiz-adv-x="940" d="M47 508v223q0 10 7 17.5t18 7.5h252q10 0 10 10v252q0 10 7 17t17 7h224q10 0 17 -7t7 -17v-252q0 -10 10 -10h252q11 0 18 -7.5t7 -17.5v-223q0 -10 -7 -17.5t-18 -7.5h-252q-10 0 -10 -10v-252q0 -10 -7 -17t-17 -7h-224q-10 0 -17 7t-7 17v252q0 10 -10 10h-252 q-10 0 -17.5 7.5t-7.5 17.5z" />
<glyph unicode="," horiz-adv-x="499" d="M59 -188l52 491q2 23 24 23h252q29 0 23 -27l-121 -494q-6 -20 -29 -20h-176q-12 0 -19.5 7t-5.5 20z" />
<glyph unicode="-" horiz-adv-x="770" d="M47 473v242q0 10 7 17t18 7h626q10 0 17.5 -7t7.5 -17v-242q0 -10 -7 -17t-18 -7h-626q-11 0 -18 7t-7 17z" />
<glyph unicode="." horiz-adv-x="567" d="M76 186q0 80 62.5 137.5t140.5 57.5t140 -57.5t62 -137.5q0 -84 -57 -141t-145 -57q-89 0 -146 57t-57 141z" />
<glyph unicode="/" horiz-adv-x="925" d="M37 29l516 1384q6 20 29 21h286q31 0 21 -29l-514 -1385q-6 -20 -29 -20h-289q-30 0 -20 29z" />
<glyph unicode="0" horiz-adv-x="1046" d="M59 436v561q0 209 126 333t337 124q213 0 339 -124t126 -333v-561q0 -211 -126 -336t-339 -125q-211 0 -337 125t-126 336zM399 418q0 -70 33 -110t90 -40q58 0 91.5 40t33.5 110v594q0 70 -33.5 109.5t-91.5 39.5q-57 0 -90 -40t-33 -109v-594z" />
<glyph unicode="1" horiz-adv-x="636" d="M31 1126v215q0 20 20 27l162 59q17 7 31 7h299q10 0 17 -7.5t7 -17.5v-1384q0 -10 -7 -17.5t-17 -7.5h-291q-10 0 -17.5 7t-7.5 18v1087q0 8 -10 8l-160 -18h-4q-23 0 -22 24z" />
<glyph unicode="2" horiz-adv-x="1044" d="M55 969v102q6 113 68.5 199t167 133t233.5 47q135 0 237.5 -54.5t159 -148.5t56.5 -211q0 -98 -38 -187t-116 -190q-45 -59 -114.5 -136t-137.5 -148l-67 -72q-4 -4 -3 -8t7 -4h463q10 0 17 -7.5t7 -17.5v-241q0 -10 -7 -17.5t-17 -7.5h-883q-10 0 -17.5 7t-7.5 18v237 q0 18 13 31q256 274 411 465q70 86 108 153.5t38 122.5q0 57 -32 91t-85 34q-51 0 -84 -33.5t-33 -87.5v-69q0 -10 -7 -17.5t-17 -7.5h-295q-10 0 -17.5 7t-7.5 18z" />
<glyph unicode="3" d="M45 451q0 25 25 24h292q25 0 25 -24q4 -49 12 -84q10 -43 39 -68t72 -25q41 0 70.5 25t40.5 66q14 61 14 129q0 76 -14 120q-16 47 -44 72t-67 25q-43 0 -90 -35q-8 -6 -17 -6q-10 0 -18 8l-147 166q-8 12 -9 16q0 8 11 19l286 251q4 4 3 8.5t-7 4.5h-420q-10 0 -17 7 t-7 17v242q0 10 7 17.5t17 7.5h830q10 0 17 -7.5t7 -17.5v-248q0 -18 -12 -31l-242 -231q-10 -10 5 -12q84 -10 142 -63.5t87 -141.5q33 -94 33 -213q0 -143 -56 -252q-49 -111 -153.5 -172t-249.5 -61q-174 0 -295 89t-149 236q-16 63 -21 142z" />
<glyph unicode="4" horiz-adv-x="1157" d="M39 379v201q0 12 6 30l305 805q6 18 29 19h311q31 0 21 -29l-275 -733q-2 -12 8 -13h197q10 0 10 11v202q0 10 7.5 17.5t17.5 7.5h291q10 0 17 -7t7 -18v-202q0 -10 10 -11h78q11 0 18 -7t7 -17v-256q0 -10 -7 -17.5t-18 -7.5h-78q-10 0 -10 -10v-319q0 -10 -7 -17.5 t-17 -7.5h-291q-10 0 -17.5 7t-7.5 18v319q0 10 -10 10h-578q-10 0 -17 7.5t-7 17.5z" />
<glyph unicode="5" horiz-adv-x="1019" d="M61 387v4q0 20 25 21h297q20 0 25 -23q4 -20 8 -31q25 -82 100 -82q37 0 64.5 23t35.5 61q14 47 15 95q0 57 -15 98q-25 74 -100 74q-74 0 -102 -58q-8 -18 -29 -18h-299q-10 0 -17.5 7t-7.5 17v834q0 10 7.5 17.5t17.5 7.5h836q10 0 17 -7.5t7 -17.5v-242q0 -10 -7 -17 t-17 -7h-510q-10 0 -11 -10v-261q0 -6 4.5 -8t8.5 2q80 55 180 56q100 0 178 -40t125 -116q78 -123 78 -307q0 -164 -74 -283q-55 -92 -153.5 -141t-231.5 -49q-168 0 -283.5 79.5t-152.5 229.5q-12 43 -19 92z" />
<glyph unicode="6" horiz-adv-x="1019" d="M59 1077q0 170 123 271.5t326 101.5q129 0 228.5 -46t154.5 -130t55 -195v-71q0 -10 -7 -17.5t-17 -7.5h-291q-10 0 -17.5 7t-7.5 18v34q0 49 -28.5 81t-69.5 32q-47 0 -77 -31.5t-30 -81.5v-180q0 -6 4.5 -8t8.5 2q72 63 180 64q98 0 172 -43t119 -119 q45 -60 67.5 -136.5t22.5 -162.5q0 -170 -78 -283q-53 -92 -149.5 -141t-231.5 -49q-127 0 -223 49t-152 139q-80 113 -80 268zM401 465q0 -63 15 -107q23 -82 100 -82q39 0 63.5 23t36.5 61q15 39 15 105q0 80 -21 121q-27 66 -94 65q-63 0 -94 -63q-20 -41 -21 -123z" />
<glyph unicode="7" horiz-adv-x="948" d="M25 1051l2 358q0 10 7 17.5t17 7.5h852q10 0 17.5 -7.5t7.5 -17.5v-250q0 -18 -4 -31l-385 -1108q-6 -20 -27 -20h-307q-12 0 -18.5 7t-2.5 22l381 1101q4 12 -8 13h-248q-10 0 -10 -10v-82q0 -10 -7 -17.5t-18 -7.5h-225q-10 0 -17 7t-7 18z" />
<glyph unicode="8" horiz-adv-x="1019" d="M53 424q0 113 43 203q33 72 99 116q8 6 0 15q-57 41 -95 112q-41 82 -41 183q0 117 52 207q55 96 160.5 149t238.5 53q143 0 249.5 -56t160.5 -169q41 -86 41 -186q0 -98 -43 -181q-37 -63 -99 -110q-8 -8 0 -15q68 -43 103 -116q43 -92 43 -207q0 -104 -39 -193 q-49 -113 -160 -179t-258 -66q-143 0 -253 64.5t-163 180.5q-39 90 -39 195zM395 451q0 -55 17 -99q10 -37 35.5 -57.5t62.5 -20.5q35 0 60.5 20.5t37.5 55.5q19 42 19 101q0 51 -13 88q-27 86 -104 86q-39 0 -65.5 -22.5t-36.5 -63.5q-12 -39 -13 -88zM395 1016 q0 -53 15 -84q12 -37 38.5 -57.5t61.5 -20.5q37 0 63.5 20.5t38.5 57.5q14 35 15 84q0 43 -13 74q-12 39 -38.5 60t-65.5 21t-65.5 -21.5t-36.5 -59.5q-13 -33 -13 -74z" />
<glyph unicode="9" horiz-adv-x="997" d="M23 975q0 170 77 282q53 92 149.5 141.5t231.5 49.5q127 0 223.5 -49t151.5 -139q80 -113 80 -269l2 -635q0 -170 -123 -271t-326 -101q-129 0 -228 46t-154.5 130t-55.5 194v72q0 10 7.5 17.5t17.5 7.5h291q10 0 17 -7.5t7 -17.5v-35q0 -49 29 -80.5t69 -31.5 q47 0 77 31.5t30 80.5v180q0 6 -4 8.5t-8 -1.5q-72 -63 -181 -64q-98 0 -171.5 43t-118.5 119q-45 59 -67.5 136t-22.5 163zM367 969q0 -80 20 -121q27 -66 94 -66q63 1 94 64q20 41 21 123q0 63 -14 106q-23 82 -101 82q-39 0 -63.5 -22.5t-36.5 -61.5q-14 -39 -14 -104z " />
<glyph unicode=":" horiz-adv-x="686" d="M145 201q0 82 61.5 139t139.5 57q80 0 141.5 -57t61.5 -139t-57.5 -139.5t-145.5 -57.5t-144.5 57.5t-56.5 139.5zM145 864q0 80 61.5 138.5t139.5 58.5q80 0 141.5 -58.5t61.5 -138.5q0 -82 -57.5 -139t-145.5 -57t-144.5 57t-56.5 139z" />
<glyph unicode=";" horiz-adv-x="577" d="M88 815q0 80 61.5 138.5t139.5 58.5q80 0 141.5 -58.5t61.5 -138.5q0 -82 -57.5 -140.5t-145.5 -58.5t-144.5 57.5t-56.5 141.5zM104 -188l39 489q4 23 27 23h252q29 0 22 -27l-114 -490q-6 -20 -27 -20h-174q-27 0 -25 25z" />
<glyph unicode="&#x3c;" horiz-adv-x="940" d="M47 457v250q0 20 19 28l798 352q8 4 13 5q16 0 16 -23v-270q0 -20 -19 -29l-473 -182q-12 -6 0 -13l473 -180q18 -8 19 -28v-273q0 -14 -8 -19t-21 1l-798 352q-18 10 -19 29z" />
<glyph unicode="=" horiz-adv-x="940" d="M47 318v223q0 10 7 17.5t18 7.5h796q10 0 17.5 -7.5t7.5 -17.5v-223q0 -10 -7 -17.5t-18 -7.5h-796q-11 0 -18 7.5t-7 17.5zM47 690v223q0 10 7 17.5t18 7.5h796q10 0 17.5 -7.5t7.5 -17.5v-223q0 -10 -7 -17.5t-18 -7.5h-796q-11 0 -18 7.5t-7 17.5z" />
<glyph unicode="&#x3e;" horiz-adv-x="940" d="M47 94v273q0 20 19 28l473 180q12 6 0 13l-473 182q-18 8 -19 29v270q0 14 8 19.5t21 -1.5l798 -352q18 -8 19 -28v-250q0 -18 -19 -29l-798 -352q-9 -4 -13 -4q-16 0 -16 22z" />
<glyph unicode="?" d="M39 1001v15q0 129 61.5 228t172 154.5t253.5 55.5q139 0 243.5 -51t162 -144.5t57.5 -216.5q0 -92 -29.5 -156.5t-71.5 -105.5t-108 -88q-66 -45 -97.5 -82t-31.5 -88v-28q0 -10 -7 -17.5t-17 -7.5h-289q-10 0 -17.5 7t-7.5 18v49q0 78 28 134t66.5 92t102.5 83 q70 49 102.5 86t32.5 88q0 55 -33.5 87t-93.5 32q-66 0 -102.5 -36t-36.5 -93v-23q0 -23 -25 -22l-291 12q-10 0 -17 5t-7 13zM311 172q0 76 55.5 130t131.5 54q74 0 130 -54t56 -128q0 -76 -55.5 -129t-132.5 -53q-76 0 -130.5 53t-54.5 127z" />
<glyph unicode="@" horiz-adv-x="1605" d="M55 483q0 61 8 117q31 229 150 404.5t297 271.5t383 96q194 0 342.5 -76.5t231.5 -218t83 -325.5q0 -51 -6 -105q-27 -207 -132 -320.5t-277 -113.5q-141 0 -220 78q-8 8 -14 0q-72 -80 -229 -80q-92 0 -151.5 59.5t-67.5 163.5q-2 12 -2 41q0 45 8 123q10 80 30 143 q31 113 96.5 171.5t162.5 58.5q86 0 137 -45q4 -2 8 -2t4 2v10q2 23 27 22h176q25 0 22 -26l-47 -346q-2 -14 -2 -39q0 -57 23.5 -90t66.5 -33q57 0 93 60.5t49 160.5q6 47 6 88q0 207 -117 319.5t-317 112.5q-147 0 -273.5 -73.5t-210.5 -204.5t-104 -295q-6 -49 -6 -92 q0 -143 57 -244.5t154.5 -154t212.5 -52.5q84 0 153.5 22.5t120.5 57.5q10 6 16 6q12 0 19 -12l86 -127q4 -6 4 -16t-10 -19q-82 -57 -192.5 -92t-235.5 -35q-172 0 -311.5 82t-220.5 229.5t-81 337.5zM674 492q0 -16 2 -23q4 -31 20.5 -49.5t46.5 -18.5q57 0 82 68 q16 57 25 121q6 78 6 119q0 31 -18.5 49t-46.5 18q-31 0 -52.5 -18.5t-31.5 -48.5q-18 -51 -25 -125q-8 -70 -8 -92z" />
<glyph unicode="A" horiz-adv-x="1239" d="M45 27l367 1386q6 20 28 21h359q23 0 28 -21l367 -1386l2 -9q0 -18 -22 -18h-306q-22 0 -26 23l-41 180q-2 8 -10 8h-345q-8 0 -10 -8l-43 -183q-6 -20 -26 -20h-301q-27 0 -21 27zM500 485q-2 -6 2 -9t8 -3h219q12 0 10 10l-110 502q-2 8 -6.5 8t-6.5 -8z" />
<glyph unicode="B" horiz-adv-x="1120" d="M86 25v1384q0 10 7 17.5t18 7.5h444q231 0 356 -97.5t125 -302.5q0 -197 -143 -286q-12 -6 -2 -13q168 -106 168 -332q0 -198 -131 -300.5t-338 -102.5h-479q-10 0 -17.5 7t-7.5 18zM426 303q0 -10 10 -10h139q68 0 106 40t38 113q0 72 -37 113t-104 41h-142 q-10 0 -10 -10v-287zM426 872q0 -10 10 -10h121q72 0 110 36t38 103q0 68 -39 105t-109 37h-121q-10 0 -10 -10v-261z" />
<glyph unicode="C" horiz-adv-x="1103" d="M66 451v536q0 139 60 243.5t172 162t257 57.5t257 -55.5t172 -157.5t60 -238v-8q0 -10 -7 -18t-17 -8l-291 -13q-25 0 -24 23v29q0 70 -41 112.5t-109 42.5t-108.5 -43t-40.5 -112v-574q0 -70 40.5 -113t108.5 -43t109 43t41 113v29q0 23 24 22l291 -12q10 0 17 -5t7 -11 v-15q0 -135 -60 -238.5t-172 -159.5t-257 -56t-257 57t-172 163.5t-60 246.5z" />
<glyph unicode="D" horiz-adv-x="1124" d="M86 25v1384q0 10 7 17.5t18 7.5h456q145 0 256 -53.5t171.5 -149.5t60.5 -223v-582q0 -127 -60.5 -223.5t-171 -149.5t-256.5 -53h-456q-11 0 -18 7t-7 18zM426 301q0 -10 10 -10l135 2q61 0 101.5 47t42.5 127v502q0 78 -40 126t-106 48h-133q-10 0 -10 -10v-832z" />
<glyph unicode="E" horiz-adv-x="1042" d="M86 25v1384q0 10 7 17.5t18 7.5h854q10 0 17 -7.5t7 -17.5v-242q0 -10 -7 -17t-17 -7h-529q-10 0 -10 -10v-256q0 -10 10 -11h320q10 0 17 -7t7 -17v-242q0 -10 -7 -17.5t-17 -7.5h-320q-10 0 -10 -10v-264q0 -10 10 -10h529q10 0 17 -7.5t7 -17.5v-241q0 -10 -7 -17.5 t-17 -7.5h-854q-10 0 -17.5 7t-7.5 18z" />
<glyph unicode="F" horiz-adv-x="1007" d="M86 25v1384q0 10 7 17.5t18 7.5h852q10 0 17 -7.5t7 -17.5v-242q0 -10 -7 -17t-17 -7h-527q-10 0 -10 -10v-256q0 -10 10 -11h318q10 0 17 -7t7 -17v-242q0 -10 -7 -17.5t-17 -7.5h-318q-10 0 -10 -10v-540q0 -10 -7 -17.5t-18 -7.5h-290q-10 0 -17.5 7t-7.5 18z" />
<glyph unicode="G" horiz-adv-x="1103" d="M66 446v541q0 139 61 243.5t172 162t256 57.5q143 0 255 -56.5t173 -155.5t61 -226v-43q0 -10 -7 -17.5t-17 -7.5h-291q-10 0 -17 7t-7 18v39q0 66 -40 108.5t-110 42.5q-68 0 -108.5 -46t-40.5 -120v-553q0 -74 45 -120t112 -46q66 0 106 40t40 108v94q0 10 -11 10h-131 q-10 0 -17 7.5t-7 17.5v221q0 10 7 17.5t17 7.5h453q10 0 17 -7.5t7 -17.5v-330q0 -137 -61 -241.5t-172 -160.5t-256 -56t-256 57t-172 162.5t-61 242.5z" />
<glyph unicode="H" horiz-adv-x="1128" d="M86 25v1384q0 10 7 17.5t18 7.5h290q10 0 17.5 -7.5t7.5 -17.5v-532q0 -10 10 -11h264q10 0 11 11v532q0 10 7 17.5t17 7.5h291q10 0 17.5 -7.5t7.5 -17.5v-1384q0 -10 -7.5 -17.5t-17.5 -7.5h-291q-10 0 -17 7t-7 18v540q0 10 -11 10h-264q-10 0 -10 -10v-540 q0 -10 -7 -17.5t-18 -7.5h-290q-10 0 -17.5 7t-7.5 18z" />
<glyph unicode="I" horiz-adv-x="512" d="M86 25v1384q0 10 7 17.5t18 7.5h290q10 0 17.5 -7.5t7.5 -17.5v-1384q0 -10 -7 -17.5t-18 -7.5h-290q-11 0 -18 7t-7 18z" />
<glyph unicode="J" horiz-adv-x="1081" d="M27 422v106q0 10 7 17.5t17 7.5h291q10 0 17.5 -7t7.5 -18v-106q0 -66 38.5 -107t102.5 -41q66 0 106.5 41t40.5 107v987q0 10 7.5 17.5t17.5 7.5h291q10 0 17 -7.5t7 -17.5v-987q0 -129 -61.5 -228.5t-172 -154.5t-253.5 -55t-252 55t-169 154.5t-60 228.5z" />
<glyph unicode="K" horiz-adv-x="1163" d="M86 25v1384q0 10 7 17.5t18 7.5h290q10 0 17.5 -7.5t7.5 -17.5v-498q0 -8 4 -9t8 5l314 510q8 16 28 17h320q14 0 19 -7.5t-3 -21.5l-368 -598q-2 -6 0 -14l387 -764q4 -8 4 -13q0 -16 -23 -16h-317q-18 0 -29 18l-256 512q-8 12 -14 0l-70 -110q-4 -8 -4 -12v-383 q0 -10 -7 -17.5t-18 -7.5h-290q-11 0 -18 7t-7 18z" />
<glyph unicode="L" horiz-adv-x="1034" d="M86 25v1384q0 10 7 17.5t18 7.5h290q10 0 17.5 -7.5t7.5 -17.5v-1108q0 -10 10 -10h537q10 0 17 -7.5t7 -17.5v-241q0 -10 -7 -17.5t-17 -7.5h-862q-11 0 -18 7t-7 18z" />
<glyph unicode="M" horiz-adv-x="1296" d="M84 25v1384q0 10 7 17.5t18 7.5h284q20 0 31 -17l217 -385q6 -10 12 0l219 385q10 16 31 17h285q10 0 17 -7.5t7 -17.5v-1384q0 -10 -7 -17.5t-17 -7.5h-291q-10 0 -17.5 7t-7.5 18v839q0 8 -4 8t-8 -6l-149 -262q-10 -16 -31 -16h-66q-20 0 -30 16l-148 266q-4 6 -8 6.5 t-4 -8.5v-843q0 -10 -7 -17.5t-18 -7.5h-290q-11 0 -18 7t-7 18z" />
<glyph unicode="N" horiz-adv-x="1204" d="M88 25v1384q0 10 7 17.5t18 7.5h295q20 0 28 -19l334 -741q4 -6 8 -6t4 8l-2 733q0 10 7.5 17.5t17.5 7.5h287q10 0 17 -7.5t7 -17.5v-1384q0 -10 -7 -17.5t-17 -7.5h-297q-20 0 -29 18l-334 750q-4 6 -8 5t-4 -9l4 -739q0 -10 -7 -17.5t-18 -7.5h-286q-11 0 -18 7t-7 18 z" />
<glyph unicode="O" horiz-adv-x="1126" d="M66 459v516q0 141 62 248.5t175 167t260 59.5t260 -59.5t175.5 -167t62.5 -248.5v-516q0 -143 -62.5 -252t-175 -168t-260.5 -59q-147 0 -260 59t-175 167.5t-62 252.5zM406 446q0 -78 43 -126t114 -48q72 0 115 48.5t43 125.5v537q0 78 -44 127t-114 49 q-72 0 -114.5 -48t-42.5 -128v-537z" />
<glyph unicode="P" horiz-adv-x="1097" d="M80 25v1384q0 10 7 17.5t17 7.5h519q129 0 228 -56.5t153.5 -160t54.5 -236.5q0 -131 -54.5 -231.5t-153.5 -154.5t-228 -54h-193q-10 0 -10 -11v-505q0 -10 -7 -17.5t-18 -7.5h-291q-10 0 -17 7t-7 18zM420 819q0 -10 10 -10h135q70 0 113 44t43 120q0 78 -43 124 t-113 46h-135q-10 0 -10 -10v-314z" />
<glyph unicode="Q" horiz-adv-x="1093" d="M63 457v508q0 143 60.5 253.5t169 171t252.5 60.5q143 0 253.5 -60.5t171 -171t60.5 -253.5v-508q0 -164 -82 -282t-223 -165q-8 -2 -8 -10v-164q0 -10 -7.5 -17t-17.5 -7h-291q-10 0 -17 7t-7 17v164q0 8 -8 10q-143 47 -224.5 165t-81.5 282zM403 442q0 -76 39 -122 t103 -46q66 0 105.5 46.5t39.5 121.5v549q0 76 -40 122t-105 46q-63 0 -102.5 -46t-39.5 -122v-549z" />
<glyph unicode="R" horiz-adv-x="1122" d="M86 25v1384q0 10 7 17.5t18 7.5h524q127 0 224 -56.5t150.5 -157t53.5 -231.5q0 -129 -55.5 -225t-153.5 -146q-8 -2 -4 -12l223 -577q2 -4 2 -11q0 -18 -22 -18h-305q-21 0 -27 20l-193 543q-4 8 -10 8h-82q-10 0 -10 -10v-536q0 -10 -7 -17.5t-18 -7.5h-290 q-10 0 -17.5 7t-7.5 18zM426 842q0 -10 10 -11h144q66 0 105.5 42t39.5 112q0 74 -40 116t-105 42h-144q-10 0 -10 -10v-291z" />
<glyph unicode="S" horiz-adv-x="1075" d="M59 1042q0 123 59.5 215.5t166 142.5t243.5 50q141 0 252 -54.5t172.5 -151.5t61.5 -224v-39q0 -10 -7.5 -17.5t-17.5 -7.5h-284q-10 0 -17.5 7.5t-7.5 17.5v35q0 59 -43 101t-117 42q-59 0 -92 -30.5t-33 -84.5q0 -39 22.5 -68.5t71 -58t146.5 -77.5l59 -33 q111 -61 176.5 -108.5t109.5 -121t44 -178.5q0 -125 -60.5 -219t-169 -145t-251.5 -51q-144 0 -253.5 51t-169 144t-59.5 216v56q0 10 7.5 17t17.5 7h285q10 0 17 -7t7 -17v-39q0 -57 45 -97.5t117 -40.5q63 0 96 33t33 80q0 39 -23.5 66.5t-64.5 50t-141 74.5 q-117 57 -199 111t-140.5 142.5t-58.5 210.5z" />
<glyph unicode="T" horiz-adv-x="1099" d="M45 1165v244q0 10 7 17.5t18 7.5h962q10 0 17.5 -7.5t7.5 -17.5v-244q0 -10 -7.5 -17t-17.5 -7h-307q-10 0 -10 -11v-1105q0 -10 -7.5 -17.5t-17.5 -7.5h-291q-10 0 -17 7t-7 18v1105q0 10 -10 11h-295q-10 0 -17.5 7t-7.5 17z" />
<glyph unicode="U" horiz-adv-x="1128" d="M78 453v956q0 10 7 17.5t17 7.5h291q10 0 17.5 -7.5t7.5 -17.5v-973q0 -72 41 -117t106 -45q66 0 106 45.5t40 116.5v973q0 10 7 17.5t17 7.5h291q10 0 17.5 -7.5t7.5 -17.5v-956q0 -139 -60.5 -246t-170 -165t-255.5 -58q-145 0 -255.5 58t-171 164.5t-60.5 246.5z" />
<glyph unicode="V" horiz-adv-x="1167" d="M43 1407v8q0 18 23 19h315q23 0 27 -23l176 -874q2 -6 6 -6.5t6 6.5l172 874q2 23 27 23h307q29 0 22 -27l-356 -1387q-6 -20 -29 -20h-315q-23 0 -29 20z" />
<glyph unicode="W" horiz-adv-x="1603" d="M20 1407v8q0 18 23 19h305q25 0 27 -23l135 -711q2 -6 6 -6t6 6l131 711q2 23 27 23h252q23 0 26 -23l144 -713q2 -6 6 -5t6 7l125 711q2 23 27 23h297q29 0 22 -27l-305 -1384q-4 -23 -27 -23h-276q-25 0 -27 23l-141 747q-2 6 -6 6t-6 -6l-123 -747q-2 -23 -27 -23 h-268q-21 0 -27 20z" />
<glyph unicode="X" horiz-adv-x="1163" d="M47 1417q0 16 23 17h307q20 0 29 -19l169 -383q6 -12 13 0l172 383q8 18 28 19h306q14 0 19 -7.5t-1 -21.5l-330 -682q-2 -6 0 -12l330 -682q4 -8 4 -13q0 -16 -22 -16h-303q-20 0 -29 18l-174 383q-6 12 -13 0l-172 -383q-8 -18 -28 -18h-305q-15 0 -20 7t1 22l330 682 q2 6 0 12l-330 682q-4 8 -4 12z" />
<glyph unicode="Y" horiz-adv-x="1155" d="M47 1417q0 16 21 17h313q20 0 27 -21l163 -485q2 -6 6.5 -6t6.5 6l164 485q6 20 26 21h311q14 0 18.5 -8.5t0.5 -20.5l-356 -870l-3 -13v-493q0 -10 -7 -17.5t-17 -7.5h-291q-10 0 -17 7t-7 18v493l-3 13l-354 870q-2 4 -2 12z" />
<glyph unicode="Z" horiz-adv-x="1001" d="M45 25v258q0 16 8 30l522 817q6 12 -6 13h-499q-10 0 -17.5 7t-7.5 17v242q0 10 7 17.5t18 7.5h856q10 0 17 -7.5t7 -17.5v-258q0 -16 -8 -31l-524 -817q-6 -12 6 -12h502q10 0 17 -7.5t7 -17.5v-241q0 -10 -7 -17.5t-17 -7.5h-856q-11 0 -18 7t-7 18z" />
<glyph unicode="[" horiz-adv-x="808" d="M66 -295v1929q0 10 7 17.5t17 7.5h490q10 0 17 -7t7 -18v-243q0 -10 -7 -17.5t-17 -7.5h-164q-10 0 -10 -10v-1372q0 -10 10 -11h164q10 0 17 -7t7 -17v-244q0 -10 -7 -17t-17 -7h-490q-10 0 -17 7t-7 17z" />
<glyph unicode="\" horiz-adv-x="925" d="M35 1415q0 18 22 19h287q23 0 29 -21l516 -1384q2 -5 2 -11q0 -18 -23 -18h-288q-23 0 -29 20l-514 1385q-2 4 -2 10z" />
<glyph unicode="]" horiz-adv-x="808" d="M205 -51q0 10 7 17t17 7h164q10 0 10 11v1372q0 10 -10 10h-164q-10 0 -17 7t-7 18v243q0 10 7 17.5t17 7.5h490q10 0 17 -7t7 -18v-1929q0 -10 -7 -17t-17 -7h-490q-10 0 -17 7t-7 17v244z" />
<glyph unicode="^" horiz-adv-x="933" d="M57 631l260 782q6 20 27 21h242q20 0 26 -21l265 -782q2 -4 2 -10q0 -18 -21 -19h-235q-23 0 -29 21l-121 438q-2 6 -6 6t-6 -6l-121 -438q-6 -20 -29 -21h-235q-13 0 -18 7t-1 22z" />
<glyph unicode="_" horiz-adv-x="997" d="M27 25v204q0 10 7 17.5t17 7.5h895q10 0 17.5 -7t7.5 -18v-204q0 -10 -7.5 -17.5t-17.5 -7.5h-895q-10 0 -17 7t-7 18z" />
<glyph unicode="`" horiz-adv-x="524" d="M43 1409q0 14 21 14h272q20 0 31 -16l115 -207q4 -8 4 -12q0 -16 -21 -17h-231q-16 0 -29 15l-156 207q-6 10 -6 16z" />
<glyph unicode="a" horiz-adv-x="1015" d="M37 295q0 178 107.5 254t314.5 76h141q10 0 10 10v45q0 47 -29.5 75.5t-80.5 28.5q-37 0 -62.5 -17t-36.5 -46q-6 -23 -26 -21l-297 19q-25 4 -25 22q6 98 64.5 174t158 118t222.5 42q131 0 233.5 -45t160.5 -124t58 -179v-702q0 -10 -7 -17.5t-17 -7.5h-291 q-10 0 -17.5 7t-7.5 18v57q0 6 -4 7t-8 -5q-74 -98 -238 -100q-141 0 -232 71.5t-91 239.5zM381 319q0 -41 25.5 -64.5t68.5 -23.5q55 0 95 32t40 83v62q0 10 -10 10h-92q-59 0 -93 -25.5t-34 -73.5z" />
<glyph unicode="b" horiz-adv-x="1040" d="M76 25v1384q0 10 7 17.5t17 7.5h291q10 0 17.5 -7.5t7.5 -17.5v-408q0 -6 4 -7t8 3q70 78 209 78q131 0 212 -85t112 -240q18 -84 18 -203q0 -139 -18 -225q-33 -160 -114 -249t-208 -89q-137 0 -211 82q-4 4 -8 3t-4 -8v-36q0 -10 -7.5 -17.5t-17.5 -7.5h-291 q-10 0 -17 7t-7 18zM418 532q0 -102 8 -149q10 -49 35.5 -79t64.5 -30q41 0 68 30t35 79q10 59 10 149q0 104 -12 152q-10 47 -37 73.5t-64 26.5q-41 0 -65.5 -27.5t-34.5 -74.5q-8 -45 -8 -150z" />
<glyph unicode="c" horiz-adv-x="1011" d="M55 532q0 117 19 213q29 152 146.5 241t297.5 89q174 0 293 -86t147 -231q4 -20 9 -66v-4q0 -18 -23 -22l-289 -29h-6q-14 0 -18 16v13l-6 32q-10 39 -38 62.5t-71 23.5q-86 0 -108 -96q-10 -51 -11 -156q0 -115 13 -165q10 -43 36.5 -68t69.5 -25q47 0 73.5 26t33.5 67 q4 20 4 30q4 27 26 23l289 -25q25 -4 23 -26q0 -18 -4 -47q-23 -160 -142 -249t-301 -89t-299 89t-145 246q-18 92 -19 213z" />
<glyph unicode="d" horiz-adv-x="1040" d="M61 547q0 119 19 203q31 156 111.5 240.5t211.5 84.5q139 0 209 -78q4 -4 8.5 -3t4.5 7v408q0 10 7 17.5t17 7.5h291q10 0 17.5 -7.5t7.5 -17.5v-1384q0 -10 -7.5 -17.5t-17.5 -7.5h-291q-10 0 -17 7t-7 18v36q0 6 -4.5 7.5t-8.5 -2.5q-74 -82 -211 -82q-127 0 -207.5 89 t-113.5 249q-18 86 -19 225zM401 532q0 -90 11 -149q8 -49 34.5 -79t67.5 -30q39 0 64.5 30t35.5 79q9 47 9 149q0 104 -9 150q-10 47 -34.5 74.5t-65.5 27.5q-37 0 -63.5 -26.5t-36.5 -73.5q-12 -47 -13 -152z" />
<glyph unicode="e" horiz-adv-x="1024" d="M59 555q0 80 9 137q23 182 136 283.5t314 101.5q397 0 447 -418q10 -102 10 -198q0 -25 -25 -25h-540q-10 0 -11 -10q4 -41 9 -55q10 -43 43.5 -70t85.5 -27q92 0 131 78q8 20 30 17l240 -45q25 -6 18 -29q-41 -145 -153.5 -228t-274.5 -83q-168 0 -283.5 87t-154.5 226 q-31 104 -31 258zM401 635q-4 -10 9 -10h211q10 0 10 10q-4 37 -8 53q-18 96 -111 96q-45 0 -68.5 -23.5t-33.5 -70.5q-4 -18 -9 -55z" />
<glyph unicode="f" horiz-adv-x="718" d="M39 827v207q0 10 7 17.5t17 7.5h84q10 0 11 10v59q0 123 46 192t139 96q76 21 192 21q27 0 55 -1h41q10 0 17 -7.5t7 -17.5v-188q0 -10 -7 -17.5t-17 -7.5h-39q-49 -2 -71.5 -26.5t-22.5 -71.5v-31q0 -10 10 -10h145q11 0 18 -7.5t7 -17.5v-207q0 -10 -7 -17t-18 -7h-145 q-10 0 -10 -10v-768q0 -10 -7.5 -17.5t-17.5 -7.5h-291q-10 0 -17 7t-7 18v768q0 10 -11 10h-84q-10 0 -17 7t-7 17z" />
<glyph unicode="g" horiz-adv-x="1038" d="M53 535q0 57 5 121.5t14 97.5q2 4 2 12q25 145 111.5 227t224.5 82q133 0 206 -92q4 -6 8.5 -4t4.5 8v47q0 10 7 17.5t17 7.5h291q10 0 17.5 -7.5t7.5 -17.5v-944q0 -256 -144.5 -380t-408.5 -124q-78 0 -144 8q-25 0 -24 25l8 250q0 27 27 22q55 -6 102 -6 q127 0 185.5 53.5t58.5 167.5l-15 -16q-70 -82 -198 -82q-135 0 -227.5 77t-118.5 234q-16 57 -17 216zM395 532q0 -86 13 -153q10 -43 37.5 -67.5t68.5 -24.5q43 0 70.5 24.5t36.5 67.5q8 60 8 156q0 100 -11 155q-8 43 -35.5 68.5t-70.5 25.5q-39 0 -64.5 -25.5 t-35.5 -66.5q-16 -76 -17 -160z" />
<glyph unicode="h" d="M74 25v1384q0 10 7 17.5t17 7.5h291q10 0 17.5 -7.5t7.5 -17.5v-432q0 -6 5 -7t9 5q72 100 211 100q152 0 238 -97t86 -271v-682q0 -10 -7.5 -17.5t-17.5 -7.5h-291q-10 0 -17 7t-7 18v632q0 57 -28 92t-75 35q-49 0 -77.5 -33.5t-28.5 -93.5v-632q0 -10 -7.5 -17.5 t-17.5 -7.5h-291q-10 0 -17 7t-7 18z" />
<glyph unicode="i" horiz-adv-x="514" d="M61 1323q0 88 54.5 141.5t140.5 53.5q88 0 142.5 -53.5t54.5 -141.5t-54.5 -141.5t-142.5 -53.5q-86 0 -140.5 53.5t-54.5 141.5zM86 25v1009q0 10 7 17.5t18 7.5h290q10 0 17.5 -7.5t7.5 -17.5v-1009q0 -10 -7 -17.5t-18 -7.5h-290q-11 0 -18 7t-7 18z" />
<glyph unicode="j" horiz-adv-x="493" d="M-137 -152q0 27 26 23h21q94 0 131 33q41 37 41 125v1005q0 10 7 17.5t17 7.5h291q10 0 17.5 -7.5t7.5 -17.5v-1003q0 -174 -39 -268.5t-153 -138.5q-101 -39 -290 -39q-26 0 -53 1q-24 0 -24 25v237zM55 1321q0 80 59.5 137.5t137.5 57.5t137.5 -57.5t59.5 -137.5 q0 -82 -55.5 -138.5t-141.5 -56.5t-141.5 56.5t-55.5 138.5z" />
<glyph unicode="k" horiz-adv-x="1034" d="M74 25v1384q0 10 7 17.5t17 7.5h291q10 0 17.5 -7.5t7.5 -17.5v-633q0 -6 5 -8t7 4l180 270q10 16 29 17h315q14 0 19.5 -9.5t-2.5 -21.5l-248 -354q-4 -6 0 -15l278 -630q4 -8 4 -13q0 -16 -22 -16h-303q-23 0 -29 20l-147 394q-2 6 -6.5 6t-8.5 -4l-67 -105 q-4 -8 -4 -12v-274q0 -10 -7.5 -17.5t-17.5 -7.5h-291q-10 0 -17 7t-7 18z" />
<glyph unicode="l" horiz-adv-x="485" d="M72 25v1384q0 10 7 17.5t17 7.5h291q10 0 17.5 -7.5t7.5 -17.5v-1384q0 -10 -7.5 -17.5t-17.5 -7.5h-291q-10 0 -17 7t-7 18z" />
<glyph unicode="m" horiz-adv-x="1562" d="M74 25v1009q0 10 7 17.5t17 7.5h289q10 0 17.5 -7.5t7.5 -17.5v-57q0 -6 4 -8t8 4q80 102 221 102q186 0 266 -149q6 -10 17 6q43 78 110.5 110.5t145.5 32.5q151 0 231 -96t80 -272v-682q0 -10 -7 -17.5t-18 -7.5h-288q-10 0 -17.5 7t-7.5 18v632q0 57 -26.5 92 t-71.5 35q-47 0 -75 -34.5t-28 -92.5v-632q0 -10 -7 -17.5t-17 -7.5h-291q-10 0 -17.5 7t-7.5 18v632q0 57 -26.5 92t-73.5 35t-75.5 -34.5t-28.5 -92.5v-632q0 -10 -7.5 -17.5t-17.5 -7.5h-289q-10 0 -17 7t-7 18z" />
<glyph unicode="n" d="M74 25v1009q0 10 7 17.5t17 7.5h291q10 0 17.5 -7.5t7.5 -17.5v-57q0 -6 5 -7t9 5q72 100 211 100q152 0 238 -97t86 -271v-682q0 -10 -7.5 -17.5t-17.5 -7.5h-291q-10 0 -17 7t-7 18v632q0 57 -28 92t-75 35q-49 0 -77.5 -33.5t-28.5 -93.5v-632q0 -10 -7.5 -17.5 t-17.5 -7.5h-291q-10 0 -17 7t-7 18z" />
<glyph unicode="o" horiz-adv-x="1034" d="M55 530q0 121 15 195q23 162 141.5 256t306.5 94t306 -94t141 -254q14 -78 14 -195q0 -96 -10 -184q-23 -170 -141.5 -267t-309.5 -97q-190 0 -309 95t-141 263q-12 80 -13 188zM397 532q0 -98 4 -141q10 -53 40 -85t77 -32q45 0 75 32t40 85q6 68 6 141q0 53 -8 140 q-8 53 -38 82.5t-75 29.5q-47 0 -76.5 -30.5t-38.5 -81.5q-6 -43 -6 -140z" />
<glyph unicode="p" horiz-adv-x="1044" d="M80 -350v1384q0 10 7 17.5t17 7.5h291q10 0 17.5 -7.5t7.5 -17.5v-37q0 -6 4 -7t8 3q74 82 211 82q127 0 208 -89t114 -249q18 -86 18 -225q0 -119 -18 -203q-31 -156 -112 -240.5t-212 -84.5q-139 0 -209 77q-4 4 -8 3t-4 -7v-407q0 -10 -7 -17.5t-18 -7.5h-291 q-10 0 -17 7.5t-7 17.5zM422 526q0 -104 8 -149q10 -47 34.5 -75t65.5 -28q37 0 64 27t37 74q12 47 12 151q0 90 -10 150q-8 49 -35 78.5t-68 29.5q-39 0 -64.5 -29.5t-35.5 -78.5q-8 -47 -8 -150z" />
<glyph unicode="q" horiz-adv-x="1044" d="M61 512q0 139 19 225q33 160 113.5 249t207.5 89q137 0 211 -82q4 -4 8.5 -3t4.5 7v37q0 10 7 17.5t17 7.5h291q10 0 17.5 -7.5t7.5 -17.5v-1384q0 -10 -7.5 -17.5t-17.5 -7.5h-291q-10 0 -17 7.5t-7 17.5v407q0 6 -4.5 7.5t-8.5 -3.5q-69 -77 -205 -77h-4 q-131 0 -211.5 85t-111.5 240q-18 84 -19 203zM401 526q0 -104 13 -151q10 -47 36.5 -74t63.5 -27q41 0 65.5 28t34.5 75q9 45 9 149q0 102 -9 150q-10 49 -35.5 78.5t-64.5 29.5q-41 0 -67.5 -29.5t-34.5 -78.5q-10 -59 -11 -150z" />
<glyph unicode="r" horiz-adv-x="743" d="M74 25v1009q0 10 7 17.5t17 7.5h291q10 0 17.5 -7.5t7.5 -17.5v-65q0 -8 4 -10.5t6 4.5q65 110 186 110h2h4q55 0 99 -24q14 -10 10 -31l-45 -287q-2 -23 -29 -16q-33 8 -61 8q-35 0 -60 -8q-49 -10 -82.5 -50t-33.5 -98v-542q0 -10 -7.5 -17.5t-17.5 -7.5h-291 q-10 0 -17 7t-7 18z" />
<glyph unicode="s" horiz-adv-x="958" d="M47 305v17q0 10 7 17t18 7h276q25 0 25 -12v-15q0 -37 32.5 -60t81.5 -23q43 0 69 18t26 47q0 33 -34 50.5t-110 35.5q-80 18 -133 41q-106 41 -176 110.5t-70 194.5q0 158 115 250t303 92q193 0 309.5 -97t116.5 -257q0 -23 -24 -23h-269q-25 0 -24 17v16q0 35 -29 57.5 t-74 22.5q-43 0 -70.5 -20.5t-27.5 -51.5q0 -39 38 -57t122 -41q49 -10 88 -25q133 -43 212 -111.5t79 -195.5q0 -154 -118 -239.5t-317 -85.5q-133 0 -233 41t-154.5 113.5t-54.5 166.5z" />
<glyph unicode="t" horiz-adv-x="702" d="M29 829v205q0 10 7 17.5t17 7.5h92q10 0 11 10v238q0 10 7 17t17 7h277q10 0 17 -7t7 -17v-238q0 -10 11 -10h145q10 0 17.5 -7.5t7.5 -17.5v-205q0 -10 -7.5 -17t-17.5 -7h-145q-10 0 -11 -10v-402q0 -51 20.5 -74.5t63.5 -23.5h45q10 0 17.5 -7t7.5 -18v-239 q0 -25 -25 -25q-82 -4 -118 -4q-170 0 -253 53.5t-83 202.5v537q0 10 -11 10h-92q-10 0 -17 7t-7 17z" />
<glyph unicode="u" d="M68 326v708q0 10 7 17.5t17 7.5h291q10 0 17.5 -7.5t7.5 -17.5v-633q0 -59 26.5 -92t75.5 -33q43 0 70.5 26t33.5 73v659q0 10 7.5 17.5t17.5 7.5h291q10 0 17 -7.5t7 -17.5v-1009q0 -10 -7 -17.5t-17 -7.5h-291q-10 0 -17.5 7t-7.5 18v49q0 6 -4 7t-8 -5 q-70 -92 -217 -92q-139 0 -228 87t-89 255z" />
<glyph unicode="v" horiz-adv-x="1015" d="M33 1040q0 18 22 19h318q25 0 26 -23l103 -549q2 -6 6 -6t6 6l102 549q2 23 27 23l318 -2q27 0 20 -27l-281 -1010q-6 -20 -28 -20h-326q-23 0 -29 20l-282 1012z" />
<glyph unicode="w" horiz-adv-x="1474" d="M33 1032v8q0 18 22 19h287q25 0 27 -23l96 -547q2 -6 6 -6t6 6l101 547q2 23 26 23h256q25 0 27 -23l106 -547q2 -6 6.5 -6t6.5 6l102 547q2 23 27 23l284 -2q29 0 23 -27l-260 -1010q-6 -20 -29 -20h-291q-23 0 -26 23l-103 458q-2 8 -6 8t-6 -8l-90 -458 q-2 -23 -27 -23h-285q-22 0 -28 20z" />
<glyph unicode="x" horiz-adv-x="1046" d="M33 1042q0 16 20 17h314q23 0 30 -19l115 -215q6 -8 12 2l113 213q10 18 31 19h325q14 0 18.5 -8.5t-1.5 -20.5l-279 -493q-2 -6 0 -13l279 -495q4 -8 4 -13q0 -16 -21 -16h-315q-18 0 -29 18l-114 220q-6 10 -13 0l-116 -220q-8 -18 -29 -18h-324q-14 0 -18 8t2 21 l278 495q4 6 0 13l-278 493q-4 8 -4 12z" />
<glyph unicode="y" horiz-adv-x="985" d="M27 1040q0 18 22 19h311q25 0 27 -23l100 -549q2 -6 6.5 -6t6.5 6l98 549q2 23 27 23l311 -2q12 0 17 -7.5t3 -19.5l-303 -1050q-49 -154 -102 -233t-156.5 -117t-296.5 -38h-12q-6 0 -10 7.5t-4 17.5v229q0 25 10 25h10q121 0 172 24.5t58 98.5l-3 12l-290 1026z" />
<glyph unicode="z" horiz-adv-x="862" d="M35 25v266q0 18 10 28l352 420q8 12 -6 13h-319q-10 0 -17.5 7t-7.5 17v258q0 10 7 17.5t18 7.5h714q10 0 17.5 -7.5t7.5 -17.5v-266q0 -16 -12 -29l-367 -420q-8 -12 6 -12h363q10 0 17 -7t7 -17v-258q0 -10 -7 -17.5t-17 -7.5h-742q-10 0 -17 7t-7 18z" />
<glyph unicode="{" horiz-adv-x="790" d="M66 565v217q0 25 24 27q127 12 127 180v410q0 123 74 191.5t207 68.5h202q10 0 17.5 -7t7.5 -18v-243q0 -10 -7 -17.5t-18 -7.5h-41q-43 0 -72.5 -34t-29.5 -87v-305q0 -199 -121 -260q-12 -6 0 -12q121 -59 121 -260v-314q0 -53 29.5 -87t72.5 -34h41q10 0 17.5 -7 t7.5 -17v-244q0 -10 -7 -17t-18 -7h-202q-133 0 -207 68.5t-74 191.5v415q0 170 -127 183q-25 4 -24 26z" />
<glyph unicode="|" horiz-adv-x="428" d="M43 -139v1671q0 10 7 17t18 7h290q10 0 17.5 -7t7.5 -17v-1671q0 -10 -7 -17.5t-18 -7.5h-290q-11 0 -18 7t-7 18z" />
<glyph unicode="}" horiz-adv-x="790" d="M66 -51q0 10 7 17t17 7h41q43 0 72.5 34t29.5 87v314q0 201 121 260q12 6 0 12q-121 61 -121 260v305q0 53 -29.5 87t-72.5 34h-41q-10 0 -17 7t-7 18v243q0 10 7 17.5t17 7.5h203q133 0 206.5 -68.5t73.5 -191.5v-410q0 -168 127 -180q25 -2 25 -27v-217q0 -23 -25 -26 q-127 -12 -127 -183v-415q0 -123 -73.5 -191.5t-206.5 -68.5h-203q-10 0 -17 7t-7 17v244z" />
<glyph unicode="~" horiz-adv-x="1071" d="M53 563q35 100 122 168t190 68q78 0 163 -51q10 -6 43 -26t59.5 -30t51.5 -10q61 0 111 72q14 20 32 8l181 -113q18 -12 10 -33q-43 -96 -128 -160.5t-181 -64.5q-45 0 -83 13.5t-79 37.5q-12 6 -44 24.5t-60.5 29t-55.5 10.5q-74 0 -125 -72q-16 -20 -35 -8l-159 104 q-18 12 -13 33z" />
<glyph unicode="&#xa1;" horiz-adv-x="663" d="M127 1253q0 82 56.5 139.5t144.5 57.5t145 -57.5t57 -139.5q0 -80 -61 -138t-141 -58q-78 0 -139.5 58.5t-61.5 137.5zM162 43l35 885q0 10 7 17t17 7h221q10 0 17.5 -7t7.5 -17l35 -885q0 -25 -25 -25h-291q-25 0 -24 25z" />
<glyph unicode="&#xa2;" horiz-adv-x="1011" d="M55 717q0 117 19 213q23 117 99.5 197.5t195.5 113.5q8 2 8 12l-8 148q0 25 22 24h236q23 0 22 -24l-6 -144q0 -10 8 -12q123 -29 204 -107.5t103 -195.5q4 -20 9 -65v-5q0 -18 -23 -22l-289 -29h-6q-14 0 -18 17v12l-6 33q-10 39 -38 62.5t-71 23.5q-86 0 -108 -97 q-10 -51 -11 -155q0 -115 13 -166q10 -43 36.5 -67.5t69.5 -24.5q47 0 73.5 25.5t33.5 66.5q4 21 4 31q4 27 26 22l289 -24q25 -4 23 -27q0 -18 -4 -47q-18 -127 -99.5 -211t-208.5 -113q-10 -4 -10 -12l6 -141q0 -25 -22 -25h-236q-23 0 -22 25l8 145q0 10 -8 12 q-121 31 -197 113t-98 205q-18 92 -19 213z" />
<glyph unicode="&#xa3;" horiz-adv-x="1163" d="M86 598v223q0 10 7 17.5t18 7.5h116q10 0 11 10v131q0 219 119.5 341t324.5 122q170 0 279.5 -93t152.5 -259l2 -8q0 -16 -22 -21l-277 -37h-6q-16 0 -23 19q-29 109 -106 108q-104 -4 -104 -160v-143q0 -10 10 -10h313q10 0 17.5 -7.5t7.5 -17.5v-223q0 -10 -7.5 -17.5 t-17.5 -7.5h-313q-10 0 -10 -10v-84q-1 -108 -58 -176q-4 -4 -2 -8t8 -4h568q10 0 17 -7.5t7 -17.5v-241q0 -10 -7 -17.5t-17 -7.5h-914q-10 0 -17 7t-7 18v247q0 16 14 31q39 33 53.5 74t14.5 102v84q0 10 -11 10h-116q-10 0 -17.5 7.5t-7.5 17.5z" />
<glyph unicode="&#xa4;" horiz-adv-x="1208" d="M31 993q0 8 8 17l180 157q8 8 19 9q10 0 16 -9l125 -125q6 -6 14 -2q94 47 205 47q113 0 211 -51q10 -2 14 2l131 129q8 8 17 9q10 0 18 -9l180 -157q8 -8 9 -17q0 -10 -9 -18l-145 -144q-4 -4 -2 -14q43 -88 43 -194q0 -109 -47 -203q-2 -8 2 -14l137 -138q8 -8 8 -18 q0 -8 -8 -17l-180 -157q-8 -8 -19 -8q-8 0 -16 8l-127 125q-6 6 -14 2q-96 -45 -203 -45q-102 0 -195 41q-10 2 -14 -2l-123 -121q-8 -8 -16 -8q-10 0 -19 8l-180 157q-8 8 -8 17q0 10 8 18l129 127q6 6 2 15q-53 96 -53 213q0 109 47 202q4 10 -2 15l-135 135q-8 8 -8 18z M418 623q0 -72 53 -125.5t127 -53.5q72 0 124 52.5t54 126.5q-2 74 -54 126t-124 52q-74 0 -127 -52.5t-53 -125.5z" />
<glyph unicode="&#xa5;" horiz-adv-x="1247" d="M96 1417q0 16 21 17h313q20 0 27 -21l164 -485q2 -6 6 -6t6 6l164 485q6 20 26 21h312q14 0 18 -8.5t0 -20.5l-291 -711q-2 -4 1 -8t7 -4h172q10 0 17.5 -7t7.5 -18v-135q0 -10 -7 -17t-18 -7h-237q-10 0 -10 -11v-69q0 -10 10 -10h237q10 0 17.5 -7.5t7.5 -17.5v-135 q0 -10 -7 -17.5t-18 -7.5h-237q-10 0 -10 -10v-184q0 -10 -7.5 -17.5t-17.5 -7.5h-291q-10 0 -17 7t-7 18v184q0 10 -11 10h-237q-10 0 -17.5 7.5t-7.5 17.5v135q0 10 7.5 17.5t17.5 7.5h237q10 0 11 10v69q0 10 -11 11h-237q-10 0 -17.5 7t-7.5 17v135q0 10 7.5 17.5 t17.5 7.5h172q4 0 7 4t1 8l-289 711q-2 4 -2 12z" />
<glyph unicode="&#xa6;" horiz-adv-x="428" d="M43 -139v698q0 10 7 17.5t18 7.5h290q10 0 17.5 -7.5t7.5 -17.5v-698q0 -10 -7 -17.5t-18 -7.5h-290q-11 0 -18 7t-7 18zM43 831v701q0 10 7 17t18 7h290q10 0 17.5 -7t7.5 -17v-701q0 -10 -7 -17t-18 -7h-290q-11 0 -18 7t-7 17z" />
<glyph unicode="&#xa7;" horiz-adv-x="989" d="M59 1092q0 100 56.5 182t156 129t226.5 47q125 0 222 -45t152.5 -128t55.5 -192v-38q0 -10 -7.5 -17.5t-17.5 -7.5h-291q-10 0 -17 5t-7 13v19q0 43 -26.5 71.5t-67.5 28.5t-67 -25.5t-26 -64.5q0 -55 44 -87t149 -77q102 -45 164.5 -79.5t105.5 -84.5q74 -80 74 -200 q0 -98 -49 -185q-51 -86 -125 -118q-4 -2 -5 -6.5t5 -6.5q88 -63 129 -129.5t41 -161.5q0 -162 -125 -258t-317 -96q-193 0 -306.5 94.5t-117.5 251.5l-2 62q0 10 7 17t17 7h291q25 0 25 -22v-23q0 -43 26.5 -69.5t67.5 -26.5t67.5 24.5t26.5 61.5q0 33 -28.5 60.5t-68.5 49 t-141 68.5q-98 45 -158.5 91t-95.5 110q-39 70 -39 164q0 113 60 194q39 51 106 90q6 2 6.5 6.5t-4.5 8.5q-82 59 -127 127.5t-45 165.5zM403 514q0 -37 19 -65q25 -35 80 -35q53 0 78 37q18 25 18 65q0 41 -20 68q-29 35 -78 34q-51 0 -80 -38q-16 -25 -17 -66z" />
<glyph unicode="&#xa8;" horiz-adv-x="765" d="M26 1309q0 72 45 116.5t117 44.5t116 -45t44 -116q0 -72 -44 -117t-116 -45t-117 45t-45 117zM417 1309q0 72 45.5 116.5t116.5 44.5q72 0 116 -45t44 -116q0 -72 -44 -117t-116 -45q-71 0 -116.5 45t-45.5 117z" />
<glyph unicode="&#xa9;" horiz-adv-x="1611" d="M66 727q0 203 96 369t265 260t378 94t379 -94t266 -260t96 -369q0 -213 -96 -382t-265 -265t-380 -96t-379 96t-264 265t-96 382zM254 727q0 -160 70.5 -288t196.5 -199.5t284 -71.5t283.5 71.5t197.5 199.5t72 288q0 152 -72 274.5t-197.5 193.5t-283.5 71t-284 -71 t-196.5 -193.5t-70.5 -274.5zM571 588v262q0 102 64.5 161.5t173.5 59.5t174.5 -58.5t65.5 -156.5q0 -8 -7.5 -13t-17.5 -5l-127 -7q-25 0 -25 15v14q0 29 -17 46.5t-46 17.5q-27 0 -44 -17.5t-17 -46.5v-285q0 -29 16 -46t45 -17t46 17.5t17 45.5v5q0 10 7.5 17t17.5 7 l127 -6q10 0 17.5 -2t7.5 -6v-8q0 -98 -65.5 -157.5t-174.5 -59.5t-173.5 61t-64.5 162z" />
<glyph unicode="&#xaa;" horiz-adv-x="645" d="M18 510v104q0 11 7.5 18t17.5 7h545q10 0 17 -7t7 -18v-104q0 -10 -7 -17.5t-17 -7.5h-545q-10 0 -17.5 7.5t-7.5 17.5zM18 942q0 115 77 168t210 53h84q10 0 10 11v20q0 39 -23.5 62.5t-62.5 23.5q-53 0 -75 -37l-5 -12q-6 -14 -24 -14l-150 8q-10 0 -17 7t-5 19 q8 86 84 142.5t188 56.5q125 0 206 -64.5t81 -164.5v-453q0 -10 -7 -17.5t-18 -7.5h-147q-10 0 -17.5 6.5t-7.5 14.5v4q0 6 -4 7t-8 -3q-47 -41 -133 -41q-100 0 -168 50t-68 161zM219 946q0 -57 74 -57q45 0 75.5 24.5t30.5 59.5v28q0 10 -10 11h-70q-100 0 -100 -66z" />
<glyph unicode="&#xab;" horiz-adv-x="974" d="M84 575q0 8 4 17l164 321q10 18 29 19h233q14 0 19.5 -8.5t-1.5 -20.5l-167 -321q-2 -6 0 -13l167 -321q5 -8 5 -12q0 -16 -23 -17h-233q-18 0 -29 19l-164 321q-4 12 -4 16zM434 575q0 8 4 17l164 321q10 18 29 19h233q14 0 19.5 -8.5t-0.5 -20.5l-168 -321q-2 -6 0 -13 l168 -321q4 -8 4 -12q0 -16 -23 -17h-233q-18 0 -29 19l-164 321q-4 12 -4 16z" />
<glyph unicode="&#xac;" horiz-adv-x="940" d="M47 506v223q0 10 7 17.5t18 7.5h796q10 0 17.5 -7.5t7.5 -17.5v-424q0 -10 -7 -17t-18 -7h-223q-10 0 -17 7t-7 17v166q0 10 -11 10h-538q-10 0 -17.5 7.5t-7.5 17.5z" />
<glyph unicode="&#xad;" horiz-adv-x="770" d="M47 473v242q0 10 7 17t18 7h626q10 0 17.5 -7t7.5 -17v-242q0 -10 -7 -17t-18 -7h-626q-11 0 -18 7t-7 17z" />
<glyph unicode="&#xae;" horiz-adv-x="897" d="M27 1044q0 115 55 208.5t151.5 146.5t215.5 53q118 0 214.5 -53t151.5 -146.5t55 -208.5q0 -123 -55 -220t-151.5 -152.5t-214.5 -55.5q-119 0 -215.5 55.5t-151.5 153t-55 219.5zM158 1044q0 -133 82 -217t209 -84q126 0 209 84t83 217q0 121 -84 201t-208 80 q-125 0 -208 -80t-83 -201zM319 872v334q0 10 7.5 17.5t17.5 7.5h129q55 0 90 -35t35 -90q0 -65 -47 -96q-4 -2 -6 -5.5t0 -7.5l41 -120q2 -4 2 -11q0 -18 -21 -18h-63q-20 0 -27 20l-35 113q-4 8 -8 8q-8 0 -8 -10v-107q0 -10 -7 -17t-18 -7h-57q-10 0 -17.5 7t-7.5 17z M426 1077q0 -10 10 -10h21q16 0 25.5 11.5t9.5 25.5q0 37 -35 37h-21q-10 -1 -10 -11v-53z" />
<glyph unicode="&#xaf;" horiz-adv-x="595" d="M27 1200v178q0 10 7 17.5t17 7.5h494q10 0 17 -7t7 -18v-178q0 -10 -7 -17t-17 -7h-494q-10 0 -17 7t-7 17z" />
<glyph unicode="&#xb0;" horiz-adv-x="751" d="M27 1307q0 96 46 176t126 126t176 46t177 -46t127 -126t46 -176q0 -98 -46 -179t-127 -128.5t-177 -47.5t-176 47.5t-126 128t-46 179.5zM246 1307q0 -57 38 -95t91 -38q55 0 92 37.5t37 95.5q0 57 -37 95t-92 38q-53 0 -91 -38t-38 -95z" />
<glyph unicode="&#xb1;" horiz-adv-x="940" d="M47 31v223q0 10 7 17.5t18 7.5h796q10 0 17.5 -7.5t7.5 -17.5v-223q0 -10 -7 -17.5t-18 -7.5h-796q-11 0 -18 7.5t-7 17.5zM47 721v223q0 10 7 17.5t18 7.5h252q10 0 10 10v252q0 10 7 17t17 7h224q10 0 17 -7t7 -17v-252q0 -10 10 -10h252q11 0 18 -7.5t7 -17.5v-223 q0 -10 -7 -17.5t-18 -7.5h-252q-10 0 -10 -10v-252q0 -10 -7 -17t-17 -7h-224q-10 0 -17 7t-7 17v252q0 10 -10 10h-252q-10 0 -17.5 7.5t-7.5 17.5z" />
<glyph unicode="&#xb2;" horiz-adv-x="636" d="M37 1422v53q8 106 86 167.5t199 61.5q127 0 202.5 -68.5t75.5 -189.5q0 -57 -18.5 -105t-57.5 -104q-23 -29 -60.5 -72.5t-57.5 -68.5l-60 -65q-4 -4 -3 -8.5t7 -4.5h236q10 0 17 -7t7 -17v-135q0 -10 -7 -17.5t-17 -7.5h-518q-11 0 -18 7t-7 18v141q0 18 12 31 q174 182 242 262q86 100 86 157q0 33 -17.5 51.5t-46.5 18.5t-47 -18.5t-18 -49.5v-30q0 -10 -7 -17.5t-18 -7.5h-168q-10 0 -17 7.5t-7 17.5z" />
<glyph unicode="&#xb3;" horiz-adv-x="628" d="M45 1093q0 25 25 25h166q25 0 26 -25q0 -20 6 -37q18 -51 58 -51q39 0 55 43q10 29 10 80q0 57 -12 88q-16 37 -53 37q-25 0 -50 -19q-6 -4 -14 -4q-12 0 -20 9l-80 92q-8 12 -8 16q0 8 10 19l155 129q4 4 2 8t-8 4h-223q-10 0 -17 7t-7 17v136q0 10 7 17t17 7h477 q10 0 17.5 -7t7.5 -17v-142q0 -18 -12 -30l-115 -107q-4 -4 -4 -8t6 -6q41 -16 70.5 -53t46.5 -89q16 -55 16 -118q0 -59 -10 -97q-23 -92 -90.5 -144t-173.5 -52q-104 0 -177 54t-92 142q-8 33 -12 76z" />
<glyph unicode="&#xb4;" horiz-adv-x="524" d="M41 1179.5q-4 8.5 2 20.5l115 207q10 16 31 16h272q20 0 20 -14q0 -6 -6 -16l-155 -207q-12 -14 -29 -15h-232q-14 0 -18 8.5z" />
<glyph unicode="&#xb5;" horiz-adv-x="1034" d="M74 -385v1419q0 10 7 17.5t17 7.5h291q10 0 17.5 -7.5t7.5 -17.5v-633q0 -59 26.5 -92t75.5 -33q43 0 70.5 26t34.5 73v659q0 10 7 17.5t17 7.5h291q10 0 17.5 -7.5t7.5 -17.5v-1009q0 -10 -7.5 -17.5t-17.5 -7.5h-291q-10 0 -17 7t-7 18v49q0 6 -4.5 7t-8.5 -3 q-61 -84 -184 -94q-10 0 -10 -11v-358q0 -10 -7.5 -17.5t-17.5 -7.5h-291q-10 0 -17 7.5t-7 17.5z" />
<glyph unicode="&#xb6;" horiz-adv-x="1200" d="M39 973q0 135 56.5 239.5t163 163t251.5 58.5h588q10 0 17 -7.5t7 -17.5v-1794q0 -10 -7 -17.5t-17 -7.5h-215q-10 0 -17.5 7.5t-7.5 17.5v1552q0 10 -10 11h-127q-10 0 -10 -11v-1552q0 -10 -7.5 -17.5t-17.5 -7.5h-215q-10 0 -17.5 7.5t-7.5 17.5v891q0 8 -10 12 q-180 23 -288.5 144.5t-108.5 310.5z" />
<glyph unicode="&#xb7;" horiz-adv-x="405" d="M-4 186q0 80 62.5 137.5t140.5 57.5t140 -57.5t62 -137.5q0 -84 -57 -141t-145 -57q-89 0 -146 57t-57 141z" />
<glyph unicode="&#xb8;" horiz-adv-x="350" d="M8 -348l17 123q2 12 9 16t21 0q16 -4 23 -4q41 0 53 41q8 29 -14.5 65.5t-69.5 75.5q-12 8 -12 19q0 12 20 12h162q16 0 25 -8q6 -2 8 -8q100 -94 100 -199q0 -27 -6 -51q-18 -72 -71.5 -101.5t-122.5 -29.5q-61 0 -123 20q-23 6 -19 29z" />
<glyph unicode="&#xb9;" horiz-adv-x="366" d="M39 1530v109q0 20 18 29l39 20q11 6 31 6h174q10 0 17.5 -7t7.5 -17v-811q0 -10 -7.5 -17.5t-17.5 -7.5h-166q-10 0 -17 7t-7 18v639q0 10 -11 10l-37 -2q-10 0 -17 7t-7 17z" />
<glyph unicode="&#xba;" horiz-adv-x="671" d="M37 1092q0 86 12 143q18 100 94 157.5t193 57.5q113 0 187.5 -57.5t92.5 -157.5q16 -66 17 -141q0 -78 -17 -144q-20 -102 -93.5 -159.5t-186.5 -57.5q-117 0 -191.5 56.5t-95.5 160.5q-12 61 -12 142zM39 510v106q0 10 7 17.5t17 7.5h551q10 0 17.5 -7t7.5 -18v-106 q0 -10 -7 -17.5t-18 -7.5h-551q-10 0 -17 7.5t-7 17.5zM252 1092q0 -61 8 -109q8 -31 27.5 -48t48.5 -17q24 0 42.5 17t27.5 48q10 43 10 109q0 63 -8 106q-8 33 -28 50.5t-46 17.5q-27 0 -45.5 -17.5t-28.5 -50.5q-8 -41 -8 -106z" />
<glyph unicode="&#xbb;" horiz-adv-x="974" d="M96 915q0 16 23 17h233q20 0 29 -19l164 -321q4 -4 4 -17q0 -10 -4 -16l-164 -321q-8 -18 -29 -19h-233q-15 0 -20 8.5t1 20.5l168 321q2 6 0 13l-168 321q-4 8 -4 12zM446 915q0 16 23 17h233q20 0 29 -19l164 -321q4 -4 4 -17q0 -10 -4 -16l-164 -321q-8 -18 -29 -19 h-233q-15 0 -20 8.5t1 20.5l168 321q2 6 0 13l-168 321q-4 8 -4 12z" />
<glyph unicode="&#xbc;" horiz-adv-x="1603" d="M39 1269v109q0 20 18 29l39 20q11 6 31 6h174q10 0 17.5 -7t7.5 -17v-811q0 -10 -7.5 -17.5t-17.5 -7.5h-166q-10 0 -17 7t-7 18v639q0 10 -11 10l-37 -2q-10 0 -17 7t-7 17zM168 8q-6 8 2 21l805 1388q8 16 31 17h186q14 0 20.5 -8.5t-1.5 -20.5l-805 -1389 q-8 -16 -31 -16h-186q-15 0 -21 8zM919 233v115q0 12 7 31l176 463q6 18 28 18h175q12 0 18 -7t2 -22l-152 -415q-2 -12 9 -13h98q10 0 10 11v102q0 10 7.5 17.5t17.5 7.5h168q10 0 17 -7.5t7 -17.5v-102q0 -10 10 -11h31q10 0 17.5 -7t7.5 -17v-146q0 -10 -7.5 -17 t-17.5 -7h-31q-10 0 -10 -10v-174q0 -10 -7 -17.5t-17 -7.5h-168q-10 0 -17.5 7t-7.5 18v174q0 10 -10 10h-336q-10 0 -17.5 7t-7.5 17z" />
<glyph unicode="&#xbd;" horiz-adv-x="1538" d="M39 1269v109q0 20 18 29l39 20q11 6 31 6h174q10 0 17.5 -7t7.5 -17v-811q0 -10 -7.5 -17.5t-17.5 -7.5h-166q-10 0 -17 7t-7 18v639q0 10 -11 10l-37 -2q-10 0 -17 7t-7 17zM168 8q-6 8 2 21l805 1388q8 16 31 17h186q14 0 20.5 -8.5t-1.5 -20.5l-805 -1389 q-8 -16 -31 -16h-186q-15 0 -21 8zM938 588v53q8 106 86 167.5t199 61.5q127 0 202.5 -68.5t75.5 -189.5q0 -57 -18.5 -105t-57.5 -104q-23 -29 -60.5 -72.5t-57.5 -68.5l-60 -65q-4 -4 -3 -8.5t7 -4.5h236q10 0 17 -7t7 -17v-135q0 -10 -7 -17.5t-17 -7.5h-518q-11 0 -18 7 t-7 18v141q0 18 12 31q174 182 242 262q86 100 86 157q0 33 -17.5 51.5t-46.5 18.5t-47 -18.5t-18 -49.5v-30q0 -10 -7 -17.5t-18 -7.5h-168q-10 0 -17 7.5t-7 17.5z" />
<glyph unicode="&#xbe;" horiz-adv-x="1775" d="M45 837q0 25 25 25h166q25 0 26 -25q0 -20 6 -37q18 -51 58 -51q39 0 55 43q10 29 10 80q0 57 -12 88q-16 37 -53 37q-25 0 -50 -19q-6 -4 -14 -4q-12 0 -20 9l-80 92q-8 12 -8 16q0 8 10 19l155 129q4 4 2 8t-8 4h-223q-10 0 -17 7t-7 17v136q0 10 7 17t17 7h477 q10 0 17.5 -7t7.5 -17v-142q0 -18 -12 -30l-115 -107q-4 -4 -4 -8t6 -6q41 -16 70.5 -53t46.5 -89q16 -55 16 -118q0 -59 -10 -97q-23 -92 -90.5 -144t-173.5 -52q-104 0 -177 54t-92 142q-8 33 -12 76zM340 8q-6 8 2 21l805 1388q8 16 31 17h186q14 0 20.5 -8.5t-1.5 -20.5 l-805 -1389q-8 -16 -31 -16h-186q-15 0 -21 8zM1091 233v115q0 12 7 31l176 463q6 18 28 18h175q12 0 18 -7t2 -22l-152 -415q-2 -12 9 -13h98q10 0 10 11v102q0 10 7.5 17.5t17.5 7.5h168q10 0 17 -7.5t7 -17.5v-102q0 -10 10 -11h31q10 0 17.5 -7t7.5 -17v-146 q0 -10 -7.5 -17t-17.5 -7h-31q-10 0 -10 -10v-174q0 -10 -7 -17.5t-17 -7.5h-168q-10 0 -17.5 7t-7.5 18v174q0 10 -10 10h-336q-10 0 -17.5 7t-7.5 17z" />
<glyph unicode="&#xbf;" d="M39 -18q0 92 29.5 156.5t71.5 105.5t108 88q66 45 97.5 82t31.5 88v28q0 10 7 17.5t17 7.5h289q10 0 17.5 -7t7.5 -18v-49q0 -78 -28 -134t-66.5 -92t-102.5 -83q-70 -49 -102.5 -86t-32.5 -88q0 -55 34 -87t93 -32q66 0 102.5 36t36.5 93v23q0 23 25 22l291 -12 q25 0 24 -16v-17q0 -129 -61.5 -228t-172 -154.5t-253.5 -55.5q-139 0 -243.5 51t-162 144.5t-57.5 216.5zM344 850q0 76 55.5 129t132.5 53q76 0 130.5 -53t54.5 -127q0 -76 -55.5 -130t-131.5 -54q-74 0 -130 54t-56 128z" />
<glyph unicode="&#xc0;" horiz-adv-x="1239" d="M45 27l367 1386q6 20 28 21h359q23 0 28 -21l367 -1386l2 -9q0 -18 -22 -18h-306q-22 0 -26 23l-41 180q-2 8 -10 8h-345q-8 0 -10 -8l-43 -183q-6 -20 -26 -20h-301q-27 0 -21 27zM313 1784q0 14 21 14h272q20 0 31 -16l115 -207q4 -8 4 -12q0 -16 -21 -17h-231 q-16 0 -29 15l-156 207q-6 10 -6 16zM500 485q-2 -6 2 -9t8 -3h219q12 0 10 10l-110 502q-2 8 -6.5 8t-6.5 -8z" />
<glyph unicode="&#xc1;" horiz-adv-x="1239" d="M45 27l367 1386q6 20 28 21h359q23 0 28 -21l367 -1386l2 -9q0 -18 -22 -18h-306q-22 0 -26 23l-41 180q-2 8 -10 8h-345q-8 0 -10 -8l-43 -183q-6 -20 -26 -20h-301q-27 0 -21 27zM459 1554.5q-4 8.5 2 20.5l115 207q10 16 31 16h272q20 0 20 -14q0 -6 -6 -16l-155 -207 q-12 -14 -29 -15h-232q-14 0 -18 8.5zM500 485q-2 -6 2 -9t8 -3h219q12 0 10 10l-110 502q-2 8 -6.5 8t-6.5 -8z" />
<glyph unicode="&#xc2;" horiz-adv-x="1239" d="M45 27l367 1386q6 20 28 21h359q23 0 28 -21l367 -1386l2 -9q0 -18 -22 -18h-306q-22 0 -26 23l-41 180q-2 8 -10 8h-345q-8 0 -10 -8l-43 -183q-6 -20 -26 -20h-301q-27 0 -21 27zM290 1553.5q-5 9.5 3 21.5l146 215q10 16 28 17h293q18 0 29 -17l151 -215q4 -6 5 -14 q0 -16 -21 -17h-211q-20 0 -31 17l-59 108q-6 10 -12 0l-60 -108q-10 -16 -30 -17h-211q-15 0 -20 9.5zM500 485q-2 -6 2 -9t8 -3h219q12 0 10 10l-110 502q-2 8 -6.5 8t-6.5 -8z" />
<glyph unicode="&#xc3;" horiz-adv-x="1239" d="M45 27l367 1386q6 20 28 21h359q23 0 28 -21l367 -1386l2 -9q0 -18 -22 -18h-306q-22 0 -26 23l-41 180q-2 8 -10 8h-345q-8 0 -10 -8l-43 -183q-6 -20 -26 -20h-301q-27 0 -21 27zM331 1680q27 76 79.5 115.5t115.5 39.5t135 -47q51 -35 90 -35q41 0 70 39q14 20 33 8 l104 -71q10 -6 10 -21q0 -12 -8 -26q-37 -70 -92 -104t-111 -34q-32 0 -60 11.5t-64 31.5q-25 14 -44.5 23.5t-35.5 9.5q-43 0 -72 -41q-12 -23 -33 -8l-106 76q-16 12 -11 33zM500 485q-2 -6 2 -9t8 -3h219q12 0 10 10l-110 502q-2 8 -6.5 8t-6.5 -8z" />
<glyph unicode="&#xc4;" horiz-adv-x="1239" d="M45 27l367 1386q6 20 28 21h359q23 0 28 -21l367 -1386l2 -9q0 -18 -22 -18h-306q-22 0 -26 23l-41 180q-2 8 -10 8h-345q-8 0 -10 -8l-43 -183q-6 -20 -26 -20h-301q-27 0 -21 27zM264 1684q0 72 45 116.5t117 44.5t116 -45t44 -116q0 -72 -44 -117t-116 -45t-117 45 t-45 117zM500 485q-2 -6 2 -9t8 -3h219q12 0 10 10l-110 502q-2 8 -6.5 8t-6.5 -8zM655 1684q0 72 45.5 116.5t116.5 44.5q72 0 116 -45t44 -116q0 -72 -44 -117t-116 -45q-71 0 -116.5 45t-45.5 117z" />
<glyph unicode="&#xc5;" horiz-adv-x="1239" d="M45 27l367 1386q6 20 28 21h359q23 0 28 -21l367 -1386l2 -9q0 -18 -22 -18h-306q-22 0 -26 23l-41 180q-2 8 -10 8h-345q-8 0 -10 -8l-43 -183q-6 -20 -26 -20h-301q-27 0 -21 27zM383 1749q0 98 67.5 166t168.5 68q98 0 165.5 -67.5t67.5 -166.5q0 -98 -67.5 -165.5 t-165.5 -67.5q-101 0 -168.5 67.5t-67.5 165.5zM500 485q-2 -6 2 -9t8 -3h219q12 0 10 10l-110 502q-2 8 -6.5 8t-6.5 -8zM535 1749q0 -35 24.5 -59.5t59.5 -24.5q34 0 59 24.5t25 59.5q0 37 -25 62.5t-59 25.5q-35 0 -59.5 -25.5t-24.5 -62.5z" />
<glyph unicode="&#xc6;" horiz-adv-x="1796" d="M48.5 7q-5.5 7 0.5 22l629 1386q8 18 29 19h1009q10 0 17.5 -7.5t7.5 -17.5v-242q0 -10 -7.5 -17t-17.5 -7h-524q-10 0 -10 -10v-256q0 -10 10 -11h315q10 0 17.5 -7t7.5 -17v-242q0 -10 -7 -17.5t-18 -7.5h-315q-10 0 -10 -10v-264q0 -10 10 -10h524q10 0 17.5 -7.5 t7.5 -17.5v-241q0 -10 -7.5 -17.5t-17.5 -7.5h-850q-10 0 -17 7t-7 18v176q0 10 -11 10h-329q-8 0 -13 -8l-77 -185q-8 -18 -29 -18h-315q-14 0 -19.5 7zM608 485q-2 -4 1 -8t7 -4h215q10 0 11 10v514q0 8 -4 8.5t-9 -6.5z" />
<glyph unicode="&#xc7;" horiz-adv-x="1103" d="M66 451v536q0 139 60 243.5t172 162t257 57.5t257 -55.5t172 -157.5t60 -238v-16q0 -8 -7 -13t-17 -5l-291 -13q-25 0 -24 23v29q0 70 -41 112.5t-109 42.5t-108.5 -43t-40.5 -112v-574q0 -70 40.5 -113t108.5 -43t109 43t41 113v29q0 23 24 22l291 -12q10 0 17 -5t7 -11 v-15q0 -178 -102 -298t-278 -148q-12 -4 -5 -12q76 -84 76 -177q0 -27 -6 -51q-18 -72 -71.5 -101.5t-122.5 -29.5q-61 0 -123 21q-23 6 -19 28l17 123q2 12 9 16.5t21 0.5q16 -4 23 -5q41 0 53 41q8 29 -15.5 68t-74.5 80l-12 6q-162 37 -255 156.5t-93 294.5z" />
<glyph unicode="&#xc8;" horiz-adv-x="1042" d="M86 25v1384q0 10 7 17.5t18 7.5h854q10 0 17 -7.5t7 -17.5v-242q0 -10 -7 -17t-17 -7h-529q-10 0 -10 -10v-256q0 -10 10 -11h320q10 0 17 -7t7 -17v-242q0 -10 -7 -17.5t-17 -7.5h-320q-10 0 -10 -10v-264q0 -10 10 -10h529q10 0 17 -7.5t7 -17.5v-241q0 -10 -7 -17.5 t-17 -7.5h-854q-10 0 -17.5 7t-7.5 18zM231 1810q0 14 21 14h272q20 0 31 -16l115 -207q4 -8 4 -12q0 -16 -21 -17h-231q-16 0 -29 15l-156 207q-6 10 -6 16z" />
<glyph unicode="&#xc9;" horiz-adv-x="1042" d="M86 25v1384q0 10 7 17.5t18 7.5h854q10 0 17 -7.5t7 -17.5v-242q0 -10 -7 -17t-17 -7h-529q-10 0 -10 -10v-256q0 -10 10 -11h320q10 0 17 -7t7 -17v-242q0 -10 -7 -17.5t-17 -7.5h-320q-10 0 -10 -10v-264q0 -10 10 -10h529q10 0 17 -7.5t7 -17.5v-241q0 -10 -7 -17.5 t-17 -7.5h-854q-10 0 -17.5 7t-7.5 18zM377 1580.5q-4 8.5 2 20.5l115 207q10 16 31 16h272q20 0 20 -14q0 -6 -6 -16l-155 -207q-12 -14 -29 -15h-232q-14 0 -18 8.5z" />
<glyph unicode="&#xca;" horiz-adv-x="1042" d="M86 25v1384q0 10 7 17.5t18 7.5h854q10 0 17 -7.5t7 -17.5v-242q0 -10 -7 -17t-17 -7h-529q-10 0 -10 -10v-256q0 -10 10 -11h320q10 0 17 -7t7 -17v-242q0 -10 -7 -17.5t-17 -7.5h-320q-10 0 -10 -10v-264q0 -10 10 -10h529q10 0 17 -7.5t7 -17.5v-241q0 -10 -7 -17.5 t-17 -7.5h-854q-10 0 -17.5 7t-7.5 18zM208 1579.5q-5 9.5 3 21.5l146 215q10 16 28 17h293q18 0 29 -17l151 -215q4 -6 5 -14q0 -16 -21 -17h-211q-20 0 -31 17l-59 108q-6 10 -12 0l-60 -108q-10 -16 -30 -17h-211q-15 0 -20 9.5z" />
<glyph unicode="&#xcb;" horiz-adv-x="1042" d="M86 25v1384q0 10 7 17.5t18 7.5h854q10 0 17 -7.5t7 -17.5v-242q0 -10 -7 -17t-17 -7h-529q-10 0 -10 -10v-256q0 -10 10 -11h320q10 0 17 -7t7 -17v-242q0 -10 -7 -17.5t-17 -7.5h-320q-10 0 -10 -10v-264q0 -10 10 -10h529q10 0 17 -7.5t7 -17.5v-241q0 -10 -7 -17.5 t-17 -7.5h-854q-10 0 -17.5 7t-7.5 18zM182 1710q0 72 45 116.5t117 44.5t116 -45t44 -116q0 -72 -44 -117t-116 -45t-117 45t-45 117zM573 1710q0 72 45.5 116.5t116.5 44.5q72 0 116 -45t44 -116q0 -72 -44 -117t-116 -45q-71 0 -116.5 45t-45.5 117z" />
<glyph unicode="&#xcc;" horiz-adv-x="512" d="M-49 1810q0 14 21 14h272q20 0 31 -16l115 -207q4 -8 4 -12q0 -16 -21 -17h-231q-16 0 -29 15l-156 207q-6 10 -6 16zM86 25v1384q0 10 7 17.5t18 7.5h290q10 0 17.5 -7.5t7.5 -17.5v-1384q0 -10 -7 -17.5t-18 -7.5h-290q-11 0 -18 7t-7 18z" />
<glyph unicode="&#xcd;" horiz-adv-x="512" d="M86 25v1384q0 10 7 17.5t18 7.5h290q10 0 17.5 -7.5t7.5 -17.5v-1384q0 -10 -7 -17.5t-18 -7.5h-290q-11 0 -18 7t-7 18zM96 1580.5q-4 8.5 2 20.5l115 207q10 16 31 16h272q20 0 20 -14q0 -6 -6 -16l-155 -207q-12 -14 -29 -15h-232q-14 0 -18 8.5z" />
<glyph unicode="&#xce;" horiz-adv-x="512" d="M-73 1579.5q-5 9.5 3 21.5l146 215q10 16 28 17h293q18 0 29 -17l151 -215q4 -6 5 -14q0 -16 -21 -17h-211q-20 0 -31 17l-59 108q-6 10 -12 0l-60 -108q-10 -16 -30 -17h-211q-15 0 -20 9.5zM86 25v1384q0 10 7 17.5t18 7.5h290q10 0 17.5 -7.5t7.5 -17.5v-1384 q0 -10 -7 -17.5t-18 -7.5h-290q-11 0 -18 7t-7 18z" />
<glyph unicode="&#xcf;" horiz-adv-x="512" d="M-99 1710q0 72 45 116.5t117 44.5t116 -45t44 -116q0 -72 -44 -117t-116 -45t-117 45t-45 117zM86 25v1384q0 10 7 17.5t18 7.5h290q10 0 17.5 -7.5t7.5 -17.5v-1384q0 -10 -7 -17.5t-18 -7.5h-290q-11 0 -18 7t-7 18zM292 1710q0 72 45.5 116.5t116.5 44.5q72 0 116 -45 t44 -116q0 -72 -44 -117t-116 -45q-71 0 -116.5 45t-45.5 117z" />
<glyph unicode="&#xd0;" horiz-adv-x="1198" d="M86 664v159q0 10 7 17.5t18 7.5h39q10 0 10 10v551q0 10 7 17.5t17 7.5h457q145 0 256 -53.5t171 -149.5t60 -223v-582q0 -127 -60 -223.5t-171 -149.5t-256 -53h-457q-10 0 -17 7t-7 18v604q0 10 -10 10h-39q-10 0 -17.5 7t-7.5 18zM500 301q0 -10 10 -10l135 2 q61 0 101 47t42 127v502q0 78 -39.5 126t-105.5 48h-133q-10 0 -10 -10v-275q0 -10 10 -10h94q10 0 17.5 -7t7.5 -18v-159q0 -10 -7.5 -17.5t-17.5 -7.5h-94q-10 0 -10 -10v-328z" />
<glyph unicode="&#xd1;" horiz-adv-x="1204" d="M88 25v1384q0 10 7 17.5t18 7.5h295q20 0 28 -19l334 -741q4 -6 8 -6t4 8l-2 733q0 10 7.5 17.5t17.5 7.5h287q10 0 17 -7.5t7 -17.5v-1384q0 -10 -7 -17.5t-17 -7.5h-297q-20 0 -29 18l-334 750q-4 6 -8 5t-4 -9l4 -739q0 -10 -7 -17.5t-18 -7.5h-286q-11 0 -18 7t-7 18 zM303 1706q27 76 79.5 115.5t115.5 39.5t135 -47q51 -35 90 -35q41 0 70 39q14 20 33 8l104 -71q10 -6 10 -21q0 -12 -8 -26q-37 -70 -92 -104t-111 -34q-32 0 -60 11.5t-64 31.5q-25 14 -44.5 23.5t-35.5 9.5q-43 0 -72 -41q-12 -23 -33 -8l-106 76q-16 12 -11 33z" />
<glyph unicode="&#xd2;" horiz-adv-x="1126" d="M66 459v516q0 141 62 248.5t175 167t260 59.5t260 -59.5t175.5 -167t62.5 -248.5v-516q0 -143 -62.5 -252t-175 -168t-260.5 -59q-147 0 -260 59t-175 167.5t-62 252.5zM258 1798q0 14 21 14h272q20 0 31 -16l115 -207q4 -8 4 -12q0 -16 -21 -17h-231q-16 0 -29 15 l-156 207q-6 10 -6 16zM406 446q0 -78 43 -126t114 -48q72 0 115 48.5t43 125.5v537q0 78 -44 127t-114 49q-72 0 -114.5 -48t-42.5 -128v-537z" />
<glyph unicode="&#xd3;" horiz-adv-x="1126" d="M66 459v516q0 141 62 248.5t175 167t260 59.5t260 -59.5t175.5 -167t62.5 -248.5v-516q0 -143 -62.5 -252t-175 -168t-260.5 -59q-147 0 -260 59t-175 167.5t-62 252.5zM403 1568.5q-4 8.5 2 20.5l115 207q10 16 31 16h272q20 0 20 -14q0 -6 -6 -16l-155 -207 q-12 -14 -29 -15h-232q-14 0 -18 8.5zM406 446q0 -78 43 -126t114 -48q72 0 115 48.5t43 125.5v537q0 78 -44 127t-114 49q-72 0 -114.5 -48t-42.5 -128v-537z" />
<glyph unicode="&#xd4;" horiz-adv-x="1126" d="M66 459v516q0 141 62 248.5t175 167t260 59.5t260 -59.5t175.5 -167t62.5 -248.5v-516q0 -143 -62.5 -252t-175 -168t-260.5 -59q-147 0 -260 59t-175 167.5t-62 252.5zM234 1567.5q-5 9.5 3 21.5l146 215q10 16 28 17h293q18 0 29 -17l151 -215q4 -6 5 -14 q0 -16 -21 -17h-211q-20 0 -31 17l-59 108q-6 10 -12 0l-60 -108q-10 -16 -30 -17h-211q-15 0 -20 9.5zM406 446q0 -78 43 -126t114 -48q72 0 115 48.5t43 125.5v537q0 78 -44 127t-114 49q-72 0 -114.5 -48t-42.5 -128v-537z" />
<glyph unicode="&#xd5;" horiz-adv-x="1126" d="M66 459v516q0 141 62 248.5t175 167t260 59.5t260 -59.5t175.5 -167t62.5 -248.5v-516q0 -143 -62.5 -252t-175 -168t-260.5 -59q-147 0 -260 59t-175 167.5t-62 252.5zM276 1694q27 76 79.5 115.5t115.5 39.5t135 -47q51 -35 90 -35q41 0 70 39q14 20 33 8l104 -71 q10 -6 10 -21q0 -12 -8 -26q-37 -70 -92 -104t-111 -34q-32 0 -60 11.5t-64 31.5q-25 14 -44.5 23.5t-35.5 9.5q-43 0 -72 -41q-12 -23 -33 -8l-106 76q-16 12 -11 33zM406 446q0 -78 43 -126t114 -48q72 0 115 48.5t43 125.5v537q0 78 -44 127t-114 49q-72 0 -114.5 -48 t-42.5 -128v-537z" />
<glyph unicode="&#xd6;" horiz-adv-x="1126" d="M66 459v516q0 141 62 248.5t175 167t260 59.5t260 -59.5t175.5 -167t62.5 -248.5v-516q0 -143 -62.5 -252t-175 -168t-260.5 -59q-147 0 -260 59t-175 167.5t-62 252.5zM209 1698q0 72 45 116.5t117 44.5t116 -45t44 -116q0 -72 -44 -117t-116 -45t-117 45t-45 117z M406 446q0 -78 43 -126t114 -48q72 0 115 48.5t43 125.5v537q0 78 -44 127t-114 49q-72 0 -114.5 -48t-42.5 -128v-537zM600 1698q0 72 45.5 116.5t116.5 44.5q72 0 116 -45t44 -116q0 -72 -44 -117t-116 -45q-71 0 -116.5 45t-45.5 117z" />
<glyph unicode="&#xd7;" horiz-adv-x="884" d="M53 434q0 8 8 17l179 178q4 4 4 8t-4 8l-179 178q-8 12 -8 17q0 8 8 16l160 160q8 8 17 8q10 0 16 -8l178 -178q4 -4 8 -4t9 4l178 178q8 8 16 8q10 0 16 -8l160 -160q8 -6 8 -16q0 -8 -8 -17l-178 -178q-4 -4 -4 -8t4 -8l178 -178q8 -6 8 -17q0 -8 -8 -16l-160 -160 q-8 -8 -16 -8q-4 0 -16 8l-178 178q-4 4 -8.5 4t-8.5 -4l-178 -178q-8 -8 -16 -8q-4 0 -17 8l-160 160q-8 12 -8 16z" />
<glyph unicode="&#xd8;" horiz-adv-x="1138" d="M70 459v516q0 141 62.5 248.5t175 167t259.5 59.5q127 0 230 -43q10 -4 12 4l37 76q10 18 28 18h113q14 0 19.5 -7t-0.5 -21l-72 -152q-4 -8 2 -14q61 -61 95 -147.5t34 -188.5v-516q0 -143 -62.5 -252t-175 -168t-260.5 -59q-137 0 -241 49q-10 4 -13 -4l-37 -76 q-8 -18 -28 -19h-111q-14 0 -19 7.5t1 21.5l71 154q4 8 -2 14q-119 131 -118 332zM410 600q0 -8 4 -9t8 5l246 516q4 8 -2 14q-43 33 -99 33q-72 0 -114.5 -48t-42.5 -128v-383zM459 313q41 -41 108 -41q72 0 115 48.5t43 125.5v412q0 8 -4 9t-8 -5l-254 -534q-4 -6 0 -15z " />
<glyph unicode="&#xd9;" horiz-adv-x="1128" d="M78 453v956q0 10 7 17.5t17 7.5h291q10 0 17.5 -7.5t7.5 -17.5v-973q0 -72 41 -117t106 -45q66 0 106 45.5t40 116.5v973q0 10 7 17.5t17 7.5h291q10 0 17.5 -7.5t7.5 -17.5v-956q0 -139 -60.5 -246t-170 -165t-255.5 -58q-145 0 -255.5 58t-171 164.5t-60.5 246.5z M260 1810q0 14 21 14h272q20 0 31 -16l115 -207q4 -8 4 -12q0 -16 -21 -17h-231q-16 0 -29 15l-156 207q-6 10 -6 16z" />
<glyph unicode="&#xda;" horiz-adv-x="1128" d="M78 453v956q0 10 7 17.5t17 7.5h291q10 0 17.5 -7.5t7.5 -17.5v-973q0 -72 41 -117t106 -45q66 0 106 45.5t40 116.5v973q0 10 7 17.5t17 7.5h291q10 0 17.5 -7.5t7.5 -17.5v-956q0 -139 -60.5 -246t-170 -165t-255.5 -58q-145 0 -255.5 58t-171 164.5t-60.5 246.5z M405 1580.5q-4 8.5 2 20.5l115 207q10 16 31 16h272q20 0 20 -14q0 -6 -6 -16l-155 -207q-12 -14 -29 -15h-232q-14 0 -18 8.5z" />
<glyph unicode="&#xdb;" horiz-adv-x="1128" d="M78 453v956q0 10 7 17.5t17 7.5h291q10 0 17.5 -7.5t7.5 -17.5v-973q0 -72 41 -117t106 -45q66 0 106 45.5t40 116.5v973q0 10 7 17.5t17 7.5h291q10 0 17.5 -7.5t7.5 -17.5v-956q0 -139 -60.5 -246t-170 -165t-255.5 -58q-145 0 -255.5 58t-171 164.5t-60.5 246.5z M236 1579.5q-5 9.5 3 21.5l146 215q10 16 28 17h293q18 0 29 -17l151 -215q4 -6 5 -14q0 -16 -21 -17h-211q-20 0 -31 17l-59 108q-6 10 -12 0l-60 -108q-10 -16 -30 -17h-211q-15 0 -20 9.5z" />
<glyph unicode="&#xdc;" horiz-adv-x="1128" d="M78 453v956q0 10 7 17.5t17 7.5h291q10 0 17.5 -7.5t7.5 -17.5v-973q0 -72 41 -117t106 -45q66 0 106 45.5t40 116.5v973q0 10 7 17.5t17 7.5h291q10 0 17.5 -7.5t7.5 -17.5v-956q0 -139 -60.5 -246t-170 -165t-255.5 -58q-145 0 -255.5 58t-171 164.5t-60.5 246.5z M211 1710q0 72 45 116.5t117 44.5t116 -45t44 -116q0 -72 -44 -117t-116 -45t-117 45t-45 117zM602 1710q0 72 45.5 116.5t116.5 44.5q72 0 116 -45t44 -116q0 -72 -44 -117t-116 -45q-71 0 -116.5 45t-45.5 117z" />
<glyph unicode="&#xdd;" horiz-adv-x="1155" d="M47 1417q0 16 21 17h313q20 0 27 -21l163 -485q2 -6 6.5 -6t6.5 6l164 485q6 20 26 21h311q14 0 18.5 -8.5t0.5 -20.5l-356 -870l-3 -13v-493q0 -10 -7 -17.5t-17 -7.5h-291q-10 0 -17 7t-7 18v493l-3 13l-354 870q-2 4 -2 12zM418 1554.5q-4 8.5 2 20.5l115 207 q10 16 31 16h272q20 0 20 -14q0 -6 -6 -16l-155 -207q-12 -14 -29 -15h-232q-14 0 -18 8.5z" />
<glyph unicode="&#xde;" horiz-adv-x="1083" d="M80 25v1384q0 10 7 17.5t17 7.5h291q10 0 17.5 -7.5t7.5 -17.5v-238q0 -10 10 -10h178q129 0 228.5 -57t155 -159.5t55.5 -233.5q0 -129 -56.5 -228.5t-157 -154t-225.5 -54.5h-178q-10 0 -10 -10v-239q0 -10 -7 -17.5t-18 -7.5h-291q-10 0 -17 7t-7 18zM420 555 q0 -10 10 -10h121q72 0 114 41t42 119q0 80 -42 121.5t-114 41.5h-121q-10 0 -10 -10v-303z" />
<glyph unicode="&#xdf;" horiz-adv-x="1114" d="M76 27v946q0 227 123 352t346 125t353 -107.5t132 -289.5q0 -178 -131 -265q-12 -6 -2 -12q74 -49 116 -139t42 -209q0 -205 -133.5 -316.5t-389.5 -111.5h-20q-10 0 -17.5 7t-7.5 18v239q0 10 7.5 17.5t17.5 7.5l45 2q76 0 119 46t43 128q0 84 -41 129t-115 47h-45 q-10 0 -17 7t-7 18v215q0 10 7 17t17 7h47q57 0 92 35t35 90q0 59 -31.5 95t-101.5 36q-59 0 -101 -39t-42 -106v-991q0 -10 -7.5 -17.5t-17.5 -7.5l-291 2q-10 0 -17 7t-7 18z" />
<glyph unicode="&#xe0;" horiz-adv-x="1015" d="M37 295q0 178 107.5 254t314.5 76h141q10 0 10 10v45q0 47 -29.5 75.5t-80.5 28.5q-37 0 -62.5 -17t-36.5 -46q-6 -23 -26 -21l-297 19q-25 4 -25 22q6 98 64.5 174t158 118t222.5 42q131 0 233.5 -45t160.5 -124t58 -179v-702q0 -10 -7 -17.5t-17 -7.5h-291 q-10 0 -17.5 7t-7.5 18v57q0 6 -4 7t-8 -5q-74 -98 -238 -100q-141 0 -232 71.5t-91 239.5zM196 1425q0 14 21 14h272q20 0 31 -16l115 -207q4 -8 4 -12q0 -16 -21 -17h-231q-16 0 -29 15l-156 207q-6 10 -6 16zM381 319q0 -41 25.5 -64.5t68.5 -23.5q55 0 95 32t40 83v62 q0 10 -10 10h-92q-59 0 -93 -25.5t-34 -73.5z" />
<glyph unicode="&#xe1;" horiz-adv-x="1015" d="M37 295q0 178 107.5 254t314.5 76h141q10 0 10 10v45q0 47 -29.5 75.5t-80.5 28.5q-37 0 -62.5 -17t-36.5 -46q-6 -23 -26 -21l-297 19q-25 4 -25 22q6 98 64.5 174t158 118t222.5 42q131 0 233.5 -45t160.5 -124t58 -179v-702q0 -10 -7 -17.5t-17 -7.5h-291 q-10 0 -17.5 7t-7.5 18v57q0 6 -4 7t-8 -5q-74 -98 -238 -100q-141 0 -232 71.5t-91 239.5zM342 1195.5q-4 8.5 2 20.5l115 207q10 16 31 16h272q20 0 20 -14q0 -6 -6 -16l-155 -207q-12 -14 -29 -15h-232q-14 0 -18 8.5zM381 319q0 -41 25.5 -64.5t68.5 -23.5q55 0 95 32 t40 83v62q0 10 -10 10h-92q-59 0 -93 -25.5t-34 -73.5z" />
<glyph unicode="&#xe2;" horiz-adv-x="1015" d="M37 295q0 178 107.5 254t314.5 76h141q10 0 10 10v45q0 47 -29.5 75.5t-80.5 28.5q-37 0 -62.5 -17t-36.5 -46q-6 -23 -26 -21l-297 19q-25 4 -25 22q6 98 64.5 174t158 118t222.5 42q131 0 233.5 -45t160.5 -124t58 -179v-702q0 -10 -7 -17.5t-17 -7.5h-291 q-10 0 -17.5 7t-7.5 18v57q0 6 -4 7t-8 -5q-74 -98 -238 -100q-141 0 -232 71.5t-91 239.5zM173 1194.5q-5 9.5 3 21.5l146 215q10 16 28 17h293q18 0 29 -17l151 -215q4 -6 5 -14q0 -16 -21 -17h-211q-20 0 -31 17l-59 108q-6 10 -12 0l-60 -108q-10 -16 -30 -17h-211 q-15 0 -20 9.5zM381 319q0 -41 25.5 -64.5t68.5 -23.5q55 0 95 32t40 83v62q0 10 -10 10h-92q-59 0 -93 -25.5t-34 -73.5z" />
<glyph unicode="&#xe3;" horiz-adv-x="1015" d="M37 295q0 178 107.5 254t314.5 76h141q10 0 10 10v45q0 47 -29.5 75.5t-80.5 28.5q-37 0 -62.5 -17t-36.5 -46q-6 -23 -26 -21l-297 19q-25 4 -25 22q6 98 64.5 174t158 118t222.5 42q131 0 233.5 -45t160.5 -124t58 -179v-702q0 -10 -7 -17.5t-17 -7.5h-291 q-10 0 -17.5 7t-7.5 18v57q0 6 -4 7t-8 -5q-74 -98 -238 -100q-141 0 -232 71.5t-91 239.5zM215 1321q27 76 79.5 115.5t115.5 39.5t135 -47q51 -35 90 -35q41 0 70 39q14 20 33 8l104 -71q10 -6 10 -21q0 -12 -8 -26q-37 -70 -92 -104t-111 -34q-32 0 -60 11.5t-64 31.5 q-25 14 -44.5 23.5t-35.5 9.5q-43 0 -72 -41q-12 -23 -33 -8l-106 76q-16 12 -11 33zM381 319q0 -41 25.5 -64.5t68.5 -23.5q55 0 95 32t40 83v62q0 10 -10 10h-92q-59 0 -93 -25.5t-34 -73.5z" />
<glyph unicode="&#xe4;" horiz-adv-x="1015" d="M37 295q0 178 107.5 254t314.5 76h141q10 0 10 10v45q0 47 -29.5 75.5t-80.5 28.5q-37 0 -62.5 -17t-36.5 -46q-6 -23 -26 -21l-297 19q-25 4 -25 22q6 98 64.5 174t158 118t222.5 42q131 0 233.5 -45t160.5 -124t58 -179v-702q0 -10 -7 -17.5t-17 -7.5h-291 q-10 0 -17.5 7t-7.5 18v57q0 6 -4 7t-8 -5q-74 -98 -238 -100q-141 0 -232 71.5t-91 239.5zM147 1325q0 72 45 116.5t117 44.5t116 -45t44 -116q0 -72 -44 -117t-116 -45t-117 45t-45 117zM381 319q0 -41 25.5 -64.5t68.5 -23.5q55 0 95 32t40 83v62q0 10 -10 10h-92 q-59 0 -93 -25.5t-34 -73.5zM538 1325q0 72 45.5 116.5t116.5 44.5q72 0 116 -45t44 -116q0 -72 -44 -117t-116 -45q-71 0 -116.5 45t-45.5 117z" />
<glyph unicode="&#xe5;" horiz-adv-x="1015" d="M37 295q0 178 107.5 254t314.5 76h141q10 0 10 10v45q0 47 -29.5 75.5t-80.5 28.5q-37 0 -62.5 -17t-36.5 -46q-6 -23 -26 -21l-297 19q-25 4 -25 22q6 98 64.5 174t158 118t222.5 42q131 0 233.5 -45t160.5 -124t58 -179v-702q0 -10 -7 -17.5t-17 -7.5h-291 q-10 0 -17.5 7t-7.5 18v57q0 6 -4 7t-8 -5q-74 -98 -238 -100q-141 0 -232 71.5t-91 239.5zM266 1390q0 98 67.5 166t168.5 68q98 0 165.5 -67.5t67.5 -166.5q0 -98 -67.5 -165.5t-165.5 -67.5q-101 0 -168.5 67.5t-67.5 165.5zM381 319q0 -41 25.5 -64.5t68.5 -23.5 q55 0 95 32t40 83v62q0 10 -10 10h-92q-59 0 -93 -25.5t-34 -73.5zM418 1390q0 -35 24.5 -59.5t59.5 -24.5q34 0 59 24.5t25 59.5q0 37 -25 62.5t-59 25.5q-35 0 -59.5 -25.5t-24.5 -62.5z" />
<glyph unicode="&#xe6;" horiz-adv-x="1576" d="M37 303q0 168 106.5 243t311.5 75h143q10 0 10 10v47q0 49 -29.5 77.5t-80.5 28.5q-39 0 -65.5 -16t-37.5 -45q-6 -23 -26 -21l-295 21q-25 4 -23 27q6 94 65.5 168.5t155 115.5t207.5 41q96 0 173 -32.5t128 -86.5q8 -8 15 0q45 51 121.5 85t170.5 34q162 0 281 -92 t143 -242q18 -125 19 -295q0 -25 -25 -24h-530q-10 0 -10 -10q0 -18 2 -35q8 -49 46 -75t95 -26q88 0 137 68q14 20 33 10l207 -88q23 -10 14 -30q-43 -121 -142.5 -186.5t-246.5 -65.5q-119 0 -207 41t-117 98q-8 12 -8 6q-33 -61 -135 -103t-240 -42q-159 0 -262.5 72.5 t-103.5 246.5zM379 319q0 -43 26.5 -68.5t71.5 -25.5q51 0 91 32t40 83v72q0 10 -10 10h-92q-59 0 -93 -26.5t-34 -76.5zM963 631q0 -10 10 -10h203q10 0 10 10l-6 57q-8 43 -36 69.5t-71 26.5q-41 0 -69.5 -26.5t-34.5 -69.5q-6 -27 -6 -57z" />
<glyph unicode="&#xe7;" horiz-adv-x="1011" d="M55 532q0 117 19 213q29 152 146.5 241t297.5 89q174 0 293 -86t147 -231q4 -20 9 -66v-4q0 -18 -23 -22l-289 -29h-6q-14 0 -18 16v13l-6 32q-10 39 -38 62.5t-71 23.5q-86 0 -108 -96q-10 -51 -11 -156q0 -115 13 -165q10 -43 36.5 -68t69.5 -25q47 0 73.5 26t33.5 67 q4 20 4 30q4 27 26 23l289 -25q25 -4 23 -26q0 -18 -4 -47q-20 -131 -103.5 -215t-216.5 -113q-6 0 -7 -4t3 -8q78 -88 78 -177q0 -29 -6 -53q-18 -72 -71.5 -101.5t-123.5 -29.5q-61 0 -123 21q-23 6 -18 28l16 123q2 12 9.5 16.5t21.5 0.5q16 -4 22 -5q41 0 54 41 q8 29 -14.5 66t-69.5 78l-13 6q-133 25 -218 108.5t-107 214.5q-18 92 -19 213z" />
<glyph unicode="&#xe8;" horiz-adv-x="1024" d="M59 555q0 80 9 137q23 182 136 283.5t314 101.5q397 0 447 -418q10 -102 10 -198q0 -25 -25 -25h-540q-10 0 -11 -10q4 -41 9 -55q10 -43 43.5 -70t85.5 -27q92 0 131 78q8 20 30 17l240 -45q25 -6 18 -29q-41 -145 -153.5 -228t-274.5 -83q-168 0 -283.5 87t-154.5 226 q-31 104 -31 258zM207 1427q0 14 21 14h272q20 0 31 -16l115 -207q4 -8 4 -12q0 -16 -21 -17h-231q-16 0 -29 15l-156 207q-6 10 -6 16zM401 635q-4 -10 9 -10h211q10 0 10 10q-4 37 -8 53q-18 96 -111 96q-45 0 -68.5 -23.5t-33.5 -70.5q-4 -18 -9 -55z" />
<glyph unicode="&#xe9;" horiz-adv-x="1024" d="M59 555q0 80 9 137q23 182 136 283.5t314 101.5q397 0 447 -418q10 -102 10 -198q0 -25 -25 -25h-540q-10 0 -11 -10q4 -41 9 -55q10 -43 43.5 -70t85.5 -27q92 0 131 78q8 20 30 17l240 -45q25 -6 18 -29q-41 -145 -153.5 -228t-274.5 -83q-168 0 -283.5 87t-154.5 226 q-31 104 -31 258zM352 1197.5q-4 8.5 2 20.5l115 207q10 16 31 16h272q20 0 20 -14q0 -6 -6 -16l-155 -207q-12 -14 -29 -15h-232q-14 0 -18 8.5zM401 635q-4 -10 9 -10h211q10 0 10 10q-4 37 -8 53q-18 96 -111 96q-45 0 -68.5 -23.5t-33.5 -70.5q-4 -18 -9 -55z" />
<glyph unicode="&#xea;" horiz-adv-x="1024" d="M59 555q0 80 9 137q23 182 136 283.5t314 101.5q397 0 447 -418q10 -102 10 -198q0 -25 -25 -25h-540q-10 0 -11 -10q4 -41 9 -55q10 -43 43.5 -70t85.5 -27q92 0 131 78q8 20 30 17l240 -45q25 -6 18 -29q-41 -145 -153.5 -228t-274.5 -83q-168 0 -283.5 87t-154.5 226 q-31 104 -31 258zM183 1196.5q-5 9.5 3 21.5l146 215q10 16 28 17h293q18 0 29 -17l151 -215q4 -6 5 -14q0 -16 -21 -17h-211q-20 0 -31 17l-59 108q-6 10 -12 0l-60 -108q-10 -16 -30 -17h-211q-15 0 -20 9.5zM401 635q-4 -10 9 -10h211q10 0 10 10q-4 37 -8 53 q-18 96 -111 96q-45 0 -68.5 -23.5t-33.5 -70.5q-4 -18 -9 -55z" />
<glyph unicode="&#xeb;" horiz-adv-x="1024" d="M59 555q0 80 9 137q23 182 136 283.5t314 101.5q397 0 447 -418q10 -102 10 -198q0 -25 -25 -25h-540q-10 0 -11 -10q4 -41 9 -55q10 -43 43.5 -70t85.5 -27q92 0 131 78q8 20 30 17l240 -45q25 -6 18 -29q-41 -145 -153.5 -228t-274.5 -83q-168 0 -283.5 87t-154.5 226 q-31 104 -31 258zM157 1327q0 72 45 116.5t117 44.5t116 -45t44 -116q0 -72 -44 -117t-116 -45t-117 45t-45 117zM401 635q-4 -10 9 -10h211q10 0 10 10q-4 37 -8 53q-18 96 -111 96q-45 0 -68.5 -23.5t-33.5 -70.5q-4 -18 -9 -55zM548 1327q0 72 45.5 116.5t116.5 44.5 q72 0 116 -45t44 -116q0 -72 -44 -117t-116 -45q-71 0 -116.5 45t-45.5 117z" />
<glyph unicode="&#xec;" horiz-adv-x="487" d="M-68 1434q0 14 21 14h272q20 0 31 -16l115 -207q4 -8 4 -12q0 -16 -21 -17h-231q-16 0 -29 15l-156 207q-6 10 -6 16zM72 25v1009q0 10 7 17.5t17 7.5h291q10 0 17.5 -7.5t7.5 -17.5v-1009q0 -10 -7.5 -17.5t-17.5 -7.5h-291q-10 0 -17 7t-7 18z" />
<glyph unicode="&#xed;" horiz-adv-x="487" d="M72 25v1009q0 10 7 17.5t17 7.5h291q10 0 17.5 -7.5t7.5 -17.5v-1009q0 -10 -7.5 -17.5t-17.5 -7.5h-291q-10 0 -17 7t-7 18zM78 1204.5q-4 8.5 2 20.5l115 207q10 16 31 16h272q20 0 20 -14q0 -6 -6 -16l-155 -207q-12 -14 -29 -15h-232q-14 0 -18 8.5z" />
<glyph unicode="&#xee;" horiz-adv-x="487" d="M-91 1203.5q-5 9.5 3 21.5l146 215q10 16 28 17h293q18 0 29 -17l151 -215q4 -6 5 -14q0 -16 -21 -17h-211q-20 0 -31 17l-59 108q-6 10 -12 0l-60 -108q-10 -16 -30 -17h-211q-15 0 -20 9.5zM72 25v1009q0 10 7 17.5t17 7.5h291q10 0 17.5 -7.5t7.5 -17.5v-1009 q0 -10 -7.5 -17.5t-17.5 -7.5h-291q-10 0 -17 7t-7 18z" />
<glyph unicode="&#xef;" horiz-adv-x="487" d="M-117 1334q0 72 45 116.5t117 44.5t116 -45t44 -116q0 -72 -44 -117t-116 -45t-117 45t-45 117zM72 25v1009q0 10 7 17.5t17 7.5h291q10 0 17.5 -7.5t7.5 -17.5v-1009q0 -10 -7.5 -17.5t-17.5 -7.5h-291q-10 0 -17 7t-7 18zM274 1334q0 72 45.5 116.5t116.5 44.5 q72 0 116 -45t44 -116q0 -72 -44 -117t-116 -45q-71 0 -116.5 45t-45.5 117z" />
<glyph unicode="&#xf0;" horiz-adv-x="1026" d="M45 483q0 96 18 183q12 109 87 183.5t184 90.5q66 14 115 14q68 0 112 -18q14 -4 8 8q-20 55 -63 131q-2 4 -5 6t-7 0l-185 -45l-8 -2q-16 0 -22 21l-27 108l-2 8q0 16 20 23l125 31q4 2 6 6t-2 8q-68 94 -125 164q-8 12 -8 16q0 14 23 15h291q20 0 28 -15 q12 -18 24.5 -33.5t20.5 -27.5l37 -49q2 -4 5 -6.5t7 0.5l164 40l8 3q16 0 23 -21l25 -113l2 -8q0 -16 -19 -22l-104 -27q-12 -4 -6 -14q63 -111 100 -217.5t47 -221.5q16 -108 16 -219q0 -86 -18 -182q-29 -147 -143.5 -232t-294.5 -85q-178 0 -295 85t-144 232 q-18 74 -18 182zM385 479q0 -47 5 -83t7 -46q10 -43 38 -68.5t67 -25.5t65.5 25.5t36.5 68.5q12 66 12 129q0 61 -12 125q-10 41 -36.5 66.5t-65.5 25.5t-66.5 -24.5t-38.5 -67.5q-12 -68 -12 -125z" />
<glyph unicode="&#xf1;" d="M74 25v1009q0 10 7 17.5t17 7.5h291q10 0 17.5 -7.5t7.5 -17.5v-57q0 -6 5 -7t9 5q72 100 211 100q152 0 238 -97t86 -271v-682q0 -10 -7.5 -17.5t-17.5 -7.5h-291q-10 0 -17 7t-7 18v632q0 57 -28 92t-75 35q-49 0 -77.5 -33.5t-28.5 -93.5v-632q0 -10 -7.5 -17.5 t-17.5 -7.5h-291q-10 0 -17 7t-7 18zM242 1307q27 76 78 115.5t114 39.5q61 0 133 -47q51 -35 90 -35t68 39q12 23 33 8l102 -71q18 -12 10 -33q-37 -78 -93 -115t-115 -37q-31 0 -59 11.5t-64 31.5q-25 14 -43.5 23.5t-34.5 9.5q-43 0 -72 -41q-14 -25 -33 -8l-104 76 q-16 12 -10 33z" />
<glyph unicode="&#xf2;" horiz-adv-x="1034" d="M55 530q0 121 15 195q23 162 141.5 256t306.5 94t306 -94t141 -254q14 -78 14 -195q0 -96 -10 -184q-23 -170 -141.5 -267t-309.5 -97q-190 0 -309 95t-141 263q-12 80 -13 188zM213 1425q0 14 21 14h272q20 0 31 -16l115 -207q4 -8 4 -12q0 -16 -21 -17h-231 q-16 0 -29 15l-156 207q-6 10 -6 16zM397 532q0 -98 4 -141q10 -53 40 -85t77 -32q45 0 75 32t40 85q6 68 6 141q0 53 -8 140q-8 53 -38 82.5t-75 29.5q-47 0 -76.5 -30.5t-38.5 -81.5q-6 -43 -6 -140z" />
<glyph unicode="&#xf3;" horiz-adv-x="1034" d="M55 530q0 121 15 195q23 162 141.5 256t306.5 94t306 -94t141 -254q14 -78 14 -195q0 -96 -10 -184q-23 -170 -141.5 -267t-309.5 -97q-190 0 -309 95t-141 263q-12 80 -13 188zM358 1195.5q-4 8.5 2 20.5l115 207q10 16 31 16h272q20 0 20 -14q0 -6 -6 -16l-155 -207 q-12 -14 -29 -15h-232q-14 0 -18 8.5zM397 532q0 -98 4 -141q10 -53 40 -85t77 -32q45 0 75 32t40 85q6 68 6 141q0 53 -8 140q-8 53 -38 82.5t-75 29.5q-47 0 -76.5 -30.5t-38.5 -81.5q-6 -43 -6 -140z" />
<glyph unicode="&#xf4;" horiz-adv-x="1034" d="M55 530q0 121 15 195q23 162 141.5 256t306.5 94t306 -94t141 -254q14 -78 14 -195q0 -96 -10 -184q-23 -170 -141.5 -267t-309.5 -97q-190 0 -309 95t-141 263q-12 80 -13 188zM189 1194.5q-5 9.5 3 21.5l146 215q10 16 28 17h293q18 0 29 -17l151 -215q4 -6 5 -14 q0 -16 -21 -17h-211q-20 0 -31 17l-59 108q-6 10 -12 0l-60 -108q-10 -16 -30 -17h-211q-15 0 -20 9.5zM397 532q0 -98 4 -141q10 -53 40 -85t77 -32q45 0 75 32t40 85q6 68 6 141q0 53 -8 140q-8 53 -38 82.5t-75 29.5q-47 0 -76.5 -30.5t-38.5 -81.5q-6 -43 -6 -140z" />
<glyph unicode="&#xf5;" horiz-adv-x="1034" d="M55 530q0 121 15 195q23 162 141.5 256t306.5 94t306 -94t141 -254q14 -78 14 -195q0 -96 -10 -184q-23 -170 -141.5 -267t-309.5 -97q-190 0 -309 95t-141 263q-12 80 -13 188zM231 1321q27 76 79.5 115.5t115.5 39.5t135 -47q51 -35 90 -35q41 0 70 39q14 20 33 8 l104 -71q10 -6 10 -21q0 -12 -8 -26q-37 -70 -92 -104t-111 -34q-32 0 -60 11.5t-64 31.5q-25 14 -44.5 23.5t-35.5 9.5q-43 0 -72 -41q-12 -23 -33 -8l-106 76q-16 12 -11 33zM397 532q0 -98 4 -141q10 -53 40 -85t77 -32q45 0 75 32t40 85q6 68 6 141q0 53 -8 140 q-8 53 -38 82.5t-75 29.5q-47 0 -76.5 -30.5t-38.5 -81.5q-6 -43 -6 -140z" />
<glyph unicode="&#xf6;" horiz-adv-x="1034" d="M55 530q0 121 15 195q23 162 141.5 256t306.5 94t306 -94t141 -254q14 -78 14 -195q0 -96 -10 -184q-23 -170 -141.5 -267t-309.5 -97q-190 0 -309 95t-141 263q-12 80 -13 188zM164 1325q0 72 45 116.5t117 44.5t116 -45t44 -116q0 -72 -44 -117t-116 -45t-117 45 t-45 117zM397 532q0 -98 4 -141q10 -53 40 -85t77 -32q45 0 75 32t40 85q6 68 6 141q0 53 -8 140q-8 53 -38 82.5t-75 29.5q-47 0 -76.5 -30.5t-38.5 -81.5q-6 -43 -6 -140zM555 1325q0 72 45.5 116.5t116.5 44.5q72 0 116 -45t44 -116q0 -72 -44 -117t-116 -45 q-71 0 -116.5 45t-45.5 117z" />
<glyph unicode="&#xf7;" horiz-adv-x="940" d="M47 516v223q0 10 7 17.5t18 7.5h796q10 0 17.5 -7t7.5 -18v-223q0 -10 -7 -17t-18 -7h-796q-11 0 -18 7t-7 17zM317 281q0 61 45.5 106t108.5 45q61 0 106.5 -45t45.5 -106q0 -63 -45.5 -108.5t-106.5 -45.5q-63 0 -108.5 45t-45.5 109zM317 989q0 61 45.5 105.5 t108.5 44.5q61 0 106.5 -44t45.5 -106q0 -63 -45.5 -108t-106.5 -45q-63 0 -108.5 45t-45.5 108z" />
<glyph unicode="&#xf8;" horiz-adv-x="1042" d="M61 530q0 121 15 195q23 162 141.5 256t306.5 94q133 0 224 -45q10 -4 14 4l51 84q6 10 16.5 12.5t18.5 -6.5l74 -51q20 -14 8 -35l-56 -86q-4 -8 3 -14q76 -90 94 -211q14 -78 14 -195q0 -96 -10 -184q-23 -170 -141.5 -267t-309.5 -97q-127 0 -223 43q-8 2 -12 -4 l-51 -82q-6 -10 -16.5 -12.5t-18.5 5.5l-76 54q-12 8 -12 18q0 8 6 17l53 81q4 8 -2 15q-80 88 -98 223q-12 80 -13 188zM403 492q0 -8 4.5 -8.5t8.5 5.5l168 267q8 8 -2 14q-29 14 -58 14q-47 0 -76.5 -30.5t-37.5 -81.5q-6 -43 -7 -140v-40zM467 303q-4 -10 2 -14 q29 -14 55 -15q45 0 75 32t40 85q6 67 6 141v33q0 6 -6 7t-8 -5z" />
<glyph unicode="&#xf9;" d="M68 326v708q0 10 7 17.5t17 7.5h291q10 0 17.5 -7.5t7.5 -17.5v-633q0 -59 26.5 -92t75.5 -33q43 0 70.5 26t33.5 73v659q0 10 7.5 17.5t17.5 7.5h291q10 0 17 -7.5t7 -17.5v-1009q0 -10 -7 -17.5t-17 -7.5h-291q-10 0 -17.5 7t-7.5 18v49q0 6 -4 7t-8 -5 q-70 -92 -217 -92q-139 0 -228 87t-89 255zM204 1409q0 14 21 14h272q20 0 31 -16l115 -207q4 -8 4 -12q0 -16 -21 -17h-231q-16 0 -29 15l-156 207q-6 10 -6 16z" />
<glyph unicode="&#xfa;" d="M68 326v708q0 10 7 17.5t17 7.5h291q10 0 17.5 -7.5t7.5 -17.5v-633q0 -59 26.5 -92t75.5 -33q43 0 70.5 26t33.5 73v659q0 10 7.5 17.5t17.5 7.5h291q10 0 17 -7.5t7 -17.5v-1009q0 -10 -7 -17.5t-17 -7.5h-291q-10 0 -17.5 7t-7.5 18v49q0 6 -4 7t-8 -5 q-70 -92 -217 -92q-139 0 -228 87t-89 255zM350 1179.5q-4 8.5 2 20.5l115 207q10 16 31 16h272q20 0 20 -14q0 -6 -6 -16l-155 -207q-12 -14 -29 -15h-232q-14 0 -18 8.5z" />
<glyph unicode="&#xfb;" d="M68 326v708q0 10 7 17.5t17 7.5h291q10 0 17.5 -7.5t7.5 -17.5v-633q0 -59 26.5 -92t75.5 -33q43 0 70.5 26t33.5 73v659q0 10 7.5 17.5t17.5 7.5h291q10 0 17 -7.5t7 -17.5v-1009q0 -10 -7 -17.5t-17 -7.5h-291q-10 0 -17.5 7t-7.5 18v49q0 6 -4 7t-8 -5 q-70 -92 -217 -92q-139 0 -228 87t-89 255zM181 1178.5q-5 9.5 3 21.5l146 215q10 16 28 17h293q18 0 29 -17l151 -215q4 -6 5 -14q0 -16 -21 -17h-211q-20 0 -31 17l-59 108q-6 10 -12 0l-60 -108q-10 -16 -30 -17h-211q-15 0 -20 9.5z" />
<glyph unicode="&#xfc;" d="M68 326v708q0 10 7 17.5t17 7.5h291q10 0 17.5 -7.5t7.5 -17.5v-633q0 -59 26.5 -92t75.5 -33q43 0 70.5 26t33.5 73v659q0 10 7.5 17.5t17.5 7.5h291q10 0 17 -7.5t7 -17.5v-1009q0 -10 -7 -17.5t-17 -7.5h-291q-10 0 -17.5 7t-7.5 18v49q0 6 -4 7t-8 -5 q-70 -92 -217 -92q-139 0 -228 87t-89 255zM155 1309q0 72 45 116.5t117 44.5t116 -45t44 -116q0 -72 -44 -117t-116 -45t-117 45t-45 117zM546 1309q0 72 45.5 116.5t116.5 44.5q72 0 116 -45t44 -116q0 -72 -44 -117t-116 -45q-71 0 -116.5 45t-45.5 117z" />
<glyph unicode="&#xfd;" horiz-adv-x="985" d="M27 1040q0 18 22 19h311q25 0 27 -23l100 -549q2 -6 6.5 -6t6.5 6l98 549q2 23 27 23l311 -2q12 0 17 -7.5t3 -19.5l-303 -1050q-49 -154 -102 -233t-156.5 -117t-296.5 -38h-12q-6 0 -10 7.5t-4 17.5v229q0 25 10 25h10q121 0 172 24.5t58 98.5l-3 12l-290 1026z M332 1191.5q-4 8.5 2 20.5l115 207q10 16 31 16h272q20 0 20 -14q0 -6 -6 -16l-155 -207q-12 -14 -29 -15h-232q-14 0 -18 8.5z" />
<glyph unicode="&#xfe;" horiz-adv-x="1021" d="M72 -385v1794q0 10 7 17.5t17 7.5h291q10 0 17.5 -7.5t7.5 -17.5v-391q0 -6 4 -7t8 3q70 61 194 61q131 0 212 -85t112 -240q19 -84 19 -203q0 -139 -19 -225q-33 -160 -113.5 -249t-207.5 -89q-123 0 -197 67q-4 4 -8 2t-4 -8v-430q0 -10 -7.5 -17.5t-17.5 -7.5h-291 q-10 0 -17 7.5t-7 17.5zM412 371q0 -8 2 -13q10 -39 34.5 -61.5t59.5 -22.5q41 0 67.5 30t34.5 79q11 59 11 149q0 104 -13 152q-10 47 -36.5 73.5t-63.5 26.5q-35 0 -59.5 -21.5t-34.5 -57.5q-2 -4 -2 -13v-321z" />
<glyph unicode="&#xff;" horiz-adv-x="985" d="M27 1040q0 18 22 19h311q25 0 27 -23l100 -549q2 -6 6.5 -6t6.5 6l98 549q2 23 27 23l311 -2q12 0 17 -7.5t3 -19.5l-303 -1050q-49 -154 -102 -233t-156.5 -117t-296.5 -38h-12q-6 0 -10 7.5t-4 17.5v229q0 25 10 25h10q121 0 172 24.5t58 98.5l-3 12l-290 1026z M137 1321q0 72 45 116.5t117 44.5t116 -45t44 -116q0 -72 -44 -117t-116 -45t-117 45t-45 117zM528 1321q0 72 45.5 116.5t116.5 44.5q72 0 116 -45t44 -116q0 -72 -44 -117t-116 -45q-71 0 -116.5 45t-45.5 117z" />
<glyph unicode="&#x152;" horiz-adv-x="1665" d="M66 457v520q0 137 56 245.5t149.5 168t199.5 59.5q125 0 231 -68q4 -4 8.5 -2t4.5 9v20q0 10 7 17.5t17 7.5h848q10 0 17.5 -7.5t7.5 -17.5v-242q0 -10 -7.5 -17t-17.5 -7h-522q-10 0 -10 -10v-256q0 -10 10 -11h313q10 0 17.5 -7t7.5 -17v-242q0 -10 -7 -17.5t-18 -7.5 h-313q-10 0 -10 -10v-264q0 -10 10 -10h522q10 0 17.5 -7.5t7.5 -17.5v-241q0 -10 -7.5 -17.5t-17.5 -7.5h-848q-10 0 -17 7t-7 18v16q0 6 -4 8t-9 -2q-106 -68 -231 -67q-106 0 -199.5 60t-149.5 168.5t-56 248.5zM406 444q0 -78 41.5 -125t111.5 -47t113 47.5t43 124.5 v541q0 78 -43 126t-113 48t-111.5 -48t-41.5 -126v-541z" />
<glyph unicode="&#x153;" horiz-adv-x="1617" d="M55 530q0 123 19 215q27 152 143.5 241t294.5 89q176 0 293 -129q8 -8 16 0q119 129 291 129q180 0 298 -91t142 -241q14 -119 19 -286q0 -25 -25 -25h-534q-8 0 -8 -8q0 -29 6 -51q18 -102 139 -103q41 0 76 20.5t55 55.5q14 20 33 12l209 -86q23 -10 14 -30 q-90 -258 -410 -258q-188 0 -305 129q-8 8 -14 0q-117 -129 -295 -129q-180 0 -296 89t-142 244q-18 84 -19 213zM395 532q0 -84 15 -165q8 -41 35.5 -67t66.5 -26t65.5 26t34.5 67q15 65 15 165q0 96 -15 162q-8 41 -34.5 65.5t-65.5 24.5t-66.5 -24.5t-37.5 -65.5 q-12 -70 -13 -162zM1001 635q0 -10 11 -10h205q8 0 8 10l-4 53q-10 45 -38 70.5t-69 25.5t-68.5 -26.5t-35.5 -69.5q-4 -16 -9 -53z" />
<glyph unicode="&#x178;" horiz-adv-x="1155" d="M47 1417q0 16 21 17h313q20 0 27 -21l163 -485q2 -6 6.5 -6t6.5 6l164 485q6 20 26 21h311q14 0 18.5 -8.5t0.5 -20.5l-356 -870l-3 -13v-493q0 -10 -7 -17.5t-17 -7.5h-291q-10 0 -17 7t-7 18v493l-3 13l-354 870q-2 4 -2 12zM223 1684q0 72 45 116.5t117 44.5t116 -45 t44 -116q0 -72 -44 -117t-116 -45t-117 45t-45 117zM614 1684q0 72 45.5 116.5t116.5 44.5q72 0 116 -45t44 -116q0 -72 -44 -117t-116 -45q-71 0 -116.5 45t-45.5 117z" />
<glyph unicode="&#x2c6;" horiz-adv-x="688" d="M17 1178.5q-5 9.5 3 21.5l146 215q10 16 28 17h293q18 0 29 -17l151 -215q4 -6 5 -14q0 -16 -21 -17h-211q-20 0 -31 17l-59 108q-6 10 -12 0l-60 -108q-10 -16 -30 -17h-211q-15 0 -20 9.5z" />
<glyph unicode="&#x2dc;" horiz-adv-x="704" d="M32 1305q27 76 79.5 115.5t115.5 39.5t135 -47q51 -35 90 -35q41 0 70 39q14 20 33 8l104 -71q10 -6 10 -21q0 -12 -8 -26q-37 -70 -92 -104t-111 -34q-32 0 -60 11.5t-64 31.5q-25 14 -44.5 23.5t-35.5 9.5q-43 0 -72 -41q-12 -23 -33 -8l-106 76q-16 12 -11 33z" />
<glyph unicode="&#x2000;" horiz-adv-x="991" />
<glyph unicode="&#x2001;" horiz-adv-x="1983" />
<glyph unicode="&#x2002;" horiz-adv-x="991" />
<glyph unicode="&#x2003;" horiz-adv-x="1983" />
<glyph unicode="&#x2004;" horiz-adv-x="661" />
<glyph unicode="&#x2005;" horiz-adv-x="495" />
<glyph unicode="&#x2006;" horiz-adv-x="330" />
<glyph unicode="&#x2007;" horiz-adv-x="330" />
<glyph unicode="&#x2008;" horiz-adv-x="247" />
<glyph unicode="&#x2009;" horiz-adv-x="396" />
<glyph unicode="&#x200a;" horiz-adv-x="110" />
<glyph unicode="&#x2010;" horiz-adv-x="770" d="M47 473v242q0 10 7 17t18 7h626q10 0 17.5 -7t7.5 -17v-242q0 -10 -7 -17t-18 -7h-626q-11 0 -18 7t-7 17z" />
<glyph unicode="&#x2011;" horiz-adv-x="770" d="M47 473v242q0 10 7 17t18 7h626q10 0 17.5 -7t7.5 -17v-242q0 -10 -7 -17t-18 -7h-626q-11 0 -18 7t-7 17z" />
<glyph unicode="&#x2012;" horiz-adv-x="770" d="M47 473v242q0 10 7 17t18 7h626q10 0 17.5 -7t7.5 -17v-242q0 -10 -7 -17t-18 -7h-626q-11 0 -18 7t-7 17z" />
<glyph unicode="&#x2013;" horiz-adv-x="890" d="M47 463v242q0 10 7 17t18 7h747q10 0 17.5 -7t7.5 -17v-242q0 -10 -7.5 -17.5t-17.5 -7.5h-747q-11 0 -18 7.5t-7 17.5z" />
<glyph unicode="&#x2014;" horiz-adv-x="1271" d="M47 463v242q0 10 7 17t18 7h1128q10 0 17.5 -7t7.5 -17v-242q0 -10 -7.5 -17.5t-17.5 -7.5h-1128q-11 0 -18 7.5t-7 17.5z" />
<glyph unicode="&#x2018;" horiz-adv-x="446" d="M10 985l160 428q6 20 29 21h219q29 0 22 -27l-94 -428q-4 -23 -27 -23h-288q-31 0 -21 29z" />
<glyph unicode="&#x2019;" horiz-adv-x="446" d="M6 983l94 428q4 23 27 23h289q30 0 20 -29l-160 -428q-6 -20 -28 -21h-219q-29 0 -23 27z" />
<glyph unicode="&#x201a;" horiz-adv-x="1228" d="M59 -188l52 491q2 23 24 23h252q29 0 23 -27l-121 -494q-6 -20 -29 -20h-176q-12 0 -19.5 7t-5.5 20z" />
<glyph unicode="&#x201c;" horiz-adv-x="804" d="M10 985l150 428q6 20 26 21h209q27 0 21 -27l-84 -428q-2 -23 -27 -23h-274q-13 0 -19 7.5t-2 21.5zM397 985l144 428q6 20 26 21h211q27 0 23 -27l-82 -428q-2 -23 -27 -23h-276q-13 0 -18 7.5t-1 21.5z" />
<glyph unicode="&#x201d;" horiz-adv-x="804" d="M4 983l82 428q2 23 27 23h276q12 0 17.5 -7.5t1.5 -21.5l-144 -428q-6 -20 -26 -21h-211q-27 0 -23 27zM389 983l84 428q2 23 27 23h274q12 0 18.5 -7.5t2.5 -21.5l-150 -428q-6 -20 -27 -21h-208q-27 0 -21 27z" />
<glyph unicode="&#x201e;" horiz-adv-x="829" d="M4 -186l82 428q2 23 27 23h276q12 0 17.5 -7.5t1.5 -21.5l-144 -428q-6 -20 -26 -21h-211q-27 0 -23 27zM389 -186l84 428q2 23 27 23h274q12 0 18.5 -7.5t2.5 -21.5l-150 -428q-6 -20 -27 -21h-208q-27 0 -21 27z" />
<glyph unicode="&#x2022;" horiz-adv-x="645" d="M47 573q0 76 37 138.5t100.5 99.5t139.5 37q74 0 137 -37t100 -99.5t37 -138.5q0 -74 -37 -137t-100.5 -101t-136.5 -38q-76 0 -139.5 38t-100.5 101.5t-37 136.5z" />
<glyph unicode="&#x2026;" horiz-adv-x="1701" d="M76 186q0 80 62.5 137.5t140.5 57.5t140 -57.5t62 -137.5q0 -84 -57 -141t-145 -57q-89 0 -146 57t-57 141zM643 186q0 80 62.5 137.5t140.5 57.5t140 -57.5t62 -137.5q0 -84 -57 -141t-145 -57q-89 0 -146 57t-57 141zM1211 186q0 80 62.5 137.5t140.5 57.5t140 -57.5 t62 -137.5q0 -84 -57 -141t-145 -57q-89 0 -146 57t-57 141z" />
<glyph unicode="&#x202f;" horiz-adv-x="396" />
<glyph unicode="&#x2039;" horiz-adv-x="624" d="M76 575q0 8 4 17l164 321q10 18 28 19h234q14 0 19 -8.5t-1 -20.5l-168 -321q-2 -6 0 -13l168 -321q4 -8 4 -12q0 -16 -22 -17h-234q-18 0 -28 19l-164 321q-4 12 -4 16z" />
<glyph unicode="&#x203a;" horiz-adv-x="630" d="M96 915q0 16 23 17h233q20 0 29 -19l164 -321q4 -4 4 -17q0 -10 -4 -16l-164 -321q-8 -18 -29 -19h-233q-15 0 -20 8.5t1 20.5l168 321q2 6 0 13l-168 321q-4 8 -4 12z" />
<glyph unicode="&#x205f;" horiz-adv-x="495" />
<glyph unicode="&#x20ac;" horiz-adv-x="1167" d="M66 539v125q0 10 7 17t17 7h115q10 0 10 10v39q0 10 -10 11h-115q-10 0 -17 7t-7 17v123q0 10 7 17.5t17 7.5h115q10 0 10 10v78q0 203 122 322.5t325 119.5q180 0 297.5 -92t142.5 -254v-6q0 -16 -21 -21l-288 -35h-5q-18 0 -24 23q-8 43 -36 68.5t-66 25.5 q-47 0 -77 -38t-30 -97v-94q0 -10 10 -10h324q12 0 18 -8.5t2 -20.5l-37 -123q-6 -20 -26 -20h-281q-10 0 -10 -11v-39q0 -10 10 -10h256q12 0 18.5 -8t2.5 -21l-37 -124q-6 -20 -27 -21h-213q-10 0 -10 -10v-94q0 -59 29.5 -97.5t77.5 -38.5q40 0 68 27t38 72q2 25 27 20 l284 -45q12 -2 17.5 -9t3.5 -20q-29 -158 -145.5 -246.5t-292.5 -88.5q-203 0 -325 120.5t-122 325.5v74q0 10 -10 10h-115q-10 0 -17 7t-7 18z" />
<glyph unicode="&#x2122;" horiz-adv-x="1255" d="M23 1303v106q0 10 7 17.5t17 7.5h490q10 0 17 -7.5t7 -17.5v-106q0 -10 -7 -17.5t-17 -7.5h-148q-10 0 -10 -10v-529q0 -10 -7 -17t-18 -7h-131q-10 0 -17 7t-7 17v529q0 10 -11 10h-141q-10 0 -17 7t-7 18zM633 739v670q0 10 7 17.5t17 7.5h134q18 0 28 -17l96 -141 q4 -4 9.5 -4t7.5 4l96 141q11 17 29 17h131q10 0 17 -7.5t7 -17.5v-670q0 -10 -7 -17t-17 -7h-129q-10 0 -17.5 7t-7.5 17v408q0 6 -4 8t-8 -4l-68 -98q-10 -16 -28 -17h-6q-18 0 -29 17l-66 100q-2 6 -7 4t-5 -8v-410q0 -10 -7 -17t-18 -7h-131q-10 0 -17 7t-7 17z" />
<glyph unicode="&#x25fc;" horiz-adv-x="1054" d="M0 0v1055h1055v-1055h-1055z" />
</font>
</defs>
</svg>
