<?xml version="1.0" standalone="no"?>
<!DOCTYPE svg PUBLIC "-//W3C//DTD SVG 1.1//EN" "http://www.w3.org/Graphics/SVG/1.1/DTD/svg11.dtd" >
<svg xmlns="http://www.w3.org/2000/svg" xmlns:xlink="http://www.w3.org/1999/xlink" version="1.1">
<metadata></metadata>
<defs>
<font id="barlow_semi_condensedLtIt" horiz-adv-x="940" >
<font-face units-per-em="2048" ascent="1638" descent="-410" />
<missing-glyph horiz-adv-x="397" />
<glyph horiz-adv-x="0" />
<glyph unicode="&#xd;" horiz-adv-x="397" />
<glyph unicode=" "  horiz-adv-x="397" />
<glyph unicode="&#x09;" horiz-adv-x="397" />
<glyph unicode="&#xa0;" horiz-adv-x="397" />
<glyph unicode="!" horiz-adv-x="561" d="M147 100q0 49 36 86t81 37q35 0 61.5 -27.5t26.5 -66.5q0 -49 -34.5 -85t-79.5 -36q-39 0 -65 26.5t-26 65.5zM254 481l108 932q4 20 23 21h66q20 0 16 -21l-121 -932q-2 -20 -22 -20h-54q-18 0 -16 20z" />
<glyph unicode="&#x22;" horiz-adv-x="440" d="M156 1030l34 369q0 8 6.5 14t16.5 6h66q10 0 15 -6t3 -14l-57 -369q-2 -20 -23 -20h-43q-20 0 -18 20zM375 1030l33 369q4 20 22 20h68q18 0 18 -20l-57 -369q-2 -20 -23 -20h-45q-18 0 -16 20z" />
<glyph unicode="#" horiz-adv-x="1224" d="M154 442l6 56q4 20 22 20h137q10 0 13 8l94 359q0 8 -4 8h-125q-18 0 -18 20l8 56q0 8 6 14t14 6h142q10 0 12 8l98 369q6 18 23 18l65 -4q8 0 12.5 -6t2.5 -14l-97 -363q0 -8 6 -8h332q10 0 12 8l99 369q6 18 22 18l66 -4q10 0 13 -6t1 -14l-96 -363q0 -8 6 -8h123 q20 0 16 -20l-6 -56q-4 -20 -22 -20h-138q-10 0 -10 -8l-96 -359q0 -8 4 -8h127q8 0 13 -6t3 -14l-6 -56q-4 -20 -22 -20h-142q-10 0 -10 -8l-100 -367q-2 -18 -21 -18l-65 2q-8 0 -13.5 6t-3.5 16l97 361q0 8 -4 8h-334q-10 0 -13 -8l-98 -367q-6 -18 -22 -18l-64 2 q-8 0 -13 6t-3 16l96 361q0 8 -4 8h-125q-8 0 -13 6t-3 14zM438 526q0 -8 4 -8h332q10 0 12 8l95 359q2 2 0 5t-4 3h-332q-10 0 -10 -8z" />
<glyph unicode="$" horiz-adv-x="958" d="M117 291q0 33 2 51l8 64q4 20 23 20h61q18 0 18 -20l-6 -52q-2 -16 -2 -45q0 -106 63.5 -167.5t176.5 -61.5q121 0 197.5 70.5t93.5 189.5q2 12 2 35q0 66 -33 117t-84 92t-164 116q-92 63 -143 108.5t-82 104t-31 138.5q0 14 4 55q18 150 107.5 238t230.5 104q8 0 8 8 l19 139q4 20 22 21h35q18 0 19 -21l-19 -137q0 -8 8 -8q139 -10 215 -92t76 -215q0 -16 -4 -58l-6 -55q-4 -20 -23 -20h-65q-10 0 -15.5 6t-3.5 14l6 45q2 16 3 47q0 106 -60.5 169t-173.5 63q-115 0 -187.5 -64.5t-86.5 -183.5q-2 -12 -2 -37q0 -63 28.5 -108.5t74.5 -80 t153 -104.5q152 -100 217 -180t65 -190q0 -16 -4 -54q-20 -159 -119.5 -257.5t-257.5 -110.5q-6 0 -10 -9l-14 -127q-4 -20 -23 -20h-39q-8 0 -13 6t-3 14l18 129q0 8 -8 9q-129 14 -200.5 96t-71.5 209z" />
<glyph unicode="%" horiz-adv-x="1628" d="M283 1137q0 84 43 156.5t114.5 116.5t153.5 44q102 0 169.5 -71.5t67.5 -176.5q0 -84 -43 -157.5t-113.5 -117.5t-150.5 -44q-104 0 -172.5 71.5t-68.5 178.5zM352 1143q0 -80 50.5 -133.5t129.5 -53.5q60 0 112 34t85 89.5t33 118.5q0 78 -50 131t-126 53 q-61 0 -115.5 -32.5t-86.5 -88t-32 -118.5zM362.5 7q-4.5 7 4.5 18l909 1394q8 14 27 15h40q10 0 14.5 -7.5t-1.5 -17.5l-912 -1395q-6 -14 -24 -14h-43q-10 0 -14.5 7zM895 225q0 86 43 160t114.5 118t153.5 44q102 0 171 -72t69 -176q0 -84 -44 -157.5t-114.5 -117.5 t-150.5 -44q-105 0 -173.5 70.5t-68.5 174.5zM967 236q0 -80 50 -132.5t128 -52.5q59 0 111.5 34t85 89t32.5 119q0 80 -50 132t-128 52q-59 0 -112.5 -32.5t-85 -88t-31.5 -120.5z" />
<glyph unicode="&#x26;" horiz-adv-x="1179" d="M111 258q0 33 2 51q18 141 102 242.5t227 208.5q8 4 2 10q-78 135 -106.5 204.5t-28.5 127.5q0 29 2 43q16 139 107.5 222t222.5 83q121 0 192.5 -69.5t71.5 -184.5q0 -29 -2 -43q-14 -125 -93 -214t-220 -191q-6 -2 -2 -11q66 -113 143 -235l103 -162q6 -8 12 0l100 125 l35 45q10 16 27 6l43 -29q16 -10 4 -28q-113 -147 -162 -203q-2 -6 0 -12q96 -160 129 -219q4 -9 4 -13q0 -12 -18 -12h-72q-16 0 -25 12q-18 29 -94 150q-6 6 -12 0q-94 -94 -184.5 -136t-196.5 -42q-147 0 -230 70.5t-83 203.5zM217 276q0 -92 57.5 -144t161.5 -52 q88 0 163 38t159 122q6 6 2 12q-14 23 -28.5 46.5t-26.5 47.5q-4 8 -52 84l-151 246q-2 6 -10 0q-133 -100 -204 -189.5t-71 -210.5zM414 1110q0 -45 23.5 -104.5t90.5 -174.5q6 -6 13 0q127 94 192.5 173t65.5 180q0 76 -46 121t-122 45q-92 0 -154.5 -65.5t-62.5 -174.5z " />
<glyph unicode="'" horiz-adv-x="227" d="M158 1040l32 369q4 20 23 21h72q18 0 18 -21l-59 -369q-2 -20 -23 -20h-47q-18 0 -16 20z" />
<glyph unicode="(" horiz-adv-x="432" d="M14 381q0 152 17 281q31 256 113.5 494.5t185.5 393.5q8 14 24 15h62q10 0 14 -7.5t-2 -17.5q-94 -158 -170 -392.5t-104 -481.5q-18 -154 -19 -297q0 -166 21.5 -312.5t58.5 -251.5l2 -6q0 -18 -20 -18h-66q-14 0 -20 14q-47 106 -72 259t-25 327z" />
<glyph unicode=")" horiz-adv-x="432" d="M89 -212q-3 7 1 17q92 154 168 384.5t107 476.5q18 154 18 303q0 166 -20.5 315.5t-57.5 255.5l-2 8q0 16 19 17h61q14 0 23 -15q47 -111 72.5 -266.5t25.5 -333.5q0 -141 -19 -288q-31 -250 -111.5 -482.5t-180.5 -384.5q-9 -14 -25 -14h-66q-10 0 -13 7z" />
<glyph unicode="*" horiz-adv-x="753" d="M145 1004q0 16 15 22l237 135q2 2 3 6t-1 7l-204 135q-8 4 -9.5 12t4.5 16l19 29q14 18 29 8l204 -135q4 -2 7.5 0t3.5 6l32 264q4 20 23 21h33q10 0 15 -6t3 -15l-33 -264q0 -10 9 -6l237 135q8 4 12 4q10 0 15 -12l12 -29q2 -2 2 -8q0 -14 -12 -20l-240 -135 q-2 -2 -3 -6.5t1 -6.5l207 -135q6 -4 8 -12t-4 -17l-18 -28q-14 -18 -31 -8l-203 135q-4 2 -7 0t-3 -6l-33 -265q-4 -20 -22 -20h-35q-8 0 -13.5 6t-3.5 14l33 265q0 4 -3 6t-7 0l-236 -135q-8 -4 -12 -5q-8 0 -16 13l-13 28z" />
<glyph unicode="+" d="M113 627l6 51q4 20 22 20h322q6 0 10 9l41 335q0 8 6 14.5t17 6.5h49q20 0 16 -21l-41 -335q0 -8 8 -9h322q20 0 16 -20l-6 -51q-4 -20 -22 -21h-322q-8 0 -8 -8l-41 -328q-4 -20 -23 -20h-49q-18 0 -18 20l41 328q0 8 -6 8h-322q-10 0 -15 6t-3 15z" />
<glyph unicode="," horiz-adv-x="430" d="M57 -129l131 426q6 18 25 18h57q10 0 14.5 -6t0.5 -16l-148 -426q-8 -18 -24 -19h-39q-11 0 -16 6.5t-1 16.5z" />
<glyph unicode="-" horiz-adv-x="696" d="M111 616l8 56q0 8 6 14t16 6h504q18 0 19 -20l-9 -56q-4 -20 -22 -20h-504q-18 0 -18 20z" />
<glyph unicode="." horiz-adv-x="464" d="M102 100q0 49 36 86t79 37q37 0 62.5 -27.5t25.5 -66.5q0 -49 -34.5 -85t-80.5 -36q-38 0 -63 26.5t-25 65.5z" />
<glyph unicode="/" horiz-adv-x="608" d="M24.5 6q-4.5 6 0.5 17l553 1394q6 16 24 17h64q10 0 14 -6.5t0 -16.5l-553 -1395q-6 -16 -25 -16h-63q-10 0 -14.5 6z" />
<glyph unicode="0" horiz-adv-x="960" d="M115 299q0 18 4 59l88 717q23 170 134.5 273.5t274.5 103.5q150 0 238 -85t88 -230q0 -20 -4 -62l-88 -717q-20 -172 -134 -275t-280 -103q-149 0 -235 86t-86 233zM221 305q0 -104 60.5 -165.5t167.5 -61.5q118 0 199 74.5t95 197.5l91 733q2 16 2 45q0 104 -61.5 166 t-168.5 62q-117 0 -197.5 -75t-95.5 -198l-90 -733q-2 -16 -2 -45z" />
<glyph unicode="1" horiz-adv-x="581" d="M195 1231l6 47q2 14 16 25l221 124q11 7 27 7h72q8 0 13 -6.5t3 -14.5l-172 -1393q0 -8 -6 -14t-15 -6h-65q-10 0 -15.5 6t-3.5 14l158 1287q2 4 -1 6t-7 0l-209 -96q-4 -2 -10 -3q-6 0 -10 4.5t-2 12.5z" />
<glyph unicode="2" horiz-adv-x="915" d="M68 20l8 60q0 10 10 26q242 301 473 596q188 242 207 396q2 14 2 43q0 98 -55.5 155.5t-149.5 57.5q-102 0 -174 -71t-84 -185l-8 -70q-4 -20 -23 -20h-67q-20 0 -17 20l9 78q23 156 127 250t252 94q139 0 220 -82t81 -217q0 -195 -226 -489q-205 -268 -438 -556 q-2 -4 0 -7t6 -3h555q18 0 19 -20l-9 -56q0 -8 -6 -14t-16 -6h-678q-18 0 -18 20z" />
<glyph unicode="3" horiz-adv-x="911" d="M98 315q0 47 6 91q0 8 6.5 14t14.5 6h65q20 0 19 -20q-4 -53 -4 -80q0 -33 2 -45q6 -94 59 -147.5t144 -53.5q82 0 143 45t96 129q29 68 43 182q8 51 8 109q0 55 -10 106q-35 156 -192 156q-33 0 -52 -8q-4 -2 -12 -2q-10 0 -16 8l-27 35q-4 8 -4 14t6 14l375 459 q4 2 2 6t-6 4h-518q-18 0 -19 21l9 55q4 20 22 21h637q18 0 18 -21l-8 -61q-4 -18 -12 -27l-350 -434q-4 -4 -2 -7t6 -3q98 -2 159.5 -54.5t84.5 -146.5q12 -55 12 -127q0 -57 -6 -123q-16 -123 -52 -207q-49 -117 -137 -178t-211 -61q-127 0 -204.5 70.5t-90.5 195.5 q-4 41 -4 65z" />
<glyph unicode="4" horiz-adv-x="911" d="M90 422l6 51q0 10 6 25l476 919q8 16 24 17h70q10 0 15 -7.5t-1 -17.5l-465 -899q-2 -4 0 -7t4 -3h408q6 0 10 8l41 344q4 20 23 20h65q18 0 19 -20l-43 -344q0 -4 2 -6t4 -2h71q11 0 16 -6.5t3 -14.5l-8 -57q0 -8 -6.5 -14.5t-14.5 -6.5h-72q-4 0 -7 -2t-3 -6l-45 -373 q-4 -20 -22 -20h-66q-18 0 -18 20l47 373q0 8 -8 8h-515q-20 0 -16 21z" />
<glyph unicode="5" horiz-adv-x="901" d="M129 330q2 8 8 14t15 6h65q20 0 21 -20v-15q0 -23 2 -32q6 -96 57 -149.5t139 -53.5t153.5 54t94.5 151q18 47 33 151q10 84 6 170q-8 90 -60.5 136t-138.5 46t-150.5 -40.5t-97.5 -116.5q-6 -18 -24 -19h-68q-20 0 -16 21l94 780q4 20 23 21h592q10 0 15 -6.5t3 -14.5 l-6 -55q-2 -8 -8.5 -14.5t-14.5 -6.5h-499q-8 0 -9 -8l-69 -547q0 -10 8 -2q47 51 113.5 79t142.5 28q111 0 180.5 -55.5t85.5 -163.5q10 -49 10 -121q0 -55 -6 -111q-18 -121 -51 -200q-47 -121 -137 -186.5t-209 -65.5q-129 0 -206 72.5t-87 201.5q-4 49 -4 72z" />
<glyph unicode="6" horiz-adv-x="905" d="M137 332q0 53 6 102l80 662q20 162 126 258t255 96q129 0 205 -79t76 -212q0 -18 -4 -55l-2 -23q-2 -8 -8.5 -14t-14.5 -6h-65q-10 0 -15.5 6t-3.5 14l2 19q2 14 2 43q0 96 -50 152.5t-134 56.5q-102 0 -175 -71t-87 -189l-41 -332q-2 -6 1 -7t7 3q90 131 254 131 q115 0 182.5 -61.5t87.5 -174.5q10 -47 10 -106q0 -49 -6 -109q-16 -123 -45 -188q-49 -129 -137 -196.5t-213 -67.5q-123 0 -196.5 66.5t-90.5 189.5q-6 43 -6 92zM240 326q0 -113 50 -179.5t148 -66.5q86 0 152.5 53t97.5 156q19 53 31 149q8 55 8 109q0 27 -4 63 q-10 86 -60.5 135.5t-136.5 49.5t-148.5 -50.5t-92.5 -140.5q-25 -70 -37 -168q-8 -57 -8 -110z" />
<glyph unicode="7" horiz-adv-x="817" d="M178 1241l21 172q4 20 22 21h670q18 0 18 -21l-8 -63q-4 -16 -8 -25l-561 -1309q-10 -16 -27 -16h-72q-10 0 -13 6t1 17l563 1304q2 4 0 7t-6 3h-489q-8 0 -8 -8l-11 -88q-4 -20 -22 -20h-53q-8 0 -13.5 6t-3.5 14z" />
<glyph unicode="8" horiz-adv-x="925" d="M123 315q0 39 6 82q14 123 66 215q55 100 149 148q10 6 0 12q-68 41 -100 109q-35 66 -35 153q0 143 80 258q51 76 132 118t179 42q100 0 170 -42t104 -120q27 -63 27 -143q0 -154 -84 -264q-51 -70 -129 -111q-8 -6 0 -12q78 -41 109 -142q18 -57 18 -133q0 -43 -6 -90 q-14 -125 -68 -221q-53 -92 -136 -141t-187 -49t-175 51t-100 145q-20 59 -20 135zM229 332q0 -59 17 -115q20 -66 67 -101.5t117 -35.5q72 0 128 36t91 103q46 82 56 184q4 27 4 78q0 61 -11 97q-16 70 -65 106.5t-125 36.5q-150 0 -223 -146q-39 -74 -52 -174 q-4 -49 -4 -69zM313 1032q0 -59 25 -114q22 -54 69.5 -81.5t110.5 -27.5q70 0 124 30.5t91 86.5q61 88 62 209q0 57 -21 104q-25 55 -72 87t-116 32q-70 0 -124 -32t-91 -89q-57 -96 -58 -205z" />
<glyph unicode="9" horiz-adv-x="913" d="M125 274q0 18 4 56l4 22q4 20 23 21h65q20 0 17 -19l-2 -20q-2 -14 -3 -43q0 -94 51.5 -151.5t135.5 -57.5q100 0 174 70.5t88 189.5l41 332q0 6 -3 7t-7 -3q-90 -131 -252 -131q-229 0 -273 235q-10 47 -10 101q0 57 8 114q12 121 45 189q47 127 135.5 195.5t213.5 68.5 q123 0 197.5 -66.5t90.5 -189.5q6 -39 6 -86q0 -55 -6 -109l-82 -661q-20 -162 -124.5 -258t-253.5 -96q-129 0 -206 78.5t-77 211.5zM283 887q0 -35 6 -64q8 -86 58 -135t136 -49t149.5 51t92.5 139q25 59 37 168q8 66 8 125q0 106 -51 169t-148 63q-84 0 -150.5 -53.5 t-98.5 -155.5q-18 -53 -31 -150q-8 -82 -8 -108z" />
<glyph unicode=":" horiz-adv-x="522" d="M135 115q0 49 36 86t81 37q37 0 62.5 -27t25.5 -66q0 -51 -35 -86.5t-80 -35.5q-39 0 -64.5 26.5t-25.5 65.5zM221 809q0 49 36 86t81 37q35 0 61.5 -27.5t26.5 -66.5q0 -49 -35 -85t-80 -36q-39 0 -64.5 25.5t-25.5 66.5z" />
<glyph unicode=";" horiz-adv-x="489" d="M96 -121l103 408q6 18 22 18h60q8 0 13 -6t1 -16l-117 -408q-6 -18 -24 -18h-41q-9 0 -14 7t-3 15zM209 823q0 49 36 84t79 35q37 0 62.5 -26.5t25.5 -65.5q0 -49 -35 -86t-80 -37q-39 0 -63.5 27.5t-24.5 68.5z" />
<glyph unicode="&#x3c;" d="M100 520l9 68q0 14 16 24l797 375l10 4q6 0 10 -5t2 -13l-8 -66q-4 -16 -16 -24l-703 -322q-10 -6 0 -12l621 -322q12 -8 12 -24l-8 -68q-2 -10 -10.5 -15t-16.5 1l-704 375q-14 8 -11 24z" />
<glyph unicode="=" d="M113 428l6 51q4 20 22 20h750q8 0 13 -6t3 -14l-6 -51q-4 -20 -22 -21h-750q-8 0 -13 6t-3 15zM113 863l6 51q4 20 22 20h750q8 0 13 -6t3 -14l-6 -51q-4 -20 -22 -21h-750q-8 0 -13 6t-3 15z" />
<glyph unicode="&#x3e;" d="M53 135l8 68q0 14 17 24l700 322q10 6 2 12l-622 322q-12 10 -11 24l9 66q2 10 9 15t15 -1l705 -375q12 -8 12 -24l-8 -68q-4 -16 -19 -24l-796 -375l-11 -4q-6 0 -9 5t-1 13z" />
<glyph unicode="?" horiz-adv-x="790" d="M162 1036l8 66q18 156 119.5 253t247.5 97q129 0 202.5 -78t73.5 -211q0 -20 -4 -61q-12 -90 -45 -154.5t-73 -107.5t-101 -95q-70 -57 -103.5 -98t-40.5 -100l-16 -127q0 -8 -6 -14.5t-14 -6.5h-70q-10 0 -15.5 6.5t-2.5 14.5l16 133q10 84 53 139.5t123 120.5 q59 49 93 84t61.5 87t36.5 120q2 14 2 45q0 92 -49.5 147.5t-135.5 55.5q-96 0 -164.5 -69t-83.5 -181l-8 -70q-4 -20 -22 -20l-66 4q-20 0 -16 20zM248 98q0 47 33.5 82t76.5 35q35 0 60.5 -25.5t25.5 -64.5q0 -47 -34.5 -83t-79.5 -36q-37 0 -59.5 26.5t-22.5 65.5z" />
<glyph unicode="@" horiz-adv-x="1581" d="M131 330q0 86 19 180q45 223 173 389t304 254t358 88q160 0 276.5 -60.5t180 -172t63.5 -258.5q0 -96 -26 -197q-47 -186 -149.5 -291.5t-233.5 -105.5q-68 0 -115 28.5t-66 81.5q-4 10 -10 0q-37 -55 -93 -82.5t-122 -27.5q-86 0 -135 46t-49 126q0 41 22 135l15 65 q29 117 49 166q33 94 103.5 149.5t162.5 55.5q49 0 86 -19.5t57 -56.5q2 -4 5.5 -3t5.5 5l10 45q6 18 22 19h43q8 0 13.5 -7.5t3.5 -15.5l-109 -434q-8 -31 -8 -63q0 -61 35 -98.5t96 -37.5q90 0 164 83t113 233q25 98 24 184q0 199 -122.5 314.5t-329.5 115.5 q-160 0 -314.5 -78.5t-268.5 -229t-153 -353.5q-16 -76 -16 -160q0 -205 117 -326.5t319 -121.5q98 0 191.5 25.5t148.5 64.5q6 6 15 6q6 0 12 -10l16 -29q4 -4 4 -12q0 -12 -10 -17q-70 -49 -178.5 -78.5t-220.5 -29.5q-231 0 -364.5 140t-133.5 376zM590 348 q0 -53 32.5 -86t90.5 -33q61 0 110 41t74 107q18 57 41 149q29 121 33 154q2 10 2 33q0 51 -31 81.5t-84 30.5q-63 0 -114.5 -40t-75.5 -105q-18 -47 -43 -154q-27 -113 -33 -149q-2 -10 -2 -29z" />
<glyph unicode="A" horiz-adv-x="1026" d="M39 23l545 1394q2 8 8 12.5t14 4.5h84q20 0 21 -17l202 -1394v-5q0 -8 -6 -13t-14 -5h-66q-8 0 -14 5t-6 13l-39 271q0 6 -8 6h-502q-8 0 -10 -6l-103 -271q-8 -18 -24 -18h-68q-25 0 -14 23zM289 388q2 -3 6 -3h450q2 0 6.5 3t2.5 5l-121 877q-2 4 -4 4t-4 -4l-336 -877 q-2 -2 0 -5z" />
<glyph unicode="B" horiz-adv-x="1064" d="M143 20l172 1393q0 8 6.5 14.5t16.5 6.5h362q158 0 246 -80t88 -228q0 -18 -4 -63q-14 -117 -71.5 -196t-155.5 -119q-8 -7 -2 -13q78 -37 120 -109.5t42 -174.5q0 -18 -5 -64q-20 -182 -134.5 -284.5t-284.5 -102.5h-377q-10 0 -15.5 6t-3.5 14zM260 101q2 -3 6 -3h281 q125 0 208 80t101 217q4 37 4 54q0 115 -65.5 180t-178.5 65h-276q-6 0 -10 -8l-70 -580q-2 -2 0 -5zM344 793q0 -8 6 -9h273q139 0 223 88.5t84 235.5q0 109 -63.5 169t-176.5 60h-272q-8 0 -8 -8z" />
<glyph unicode="C" horiz-adv-x="1040" d="M141 313q0 20 4 62l84 686q20 176 140 282.5t297 106.5q160 0 252 -88t92 -238q0 -20 -4 -61l-2 -19q0 -8 -6.5 -15t-16.5 -7l-66 -4q-20 0 -16 20l2 29q4 33 4 47q0 109 -68.5 174.5t-183.5 65.5q-127 0 -214 -79t-103 -208l-86 -698q-2 -14 -2 -45q0 -111 66.5 -177.5 t181.5 -66.5q129 0 217 79t102 210l4 24q4 20 23 21l65 -4q8 0 13.5 -5.5t3.5 -13.5l-2 -18q-20 -176 -140 -282.5t-297 -106.5q-159 0 -251.5 89t-92.5 240z" />
<glyph unicode="D" horiz-adv-x="1073" d="M143 20l172 1393q0 8 6.5 14.5t16.5 6.5h375q152 0 236.5 -83t84.5 -231q0 -43 -4 -67l-82 -672q-20 -176 -130.5 -278.5t-280.5 -102.5h-375q-10 0 -15.5 6t-3.5 14zM260 99q2 -3 6 -3h285q117 0 196.5 79t94.5 212l82 657q4 41 4 56q0 113 -59.5 175t-166.5 62h-284 q-8 0 -8 -8l-150 -1225q-2 -2 0 -5z" />
<glyph unicode="E" horiz-adv-x="1030" d="M143 20l172 1393q0 8 6.5 14.5t16.5 6.5h702q20 0 17 -21l-6 -55q-5 -21 -23 -21h-610q-8 0 -8 -8l-68 -555q-2 -2 0 -5t6 -3h418q20 0 16 -21l-6 -55q-4 -20 -22 -20h-418q-8 0 -8 -8l-68 -558q-2 -2 0 -5t6 -3h611q20 0 16 -20l-6 -56q-4 -20 -23 -20h-702 q-10 0 -15.5 6t-3.5 14z" />
<glyph unicode="F" horiz-adv-x="962" d="M143 20l172 1393q0 8 6.5 14.5t16.5 6.5h700q20 0 17 -21l-6 -55q-5 -21 -23 -21h-608q-8 0 -8 -8l-68 -555q-2 -2 0 -5t6 -3h416q20 0 16 -21l-6 -55q-4 -20 -22 -20h-416q-8 0 -8 -8l-78 -642q-2 -8 -8 -14t-15 -6h-65q-10 0 -15.5 6t-3.5 14z" />
<glyph unicode="G" horiz-adv-x="1038" d="M141 309q0 18 4 60l84 696q20 174 140 279.5t297 105.5q158 0 251 -88t93 -234q0 -16 -4 -57l-9 -59q0 -8 -6 -14.5t-14 -6.5h-66q-10 0 -15 6.5t-3 14.5l8 59q2 14 2 43q0 109 -67.5 174.5t-182.5 65.5q-127 0 -214 -79t-103 -206l-86 -704q-2 -14 -2 -43 q0 -111 66.5 -176.5t183.5 -65.5q127 0 213 75.5t102 202.5l31 250q0 8 -8 8h-248q-20 0 -17 21l7 53q4 20 22 21h342q20 0 16 -21l-38 -317q-20 -178 -140.5 -283.5t-294.5 -105.5q-159 0 -251.5 88t-92.5 237z" />
<glyph unicode="H" horiz-adv-x="1122" d="M143 20l172 1393q0 8 6.5 14.5t16.5 6.5h65q8 0 13.5 -6.5t3.5 -14.5l-78 -639q-2 -2 0 -5t6 -3h537q8 0 8 8l80 639q0 8 6 14.5t16 6.5h66q8 0 13 -6.5t3 -14.5l-170 -1393q-2 -8 -8 -14t-14 -6h-66q-10 0 -15 6t-3 14l80 642q0 8 -9 8h-536q-8 0 -8 -8l-78 -642 q-2 -8 -8 -14t-15 -6h-65q-10 0 -15.5 6t-3.5 14z" />
<glyph unicode="I" horiz-adv-x="464" d="M143 20l172 1393q0 8 6.5 14.5t16.5 6.5h65q8 0 13.5 -6.5t3.5 -14.5l-170 -1393q-2 -8 -8 -14t-15 -6h-65q-10 0 -15.5 6t-3.5 14z" />
<glyph unicode="J" horiz-adv-x="989" d="M55 303q0 16 4 57l19 142q4 20 22 20h66q20 0 16 -20l-16 -144q-2 -14 -2 -43q0 -109 63.5 -172t173.5 -63q123 0 207 76.5t101 201.5l131 1055q0 8 6 14.5t16 6.5h64q8 0 13 -6.5t3 -14.5l-129 -1053q-23 -170 -138.5 -273t-285.5 -103q-153 0 -243.5 86t-90.5 233z" />
<glyph unicode="K" horiz-adv-x="1040" d="M143 20l172 1393q0 8 6.5 14.5t16.5 6.5h65q8 0 13.5 -6.5t3.5 -14.5l-88 -713q0 -4 4 -6t6 2l629 725q10 12 28 13h74q12 0 15.5 -7.5t-5.5 -17.5l-473 -553q-6 -6 -2 -12l342 -819q2 -4 2 -11q0 -14 -18 -14h-76q-12 0 -22 14l-312 742q-4 10 -10 0l-199 -219 q-4 -8 -4 -11l-61 -506q-2 -8 -8 -14t-15 -6h-65q-10 0 -15.5 6t-3.5 14z" />
<glyph unicode="L" horiz-adv-x="950" d="M143 20l172 1393q0 8 6.5 14.5t16.5 6.5h65q8 0 13.5 -6.5t3.5 -14.5l-160 -1309q-2 -2 0 -5t6 -3h588q18 0 18 -20l-8 -56q-4 -20 -22 -20h-680q-10 0 -15.5 6t-3.5 14z" />
<glyph unicode="M" horiz-adv-x="1218" d="M141 20l172 1393q0 8 6.5 14.5t16.5 6.5h67q20 0 23 -15l233 -631q0 -4 5.5 -4t7.5 4l389 631q6 14 24 15h68q18 0 18 -21l-172 -1393q-4 -20 -22 -20h-66q-20 0 -16 20l141 1164q2 6 -1 6t-7 -4l-340 -551q-8 -14 -26 -14h-29q-20 0 -23 14l-211 553q-2 4 -5 4t-5 -6 l-141 -1166q-2 -8 -8.5 -14t-14.5 -6h-65q-10 0 -15.5 6t-3.5 14z" />
<glyph unicode="N" horiz-adv-x="1159" d="M143 20l172 1393q0 8 6.5 14.5t16.5 6.5h65q18 0 21 -15l432 -1163q2 -4 5 -4t5 6l142 1155q4 20 22 21h64q18 0 18 -21l-172 -1393q-4 -20 -22 -20h-68q-16 0 -23 14l-428 1164q-4 4 -7 3t-3 -7l-141 -1154q-2 -8 -8.5 -14t-14.5 -6h-63q-10 0 -15.5 6t-3.5 14z" />
<glyph unicode="O" horiz-adv-x="1067" d="M143 324q0 20 4 65l80 655q23 182 145 294t298 112q160 0 255 -93t95 -249q0 -18 -4 -64l-80 -655q-23 -182 -146.5 -293.5t-300.5 -111.5q-159 0 -252.5 92t-93.5 248zM248 334q0 -115 68.5 -184.5t183.5 -69.5q131 0 222 84t107 219l82 664q4 33 4 49 q0 119 -69.5 188.5t-188.5 69.5q-129 0 -218 -84t-105 -223l-82 -664q-4 -33 -4 -49z" />
<glyph unicode="P" horiz-adv-x="1019" d="M135 20l172 1397q4 20 23 21h409q138 0 217.5 -88t79.5 -236q0 -23 -4 -67q-20 -174 -127.5 -278.5t-261.5 -104.5h-315q-8 0 -9 -9l-77 -635q-4 -20 -23 -20h-65q-10 0 -15.5 6t-3.5 14zM332 762q0 -4 2 -6t4 -2h307q111 0 189.5 79.5t95.5 210.5q2 18 2 52 q0 113 -57.5 178t-157.5 65h-305q-4 0 -7.5 -2t-3.5 -6z" />
<glyph unicode="Q" horiz-adv-x="1003" d="M127 317q0 18 4 64l82 670q23 178 140.5 288.5t287.5 110.5q154 0 244 -91t90 -243q0 -20 -4 -65l-82 -670q-20 -162 -119.5 -268.5t-249.5 -126.5q-8 0 -8 -9l-25 -202q-4 -20 -22 -21h-66q-18 0 -18 21l27 205q0 8 -9 8q-127 18 -199.5 105t-72.5 224zM231 326 q0 -111 65.5 -178.5t176.5 -67.5q121 0 208 83t101 214l84 680q4 33 4 49q0 113 -65.5 180.5t-175.5 67.5q-123 0 -208 -82t-102 -215l-83 -680q-4 -33 -5 -51z" />
<glyph unicode="R" horiz-adv-x="1040" d="M143 20l172 1397q4 20 23 21h403q137 0 217 -86t80 -232q0 -23 -4 -67q-16 -143 -97 -241.5t-202 -125.5q-8 -4 -4 -10l187 -651v-7q0 -8 -6.5 -13t-14.5 -5h-68q-16 0 -18 16l-182 654q-2 6 -8 6h-283q-6 0 -10 -8l-78 -648q-2 -8 -8 -14t-15 -6h-65q-10 0 -15.5 6 t-3.5 14zM342 769q2 -3 6 -3h301q80 0 144.5 43t101.5 119t37 174q0 111 -56.5 174t-156.5 63h-301q-2 0 -5 -2t-3 -6l-68 -557q-2 -2 0 -5z" />
<glyph unicode="S" horiz-adv-x="997" d="M117 295q0 16 4 53l6 58q4 20 23 20h61q18 0 18 -20l-6 -52q-2 -14 -2 -41q0 -106 69.5 -169.5t192.5 -63.5q139 0 224.5 83t85.5 218q0 92 -61.5 155.5t-213.5 151.5q-109 66 -167 111t-95 106.5t-37 147.5q0 16 4 53q20 162 129 253t279 91q164 0 256 -85t92 -230 q0 -18 -4 -56l-6 -49q-4 -20 -23 -20h-63q-20 0 -17 20l4 45q2 14 2 45q0 109 -67.5 171.5t-190.5 62.5q-119 0 -196.5 -64.5t-91.5 -183.5q-2 -14 -2 -39q0 -61 27.5 -106.5t79.5 -83t155 -99.5q115 -72 179 -122t100 -111.5t36 -143.5q0 -14 -4 -51q-20 -166 -137 -266 t-293 -100q-162 0 -256 85t-94 226z" />
<glyph unicode="T" horiz-adv-x="968" d="M211 1358l6 55q4 20 23 21h761q11 0 16 -6.5t3 -14.5l-6 -55q-4 -20 -23 -21h-329q-6 0 -11 -8l-159 -1309q-4 -20 -23 -20h-66q-18 0 -18 20l162 1309q0 4 -2 6t-4 2h-314q-20 0 -16 21z" />
<glyph unicode="U" horiz-adv-x="1120" d="M172 336q0 23 4 67l125 1010q4 20 23 21h65q20 0 17 -21l-125 -1018q-4 -37 -5 -51q0 -121 69 -192.5t185 -71.5q129 0 219.5 87t106.5 228l127 1018q0 8 6 14.5t15 6.5h65q10 0 15.5 -6.5t2.5 -14.5l-124 -1010q-23 -188 -145 -303.5t-300 -115.5q-160 0 -253 95 t-93 257z" />
<glyph unicode="V" horiz-adv-x="999" d="M209 1411v4q0 18 20 19h70q16 0 20 -19l160 -1227q2 -4 4 -4t4 4l465 1227q8 18 25 19h65q25 0 15 -23l-537 -1393q-2 -8 -9 -13t-15 -5h-72q-8 0 -14.5 5t-6.5 13z" />
<glyph unicode="W" horiz-adv-x="1470" d="M193 1411v4q0 18 18 19h70q8 0 14 -5.5t6 -13.5l121 -1177q2 -6 5 -6.5t5 6.5l383 1177q6 18 25 19h65q18 0 21 -19l102 -1177q2 -6 4 -6.5t4 6.5l406 1177q2 8 8 13.5t14 5.5h68q10 0 14 -6.5t0 -16.5l-487 -1393q-2 -8 -9.5 -13t-15.5 -5h-67q-18 0 -19 18l-98 1188 q-2 6 -4 6t-4 -6l-389 -1188q-2 -18 -23 -18h-65q-9 0 -15 5t-6 13z" />
<glyph unicode="X" horiz-adv-x="993" d="M42 7q-3 7 3 18l440 686q4 6 0 12l-270 686l-2 8q0 16 18 17h74q16 0 23 -15l225 -600q2 -4 6 -4t6 4l373 600q6 14 25 15h71q10 0 13.5 -7.5t-3.5 -17.5l-440 -688q-2 -6 0 -12l270 -684l3 -9q0 -16 -19 -16h-72q-16 0 -22 14l-223 598q-2 4 -6.5 4t-6.5 -4l-372 -598 q-8 -14 -27 -14h-74q-10 0 -13 7z" />
<glyph unicode="Y" horiz-adv-x="960" d="M213 1417q0 16 18 17h70q18 0 21 -15l208 -637q2 -4 6.5 -4t6.5 4l362 637q8 14 25 15h69q10 0 13.5 -7.5t-2.5 -17.5l-435 -745q-2 -2 -2 -11l-77 -633q-4 -20 -23 -20h-65q-19 0 -19 20l78 633q0 2 1 5.5t-1 5.5l-252 745z" />
<glyph unicode="Z" horiz-adv-x="931" d="M47 20l6 64q4 16 10 27l773 1216q6 10 -2 10h-607q-20 0 -16 21l6 55q4 20 23 21h708q18 0 19 -21l-9 -63q-4 -16 -10 -27l-770 -1217q-2 -4 -2 -7t4 -3h604q18 0 19 -20l-8 -56q0 -8 -6.5 -14t-16.5 -6h-709q-20 0 -16 20z" />
<glyph unicode="[" horiz-adv-x="657" d="M-8 -213l217 1765q4 20 22 21h320q20 0 16 -21l-6 -57q-4 -20 -22 -20h-228q-8 0 -8 -9l-197 -1595q0 -8 9 -8h225q10 0 15 -6.5t3 -14.5l-6 -55q-2 -8 -8 -14t-14 -6h-322q-8 0 -13 6t-3 14z" />
<glyph unicode="\" horiz-adv-x="608" d="M195 1411v4q0 8 6 13.5t14 5.5h64q16 0 20 -17l211 -1394v-5q0 -8 -6 -13t-15 -5h-63q-16 0 -20 16z" />
<glyph unicode="]" horiz-adv-x="657" d="M174 -213l8 55q0 8 6.5 14.5t14.5 6.5h227q8 0 8 8l197 1595q0 8 -6 9h-228q-20 0 -16 20l6 57q4 20 23 21h319q18 0 19 -21l-217 -1765q-5 -20 -23 -20h-319q-10 0 -15.5 6t-3.5 14z" />
<glyph unicode="^" horiz-adv-x="827" d="M124 642q-3 7 1 17l369 758q8 16 24 17h64q14 0 20 -17l184 -758v-4q0 -8 -5 -14t-13 -6h-53q-18 0 -21 16l-153 660q-2 6 -6.5 6t-6.5 -6l-313 -660q-8 -16 -27 -16h-51q-10 0 -13 7z" />
<glyph unicode="_" horiz-adv-x="831" d="M18 20l7 50q4 20 22 20h684q8 0 13.5 -6t3.5 -14l-7 -50q-4 -20 -22 -20h-684q-8 0 -13.5 6t-3.5 14z" />
<glyph unicode="`" horiz-adv-x="360" d="M205 1434q0 14 18 14h64q14 0 22 -14l92 -226q2 -4 2 -10q0 -14 -18 -14h-49q-12 0 -23 14l-106 225q-2 4 -2 11z" />
<glyph unicode="a" horiz-adv-x="948" d="M127 295q0 76 18 219q18 166 39 242q35 137 127 215t221 78q162 0 220 -134q4 -4 7 -3t3 8l12 92q5 20 23 20h65q20 0 17 -20l-121 -992q-4 -20 -23 -20h-65q-18 0 -19 20l13 95q2 6 -1.5 6t-7.5 -4q-45 -63 -110.5 -98t-147.5 -35q-127 0 -198.5 84t-71.5 227zM233 285 q2 -92 54.5 -148.5t144.5 -56.5q90 0 153.5 56.5t86.5 148.5q21 77 41 231q16 135 16 189l-2 45q0 90 -49 146t-135 56q-90 0 -158 -55t-92 -145q-23 -76 -43 -236q-17 -139 -17 -222v-9z" />
<glyph unicode="b" horiz-adv-x="948" d="M117 20l170 1393q4 20 22 21h66q20 0 16 -21l-59 -493q-2 -6 1 -7.5t7 2.5q92 133 254 134q127 0 199.5 -78t76.5 -215q0 -66 -20 -242q-18 -156 -41 -242q-39 -135 -129 -211.5t-213 -76.5q-82 0 -138.5 34.5t-84.5 98.5q-4 4 -7.5 4t-3.5 -6l-12 -95q-4 -20 -22 -20 h-66q-20 0 -16 20zM266 285q0 -92 49.5 -148.5t139.5 -56.5q92 0 159.5 56.5t90.5 148.5q20 79 40 231q15 147 15 226v10q-4 90 -56.5 145t-144.5 55q-86 0 -148.5 -56t-86.5 -146q-27 -96 -41 -234q-17 -144 -17 -222v-9z" />
<glyph unicode="c" horiz-adv-x="903" d="M131 276v20q0 94 16 222q12 106 43 240q31 129 131.5 210t235.5 81t218 -76t85 -189l2 -36q0 -20 -20 -23l-66 -4q-18 0 -18 18v11v8q0 10 -2 16q-4 74 -61.5 126t-147.5 52q-96 0 -166 -60.5t-92 -156.5q-25 -113 -37 -219q-16 -147 -16 -223q0 -96 54 -154.5t148 -58.5 q96 0 168 56.5t90 135.5l2 13q6 20 25 18l65 -4q8 0 12.5 -5t2.5 -13v-9l-4 -16l-4 -8q-29 -115 -130.5 -189.5t-236.5 -74.5q-137 0 -217 80.5t-80 211.5z" />
<glyph unicode="d" horiz-adv-x="948" d="M127 295q0 76 18 219q18 166 39 242q35 137 127 215t221 78q162 0 220 -134q4 -4 7 -3t3 8l61 493q5 21 23 21h65q20 0 17 -21l-170 -1393q-4 -20 -23 -20h-65q-18 0 -19 20l13 95q2 6 -1.5 6t-7.5 -4q-45 -63 -110.5 -98t-147.5 -35q-127 0 -198.5 84t-71.5 227z M233 285q2 -92 54.5 -148.5t144.5 -56.5q90 0 153.5 56.5t86.5 148.5q21 77 41 231q16 135 16 189l-2 45q0 90 -49 146t-135 56q-90 0 -158 -55t-92 -145q-23 -76 -43 -236q-17 -139 -17 -222v-9z" />
<glyph unicode="e" horiz-adv-x="923" d="M131 266v17q0 89 19 235q16 152 36 236q31 131 131.5 213t235.5 82q143 0 223 -83t80 -221q0 -49 -16 -188q-4 -18 -9 -55q0 -8 -6 -14.5t-14 -6.5h-555q-8 0 -8 -8q-16 -115 -17 -180q0 -96 56.5 -154.5t154.5 -58.5q84 0 149.5 44t98.5 118q8 16 27 14l53 -10 q8 -2 11 -9.5t-1 -15.5q-43 -111 -136 -174t-216 -63q-135 0 -214 76.5t-83 205.5zM260 580q0 -8 6 -9h461q8 0 10 9q12 115 13 159q0 94 -55.5 153.5t-151.5 59.5q-97 0 -165.5 -59t-90.5 -156z" />
<glyph unicode="f" horiz-adv-x="616" d="M143 961l7 51q4 20 22 20h109q8 0 8 8l8 68q23 176 93.5 255t223.5 79h39q18 0 19 -21l-8 -55q0 -8 -6.5 -14t-16.5 -6h-35q-100 0 -144 -57.5t-61 -184.5l-8 -64q0 -8 8 -8h197q20 0 16 -20l-6 -51q-4 -20 -22 -21h-197q-8 0 -8 -8l-113 -912q-4 -20 -22 -20h-66 q-20 0 -16 20l110 912q2 2 0 5t-6 3h-106q-10 0 -15.5 6t-3.5 15z" />
<glyph unicode="g" horiz-adv-x="929" d="M125 279q0 88 20 237q18 164 41 244q31 129 124 209t220 80q80 0 137.5 -33t88.5 -92q2 -6 5 -5t5 7l10 86q5 20 23 20h65q20 0 17 -20l-121 -994q-53 -429 -473 -429q-17 0 -35 1q-18 0 -19 21l11 59q4 20 22 21h24q164 0 250 77q93 82 115 255l11 90q0 6 -3.5 7 t-5.5 -5q-45 -59 -110.5 -92t-143.5 -33q-125 0 -200.5 77.5t-77.5 211.5zM231 297q0 -94 56.5 -152.5t150.5 -58.5q92 0 160 60.5t86 154.5q13 63 31 215q16 129 22 219v13q0 85 -48 142q-52 62 -146 62q-92 0 -163 -61.5t-95 -155.5q-25 -139 -35 -217q-18 -154 -19 -221z " />
<glyph unicode="h" horiz-adv-x="950" d="M117 20l170 1393q4 20 22 21h66q20 0 16 -21l-59 -489q0 -12 8 -4q47 63 114.5 95t147.5 32q123 0 190.5 -73t67.5 -200q0 -20 -4 -61l-84 -693q-4 -20 -22 -20h-66q-10 0 -15 6t-3 14l84 676q2 16 2 45q0 96 -51.5 152.5t-139.5 56.5q-94 0 -161.5 -59.5t-90.5 -159.5 l-88 -711q-4 -20 -22 -20h-66q-20 0 -16 20z" />
<glyph unicode="i" horiz-adv-x="432" d="M127 20l123 992q4 20 22 20h66q20 0 16 -20l-121 -992q-4 -20 -22 -20h-66q-18 0 -18 20zM254 1317q0 43 28.5 71.5t69.5 28.5q35 0 54.5 -20.5t19.5 -53.5q0 -45 -26.5 -74.5t-67.5 -29.5q-35 0 -56.5 21.5t-21.5 56.5z" />
<glyph unicode="j" horiz-adv-x="411" d="M-141 -408l6 56q4 20 22 20q92 2 146.5 59.5t68.5 159.5l138 1125q4 20 22 20h66q20 0 16 -20l-137 -1125q-18 -156 -98 -234.5t-234 -80.5q-8 0 -13 6t-3 14zM244 1317q0 43 28.5 71.5t67.5 28.5q35 0 56.5 -20.5t21.5 -55.5q0 -45 -28 -73.5t-71 -28.5 q-34 0 -54.5 21.5t-20.5 56.5z" />
<glyph unicode="k" horiz-adv-x="880" d="M117 20l170 1393q4 20 22 21h66q20 0 16 -21l-106 -866q0 -4 4 -6t6 2l450 477q10 12 25 12h76q12 0 14 -7t-6 -17l-256 -279q-4 -8 -4 -10l184 -694l2 -9q0 -16 -18 -16h-72q-18 0 -20 16l-152 621q-2 4 -6 5t-6 -3l-236 -250l-6 -10l-43 -359q-4 -20 -22 -20h-66 q-20 0 -16 20z" />
<glyph unicode="l" horiz-adv-x="399" d="M111 20l170 1393q4 20 22 21h66q18 0 18 -21l-172 -1393q-4 -20 -22 -20h-66q-20 0 -16 20z" />
<glyph unicode="m" horiz-adv-x="1458" d="M117 20l121 992q4 20 22 20h64q20 0 16 -20l-10 -86q0 -6 4 -7t6 5q47 61 113.5 92t142.5 31q88 0 147.5 -44.5t81.5 -123.5q0 -4 3 -4.5t8 6.5q47 82 123.5 124t166.5 42q115 0 179.5 -72t64.5 -199q0 -23 -4 -67l-84 -689q-4 -20 -22 -20h-64q-18 0 -18 20l84 674 q2 16 2 47q0 98 -48.5 153.5t-134.5 55.5q-98 0 -165.5 -67.5t-81.5 -184.5l-84 -678q-4 -20 -23 -20h-63q-20 0 -17 20l82 674q2 16 2 47q0 98 -48 153.5t-132 55.5q-100 0 -167 -67.5t-81 -184.5l-84 -678q-4 -20 -22 -20h-64q-20 0 -16 20z" />
<glyph unicode="n" horiz-adv-x="950" d="M117 20l121 992q4 20 22 20h66q20 0 16 -20l-10 -88q0 -12 8 -4q47 63 114.5 95t147.5 32q123 0 190.5 -73t67.5 -200q0 -20 -4 -61l-84 -693q-4 -20 -22 -20h-66q-10 0 -15 6t-3 14l84 676q2 16 2 45q0 96 -51.5 152.5t-139.5 56.5q-94 0 -161.5 -59.5t-90.5 -159.5 l-88 -711q-4 -20 -22 -20h-66q-20 0 -16 20z" />
<glyph unicode="o" d="M129 276q0 109 18 240q14 133 41 240q33 131 133.5 212t237.5 81t218 -80t81 -211q0 -84 -18 -242q-18 -152 -41 -240q-33 -133 -133.5 -212.5t-235.5 -79.5q-139 0 -219 79.5t-82 212.5zM233 293q0 -96 56.5 -154.5t150.5 -58.5q95 0 166.5 59.5t93.5 157.5 q14 66 33 219q2 20 11.5 96t9.5 127q0 96 -56.5 154.5t-150.5 58.5t-166 -59t-94 -158q-14 -72 -33 -219q-2 -20 -11.5 -96t-9.5 -127z" />
<glyph unicode="p" horiz-adv-x="960" d="M80 -381l172 1393q0 8 6 14t16 6h66q8 0 13 -6t3 -14l-12 -94q0 -6 3 -6.5t7 3.5q45 63 110.5 98.5t147.5 35.5q129 0 200 -83t71 -227q-1 -74 -19 -221q-18 -166 -39 -242q-37 -137 -129 -214.5t-219 -77.5q-162 0 -221 133q-2 4 -5 3t-5 -7l-60 -494q-4 -20 -22 -20 h-66q-18 0 -18 20zM281 283q2 -90 51 -146.5t135 -56.5q90 0 157.5 55t92.5 146q27 96 41 235q12 90 15 140q2 29 2 57q0 18 -1 35q0 92 -53 148t-146 56q-90 0 -152.5 -56t-86.5 -148q-25 -100 -41 -232q-14 -137 -14 -215v-18z" />
<glyph unicode="q" horiz-adv-x="960" d="M125 276q0 66 20 242q18 156 41 242q37 135 127 212t215 77q82 0 138.5 -35t85.5 -99q4 -4 7 -4t3 7l12 94q5 20 23 20h65q20 0 17 -20l-170 -1393q-4 -20 -23 -20h-65q-18 0 -19 20l62 494q0 6 -2.5 7t-6.5 -3q-92 -133 -254 -133q-127 0 -199.5 77.5t-76.5 214.5z M236 281q4 -90 56 -145.5t142 -55.5q88 0 150.5 56.5t85.5 146.5q27 90 43 233q16 137 16 215v17q0 92 -49 148t-139 56q-92 0 -160 -56t-90 -148q-12 -43 -21.5 -100.5t-19.5 -131.5q-15 -112 -15 -198q0 -19 1 -37z" />
<glyph unicode="r" horiz-adv-x="638" d="M117 20l121 992q4 20 22 20h66q20 0 16 -20l-16 -138q0 -6 4 -6t6 6q43 78 106.5 122t141.5 44h5q58 0 95 -22q14 -6 6 -25l-26 -69q-10 -20 -27 -13q-29 14 -66 15l-22 -2q-94 -2 -166 -84t-86 -201l-76 -619q-4 -20 -22 -20h-66q-20 0 -16 20z" />
<glyph unicode="s" horiz-adv-x="835" d="M96 223q0 20 2 31l2 18q4 20 23 21h61q10 0 15.5 -5t3.5 -14l-2 -18q-2 -11 -2 -22q0 -60 48 -104q56 -52 154 -52q96 0 161 52t75 134q1 11 1 20q0 44 -22 75q-26 38 -69 60.5t-123 53.5q-123 45 -191.5 98.5t-68.5 157.5q0 141 98 226t252 85q131 0 207 -64.5 t76 -170.5q0 -25 -2 -37v-6q-4 -20 -23 -21h-59q-18 0 -19 15l2 14q2 12 2 24q0 62 -45 105q-53 51 -151 51q-102 0 -168 -56t-66 -144q0 -68 49.5 -103t155.5 -78q86 -33 140.5 -60.5t92 -76.5t37.5 -123q0 -143 -98 -231t-256 -88q-135 0 -214 65.5t-79 167.5z" />
<glyph unicode="t" horiz-adv-x="616" d="M145 965l7 47q4 20 22 20h102q8 0 9 8l28 232q4 20 23 20h63q20 0 17 -20l-29 -232q0 -8 8 -8h197q20 0 16 -20l-4 -47q-2 -9 -8 -15t-14 -6h-197q-4 0 -7 -2t-3 -6l-80 -653q-4 -37 -4 -54q-1 -73 35 -103q33 -28 103 -28h9h35q20 0 16 -20l-6 -55q-4 -20 -22 -23h-51 q-111 0 -168.5 41t-57.5 149q0 18 4 64l84 682q0 8 -8 8h-100q-18 0 -19 21z" />
<glyph unicode="u" horiz-adv-x="946" d="M133 246q0 18 4 59l86 707q4 20 23 20h65q18 0 19 -20l-84 -680q-4 -37 -4 -51q0 -94 50 -146.5t140 -52.5q102 0 174 69.5t86 188.5l82 672q5 20 23 20h65q20 0 17 -20l-121 -992q-4 -20 -23 -20h-65q-18 0 -19 20l13 89q0 6 -3.5 6t-7.5 -4q-88 -125 -256 -125 q-121 0 -192.5 67.5t-71.5 192.5z" />
<glyph unicode="v" horiz-adv-x="823" d="M145 1010v4q0 18 21 18h74q16 0 20 -16l127 -846q0 -4 4 -4t6 4l336 844q8 18 23 18l73 -2q10 0 15.5 -6t1.5 -16l-412 -992q-6 -16 -22 -16h-78q-17 0 -23 16z" />
<glyph unicode="w" horiz-adv-x="1234" d="M145 1010v4q0 18 19 18h65q8 0 14.5 -5t6.5 -13l88 -852q0 -6 3 -6t5 6l301 852q2 8 9.5 13t15.5 5h61q18 0 19 -18l94 -850q2 -6 4 -6t4 6l301 850q8 18 25 18l65 -2q10 0 13.5 -6t-1.5 -16l-366 -990q-6 -18 -25 -18h-67q-16 0 -21 18l-98 811q0 6 -2 6.5t-6 -6.5 l-293 -811q-2 -18 -23 -18h-67q-21 0 -21 18z" />
<glyph unicode="x" horiz-adv-x="815" d="M14 7q-4 7 4 18l351 485q2 4 2 12l-232 486l-2 8q0 16 19 16h71q16 0 23 -14l186 -404q2 -2 6 -2t7 2l284 404q10 14 25 14h76q12 0 15 -7t-3 -17l-350 -486q-4 -8 -2 -12l231 -485l2 -9q0 -16 -20 -16h-74q-12 0 -21 14l-186 404q0 4 -4 4t-6 -4l-287 -404 q-10 -14 -27 -14h-71q-13 0 -17 7z" />
<glyph unicode="y" horiz-adv-x="796" d="M4 -389l6 53q4 20 15 21h12q68 2 108.5 25.5t74.5 86t85 197.5q2 4 2 12l-176 1004v4q0 8 6 13t15 5h69q16 0 21 -16l133 -856q2 -4 6 -4t6 4l340 856q6 16 23 16h67q10 0 15.5 -6t1.5 -16l-465 -1114q-55 -133 -98.5 -197t-97.5 -86.5t-146 -22.5h-13q-4 0 -8 6.5 t-2 14.5z" />
<glyph unicode="z" horiz-adv-x="792" d="M37 20l8 66q0 6 10 27l611 809q4 4 2 7t-6 3h-488q-18 0 -18 20l8 60q4 20 22 20h602q20 0 17 -20l-8 -66q0 -6 -11 -26l-616 -809q-2 -2 0 -6.5t6 -4.5h496q18 0 18 -20l-8 -60q-4 -20 -23 -20h-606q-20 0 -16 20z" />
<glyph unicode="{" horiz-adv-x="534" d="M98 649l6 53q2 18 21 21q51 10 81 55t38 129l55 436q14 119 65.5 174.5t147.5 55.5h100q20 0 17 -21l-6 -57q-4 -20 -23 -20h-68q-59 0 -90.5 -38t-42.5 -120l-49 -412q-12 -92 -40.5 -145t-78.5 -78q-12 -4 -2 -10q70 -41 70 -154q0 -31 -6 -72l-51 -426q-4 -37 -4 -47 q0 -57 23.5 -83.5t72.5 -26.5h67q10 0 15.5 -6.5t3.5 -14.5l-6 -55q-2 -8 -8.5 -14t-14.5 -6h-100q-84 0 -123 38.5t-39 124.5q0 18 4 64l55 448q2 18 2 54q0 59 -18 90.5t-59 42.5q-16 2 -15 20z" />
<glyph unicode="|" horiz-adv-x="288" d="M35 -143l205 1679q4 20 22 20h66q18 0 18 -20l-207 -1679q-4 -20 -22 -21h-66q-20 1 -16 21z" />
<glyph unicode="}" horiz-adv-x="534" d="M-10 -213l6 55q4 20 22 21h68q59 0 91 38t42 119l51 426q12 90 42 144.5t79 81.5q10 6 0 10q-68 41 -67 154q0 20 4 69l51 412q2 16 2 45q0 57 -23.5 85t-72.5 28h-68q-18 0 -18 20l8 57q4 20 22 21h99q84 0 124 -41t40 -129q0 -14 -5 -60l-53 -436q-4 -41 -4 -57 q0 -109 78 -127q16 -2 16 -21l-8 -53q0 -16 -20 -20q-49 -10 -79 -55.5t-40 -131.5l-55 -448q-14 -119 -66.5 -173t-149.5 -54h-100q-8 0 -13 6t-3 14z" />
<glyph unicode="~" d="M113 571q37 63 99 102.5t134 39.5q49 0 84 -14.5t78 -41.5q49 -33 86 -50t92 -17q41 0 71.5 20.5t67.5 61.5q16 16 29 6l35 -27q12 -12 2 -26q-94 -133 -215 -133q-58 0 -98.5 17t-96.5 54q-43 25 -73.5 38t-69.5 13q-96 0 -162 -86q-10 -16 -29 -6l-28 23q-14 14 -6 26z " />
<glyph unicode="&#xa1;" horiz-adv-x="561" d="M195 45l120 932q0 20 23 20h51q18 0 17 -20l-107 -932q0 -8 -6 -14t-17 -6h-65q-8 0 -13 6t-3 14zM299 1329q0 51 34 86t81 35q39 0 64.5 -26.5t25.5 -65.5q0 -49 -36 -86t-81 -37q-37 0 -62.5 27.5t-25.5 66.5z" />
<glyph unicode="&#xa2;" horiz-adv-x="903" d="M154 461q-2 100 16 241q16 127 43 240q29 113 109.5 189.5t193.5 95.5q8 2 10 10l15 141q4 20 22 21h53q18 0 19 -21l-23 -139q0 -8 9 -8q119 -12 190.5 -86t73.5 -176v-37q0 -20 -21 -23l-65 -4q-18 0 -19 19v10q2 8 1 14t-1 10q-4 74 -62.5 126.5t-148.5 52.5 q-96 0 -165.5 -60.5t-92.5 -156.5q-25 -113 -37 -220q-16 -147 -16 -223q0 -96 54.5 -154.5t148.5 -58.5q96 0 167.5 56.5t90.5 136.5l2 12q6 20 24 18l66 -4q8 0 12 -5t2 -13v-8l-4 -17l-4 -8q-27 -106 -116 -178t-212 -84q-8 0 -8 -8l-14 -142q-4 -20 -23 -20h-53 q-20 0 -16 20l18 144q2 8 -6 10q-109 18 -170 94t-63 193z" />
<glyph unicode="&#xa3;" horiz-adv-x="1095" d="M197 20l8 58q0 14 16 24q47 31 82 100.5t45 162.5l33 270q2 2 0 5t-6 3h-135q-20 0 -17 21l6 49q0 8 6.5 14t16.5 6h133q4 0 7 2t3 6l39 318q20 182 129 286.5t271 104.5q117 0 187.5 -66.5t88.5 -193.5v-4q0 -8 -5 -13.5t-11 -7.5l-64 -10h-6q-14 0 -14 14 q-16 96 -64.5 141.5t-128.5 45.5q-117 0 -189.5 -77t-88.5 -216l-41 -322q0 -8 8 -8h338q8 0 13 -6t3 -14l-6 -49q-4 -20 -23 -21h-337q-8 0 -9 -8l-32 -266q-10 -84 -40 -153t-73 -112q-4 -4 -2 -7t6 -3h633q18 0 18 -20l-8 -54q0 -8 -6 -14t-16 -6h-750q-18 0 -18 20z" />
<glyph unicode="&#xa4;" horiz-adv-x="997" d="M51 223q0 8 8 15l134 122q6 6 4 13q-57 90 -58 194q0 78 30 152t81 135q4 8 0 12l-111 131q-4 4 -4 11q0 10 8 18l45 37q6 6 14.5 5t12.5 -7l111 -129q4 -4 10 -2q109 80 239 80q66 0 124.5 -22.5t103.5 -63.5q6 -4 12 2l148 135q6 6 14 7t14 -5l35 -37q6 -6 6 -14 t-8 -15l-154 -141q-6 -6 -4 -12q47 -78 47 -178q0 -78 -28.5 -152t-79.5 -133q-4 -6 2 -12l111 -131q4 -8 4 -11q0 -10 -11 -18l-43 -37q-6 -6 -14 -6t-14 8l-109 127q-6 6 -12 2q-113 -80 -240 -80q-123 0 -215 74q-2 2 -12 -2l-131 -121q-6 -6 -14.5 -7t-14.5 5l-35 37 q-6 6 -6 14zM236 580q0 -111 72.5 -186t180.5 -75q86 0 162 45.5t122 122t46 166.5q0 111 -72.5 186.5t-183.5 75.5q-84 0 -159.5 -47t-121.5 -123.5t-46 -164.5z" />
<glyph unicode="&#xa5;" horiz-adv-x="1202" d="M252 393l4 31q4 20 23 20h274q8 0 8 9l21 165q2 2 0 5.5t-7 3.5h-274q-20 0 -16 20l4 31q0 8 6 14t14 6h256q4 0 6 3.5t0 7.5l-237 700l-2 8q0 16 18 17h70q18 0 20 -15l211 -637q0 -4 4 -4t7 4l362 637q8 14 25 15h69q10 0 13.5 -7.5t-3.5 -17.5l-407 -700 q-2 -4 -1 -7.5t5 -3.5h254q10 0 15 -6t3 -14l-4 -31q-4 -20 -22 -20h-275q-8 0 -8 -9l-20 -165q0 -8 6 -9h274q18 0 19 -20l-4 -31q-4 -20 -23 -20h-274q-8 0 -9 -8l-43 -345q-4 -20 -22 -20h-66q-20 0 -16 20l41 345q0 8 -6 8h-275q-18 0 -18 20z" />
<glyph unicode="&#xa6;" horiz-adv-x="288" d="M35 -143l86 706q4 20 22 21h66q20 0 16 -21l-86 -706q-4 -20 -22 -21h-66q-20 1 -16 21zM152 821l88 715q4 20 22 20h66q18 0 18 -20l-88 -715q-4 -20 -22 -20h-66q-18 0 -18 20z" />
<glyph unicode="&#xa7;" horiz-adv-x="827" d="M80 -158q0 18 4 60l2 30q0 8 6 14.5t14 6.5h66q10 0 15.5 -6t2.5 -15l-2 -22q-2 -16 -2 -45q0 -88 42 -140.5t114 -52.5q90 0 152.5 77t62.5 185q0 66 -30.5 109t-71.5 65.5t-107 49.5q-76 29 -123 65.5t-69 100.5q-20 53 -21 116q0 147 78 256q66 94 160 121q12 4 2 10 q-66 31 -107 100.5t-41 157.5q0 98 43 182.5t119 133.5t170 49q115 0 182.5 -75t67.5 -197q0 -31 -2 -48l-4 -28q-4 -20 -23 -21h-65q-20 0 -17 21l2 22q2 14 2 41q0 86 -42 137.5t-113 51.5q-84 0 -143.5 -66.5t-71.5 -165.5q-2 -12 -2 -35q0 -84 50 -135t150 -92 q66 -27 110 -54.5t75 -80.5q37 -59 37 -154q0 -68 -19.5 -133t-54.5 -119q-59 -98 -160 -124q-6 0 -6 -3.5t4 -5.5q68 -35 108 -97t40 -148q0 -100 -45.5 -184.5t-122 -132.5t-168.5 -48q-117 0 -182.5 71.5t-65.5 194.5zM242 457q0 -55 16 -95q39 -102 154 -102 q119 0 180 102q27 39 40 90.5t13 102.5q0 72 -29 119q-23 37 -59.5 59.5t-83.5 22.5q-55 0 -103 -33t-79 -80q-37 -66 -47 -141q-2 -14 -2 -45z" />
<glyph unicode="&#xa8;" horiz-adv-x="548" d="M181 1309q0 39 25.5 65.5t62.5 26.5q31 0 48 -18.5t17 -49.5q0 -41 -24.5 -68.5t-59.5 -27.5q-33 0 -51 19.5t-18 52.5zM463 1309q0 39 25.5 65.5t62.5 26.5q29 0 48.5 -19.5t19.5 -48.5q0 -41 -25.5 -68.5t-62.5 -27.5q-31 0 -49.5 19.5t-18.5 52.5z" />
<glyph unicode="&#xa9;" horiz-adv-x="1716" d="M180 618q0 47 6 97q25 207 139.5 374.5t291 264t378.5 96.5q186 0 332 -82t225.5 -226.5t79.5 -326.5q0 -47 -6 -100q-25 -203 -139.5 -371t-291.5 -264t-380 -96q-186 0 -330.5 81.5t-224.5 227t-80 325.5zM254 627q0 -162 71.5 -292t201.5 -204t296 -74q183 0 341.5 87 t261 237.5t124.5 333.5q6 47 6 90q0 164 -71.5 294t-201.5 203.5t-298 73.5q-182 0 -339 -87t-260 -238.5t-126 -335.5q-6 -45 -6 -88zM696 512q0 18 2 29l43 346q10 82 66.5 131t142.5 49q78 0 124 -41t46 -111q0 -16 -2 -26v-8q-2 -8 -8 -14.5t-14 -6.5h-33q-18 0 -19 17 l3 16q6 47 -23 77.5t-82 30.5t-89 -29.5t-42 -78.5l-45 -358q-4 -49 24.5 -79t79.5 -30q53 0 90 29.5t44 79.5l2 12q0 8 6 14t16 6h31q18 0 18 -14l-2 -14q-8 -82 -67.5 -130.5t-145.5 -48.5q-76 0 -121 41t-45 111z" />
<glyph unicode="&#xaa;" horiz-adv-x="589" d="M78 565l4 41q4 21 22 21h441q8 0 13 -6.5t3 -14.5l-4 -41q-2 -8 -8 -14t-14 -6h-441q-20 0 -16 20zM123 903q0 23 2 35q14 106 86 159.5t186 53.5h125q6 0 10 8l7 60q2 10 2 32q0 59 -32 94t-95 35q-51 0 -92 -25.5t-58 -68.5q-4 -23 -22 -18l-39 2q-8 0 -12.5 7t-2.5 15 q20 72 86 115t150 43q94 0 143 -49t49 -133q0 -29 -2 -43l-53 -447q-4 -20 -22 -20h-37q-20 0 -17 20l4 41q2 4 -1 6t-7 -2q-68 -76 -182 -75q-76 0 -126 36.5t-50 118.5zM199 920q0 -53 32.5 -80t85.5 -27q70 0 126.5 40t64.5 112l14 112q0 8 -8 8h-121q-86 0 -140 -42 t-54 -123z" />
<glyph unicode="&#xab;" horiz-adv-x="1017" d="M207 573q0 10 6 17l287 330q10 12 28 12h60q10 0 13 -8.5t-5 -16.5l-287 -325q-2 -6 0 -13l205 -325l4 -11q0 -14 -18 -14h-60q-20 0 -24 12l-205 330q-4 8 -4 12zM506 573q0 10 6 17l287 330q8 12 26 12h60q12 0 15 -7t-5 -18l-287 -325q-4 -8 -2 -13l207 -325 q4 -9 4 -11q0 -14 -20 -14h-60q-18 0 -22 12l-207 330q-2 4 -2 12z" />
<glyph unicode="&#xac;" d="M113 625l6 51q4 20 22 20h750q8 0 13 -6t3 -14l-6 -60l-2 -12l-2 -4l-29 -219q0 -8 -6 -14.5t-16 -6.5h-51q-20 0 -17 21l27 215q0 8 -8 8h-668q-8 0 -13 6t-3 15z" />
<glyph unicode="&#xad;" horiz-adv-x="696" d="M111 616l8 56q0 8 6 14t16 6h504q18 0 19 -20l-9 -56q-4 -20 -22 -20h-504q-18 0 -18 20z" />
<glyph unicode="&#xae;" horiz-adv-x="886" d="M145 1018q0 119 60.5 221t162 163.5t216.5 61.5q96 0 174 -45t122 -125t44 -176q0 -119 -61.5 -221t-162 -162.5t-215.5 -60.5q-98 0 -175 45t-121 123t-44 176zM207 1026q0 -125 81 -209t206 -84q94 0 180 51.5t137 139.5t51 188q0 123 -82 207t-205 84 q-96 0 -181 -52.5t-136 -138.5t-51 -186zM416 905l39 324q4 20 22 20h101q41 0 64.5 -25.5t23.5 -64.5t-18.5 -68.5t-47.5 -41.5q-6 -2 -6 -11l39 -129v-6q0 -8 -6 -13t-15 -5h-16q-18 0 -21 16l-36 133q-2 6 -9 6h-36q-6 0 -11 -8l-14 -127q-4 -20 -23 -20h-14 q-20 0 -16 20zM492 1092q0 -8 6 -9h53q25 0 42 18.5t17 49.5q0 23 -12 36t-33 13h-53q-8 0 -8 -8z" />
<glyph unicode="&#xaf;" horiz-adv-x="788" d="M279 1245l4 43q4 20 22 21h418q20 0 16 -21l-4 -43q-4 -20 -22 -20h-418q-20 0 -16 20z" />
<glyph unicode="&#xb0;" horiz-adv-x="735" d="M178 1288q0 98 48 183t130 134.5t174 49.5q121 0 198 -79t77 -202q0 -98 -48 -182t-130 -133t-174 -49q-121 0 -198 78.5t-77 199.5zM256 1300q0 -90 58.5 -150t146.5 -60q69 0 129.5 37.5t97.5 101t37 137.5q0 90 -58.5 149.5t-146.5 59.5q-70 0 -130 -37t-97 -100.5 t-37 -137.5z" />
<glyph unicode="&#xb1;" d="M113 54l6 51q4 20 22 20h750q8 0 13 -6t3 -14l-6 -51q-4 -20 -22 -21h-750q-8 0 -13 6t-3 15zM113 672l6 51q4 20 22 20h322q6 0 10 9l41 335q0 8 6 14.5t17 6.5h49q20 0 16 -21l-41 -335q0 -8 8 -9h322q20 0 16 -20l-6 -51q-4 -20 -22 -21h-322q-8 0 -8 -8l-41 -328 q-4 -20 -23 -20h-49q-18 0 -18 20l41 328q0 8 -6 8h-322q-10 0 -15 6t-3 15z" />
<glyph unicode="&#xb2;" horiz-adv-x="557" d="M23 940l4 37q2 14 12 27q139 166 280 342q123 154 123 250q0 57 -31.5 89t-84.5 32q-59 0 -98.5 -39t-45.5 -105l-4 -35q-2 -8 -8 -14t-14 -6h-43q-20 0 -17 20l4 41q14 96 79 153.5t157 57.5q88 0 138 -50t50 -136q0 -113 -127 -285q-125 -160 -256 -317q-4 -10 4 -10 h310q8 0 13 -6.5t3 -14.5l-4 -31q-4 -20 -23 -20h-405q-8 0 -13.5 6t-2.5 14z" />
<glyph unicode="&#xb3;" horiz-adv-x="575" d="M51 1108q0 18 4 47q0 20 23 21h39q18 0 18 -21l-2 -55q4 -55 34 -87t79 -32q80 0 127 78q27 51 35 123q4 45 4 62q0 39 -9 63q-20 86 -106 86q-10 0 -27 -4q-4 -2 -12 -2t-14 8l-17 21q-4 8 -4 12q0 8 6 16l211 252q2 2 2 6t-4 4h-293q-20 0 -16 21l4 31q0 8 6 14t17 6 h379q20 0 16 -20l-4 -37q-4 -18 -10 -27l-195 -231q-4 -4 -2 -7.5t6 -3.5q102 -8 135 -129q8 -30 8 -77q0 -43 -4 -68q-8 -82 -41 -139q-61 -131 -206 -131q-80 0 -128.5 47t-56.5 125q-2 10 -2 28z" />
<glyph unicode="&#xb4;" horiz-adv-x="360" d="M172.5 1191q-3.5 7 5.5 17l147 226q10 14 27 14h63q12 0 15.5 -7t-5.5 -18l-161 -225q-14 -14 -27 -14h-49q-12 0 -15.5 7z" />
<glyph unicode="&#xb5;" horiz-adv-x="960" d="M66 -389l172 1401q4 20 22 20h66q20 0 16 -20l-82 -680q-4 -37 -4 -53q0 -94 49 -145.5t139 -51.5q104 0 175 69.5t86 188.5l83 672q0 8 6.5 14t16.5 6h66q8 0 13 -6t3 -14l-121 -992q-4 -20 -22 -20h-66q-10 0 -15 6t-3 14l10 89q2 6 -1 6t-7 -4q-88 -125 -256 -125 q-111 0 -179 55q-10 6 -10 -4l-53 -426q0 -8 -6 -14.5t-17 -6.5h-65q-8 0 -13.5 6.5t-2.5 14.5z" />
<glyph unicode="&#xb6;" horiz-adv-x="1015" d="M152 895q0 51 4 78q14 129 74.5 233.5t153.5 166t202 61.5h368q18 0 19 -21l-221 -1802q-4 -20 -23 -21h-49q-8 0 -13 6.5t-3 14.5l210 1726q2 2 0 5.5t-6 3.5h-221q-8 0 -8 -9l-211 -1726q-2 -8 -8 -14.5t-14 -6.5h-52q-8 0 -13 6.5t-3 14.5l108 893q4 8 -6 8 q-131 8 -209.5 115.5t-78.5 267.5z" />
<glyph unicode="&#xb7;" horiz-adv-x="202" d="M-50 100q0 49 36 86t79 37q37 0 62.5 -27.5t25.5 -66.5q0 -49 -34.5 -85t-80.5 -36q-38 0 -63 26.5t-25 65.5z" />
<glyph unicode="&#xb8;" horiz-adv-x="243" d="M-76 -344l8 27q6 20 27 14q20 -4 33 -4q78 0 104 80q6 20 6 43q0 80 -71 159q-6 6 -6 13q0 12 16 12h33q14 0 22 -8q84 -78 84 -176q0 -35 -10 -72q-20 -63 -66.5 -92t-105.5 -29q-39 0 -64 8q-16 5 -10 25z" />
<glyph unicode="&#xb9;" horiz-adv-x="321" d="M121 940l92 748q0 4 -3 7t-5 1l-60 -18l-8 -2q-14 0 -12 18l2 23q4 20 18 24l68 33q13 6 27 6h47q20 0 16 -20l-100 -820q-4 -20 -23 -20h-41q-18 0 -18 20z" />
<glyph unicode="&#xba;" horiz-adv-x="614" d="M94 565l4 43q4 20 23 21h446q18 0 19 -21l-6 -43q-4 -20 -23 -20h-446q-21 0 -17 20zM164 942q0 66 10 158q16 109 27 157q23 86 88 139.5t157 53.5q90 0 142.5 -52t54.5 -141q0 -72 -12 -157q-10 -94 -27 -158q-23 -86 -88 -139t-156 -53q-90 0 -141 52t-55 140z M242 958q0 -61 33.5 -99t93.5 -38q57 0 101 38t60 99q2 6 17 97l6 45q12 111 12 141q0 61 -34.5 99t-92.5 38q-59 0 -103 -37.5t-59 -99.5q-10 -43 -22 -141q-12 -111 -12 -142z" />
<glyph unicode="&#xbb;" horiz-adv-x="1017" d="M181 226q-3 7 5 18l287 325q4 8 2 13l-207 325q-4 8 -4 11q0 6 5 10t14 4h59q20 0 25 -12l206 -330q2 -2 2 -10t-6 -19l-286 -330q-8 -12 -27 -12h-59q-13 0 -16 7zM488 226q-3 7 5 18l287 325q4 8 2 13l-207 325q-4 8 -4 11q0 6 5 10t14 4h59q20 0 25 -12l206 -330 q2 -2 2 -10t-6 -19l-286 -330q-8 -12 -27 -12h-59q-13 0 -16 7z" />
<glyph unicode="&#xbc;" horiz-adv-x="1427" d="M121 593l92 748q0 4 -3 7t-5 1l-60 -18l-8 -2q-14 0 -12 18l2 23q4 20 18 24l68 33q13 6 27 6h47q20 0 16 -20l-100 -820q-4 -20 -23 -20h-41q-18 0 -18 20zM150 7q-2 7 6 18l1032 1394q14 14 27 15h41q12 0 14 -7.5t-6 -17.5l-1032 -1395q-14 -14 -27 -14h-41 q-12 0 -14 7zM926 256l4 33q4 18 8 24l272 531q8 16 25 16h43q10 0 14.5 -7t-0.5 -17l-264 -514q-2 -4 -1 -7.5t5 -3.5h224q8 0 8 8l22 185q4 20 23 20h39q10 0 15 -6t3 -14l-22 -185q0 -8 6 -8h33q20 0 16 -20l-4 -35q-4 -20 -23 -20h-30q-6 0 -11 -9l-24 -207 q-4 -20 -23 -20h-39q-10 0 -15 6t-3 14l26 207q0 8 -8 9h-301q-18 0 -18 20z" />
<glyph unicode="&#xbd;" horiz-adv-x="1427" d="M121 593l92 748q0 4 -3 7t-5 1l-60 -18l-8 -2q-14 0 -12 18l2 23q4 20 18 24l68 33q13 6 27 6h47q20 0 16 -20l-100 -820q-4 -20 -23 -20h-41q-18 0 -18 20zM150 7q-2 7 6 18l1032 1394q14 14 27 15h41q12 0 14 -7.5t-6 -17.5l-1032 -1395q-14 -14 -27 -14h-41 q-12 0 -14 7zM922 20l4 37q2 14 12 27q139 166 280 342q123 154 123 250q0 57 -31.5 89t-84.5 32q-59 0 -98.5 -39t-45.5 -105l-4 -35q-2 -8 -8 -14t-14 -6h-43q-20 0 -17 20l4 41q14 96 79 153.5t157 57.5q88 0 138 -50t50 -136q0 -113 -127 -285q-125 -160 -256 -317 q-4 -10 4 -10h310q8 0 13 -6.5t3 -14.5l-4 -31q-4 -20 -23 -20h-405q-8 0 -13.5 6t-2.5 14z" />
<glyph unicode="&#xbe;" horiz-adv-x="1595" d="M51 770q0 18 4 47q0 20 23 21h39q18 0 18 -21l-2 -55q4 -55 34 -87t79 -32q80 0 127 78q27 51 35 123q4 45 4 62q0 39 -9 63q-20 86 -106 86q-10 0 -27 -4q-4 -2 -12 -2t-14 8l-17 21q-4 8 -4 12q0 8 6 16l211 252q2 2 2 6t-4 4h-293q-20 0 -16 21l4 31q0 8 6 14t17 6 h379q20 0 16 -20l-4 -37q-4 -18 -10 -27l-195 -231q-4 -4 -2 -7.5t6 -3.5q102 -8 135 -129q8 -30 8 -77q0 -43 -4 -68q-8 -82 -41 -139q-61 -131 -206 -131q-80 0 -128.5 47t-56.5 125q-2 10 -2 28zM322 7q-2 7 6 18l1032 1394q14 14 27 15h41q12 0 14 -7.5t-6 -17.5 l-1032 -1395q-14 -14 -27 -14h-41q-12 0 -14 7zM1098 256l4 33q4 18 8 24l272 531q8 16 25 16h43q10 0 14.5 -7t-0.5 -17l-264 -514q-2 -4 -1 -7.5t5 -3.5h224q8 0 8 8l22 185q4 20 23 20h39q10 0 15 -6t3 -14l-22 -185q0 -8 6 -8h33q20 0 16 -20l-4 -35q-4 -20 -23 -20h-30 q-6 0 -11 -9l-24 -207q-4 -20 -23 -20h-39q-10 0 -15 6t-3 14l26 207q0 8 -8 9h-301q-18 0 -18 20z" />
<glyph unicode="&#xbf;" horiz-adv-x="790" d="M25 -139q0 20 4 61q10 90 42.5 155.5t72.5 107.5t104 94q68 57 101.5 98t41.5 100l15 127q4 20 22 21h70q18 -1 18 -21l-16 -133q-10 -84 -53.5 -139.5t-122.5 -120.5q-86 -72 -132.5 -132.5t-58.5 -158.5q-2 -14 -2 -45q0 -92 49 -147.5t135 -55.5q96 0 165 69t83 181 l8 70q4 20 23 20l65 -4q8 0 13.5 -6t3.5 -14l-8 -66q-18 -156 -120 -253t-247 -97q-129 0 -202.5 78t-73.5 211zM393 899q0 47 35 83t78 36q37 0 60.5 -26.5t23.5 -65.5q0 -47 -34 -82t-77 -35q-35 0 -60.5 25.5t-25.5 64.5z" />
<glyph unicode="&#xc0;" horiz-adv-x="1026" d="M39 23l545 1394q2 8 8 12.5t14 4.5h84q20 0 21 -17l202 -1394v-5q0 -8 -6 -13t-14 -5h-66q-8 0 -14 5t-6 13l-39 271q0 6 -8 6h-502q-8 0 -10 -6l-103 -271q-8 -18 -24 -18h-68q-25 0 -14 23zM289 388q2 -3 6 -3h450q2 0 6.5 3t2.5 5l-121 877q-2 4 -4 4t-4 -4l-336 -877 q-2 -2 0 -5zM465 1835q0 14 18 14h64q14 0 22 -14l92 -226q2 -4 2 -10q0 -14 -18 -14h-49q-12 0 -23 14l-106 225q-2 4 -2 11z" />
<glyph unicode="&#xc1;" horiz-adv-x="1026" d="M39 23l545 1394q2 8 8 12.5t14 4.5h84q20 0 21 -17l202 -1394v-5q0 -8 -6 -13t-14 -5h-66q-8 0 -14 5t-6 13l-39 271q0 6 -8 6h-502q-8 0 -10 -6l-103 -271q-8 -18 -24 -18h-68q-25 0 -14 23zM289 388q2 -3 6 -3h450q2 0 6.5 3t2.5 5l-121 877q-2 4 -4 4t-4 -4l-336 -877 q-2 -2 0 -5zM555.5 1592q-3.5 7 5.5 17l147 226q10 14 27 14h63q12 0 15.5 -7t-5.5 -18l-161 -225q-14 -14 -27 -14h-49q-12 0 -15.5 7z" />
<glyph unicode="&#xc2;" horiz-adv-x="1026" d="M39 23l545 1394q2 8 8 12.5t14 4.5h84q20 0 21 -17l202 -1394v-5q0 -8 -6 -13t-14 -5h-66q-8 0 -14 5t-6 13l-39 271q0 6 -8 6h-502q-8 0 -10 -6l-103 -271q-8 -18 -24 -18h-68q-25 0 -14 23zM289 388q2 -3 6 -3h450q2 0 6.5 3t2.5 5l-121 877q-2 4 -4 4t-4 -4l-336 -877 q-2 -2 0 -5zM411 1576.5q-3 8.5 7 16.5l172 215q10 12 27 12h74q14 0 22 -12l123 -215q4 -4 4 -10q0 -14 -18 -15h-56q-18 0 -22 13l-90 170q-2 4 -6 4t-6 -4l-134 -170q-10 -12 -26 -13h-56q-12 0 -15 8.5z" />
<glyph unicode="&#xc3;" horiz-adv-x="1026" d="M39 23l545 1394q2 8 8 12.5t14 4.5h84q20 0 21 -17l202 -1394v-5q0 -8 -6 -13t-14 -5h-66q-8 0 -14 5t-6 13l-39 271q0 6 -8 6h-502q-8 0 -10 -6l-103 -271q-8 -18 -24 -18h-68q-25 0 -14 23zM289 388q2 -3 6 -3h450q2 0 6.5 3t2.5 5l-121 877q-2 4 -4 4t-4 -4l-336 -877 q-2 -2 0 -5zM403 1693q0 6 7 8q63 94 157 95q31 0 53.5 -12.5t55.5 -34.5q6 -4 24.5 -17.5t34 -20.5t31.5 -7q29 0 52.5 13t49.5 48q14 20 29 8l23 -16q8 -8 8 -15q0 -10 -13 -26q-35 -47 -78.5 -69.5t-82.5 -22.5q-31 0 -54.5 12t-52.5 35q-27 23 -44 33t-42 10 q-31 0 -53.5 -11.5t-48.5 -44.5q-16 -18 -29 -6l-22 19q-12 12 -5 22z" />
<glyph unicode="&#xc4;" horiz-adv-x="1026" d="M39 23l545 1394q2 8 8 12.5t14 4.5h84q20 0 21 -17l202 -1394v-5q0 -8 -6 -13t-14 -5h-66q-8 0 -14 5t-6 13l-39 271q0 6 -8 6h-502q-8 0 -10 -6l-103 -271q-8 -18 -24 -18h-68q-25 0 -14 23zM289 388q2 -3 6 -3h450q2 0 6.5 3t2.5 5l-121 877q-2 4 -4 4t-4 -4l-336 -877 q-2 -2 0 -5zM426 1710q0 39 25.5 65.5t62.5 26.5q31 0 48 -18.5t17 -49.5q0 -41 -24.5 -68.5t-59.5 -27.5q-33 0 -51 19.5t-18 52.5zM708 1710q0 39 25.5 65.5t62.5 26.5q29 0 48.5 -19.5t19.5 -48.5q0 -41 -25.5 -68.5t-62.5 -27.5q-31 0 -49.5 19.5t-18.5 52.5z" />
<glyph unicode="&#xc5;" horiz-adv-x="1026" d="M39 23l545 1394q2 8 8 12.5t14 4.5h84q20 0 21 -17l202 -1394v-5q0 -8 -6 -13t-14 -5h-66q-8 0 -14 5t-6 13l-39 271q0 6 -8 6h-502q-8 0 -10 -6l-103 -271q-8 -18 -24 -18h-68q-25 0 -14 23zM289 388q2 -3 6 -3h450q2 0 6.5 3t2.5 5l-121 877q-2 4 -4 4t-4 -4l-336 -877 q-2 -2 0 -5zM449 1757q0 94 68.5 161.5t160.5 67.5q76 0 125 -50t49 -128q0 -61 -31.5 -115.5t-83 -86t-110.5 -31.5q-76 0 -127 52t-51 130zM516 1765q0 -53 34 -89t85 -36q61 0 106.5 47t45.5 115q0 53 -33 87t-84 34q-59 0 -106.5 -46t-47.5 -112z" />
<glyph unicode="&#xc6;" horiz-adv-x="1611" d="M42 7q-3 7 3 18l829 1394q6 14 25 15h721q18 0 18 -21l-8 -55q0 -8 -6 -14.5t-16 -6.5h-578q-8 0 -8 -8l-70 -555q0 -8 9 -8h385q20 0 16 -21l-6 -55q-4 -20 -23 -20h-385q-8 0 -8 -8l-70 -558q0 -8 9 -8h577q20 0 17 -20l-7 -56q-4 -20 -22 -20h-674q-8 0 -13 6t-3 14 l32 267q0 8 -8 8h-454q-4 0 -9 -6l-161 -275q-8 -14 -27 -14h-72q-10 0 -13 7zM377 395q-6 -10 4 -10h410q8 0 8 8l110 885q2 6 -1 6t-7 -4z" />
<glyph unicode="&#xc7;" horiz-adv-x="1040" d="M141 315q0 18 4 60l84 686q20 176 140 282.5t297 106.5q160 0 252 -88t92 -238q0 -20 -4 -61l-2 -19q0 -8 -6.5 -15t-16.5 -7l-66 -4q-20 0 -16 20l2 29q4 33 4 47q0 109 -68.5 174.5t-183.5 65.5q-127 0 -214 -79t-103 -208l-86 -698q-2 -14 -2 -45q0 -111 66.5 -177.5 t181.5 -66.5q129 0 217 79t102 210l4 24q4 20 23 21l65 -4q8 0 13.5 -5.5t3.5 -13.5l-2 -18q-20 -170 -133 -275.5t-281 -113.5q-10 0 -4 -11q70 -76 69 -161q0 -33 -10 -70q-20 -63 -66 -92t-106 -29q-37 0 -63 8q-16 2 -11 25l9 27q6 20 26 14q20 -4 33 -4q37 0 63.5 19.5 t38.5 60.5q6 20 7 45q0 84 -82 170q-2 4 -9 4q-123 23 -192.5 108.5t-69.5 216.5z" />
<glyph unicode="&#xc8;" horiz-adv-x="1030" d="M143 20l172 1393q0 8 6.5 14.5t16.5 6.5h702q20 0 17 -21l-6 -55q-5 -21 -23 -21h-610q-8 0 -8 -8l-68 -555q-2 -2 0 -5t6 -3h418q20 0 16 -21l-6 -55q-4 -20 -22 -20h-418q-8 0 -8 -8l-68 -558q-2 -2 0 -5t6 -3h611q20 0 16 -20l-6 -56q-4 -20 -23 -20h-702 q-10 0 -15.5 6t-3.5 14zM502 1858q0 14 18 14h64q14 0 22 -14l92 -226q2 -4 2 -10q0 -14 -18 -14h-49q-12 0 -23 14l-106 225q-2 4 -2 11z" />
<glyph unicode="&#xc9;" horiz-adv-x="1030" d="M143 20l172 1393q0 8 6.5 14.5t16.5 6.5h702q20 0 17 -21l-6 -55q-5 -21 -23 -21h-610q-8 0 -8 -8l-68 -555q-2 -2 0 -5t6 -3h418q20 0 16 -21l-6 -55q-4 -20 -22 -20h-418q-8 0 -8 -8l-68 -558q-2 -2 0 -5t6 -3h611q20 0 16 -20l-6 -56q-4 -20 -23 -20h-702 q-10 0 -15.5 6t-3.5 14zM592.5 1615q-3.5 7 5.5 17l147 226q10 14 27 14h63q12 0 15.5 -7t-5.5 -18l-161 -225q-14 -14 -27 -14h-49q-12 0 -15.5 7z" />
<glyph unicode="&#xca;" horiz-adv-x="1030" d="M143 20l172 1393q0 8 6.5 14.5t16.5 6.5h702q20 0 17 -21l-6 -55q-5 -21 -23 -21h-610q-8 0 -8 -8l-68 -555q-2 -2 0 -5t6 -3h418q20 0 16 -21l-6 -55q-4 -20 -22 -20h-418q-8 0 -8 -8l-68 -558q-2 -2 0 -5t6 -3h611q20 0 16 -20l-6 -56q-4 -20 -23 -20h-702 q-10 0 -15.5 6t-3.5 14zM447 1599.5q-3 8.5 7 16.5l172 215q10 12 27 12h74q14 0 22 -12l123 -215q4 -4 4 -10q0 -14 -18 -15h-56q-18 0 -22 13l-90 170q-2 4 -6 4t-6 -4l-134 -170q-10 -12 -26 -13h-56q-12 0 -15 8.5z" />
<glyph unicode="&#xcb;" horiz-adv-x="1030" d="M143 20l172 1393q0 8 6.5 14.5t16.5 6.5h702q20 0 17 -21l-6 -55q-5 -21 -23 -21h-610q-8 0 -8 -8l-68 -555q-2 -2 0 -5t6 -3h418q20 0 16 -21l-6 -55q-4 -20 -22 -20h-418q-8 0 -8 -8l-68 -558q-2 -2 0 -5t6 -3h611q20 0 16 -20l-6 -56q-4 -20 -23 -20h-702 q-10 0 -15.5 6t-3.5 14zM463 1733q0 39 25.5 65.5t62.5 26.5q31 0 48 -18.5t17 -49.5q0 -41 -24.5 -68.5t-59.5 -27.5q-33 0 -51 19.5t-18 52.5zM745 1733q0 39 25.5 65.5t62.5 26.5q29 0 48.5 -19.5t19.5 -48.5q0 -41 -25.5 -68.5t-62.5 -27.5q-31 0 -49.5 19.5t-18.5 52.5 z" />
<glyph unicode="&#xcc;" horiz-adv-x="464" d="M143 20l172 1393q0 8 6.5 14.5t16.5 6.5h65q8 0 13.5 -6.5t3.5 -14.5l-170 -1393q-2 -8 -8 -14t-15 -6h-65q-10 0 -15.5 6t-3.5 14zM177 1858q0 14 18 14h64q14 0 22 -14l92 -226q2 -4 2 -10q0 -14 -18 -14h-49q-12 0 -23 14l-106 225q-2 4 -2 11z" />
<glyph unicode="&#xcd;" horiz-adv-x="464" d="M143 20l172 1393q0 8 6.5 14.5t16.5 6.5h65q8 0 13.5 -6.5t3.5 -14.5l-170 -1393q-2 -8 -8 -14t-15 -6h-65q-10 0 -15.5 6t-3.5 14zM267.5 1615q-3.5 7 5.5 17l147 226q10 14 27 14h63q12 0 15.5 -7t-5.5 -18l-161 -225q-14 -14 -27 -14h-49q-12 0 -15.5 7z" />
<glyph unicode="&#xce;" horiz-adv-x="464" d="M122 1599.5q-3 8.5 7 16.5l172 215q10 12 27 12h74q14 0 22 -12l123 -215q4 -4 4 -10q0 -14 -18 -15h-56q-18 0 -22 13l-90 170q-2 4 -6 4t-6 -4l-134 -170q-10 -12 -26 -13h-56q-12 0 -15 8.5zM143 20l172 1393q0 8 6.5 14.5t16.5 6.5h65q8 0 13.5 -6.5t3.5 -14.5 l-170 -1393q-2 -8 -8 -14t-15 -6h-65q-10 0 -15.5 6t-3.5 14z" />
<glyph unicode="&#xcf;" horiz-adv-x="464" d="M138 1733q0 39 25.5 65.5t62.5 26.5q31 0 48 -18.5t17 -49.5q0 -41 -24.5 -68.5t-59.5 -27.5q-33 0 -51 19.5t-18 52.5zM143 20l172 1393q0 8 6.5 14.5t16.5 6.5h65q8 0 13.5 -6.5t3.5 -14.5l-170 -1393q-2 -8 -8 -14t-15 -6h-65q-10 0 -15.5 6t-3.5 14zM420 1733 q0 39 25.5 65.5t62.5 26.5q29 0 48.5 -19.5t19.5 -48.5q0 -41 -25.5 -68.5t-62.5 -27.5q-31 0 -49.5 19.5t-18.5 52.5z" />
<glyph unicode="&#xd0;" horiz-adv-x="1187" d="M231 729l5 39q4 20 22 20h88q2 0 5 2.5t3 6.5l76 616q4 20 23 21h374q152 0 238 -84t86 -232q0 -20 -4 -65l-84 -672q-20 -176 -131 -278.5t-281 -102.5h-375q-18 0 -18 20l84 680q0 8 -6 9h-88q-20 0 -17 20zM375 104q0 -8 6 -8h285q119 0 197.5 79t92.5 212l82 657 q4 41 4 56q0 113 -59 175t-166 62h-282q-4 0 -7.5 -2t-3.5 -6l-65 -532q0 -8 8 -9h209q8 0 13 -6t3 -14l-4 -39q-4 -20 -22 -20h-209q-8 0 -8 -9z" />
<glyph unicode="&#xd1;" horiz-adv-x="1159" d="M143 20l172 1393q0 8 6.5 14.5t16.5 6.5h65q18 0 21 -15l432 -1163q2 -4 5 -4t5 6l142 1155q4 20 22 21h64q18 0 18 -21l-172 -1393q-4 -20 -22 -20h-68q-16 0 -23 14l-428 1164q-4 4 -7 3t-3 -7l-141 -1154q-2 -8 -8.5 -14t-14.5 -6h-63q-10 0 -15.5 6t-3.5 14z M471 1716q0 6 7 8q63 94 157 95q31 0 53.5 -12.5t55.5 -34.5q6 -4 24.5 -17.5t34 -20.5t31.5 -7q29 0 52.5 13t49.5 48q14 20 29 8l23 -16q8 -8 8 -15q0 -10 -13 -26q-35 -47 -78.5 -69.5t-82.5 -22.5q-31 0 -54.5 12t-52.5 35q-27 23 -44 33t-42 10q-31 0 -53.5 -11.5 t-48.5 -44.5q-16 -18 -29 -6l-22 19q-12 12 -5 22z" />
<glyph unicode="&#xd2;" horiz-adv-x="1067" d="M143 324q0 20 4 65l80 655q23 182 145 294t298 112q160 0 255 -93t95 -249q0 -18 -4 -64l-80 -655q-23 -182 -146.5 -293.5t-300.5 -111.5q-159 0 -252.5 92t-93.5 248zM248 334q0 -115 68.5 -184.5t183.5 -69.5q131 0 222 84t107 219l82 664q4 33 4 49 q0 119 -69.5 188.5t-188.5 69.5q-129 0 -218 -84t-105 -223l-82 -664q-4 -33 -4 -49zM484 1844q0 14 18 14h64q14 0 22 -14l92 -226q2 -4 2 -10q0 -14 -18 -14h-49q-12 0 -23 14l-106 225q-2 4 -2 11z" />
<glyph unicode="&#xd3;" horiz-adv-x="1067" d="M143 324q0 20 4 65l80 655q23 182 145 294t298 112q160 0 255 -93t95 -249q0 -18 -4 -64l-80 -655q-23 -182 -146.5 -293.5t-300.5 -111.5q-159 0 -252.5 92t-93.5 248zM248 334q0 -115 68.5 -184.5t183.5 -69.5q131 0 222 84t107 219l82 664q4 33 4 49 q0 119 -69.5 188.5t-188.5 69.5q-129 0 -218 -84t-105 -223l-82 -664q-4 -33 -4 -49zM574.5 1601q-3.5 7 5.5 17l147 226q10 14 27 14h63q12 0 15.5 -7t-5.5 -18l-161 -225q-14 -14 -27 -14h-49q-12 0 -15.5 7z" />
<glyph unicode="&#xd4;" horiz-adv-x="1067" d="M143 324q0 20 4 65l80 655q23 182 145 294t298 112q160 0 255 -93t95 -249q0 -18 -4 -64l-80 -655q-23 -182 -146.5 -293.5t-300.5 -111.5q-159 0 -252.5 92t-93.5 248zM248 334q0 -115 68.5 -184.5t183.5 -69.5q131 0 222 84t107 219l82 664q4 33 4 49 q0 119 -69.5 188.5t-188.5 69.5q-129 0 -218 -84t-105 -223l-82 -664q-4 -33 -4 -49zM429 1585.5q-3 8.5 7 16.5l172 215q10 12 27 12h74q14 0 22 -12l123 -215q4 -4 4 -10q0 -14 -18 -15h-56q-18 0 -22 13l-90 170q-2 4 -6 4t-6 -4l-134 -170q-10 -12 -26 -13h-56 q-12 0 -15 8.5z" />
<glyph unicode="&#xd5;" horiz-adv-x="1067" d="M143 324q0 20 4 65l80 655q23 182 145 294t298 112q160 0 255 -93t95 -249q0 -18 -4 -64l-80 -655q-23 -182 -146.5 -293.5t-300.5 -111.5q-159 0 -252.5 92t-93.5 248zM248 334q0 -115 68.5 -184.5t183.5 -69.5q131 0 222 84t107 219l82 664q4 33 4 49 q0 119 -69.5 188.5t-188.5 69.5q-129 0 -218 -84t-105 -223l-82 -664q-4 -33 -4 -49zM421 1702q0 6 7 8q63 94 157 95q31 0 53.5 -12.5t55.5 -34.5q6 -4 24.5 -17.5t34 -20.5t31.5 -7q29 0 52.5 13t49.5 48q14 20 29 8l23 -16q8 -8 8 -15q0 -10 -13 -26q-35 -47 -78.5 -69.5 t-82.5 -22.5q-31 0 -54.5 12t-52.5 35q-27 23 -44 33t-42 10q-31 0 -53.5 -11.5t-48.5 -44.5q-16 -18 -29 -6l-22 19q-12 12 -5 22z" />
<glyph unicode="&#xd6;" horiz-adv-x="1067" d="M143 324q0 20 4 65l80 655q23 182 145 294t298 112q160 0 255 -93t95 -249q0 -18 -4 -64l-80 -655q-23 -182 -146.5 -293.5t-300.5 -111.5q-159 0 -252.5 92t-93.5 248zM248 334q0 -115 68.5 -184.5t183.5 -69.5q131 0 222 84t107 219l82 664q4 33 4 49 q0 119 -69.5 188.5t-188.5 69.5q-129 0 -218 -84t-105 -223l-82 -664q-4 -33 -4 -49zM445 1719q0 39 25.5 65.5t62.5 26.5q31 0 48 -18.5t17 -49.5q0 -41 -24.5 -68.5t-59.5 -27.5q-33 0 -51 19.5t-18 52.5zM727 1719q0 39 25.5 65.5t62.5 26.5q29 0 48.5 -19.5t19.5 -48.5 q0 -41 -25.5 -68.5t-62.5 -27.5q-31 0 -49.5 19.5t-18.5 52.5z" />
<glyph unicode="&#xd7;" horiz-adv-x="772" d="M94 389q0 10 8 17l254 233q8 8 2 12l-200 238q-6 6 -6 12q0 8 8 17l41 36q6 6 14 6.5t14 -6.5l201 -237q4 -4 12 0l254 235q8 6 16.5 6t12.5 -6l31 -37q4 -4 4 -12q0 -10 -8 -16l-254 -236q-6 -6 -2 -12l196 -231q4 -8 4 -11q0 -10 -8 -18l-41 -35q-14 -14 -26 0 l-197 231q-4 4 -12 0l-254 -235q-8 -6 -16.5 -6t-12.5 6l-31 37q-4 4 -4 12z" />
<glyph unicode="&#xd8;" horiz-adv-x="1099" d="M115 -66.5q-4 7.5 2 17.5l92 166q4 6 0 12q-51 84 -51 193q0 45 4 67l80 655q20 180 142 293t298 113q125 0 211 -57q8 -4 12 4l58 108q8 16 24 17h45q10 0 15.5 -7.5t-0.5 -17.5l-86 -156q-2 -6 2 -10q72 -92 71 -225q0 -20 -4 -62l-80 -655q-23 -182 -146.5 -293.5 t-301.5 -111.5q-139 0 -232 73q-6 6 -10 -2l-63 -112q-6 -16 -23 -17h-45q-10 0 -14 7.5zM262 332q0 -37 10 -78q2 -4 5.5 -4t5.5 4l563 1034q2 6 -2 10q-68 55 -172 56q-129 0 -219.5 -85t-106.5 -222l-80 -664q-4 -37 -4 -51zM322 158q33 -37 82 -57.5t110 -20.5 q131 0 222 84t108 219l82 664q4 37 4 51q0 61 -25 121q-6 10 -10 -2l-573 -1049q-4 -4 0 -10z" />
<glyph unicode="&#xd9;" horiz-adv-x="1120" d="M172 336q0 23 4 67l125 1010q4 20 23 21h65q20 0 17 -21l-125 -1018q-4 -37 -5 -51q0 -121 69 -192.5t185 -71.5q129 0 219.5 87t106.5 228l127 1018q0 8 6 14.5t15 6.5h65q10 0 15.5 -6.5t2.5 -14.5l-124 -1010q-23 -188 -145 -303.5t-300 -115.5q-160 0 -253 95 t-93 257zM514 1858q0 14 18 14h64q14 0 22 -14l92 -226q2 -4 2 -10q0 -14 -18 -14h-49q-12 0 -23 14l-106 225q-2 4 -2 11z" />
<glyph unicode="&#xda;" horiz-adv-x="1120" d="M172 336q0 23 4 67l125 1010q4 20 23 21h65q20 0 17 -21l-125 -1018q-4 -37 -5 -51q0 -121 69 -192.5t185 -71.5q129 0 219.5 87t106.5 228l127 1018q0 8 6 14.5t15 6.5h65q10 0 15.5 -6.5t2.5 -14.5l-124 -1010q-23 -188 -145 -303.5t-300 -115.5q-160 0 -253 95 t-93 257zM605.5 1615q-3.5 7 5.5 17l147 226q10 14 27 14h63q12 0 15.5 -7t-5.5 -18l-161 -225q-14 -14 -27 -14h-49q-12 0 -15.5 7z" />
<glyph unicode="&#xdb;" horiz-adv-x="1120" d="M172 336q0 23 4 67l125 1010q4 20 23 21h65q20 0 17 -21l-125 -1018q-4 -37 -5 -51q0 -121 69 -192.5t185 -71.5q129 0 219.5 87t106.5 228l127 1018q0 8 6 14.5t15 6.5h65q10 0 15.5 -6.5t2.5 -14.5l-124 -1010q-23 -188 -145 -303.5t-300 -115.5q-160 0 -253 95 t-93 257zM460 1599.5q-3 8.5 7 16.5l172 215q10 12 27 12h74q14 0 22 -12l123 -215q4 -4 4 -10q0 -14 -18 -15h-56q-18 0 -22 13l-90 170q-2 4 -6 4t-6 -4l-134 -170q-10 -12 -26 -13h-56q-12 0 -15 8.5z" />
<glyph unicode="&#xdc;" horiz-adv-x="1120" d="M172 336q0 23 4 67l125 1010q4 20 23 21h65q20 0 17 -21l-125 -1018q-4 -37 -5 -51q0 -121 69 -192.5t185 -71.5q129 0 219.5 87t106.5 228l127 1018q0 8 6 14.5t15 6.5h65q10 0 15.5 -6.5t2.5 -14.5l-124 -1010q-23 -188 -145 -303.5t-300 -115.5q-160 0 -253 95 t-93 257zM476 1733q0 39 25.5 65.5t62.5 26.5q31 0 48 -18.5t17 -49.5q0 -41 -24.5 -68.5t-59.5 -27.5q-33 0 -51 19.5t-18 52.5zM758 1733q0 39 25.5 65.5t62.5 26.5q29 0 48.5 -19.5t19.5 -48.5q0 -41 -25.5 -68.5t-62.5 -27.5q-31 0 -49.5 19.5t-18.5 52.5z" />
<glyph unicode="&#xdd;" horiz-adv-x="960" d="M213 1417q0 16 18 17h70q18 0 21 -15l208 -637q2 -4 6.5 -4t6.5 4l362 637q8 14 25 15h69q10 0 13.5 -7.5t-2.5 -17.5l-435 -745q-2 -2 -2 -11l-77 -633q-4 -20 -23 -20h-65q-19 0 -19 20l78 633q0 2 1 5.5t-1 5.5l-252 745zM523.5 1592q-3.5 7 5.5 17l147 226 q10 14 27 14h63q12 0 15.5 -7t-5.5 -18l-161 -225q-14 -14 -27 -14h-49q-12 0 -15.5 7z" />
<glyph unicode="&#xde;" horiz-adv-x="993" d="M135 20l172 1393q0 8 6 14.5t17 6.5h65q8 0 13.5 -6.5t3.5 -14.5l-37 -301q0 -4 2 -6t4 -2h291q137 0 218 -87t81 -235q0 -23 -4 -67q-20 -172 -129 -277.5t-260 -105.5h-291q-8 0 -8 -8l-37 -304q-4 -20 -23 -20h-65q-10 0 -15.5 6t-3.5 14zM291 432q0 -8 8 -8h276 q82 0 147.5 43t103.5 122t38 181q0 109 -58 173.5t-159 64.5h-276q-6 0 -11 -9z" />
<glyph unicode="&#xdf;" horiz-adv-x="999" d="M117 20l127 1039q23 182 129 287.5t264 105.5q154 0 237.5 -83t83.5 -232q0 -137 -54 -235.5t-146 -139.5q-4 -2 -5 -4t3 -4q63 -33 99 -106t36 -175q0 -37 -6 -80q-23 -186 -137.5 -289.5t-305.5 -103.5h-110q-20 0 -17 20l7 54q0 8 6 14t16 6l117 2q137 0 219 80 t100 225q4 27 4 72q0 115 -53 176.5t-158 63.5h-112q-20 0 -17 20l7 49q0 8 6 14.5t14 6.5h117q115 0 182.5 70.5t81.5 201.5q2 16 2 47q0 113 -57.5 173.5t-169.5 60.5q-106 0 -183 -76t-94 -213l-129 -1047q-4 -20 -22 -20h-66q-20 0 -16 20z" />
<glyph unicode="&#xe0;" horiz-adv-x="948" d="M127 295q0 76 18 219q18 166 39 242q35 137 127 215t221 78q162 0 220 -134q4 -4 7 -3t3 8l12 92q5 20 23 20h65q20 0 17 -20l-121 -992q-4 -20 -23 -20h-65q-18 0 -19 20l13 95q2 6 -1.5 6t-7.5 -4q-45 -63 -110.5 -98t-147.5 -35q-127 0 -198.5 84t-71.5 227zM233 285 q2 -92 54.5 -148.5t144.5 -56.5q90 0 153.5 56.5t86.5 148.5q21 77 41 231q16 135 16 189l-2 45q0 90 -49 146t-135 56q-90 0 -158 -55t-92 -145q-23 -76 -43 -236q-18 -147 -17 -231zM422 1450q0 14 18 14h64q14 0 22 -14l92 -226q2 -4 2 -10q0 -14 -18 -14h-49 q-12 0 -23 14l-106 225q-2 4 -2 11z" />
<glyph unicode="&#xe1;" horiz-adv-x="948" d="M127 295q0 76 18 219q18 166 39 242q35 137 127 215t221 78q162 0 220 -134q4 -4 7 -3t3 8l12 92q5 20 23 20h65q20 0 17 -20l-121 -992q-4 -20 -23 -20h-65q-18 0 -19 20l13 95q2 6 -1.5 6t-7.5 -4q-45 -63 -110.5 -98t-147.5 -35q-127 0 -198.5 84t-71.5 227zM233 285 q2 -92 54.5 -148.5t144.5 -56.5q90 0 153.5 56.5t86.5 148.5q21 77 41 231q16 135 16 189l-2 45q0 90 -49 146t-135 56q-90 0 -158 -55t-92 -145q-23 -76 -43 -236q-18 -147 -17 -231zM512.5 1207q-3.5 7 5.5 17l147 226q10 14 27 14h63q12 0 15.5 -7t-5.5 -18l-161 -225 q-14 -14 -27 -14h-49q-12 0 -15.5 7z" />
<glyph unicode="&#xe2;" horiz-adv-x="948" d="M127 295q0 76 18 219q18 166 39 242q35 137 127 215t221 78q162 0 220 -134q4 -4 7 -3t3 8l12 92q5 20 23 20h65q20 0 17 -20l-121 -992q-4 -20 -23 -20h-65q-18 0 -19 20l13 95q2 6 -1.5 6t-7.5 -4q-45 -63 -110.5 -98t-147.5 -35q-127 0 -198.5 84t-71.5 227zM233 285 q2 -92 54.5 -148.5t144.5 -56.5q90 0 153.5 56.5t86.5 148.5q21 77 41 231q16 135 16 189l-2 45q0 90 -49 146t-135 56q-90 0 -158 -55t-92 -145q-23 -76 -43 -236q-18 -147 -17 -231zM368 1191.5q-3 8.5 7 16.5l172 215q10 12 27 12h74q14 0 22 -12l123 -215q4 -4 4 -10 q0 -14 -18 -15h-56q-18 0 -22 13l-90 170q-2 4 -6 4t-6 -4l-134 -170q-10 -12 -26 -13h-56q-12 0 -15 8.5z" />
<glyph unicode="&#xe3;" horiz-adv-x="948" d="M127 295q0 76 18 219q18 166 39 242q35 137 127 215t221 78q162 0 220 -134q4 -4 7 -3t3 8l12 92q5 20 23 20h65q20 0 17 -20l-121 -992q-4 -20 -23 -20h-65q-18 0 -19 20l13 95q2 6 -1.5 6t-7.5 -4q-45 -63 -110.5 -98t-147.5 -35q-127 0 -198.5 84t-71.5 227zM233 285 q2 -92 54.5 -148.5t144.5 -56.5q90 0 153.5 56.5t86.5 148.5q21 77 41 231q16 135 16 189l-2 45q0 90 -49 146t-135 56q-90 0 -158 -55t-92 -145q-23 -76 -43 -236q-18 -147 -17 -231zM360 1308q0 6 7 8q63 94 157 95q31 0 53.5 -12.5t55.5 -34.5q6 -4 24.5 -17.5t34 -20.5 t31.5 -7q29 0 52.5 13t49.5 48q14 20 29 8l23 -16q8 -8 8 -15q0 -10 -13 -26q-35 -47 -78.5 -69.5t-82.5 -22.5q-31 0 -54.5 12t-52.5 35q-27 23 -44 33t-42 10q-31 0 -53.5 -11.5t-48.5 -44.5q-16 -18 -29 -6l-22 19q-12 12 -5 22z" />
<glyph unicode="&#xe4;" horiz-adv-x="948" d="M127 295q0 76 18 219q18 166 39 242q35 137 127 215t221 78q162 0 220 -134q4 -4 7 -3t3 8l12 92q5 20 23 20h65q20 0 17 -20l-121 -992q-4 -20 -23 -20h-65q-18 0 -19 20l13 95q2 6 -1.5 6t-7.5 -4q-45 -63 -110.5 -98t-147.5 -35q-127 0 -198.5 84t-71.5 227zM233 285 q2 -92 54.5 -148.5t144.5 -56.5q90 0 153.5 56.5t86.5 148.5q21 77 41 231q16 135 16 189l-2 45q0 90 -49 146t-135 56q-90 0 -158 -55t-92 -145q-23 -76 -43 -236q-18 -147 -17 -231zM383 1325q0 39 25.5 65.5t62.5 26.5q31 0 48 -18.5t17 -49.5q0 -41 -24.5 -68.5 t-59.5 -27.5q-33 0 -51 19.5t-18 52.5zM665 1325q0 39 25.5 65.5t62.5 26.5q29 0 48.5 -19.5t19.5 -48.5q0 -41 -25.5 -68.5t-62.5 -27.5q-31 0 -49.5 19.5t-18.5 52.5z" />
<glyph unicode="&#xe5;" horiz-adv-x="948" d="M127 295q0 76 18 219q18 166 39 242q35 137 127 215t221 78q162 0 220 -134q4 -4 7 -3t3 8l12 92q5 20 23 20h65q20 0 17 -20l-121 -992q-4 -20 -23 -20h-65q-18 0 -19 20l13 95q2 6 -1.5 6t-7.5 -4q-45 -63 -110.5 -98t-147.5 -35q-127 0 -198.5 84t-71.5 227zM233 285 q2 -92 54.5 -148.5t144.5 -56.5q90 0 153.5 56.5t86.5 148.5q21 77 41 231q16 135 16 189l-2 45q0 90 -49 146t-135 56q-90 0 -158 -55t-92 -145q-23 -76 -43 -236q-18 -147 -17 -231zM406 1372q0 94 68.5 161.5t160.5 67.5q76 0 125 -50t49 -128q0 -61 -31.5 -115.5 t-83 -86t-110.5 -31.5q-76 0 -127 52t-51 130zM473 1380q0 -53 34 -89t85 -36q61 0 106.5 47t45.5 115q0 53 -33 87t-84 34q-59 0 -106.5 -46t-47.5 -112z" />
<glyph unicode="&#xe6;" horiz-adv-x="1464" d="M82 217q0 14 4 51q18 158 125.5 236t282.5 78h200q4 0 7.5 2t3.5 6l12 110q4 37 4 52q0 92 -48 146t-147 54q-86 0 -151.5 -44t-85.5 -115q-6 -20 -25 -19l-65 6q-8 2 -12.5 8.5t-2.5 14.5q29 111 127.5 178.5t227.5 67.5q102 0 165.5 -44t88.5 -124q4 -10 10 0 q45 74 125 121t174 47q131 0 212 -81t81 -212q-2 -84 -23 -246q-4 -20 -22 -21h-543q-8 0 -8 -8l-11 -82q-2 -23 -10 -92l-2 -28q0 -90 58.5 -141.5t154.5 -51.5q82 0 145.5 43t98.5 117q6 20 24 14l54 -14q20 -6 12 -25q-41 -106 -134 -171.5t-216 -65.5q-102 0 -174 47 t-94 125q-4 10 -9 2q-43 -82 -138 -128t-206 -46q-116 0 -193 54t-77 179zM193 242q0 -82 51 -125t135 -43q104 0 190 59.5t101 171.5l20 174q0 8 -6 8h-192q-135 0 -217 -61t-82 -184zM811 590q0 -8 8 -8h451q8 0 8 8l6 67q6 49 6 88q0 92 -55 149.5t-148 57.5 q-94 0 -163.5 -60.5t-89.5 -156.5q-6 -37 -23 -145z" />
<glyph unicode="&#xe7;" horiz-adv-x="903" d="M131 276q-2 100 16 242q12 106 43 240q31 129 131.5 210t235.5 81t218 -76t85 -189l2 -36q0 -20 -20 -23l-66 -4q-18 0 -18 18v11v8q0 10 -2 16q-4 74 -61.5 126t-147.5 52q-96 0 -166 -60.5t-92 -156.5q-25 -113 -37 -219q-16 -147 -16 -223q0 -96 54 -154.5t148 -58.5 q96 0 168 56.5t90 135.5l2 13q6 20 25 18l65 -4q8 0 12.5 -5t2.5 -13v-9l-4 -16l-4 -8q-25 -104 -114 -176t-210 -84q-10 -4 -4 -11q72 -80 72 -165q0 -37 -13 -70q-20 -63 -66 -92t-104 -29q-37 0 -63 8q-16 2 -12 25l10 27q6 20 24 14q20 -4 33 -4q82 0 105 80q6 20 6 45 q0 82 -82 168q0 4 -8 4q-111 16 -174.5 94t-63.5 194z" />
<glyph unicode="&#xe8;" horiz-adv-x="923" d="M131 266q-2 92 19 252q16 152 36 236q31 131 131.5 213t235.5 82q143 0 223 -83t80 -221q0 -49 -16 -188q-4 -18 -9 -55q0 -8 -6 -14.5t-14 -6.5h-555q-8 0 -8 -8q-16 -115 -17 -180q0 -96 56.5 -154.5t154.5 -58.5q84 0 149.5 44t98.5 118q8 16 27 14l53 -10 q8 -2 11 -9.5t-1 -15.5q-43 -111 -136 -174t-216 -63q-135 0 -214 76.5t-83 205.5zM260 580q0 -8 6 -9h461q8 0 10 9q12 115 13 159q0 94 -55.5 153.5t-151.5 59.5q-97 0 -165.5 -59t-90.5 -156zM416 1450q0 14 18 14h64q14 0 22 -14l92 -226q2 -4 2 -10q0 -14 -18 -14h-49 q-12 0 -23 14l-106 225q-2 4 -2 11z" />
<glyph unicode="&#xe9;" horiz-adv-x="923" d="M131 266q-2 92 19 252q16 152 36 236q31 131 131.5 213t235.5 82q143 0 223 -83t80 -221q0 -49 -16 -188q-4 -18 -9 -55q0 -8 -6 -14.5t-14 -6.5h-555q-8 0 -8 -8q-16 -115 -17 -180q0 -96 56.5 -154.5t154.5 -58.5q84 0 149.5 44t98.5 118q8 16 27 14l53 -10 q8 -2 11 -9.5t-1 -15.5q-43 -111 -136 -174t-216 -63q-135 0 -214 76.5t-83 205.5zM260 580q0 -8 6 -9h461q8 0 10 9q12 115 13 159q0 94 -55.5 153.5t-151.5 59.5q-97 0 -165.5 -59t-90.5 -156zM506.5 1207q-3.5 7 5.5 17l147 226q10 14 27 14h63q12 0 15.5 -7t-5.5 -18 l-161 -225q-14 -14 -27 -14h-49q-12 0 -15.5 7z" />
<glyph unicode="&#xea;" horiz-adv-x="923" d="M131 266q-2 92 19 252q16 152 36 236q31 131 131.5 213t235.5 82q143 0 223 -83t80 -221q0 -49 -16 -188q-4 -18 -9 -55q0 -8 -6 -14.5t-14 -6.5h-555q-8 0 -8 -8q-16 -115 -17 -180q0 -96 56.5 -154.5t154.5 -58.5q84 0 149.5 44t98.5 118q8 16 27 14l53 -10 q8 -2 11 -9.5t-1 -15.5q-43 -111 -136 -174t-216 -63q-135 0 -214 76.5t-83 205.5zM260 580q0 -8 6 -9h461q8 0 10 9q12 115 13 159q0 94 -55.5 153.5t-151.5 59.5q-97 0 -165.5 -59t-90.5 -156zM361 1191.5q-3 8.5 7 16.5l172 215q10 12 27 12h74q14 0 22 -12l123 -215 q4 -4 4 -10q0 -14 -18 -15h-56q-18 0 -22 13l-90 170q-2 4 -6 4t-6 -4l-134 -170q-10 -12 -26 -13h-56q-12 0 -15 8.5z" />
<glyph unicode="&#xeb;" horiz-adv-x="923" d="M131 266q-2 92 19 252q16 152 36 236q31 131 131.5 213t235.5 82q143 0 223 -83t80 -221q0 -49 -16 -188q-4 -18 -9 -55q0 -8 -6 -14.5t-14 -6.5h-555q-8 0 -8 -8q-16 -115 -17 -180q0 -96 56.5 -154.5t154.5 -58.5q84 0 149.5 44t98.5 118q8 16 27 14l53 -10 q8 -2 11 -9.5t-1 -15.5q-43 -111 -136 -174t-216 -63q-135 0 -214 76.5t-83 205.5zM260 580q0 -8 6 -9h461q8 0 10 9q12 115 13 159q0 94 -55.5 153.5t-151.5 59.5q-97 0 -165.5 -59t-90.5 -156zM377 1325q0 39 25.5 65.5t62.5 26.5q31 0 48 -18.5t17 -49.5 q0 -41 -24.5 -68.5t-59.5 -27.5q-33 0 -51 19.5t-18 52.5zM659 1325q0 39 25.5 65.5t62.5 26.5q29 0 48.5 -19.5t19.5 -48.5q0 -41 -25.5 -68.5t-62.5 -27.5q-31 0 -49.5 19.5t-18.5 52.5z" />
<glyph unicode="&#xec;" horiz-adv-x="393" d="M104 20l121 992q4 20 23 20h65q18 0 19 -20l-123 -992q-4 -20 -23 -20h-65q-21 0 -17 20zM136 1452q0 14 18 14h64q14 0 22 -14l92 -226q2 -4 2 -10q0 -14 -18 -14h-49q-12 0 -23 14l-106 225q-2 4 -2 11z" />
<glyph unicode="&#xed;" horiz-adv-x="393" d="M104 20l121 992q4 20 23 20h65q18 0 19 -20l-123 -992q-4 -20 -23 -20h-65q-21 0 -17 20zM226.5 1209q-3.5 7 5.5 17l147 226q10 14 27 14h63q12 0 15.5 -7t-5.5 -18l-161 -225q-14 -14 -27 -14h-49q-12 0 -15.5 7z" />
<glyph unicode="&#xee;" horiz-adv-x="393" d="M81 1193.5q-3 8.5 7 16.5l172 215q10 12 27 12h74q14 0 22 -12l123 -215q4 -4 4 -10q0 -14 -18 -15h-56q-18 0 -22 13l-90 170q-2 4 -6 4t-6 -4l-134 -170q-10 -12 -26 -13h-56q-12 0 -15 8.5zM104 20l121 992q4 20 23 20h65q18 0 19 -20l-123 -992q-4 -20 -23 -20h-65 q-21 0 -17 20z" />
<glyph unicode="&#xef;" horiz-adv-x="393" d="M97 1327q0 39 25.5 65.5t62.5 26.5q31 0 48 -18.5t17 -49.5q0 -41 -24.5 -68.5t-59.5 -27.5q-33 0 -51 19.5t-18 52.5zM104 20l121 992q4 20 23 20h65q18 0 19 -20l-123 -992q-4 -20 -23 -20h-65q-21 0 -17 20zM379 1327q0 39 25.5 65.5t62.5 26.5q29 0 48.5 -19.5 t19.5 -48.5q0 -41 -25.5 -68.5t-62.5 -27.5q-31 0 -49.5 19.5t-18.5 52.5z" />
<glyph unicode="&#xf0;" horiz-adv-x="944" d="M123 272q0 59 9 138t11 96q20 164 37 233q29 121 118 199t210 80q72 4 132 -16.5t93 -63.5q10 -6 6 4q-12 133 -86 252q-4 8 -10 4l-164 -51l-8 -2q-12 0 -16 16l-2 27v6q0 12 14 18l135 43q12 4 6 11q-51 70 -116 143q-6 6 -7 12q0 12 19 13h67q14 0 23 -11 q53 -59 108 -133q4 -4 11 -2l157 49l11 2q10 0 14 -16l4 -27v-4q0 -14 -16 -20l-129 -41q-8 -4 -9 -6q102 -182 103 -414q0 -25 -4 -86q-5 -53 -23 -219l-6 -43q-14 -125 -31 -191q-33 -129 -132 -208.5t-234 -79.5q-137 0 -216 78.5t-79 209.5zM229 283q0 -92 53.5 -149.5 t145.5 -57.5q94 0 164 60.5t92 156.5q11 51 29 211l8 69q14 109 14 154q0 92 -54 148.5t-146 56.5q-96 0 -165 -59.5t-89 -155.5q-12 -53 -33 -213q-18 -170 -19 -221z" />
<glyph unicode="&#xf1;" horiz-adv-x="950" d="M117 20l121 992q4 20 22 20h66q20 0 16 -20l-10 -88q0 -12 8 -4q47 63 114.5 95t147.5 32q123 0 190.5 -73t67.5 -200q0 -20 -4 -61l-84 -693q-4 -20 -22 -20h-66q-10 0 -15 6t-3 14l84 676q2 16 2 45q0 96 -51.5 152.5t-139.5 56.5q-94 0 -161.5 -59.5t-90.5 -159.5 l-88 -711q-4 -20 -22 -20h-66q-20 0 -16 20zM376 1286q-1 8 5 17q61 98 151 98q29 0 49.5 -11.5t51.5 -35.5q29 -23 46 -34t38 -11q25 0 47 13t47 46q6 10 14.5 11t14.5 -3l18 -14q14 -12 4 -29q-35 -53 -78 -78.5t-79 -25.5q-29 0 -50.5 12t-48.5 35q-25 23 -41 33t-39 10 q-26 0 -47.5 -11.5t-46.5 -43.5q-16 -18 -29 -7l-20 17q-6 4 -7 12z" />
<glyph unicode="&#xf2;" d="M129 276q0 109 18 240q14 133 41 240q33 131 133.5 212t237.5 81t218 -80t81 -211q0 -84 -18 -242q-18 -152 -41 -240q-33 -133 -133.5 -212.5t-235.5 -79.5q-139 0 -219 79.5t-82 212.5zM233 293q0 -96 56.5 -154.5t150.5 -58.5q95 0 166.5 59.5t93.5 157.5 q14 66 33 219q2 20 11.5 96t9.5 127q0 96 -56.5 154.5t-150.5 58.5t-166 -59t-94 -158q-14 -72 -33 -219q-2 -20 -11.5 -96t-9.5 -127zM420 1450q0 14 18 14h64q14 0 22 -14l92 -226q2 -4 2 -10q0 -14 -18 -14h-49q-12 0 -23 14l-106 225q-2 4 -2 11z" />
<glyph unicode="&#xf3;" d="M129 276q0 109 18 240q14 133 41 240q33 131 133.5 212t237.5 81t218 -80t81 -211q0 -84 -18 -242q-18 -152 -41 -240q-33 -133 -133.5 -212.5t-235.5 -79.5q-139 0 -219 79.5t-82 212.5zM233 293q0 -96 56.5 -154.5t150.5 -58.5q95 0 166.5 59.5t93.5 157.5 q14 66 33 219q2 20 11.5 96t9.5 127q0 96 -56.5 154.5t-150.5 58.5t-166 -59t-94 -158q-14 -72 -33 -219q-2 -20 -11.5 -96t-9.5 -127zM510.5 1207q-3.5 7 5.5 17l147 226q10 14 27 14h63q12 0 15.5 -7t-5.5 -18l-161 -225q-14 -14 -27 -14h-49q-12 0 -15.5 7z" />
<glyph unicode="&#xf4;" d="M129 276q0 109 18 240q14 133 41 240q33 131 133.5 212t237.5 81t218 -80t81 -211q0 -84 -18 -242q-18 -152 -41 -240q-33 -133 -133.5 -212.5t-235.5 -79.5q-139 0 -219 79.5t-82 212.5zM233 293q0 -96 56.5 -154.5t150.5 -58.5q95 0 166.5 59.5t93.5 157.5 q14 66 33 219q2 20 11.5 96t9.5 127q0 96 -56.5 154.5t-150.5 58.5t-166 -59t-94 -158q-14 -72 -33 -219q-2 -20 -11.5 -96t-9.5 -127zM365 1191.5q-3 8.5 7 16.5l172 215q10 12 27 12h74q14 0 22 -12l123 -215q4 -4 4 -10q0 -14 -18 -15h-56q-18 0 -22 13l-90 170 q-2 4 -6 4t-6 -4l-134 -170q-10 -12 -26 -13h-56q-12 0 -15 8.5z" />
<glyph unicode="&#xf5;" d="M129 276q0 109 18 240q14 133 41 240q33 131 133.5 212t237.5 81t218 -80t81 -211q0 -84 -18 -242q-18 -152 -41 -240q-33 -133 -133.5 -212.5t-235.5 -79.5q-139 0 -219 79.5t-82 212.5zM233 293q0 -96 56.5 -154.5t150.5 -58.5q95 0 166.5 59.5t93.5 157.5 q14 66 33 219q2 20 11.5 96t9.5 127q0 96 -56.5 154.5t-150.5 58.5t-166 -59t-94 -158q-14 -72 -33 -219q-2 -20 -11.5 -96t-9.5 -127zM358 1308q0 6 7 8q63 94 157 95q31 0 53.5 -12.5t55.5 -34.5q6 -4 24.5 -17.5t34 -20.5t31.5 -7q29 0 52.5 13t49.5 48q14 20 29 8 l23 -16q8 -8 8 -15q0 -10 -13 -26q-35 -47 -78.5 -69.5t-82.5 -22.5q-31 0 -54.5 12t-52.5 35q-27 23 -44 33t-42 10q-31 0 -53.5 -11.5t-48.5 -44.5q-16 -18 -29 -6l-22 19q-12 12 -5 22z" />
<glyph unicode="&#xf6;" d="M129 276q0 109 18 240q14 133 41 240q33 131 133.5 212t237.5 81t218 -80t81 -211q0 -84 -18 -242q-18 -152 -41 -240q-33 -133 -133.5 -212.5t-235.5 -79.5q-139 0 -219 79.5t-82 212.5zM233 293q0 -96 56.5 -154.5t150.5 -58.5q95 0 166.5 59.5t93.5 157.5 q14 66 33 219q2 20 11.5 96t9.5 127q0 96 -56.5 154.5t-150.5 58.5t-166 -59t-94 -158q-14 -72 -33 -219q-2 -20 -11.5 -96t-9.5 -127zM381 1325q0 39 25.5 65.5t62.5 26.5q31 0 48 -18.5t17 -49.5q0 -41 -24.5 -68.5t-59.5 -27.5q-33 0 -51 19.5t-18 52.5zM663 1325 q0 39 25.5 65.5t62.5 26.5q29 0 48.5 -19.5t19.5 -48.5q0 -41 -25.5 -68.5t-62.5 -27.5q-31 0 -49.5 19.5t-18.5 52.5z" />
<glyph unicode="&#xf7;" d="M115 647l6 51q4 20 22 21h750q20 0 16 -21l-6 -51q0 -8 -6 -14t-16 -6h-748q-18 0 -18 20zM379 360q0 45 33.5 78t74.5 33q35 0 60.5 -24.5t25.5 -59.5q0 -43 -33.5 -78t-76.5 -35q-37 0 -60.5 25t-23.5 61zM455 981q0 45 33.5 78t74.5 33q35 0 60.5 -25t25.5 -61 q0 -43 -33.5 -76t-76.5 -33q-37 0 -60.5 23.5t-23.5 60.5z" />
<glyph unicode="&#xf8;" horiz-adv-x="954" d="M102 4l70 109q6 6 2 12q-35 66 -35 151q0 109 19 240q14 133 41 240q33 131 133 212t237 81q113 0 187 -56q6 -4 10 4l55 82q6 8 14.5 10.5t14.5 -2.5l39 -28q14 -12 2 -27l-66 -100q-2 -4 -2 -10q45 -74 45 -164q0 -84 -18 -242q-18 -152 -41 -240 q-33 -133 -133.5 -212.5t-237.5 -79.5q-119 0 -198 63q-6 4 -11 -4l-57 -86q-6 -8 -14 -10t-15 2l-39 28q-14 12 -2 27zM244 281q0 -12 4 -41q4 -10 10 0l438 653q4 6 0 10q-55 49 -141 49q-94 0 -165 -60.5t-93 -156.5q-12 -51 -33 -219q-2 -18 -11 -93t-9 -126v-16z M301 137q57 -57 150 -57q94 0 165.5 59.5t94.5 157.5q14 65 32 219t21 219q0 37 -10 74q-2 4 -5.5 5t-5.5 -3l-442 -664q-6 -6 0 -10z" />
<glyph unicode="&#xf9;" horiz-adv-x="946" d="M133 246q0 18 4 59l86 707q4 20 23 20h65q18 0 19 -20l-84 -680q-4 -37 -4 -51q0 -94 50 -146.5t140 -52.5q102 0 174 69.5t86 188.5l82 672q5 20 23 20h65q20 0 17 -20l-121 -992q-4 -20 -23 -20h-65q-18 0 -19 20l13 89q0 6 -3.5 6t-7.5 -4q-88 -125 -256 -125 q-121 0 -192.5 67.5t-71.5 192.5zM420 1434q0 14 18 14h64q14 0 22 -14l92 -226q2 -4 2 -10q0 -14 -18 -14h-49q-12 0 -23 14l-106 225q-2 4 -2 11z" />
<glyph unicode="&#xfa;" horiz-adv-x="946" d="M133 246q0 18 4 59l86 707q4 20 23 20h65q18 0 19 -20l-84 -680q-4 -37 -4 -51q0 -94 50 -146.5t140 -52.5q102 0 174 69.5t86 188.5l82 672q5 20 23 20h65q20 0 17 -20l-121 -992q-4 -20 -23 -20h-65q-18 0 -19 20l13 89q0 6 -3.5 6t-7.5 -4q-88 -125 -256 -125 q-121 0 -192.5 67.5t-71.5 192.5zM510.5 1191q-3.5 7 5.5 17l147 226q10 14 27 14h63q12 0 15.5 -7t-5.5 -18l-161 -225q-14 -14 -27 -14h-49q-12 0 -15.5 7z" />
<glyph unicode="&#xfb;" horiz-adv-x="946" d="M133 246q0 18 4 59l86 707q4 20 23 20h65q18 0 19 -20l-84 -680q-4 -37 -4 -51q0 -94 50 -146.5t140 -52.5q102 0 174 69.5t86 188.5l82 672q5 20 23 20h65q20 0 17 -20l-121 -992q-4 -20 -23 -20h-65q-18 0 -19 20l13 89q0 6 -3.5 6t-7.5 -4q-88 -125 -256 -125 q-121 0 -192.5 67.5t-71.5 192.5zM365 1175.5q-3 8.5 7 16.5l172 215q10 12 27 12h74q14 0 22 -12l123 -215q4 -4 4 -10q0 -14 -18 -15h-56q-18 0 -22 13l-90 170q-2 4 -6 4t-6 -4l-134 -170q-10 -12 -26 -13h-56q-12 0 -15 8.5z" />
<glyph unicode="&#xfc;" horiz-adv-x="946" d="M133 246q0 18 4 59l86 707q4 20 23 20h65q18 0 19 -20l-84 -680q-4 -37 -4 -51q0 -94 50 -146.5t140 -52.5q102 0 174 69.5t86 188.5l82 672q5 20 23 20h65q20 0 17 -20l-121 -992q-4 -20 -23 -20h-65q-18 0 -19 20l13 89q0 6 -3.5 6t-7.5 -4q-88 -125 -256 -125 q-121 0 -192.5 67.5t-71.5 192.5zM381 1309q0 39 25.5 65.5t62.5 26.5q31 0 48 -18.5t17 -49.5q0 -41 -24.5 -68.5t-59.5 -27.5q-33 0 -51 19.5t-18 52.5zM663 1309q0 39 25.5 65.5t62.5 26.5q29 0 48.5 -19.5t19.5 -48.5q0 -41 -25.5 -68.5t-62.5 -27.5q-31 0 -49.5 19.5 t-18.5 52.5z" />
<glyph unicode="&#xfd;" horiz-adv-x="796" d="M4 -389l6 53q4 20 15 21h12q68 2 108.5 25.5t74.5 86t85 197.5q2 4 2 12l-176 1004v4q0 8 6 13t15 5h69q16 0 21 -16l133 -856q2 -4 6 -4t6 4l340 856q6 16 23 16h67q10 0 15.5 -6t1.5 -16l-465 -1114q-55 -133 -98.5 -197t-97.5 -86.5t-146 -22.5h-13q-4 0 -8 6.5 t-2 14.5zM439.5 1193q-3.5 7 5.5 17l147 226q10 14 27 14h63q12 0 15.5 -7t-5.5 -18l-161 -225q-14 -14 -27 -14h-49q-12 0 -15.5 7z" />
<glyph unicode="&#xfe;" d="M59 -389l222 1802q4 20 22 21h66q18 0 18 -21l-61 -487q0 -6 3 -6t7 4q90 125 248 125q127 0 199.5 -78t76.5 -215q0 -66 -20 -242q-18 -156 -41 -242q-37 -135 -127 -211.5t-215 -76.5q-160 0 -221 125q-2 4 -5.5 4t-5.5 -7l-61 -495q0 -8 -6 -14.5t-15 -6.5h-65 q-10 0 -15.5 6.5t-3.5 14.5zM256 285q0 -92 49 -148.5t139 -56.5q92 0 160 56.5t90 148.5q13 43 22 100t19 131q18 137 15 236q-4 90 -56.5 145t-142.5 55q-88 0 -150.5 -56t-85.5 -146q-16 -51 -20 -86l-37 -299q-4 -55 -2 -80z" />
<glyph unicode="&#xff;" horiz-adv-x="796" d="M4 -389l6 53q4 20 15 21h12q68 2 108.5 25.5t74.5 86t85 197.5q2 4 2 12l-176 1004v4q0 8 6 13t15 5h69q16 0 21 -16l133 -856q2 -4 6 -4t6 4l340 856q6 16 23 16h67q10 0 15.5 -6t1.5 -16l-465 -1114q-55 -133 -98.5 -197t-97.5 -86.5t-146 -22.5h-13q-4 0 -8 6.5 t-2 14.5zM310 1311q0 39 25.5 65.5t62.5 26.5q31 0 48 -18.5t17 -49.5q0 -41 -24.5 -68.5t-59.5 -27.5q-33 0 -51 19.5t-18 52.5zM592 1311q0 39 25.5 65.5t62.5 26.5q29 0 48.5 -19.5t19.5 -48.5q0 -41 -25.5 -68.5t-62.5 -27.5q-31 0 -49.5 19.5t-18.5 52.5z" />
<glyph unicode="&#x152;" horiz-adv-x="1593" d="M141 309q0 20 4 62l84 690q14 113 70.5 201t144.5 138t191 50q90 0 158.5 -36t109.5 -101q6 -8 10 4l11 96q4 20 22 21h656q10 0 15 -6.5t3 -14.5l-6 -55q-2 -8 -8.5 -14.5t-14.5 -6.5h-563q-8 0 -8 -8l-70 -555q0 -8 8 -8h369q10 0 15.5 -6t3.5 -15l-9 -55q0 -8 -6 -14 t-14 -6h-371q-8 0 -8 -8l-70 -558q0 -8 9 -8h561q18 0 18 -20l-8 -56q0 -8 -6 -14t-17 -6h-655q-8 0 -13 6t-3 14l12 97q0 4 -3 5t-7 -3q-55 -66 -133 -100.5t-168 -34.5q-141 0 -227.5 89t-86.5 236zM248 322q0 -109 64.5 -175.5t172.5 -66.5q123 0 209 81t103 206l86 698 q2 14 2 41q0 111 -65.5 179.5t-178.5 68.5q-121 0 -205 -82t-100 -207l-86 -698q-2 -14 -2 -45z" />
<glyph unicode="&#x153;" horiz-adv-x="1492" d="M127 276q-2 74 20 240q16 143 39 240q31 131 130.5 212t234.5 81q94 0 162.5 -46.5t101.5 -123.5q6 -10 10 0q53 78 131 124t172 46q133 0 214 -80t81 -209q0 -72 -22 -252q-4 -20 -23 -21h-542q-8 0 -11 -8l-4 -41q-12 -119 -12 -151q0 -92 56.5 -149.5t152.5 -57.5 q80 0 144.5 44t97.5 118q8 18 24 14l53 -12q18 -4 13 -25q-43 -109 -135.5 -172t-215.5 -63q-96 0 -162.5 45t-101.5 125q-4 10 -10 0q-53 -78 -132 -124t-173 -46q-135 0 -214 80.5t-79 211.5zM231 297q-2 -98 52.5 -157.5t146.5 -59.5q96 0 166 60.5t90 156.5 q15 65 33 219l6 62q14 119 14 167q0 92 -54 149.5t-146 57.5t-162 -60.5t-92 -156.5q-20 -119 -33 -219q-18 -158 -21 -219zM838 575q0 -8 6 -8h452q8 0 9 8q4 29 4 43q8 61 12 117q0 96 -55.5 156.5t-149.5 60.5t-162.5 -60.5t-91.5 -156.5q-10 -57 -24 -160z" />
<glyph unicode="&#x178;" horiz-adv-x="960" d="M213 1417q0 16 18 17h70q18 0 21 -15l208 -637q2 -4 6.5 -4t6.5 4l362 637q8 14 25 15h69q10 0 13.5 -7.5t-2.5 -17.5l-435 -745q-2 -2 -2 -11l-77 -633q-4 -20 -23 -20h-65q-19 0 -19 20l78 633q0 2 1 5.5t-1 5.5l-252 745zM394 1710q0 39 25.5 65.5t62.5 26.5 q31 0 48 -18.5t17 -49.5q0 -41 -24.5 -68.5t-59.5 -27.5q-33 0 -51 19.5t-18 52.5zM676 1710q0 39 25.5 65.5t62.5 26.5q29 0 48.5 -19.5t19.5 -48.5q0 -41 -25.5 -68.5t-62.5 -27.5q-31 0 -49.5 19.5t-18.5 52.5z" />
<glyph unicode="&#x2c6;" horiz-adv-x="454" d="M118 1175.5q-3 8.5 7 16.5l172 215q10 12 27 12h74q14 0 22 -12l123 -215q4 -4 4 -10q0 -14 -18 -15h-56q-18 0 -22 13l-90 170q-2 4 -6 4t-6 -4l-134 -170q-10 -12 -26 -13h-56q-12 0 -15 8.5z" />
<glyph unicode="&#x2dc;" horiz-adv-x="643" d="M184 1292q0 6 7 8q63 94 157 95q31 0 53.5 -12.5t55.5 -34.5q6 -4 24.5 -17.5t34 -20.5t31.5 -7q29 0 52.5 13t49.5 48q14 20 29 8l23 -16q8 -8 8 -15q0 -10 -13 -26q-35 -47 -78.5 -69.5t-82.5 -22.5q-31 0 -54.5 12t-52.5 35q-27 23 -44 33t-42 10q-31 0 -53.5 -11.5 t-48.5 -44.5q-16 -18 -29 -6l-22 19q-12 12 -5 22z" />
<glyph unicode="&#x2000;" horiz-adv-x="993" />
<glyph unicode="&#x2001;" horiz-adv-x="1986" />
<glyph unicode="&#x2002;" horiz-adv-x="993" />
<glyph unicode="&#x2003;" horiz-adv-x="1986" />
<glyph unicode="&#x2004;" horiz-adv-x="662" />
<glyph unicode="&#x2005;" horiz-adv-x="496" />
<glyph unicode="&#x2006;" horiz-adv-x="331" />
<glyph unicode="&#x2007;" horiz-adv-x="331" />
<glyph unicode="&#x2008;" horiz-adv-x="248" />
<glyph unicode="&#x2009;" horiz-adv-x="397" />
<glyph unicode="&#x200a;" horiz-adv-x="110" />
<glyph unicode="&#x2010;" horiz-adv-x="696" d="M111 616l8 56q0 8 6 14t16 6h504q18 0 19 -20l-9 -56q-4 -20 -22 -20h-504q-18 0 -18 20z" />
<glyph unicode="&#x2011;" horiz-adv-x="696" d="M111 616l8 56q0 8 6 14t16 6h504q18 0 19 -20l-9 -56q-4 -20 -22 -20h-504q-18 0 -18 20z" />
<glyph unicode="&#x2012;" horiz-adv-x="696" d="M111 616l8 56q0 8 6 14t16 6h504q18 0 19 -20l-9 -56q-4 -20 -22 -20h-504q-18 0 -18 20z" />
<glyph unicode="&#x2013;" horiz-adv-x="808" d="M102 551l9 55q4 20 22 21h617q10 0 15 -6.5t3 -14.5l-6 -55q-2 -8 -8 -14.5t-15 -6.5h-618q-19 1 -19 21z" />
<glyph unicode="&#x2014;" horiz-adv-x="1275" d="M102 551l9 55q4 20 22 21h1084q10 0 15 -6.5t3 -14.5l-6 -55q-2 -8 -8.5 -14.5t-14.5 -6.5h-1085q-19 1 -19 21z" />
<glyph unicode="&#x2018;" horiz-adv-x="229" d="M96 1049l174 368q8 16 27 17h43q10 0 15 -6.5t1 -16.5l-153 -369q-6 -16 -23 -16h-69q-21 0 -15 23z" />
<glyph unicode="&#x2019;" horiz-adv-x="229" d="M94 1049l154 368q6 16 24 17h68q24 0 14 -23l-174 -369q-8 -16 -26 -16h-43q-23 0 -17 23z" />
<glyph unicode="&#x201a;" horiz-adv-x="1191" d="M57 -129l131 426q6 18 25 18h57q10 0 14.5 -6t0.5 -16l-148 -426q-8 -18 -24 -19h-39q-11 0 -16 6.5t-1 16.5z" />
<glyph unicode="&#x201c;" horiz-adv-x="462" d="M96 1049l176 368q8 16 27 17h43q10 0 15 -6.5t1 -16.5l-155 -369q-6 -16 -25 -16h-67q-21 0 -15 23zM330 1049l176 368q8 16 26 17h43q25 0 15 -23l-154 -369q-10 -16 -26 -16h-68q-22 0 -12 23z" />
<glyph unicode="&#x201d;" horiz-adv-x="462" d="M94 1049l156 368q2 8 10 12.5t14 4.5h68q24 0 14 -23l-176 -369q-8 -16 -26 -16h-43q-23 0 -17 23zM328 1049l153 368q10 16 27 17h67q23 0 13 -23l-176 -369q-6 -16 -25 -16h-45q-25 0 -14 23z" />
<glyph unicode="&#x201e;" horiz-adv-x="452" d="M94 -125l156 368q2 8 10 12.5t14 4.5h68q24 0 14 -23l-176 -369q-8 -16 -26 -16h-43q-23 0 -17 23zM328 -125l153 368q10 16 27 17h67q23 0 13 -23l-176 -369q-6 -16 -25 -16h-45q-25 0 -14 23z" />
<glyph unicode="&#x2022;" horiz-adv-x="593" d="M100 516q0 68 36 126t94.5 93t121.5 35q84 0 139.5 -56.5t55.5 -140.5q0 -68 -35 -128t-93.5 -96t-121.5 -36q-84 0 -140.5 58.5t-56.5 144.5z" />
<glyph unicode="&#x2026;" horiz-adv-x="1380" d="M102 100q0 49 36 86t79 37q37 0 62.5 -27.5t25.5 -66.5q0 -49 -34.5 -85t-80.5 -36q-38 0 -63 26.5t-25 65.5zM577 100q0 49 36 86t79 37q37 0 62.5 -27.5t25.5 -66.5q0 -49 -34.5 -85t-80.5 -36q-38 0 -63 26.5t-25 65.5zM1046 100q0 49 36 86t79 37q37 0 62.5 -27.5 t25.5 -66.5q0 -49 -34.5 -85t-80.5 -36q-38 0 -63 26.5t-25 65.5z" />
<glyph unicode="&#x202f;" horiz-adv-x="397" />
<glyph unicode="&#x2039;" horiz-adv-x="679" d="M166 573q0 10 6 17l287 330q8 12 26 12h60q12 0 15 -7t-5 -18l-287 -325q-4 -8 -2 -13l207 -325q4 -9 4 -11q0 -6 -5 -10t-13 -4h-60q-20 0 -24 12l-207 330q-2 4 -2 12z" />
<glyph unicode="&#x203a;" horiz-adv-x="727" d="M181 226q-3 7 5 18l287 325q4 8 2 13l-207 325q-4 8 -4 11q0 6 5 10t14 4h59q20 0 25 -12l206 -330q2 -2 2 -10t-6 -19l-286 -330q-8 -12 -27 -12h-59q-13 0 -16 7z" />
<glyph unicode="&#x205f;" horiz-adv-x="496" />
<glyph unicode="&#x20ac;" horiz-adv-x="1110" d="M170 582l4 28q4 20 23 21h125q8 0 8 8l18 147q2 2 0 5.5t-6 3.5h-125q-18 0 -18 20l4 31q4 20 22 20h125q6 0 10 8l25 207q20 168 126.5 268.5t264.5 100.5q145 0 228 -85t81 -230q0 -18 -20 -23l-70 -10h-4q-14 0 -14 18q4 109 -53.5 171.5t-159.5 62.5 q-109 0 -183.5 -73t-88.5 -194l-27 -213q0 -8 6 -8h428q10 0 13 -7t-3 -17l-14 -31q-8 -16 -25 -16h-407q-8 0 -8 -9l-19 -147q0 -8 6 -8h361q10 0 14 -7.5t-2 -17.5l-14 -28q-8 -16 -25 -17h-342q-8 0 -8 -8l-27 -205q-2 -14 -2 -43q0 -102 56.5 -163.5t154.5 -61.5 q101 0 173.5 62.5t95.5 166.5q6 18 24 17l64 -11q20 -4 14 -22q-35 -141 -137.5 -225t-245.5 -84q-141 0 -223 84t-82 227q0 18 4 59l24 199q2 2 0 5t-6 3h-125q-18 0 -18 21z" />
<glyph unicode="&#x2122;" horiz-adv-x="1155" d="M172 1389l4 24q0 8 6 14.5t17 6.5h395q8 0 13 -6.5t3 -14.5l-2 -24q-4 -20 -22 -21h-160q-8 0 -8 -8l-78 -625q0 -8 -6 -14t-17 -6h-30q-18 0 -19 20l78 625q0 8 -8 8h-148q-10 0 -15 6t-3 15zM657 735l84 678q4 20 23 21h37q14 0 20 -15l113 -256q2 -2 6 -2t6 2l174 256 q11 15 25 15h37q20 0 16 -21l-82 -678q-2 -8 -8 -14t-14 -6h-35q-20 0 -17 20l68 551q0 6 -3 8t-7 -4l-150 -223q-14 -14 -22 -14q-10 0 -21 14l-96 223q-2 6 -6 4t-6 -8l-68 -551q0 -8 -6 -14t-16 -6h-33q-18 0 -19 20z" />
<glyph unicode="&#x25fc;" horiz-adv-x="1034" d="M0 0v1034h1034v-1034h-1034z" />
</font>
</defs>
</svg>
