<?xml version="1.0" standalone="no"?>
<!DOCTYPE svg PUBLIC "-//W3C//DTD SVG 1.1//EN" "http://www.w3.org/Graphics/SVG/1.1/DTD/svg11.dtd" >
<svg xmlns="http://www.w3.org/2000/svg" xmlns:xlink="http://www.w3.org/1999/xlink" version="1.1">
<metadata></metadata>
<defs>
<font id="barlow_semi_condensedregular" horiz-adv-x="964" >
<font-face units-per-em="2048" ascent="1638" descent="-410" />
<missing-glyph horiz-adv-x="409" />
<glyph horiz-adv-x="0" />
<glyph unicode="&#xd;" horiz-adv-x="409" />
<glyph unicode=" "  horiz-adv-x="409" />
<glyph unicode="&#x09;" horiz-adv-x="409" />
<glyph unicode="&#xa0;" horiz-adv-x="409" />
<glyph unicode="!" horiz-adv-x="591" d="M172 129q0 49 36 85t83 36q49 0 85 -36t36 -85q0 -51 -35 -86t-86 -35t-85 35t-34 86zM223 1413q0 20 21 21h104q20 0 21 -21l-13 -926q0 -20 -20 -20h-80q-20 0 -20 20z" />
<glyph unicode="&#x22;" horiz-adv-x="509" d="M53 1401q0 20 21 20h102q20 0 21 -20l-17 -381q0 -20 -20 -21h-70q-20 1 -20 21zM311 1401q0 20 21 20h104q20 0 21 -20l-17 -381q0 -20 -20 -21h-72q-20 1 -20 21z" />
<glyph unicode="#" horiz-adv-x="1277" d="M131 430v86q0 20 21 21h143q10 0 10 8l47 325q0 8 -6 9h-125q-20 0 -20 20l2 88q0 20 20 21h144q10 0 10 8l53 350q2 18 21 18l104 -4q8 0 14 -6t4 -16l-51 -342q0 -8 6 -8h312q10 0 10 8l53 350q2 18 21 18l106 -4q8 0 14.5 -6t4.5 -16l-52 -342q0 -8 7 -8h122 q20 0 21 -21v-88q-1 -20 -21 -20h-141q-10 0 -10 -9l-49 -325q0 -8 6 -8h125q20 0 20 -21v-86q0 -20 -20 -20h-144q-10 0 -10 -9l-53 -350q-2 -18 -21 -18l-104 4q-8 0 -14 6t-4 16l49 342q0 8 -6 9h-312q-10 0 -10 -9l-53 -350q-2 -18 -21 -18l-104 4q-8 0 -14.5 6t-4.5 16 l52 342q0 8 -7 9h-124q-20 0 -21 20zM451 545q0 -8 6 -8h313q10 0 10 8l47 325q0 8 -6 9h-311q-10 0 -10 -9z" />
<glyph unicode="$" horiz-adv-x="995" d="M113 346v68q0 20 20 20h100q20 0 21 -20v-49q0 -115 68.5 -184.5t185.5 -69.5q115 0 179.5 65.5t64.5 171.5q0 66 -32 115t-85 88t-156 100l-59 37q-106 66 -168 117t-97.5 120.5t-35.5 168.5q0 152 82 244t229 110q8 0 8 8l-2 137q0 20 21 21h59q20 0 21 -21l-2 -137 q0 -8 8 -8q162 -14 253 -112.5t91 -256.5v-57q0 -20 -21 -21h-102q-20 0 -21 21v45q0 115 -67.5 185.5t-183.5 70.5q-106 0 -168 -59.5t-62 -165.5q0 -72 33 -120t84 -82t182 -110q123 -74 193.5 -133t106.5 -128.5t36 -164.5q0 -161 -91 -260.5t-255 -113.5q-8 0 -8 -9 l2 -124q0 -20 -21 -21h-61q-20 0 -21 21l2 127q0 8 -8 8q-150 20 -236.5 115.5t-86.5 242.5z" />
<glyph unicode="%" horiz-adv-x="1669" d="M170 1161q0 80 39 146.5t105.5 105.5t146.5 39q78 0 144.5 -39t105.5 -105.5t39 -146.5t-39 -146.5t-105.5 -105.5t-144.5 -39q-80 0 -146.5 39t-105.5 105.5t-39 146.5zM260 1161q0 -86 58.5 -145.5t142.5 -59.5q82 0 140 60.5t58 144.5q0 86 -57 145.5t-141 59.5 t-142.5 -59.5t-58.5 -145.5zM398 7q-5 7 1 18l762 1394q6 14 25 15h65q10 0 15.5 -7.5t-0.5 -17.5l-762 -1395q-6 -14 -25 -14h-65q-11 0 -16 7zM922 274q0 78 38.5 144.5t105.5 105.5t146 39q78 0 144.5 -39t105.5 -105.5t39 -144.5q0 -80 -39 -147.5t-105.5 -106 t-144.5 -38.5q-79 0 -146 38.5t-105.5 106.5t-38.5 147zM1012 274q0 -88 58 -147t142 -59q82 0 140.5 60t58.5 146q0 84 -58.5 143.5t-140.5 59.5q-84 0 -142 -59.5t-58 -143.5z" />
<glyph unicode="&#x26;" horiz-adv-x="1243" d="M109 317q0 139 72.5 239.5t203.5 199.5q6 4 0 10q-113 154 -146.5 222.5t-33.5 141.5q0 145 88 232.5t233 87.5q143 0 236.5 -87t93.5 -226q0 -125 -69.5 -214t-200.5 -186q-6 -2 -2 -10l180 -231l100 -127q6 -8 13 0q72 100 114 168q10 16 27 6l78 -45q16 -10 8 -29 q-84 -133 -146 -209q-2 -6 0 -12l66 -86q20 -27 46 -60.5t56 -76.5q4 -5 4 -13q0 -12 -16 -12h-117q-12 0 -24 12q-63 76 -105 131q-6 6 -12 0q-86 -84 -175 -121.5t-200 -37.5q-170 0 -271 86t-101 247zM256 322q0 -98 62.5 -155.5t173.5 -57.5q77 0 145 34.5t137 104.5 q6 6 2 12q-45 55 -98 129l-27 35l-174 223q-4 6 -10 0q-102 -82 -156.5 -155.5t-54.5 -169.5zM350 1128q0 -53 26.5 -106t117.5 -176q6 -6 12 -2q102 80 153.5 145.5t51.5 147.5q0 80 -51.5 130t-131.5 50q-79 0 -128.5 -51.5t-49.5 -137.5z" />
<glyph unicode="'" horiz-adv-x="256" d="M53 1409q0 20 21 21h108q20 0 21 -21l-17 -379q0 -20 -20 -20h-76q-20 0 -20 20z" />
<glyph unicode="(" horiz-adv-x="493" d="M-8 666q0 258 57 492.5t150 389.5q8 14 24 15h99q10 0 14 -7.5t0 -17.5q-78 -160 -128 -390t-50 -480q0 -244 50 -471.5t128 -384.5q2 -4 2 -11q0 -14 -16 -14h-103q-16 0 -24 14q-90 152 -146.5 381.5t-56.5 483.5z" />
<glyph unicode=")" horiz-adv-x="493" d="M156 1548q0 14 16 15h98q16 0 25 -15q92 -156 149.5 -390t57.5 -492q0 -254 -56.5 -483.5t-146.5 -381.5q-9 -14 -25 -14h-102q-10 0 -14 7t0 18q78 158 128 385t50 471q0 250 -50 480t-128 390q-2 4 -2 10z" />
<glyph unicode="*" horiz-adv-x="776" d="M59 1020q0 10 11 16l217 125q4 2 4 6t-4 7l-217 124q-8 4 -9.5 12.5t2.5 16.5l25 49q10 20 29 8l215 -129q10 -4 10 7l-2 247q0 20 20 21h56q20 0 20 -21l-2 -247q0 -10 10 -7l215 129q8 4 13 5q10 0 16 -13l27 -49q2 -4 2 -10q0 -12 -10 -19l-218 -124q-2 -2 -2 -6.5 t2 -6.5l218 -125q8 -4 9 -12t-3 -16l-25 -50q-10 -20 -29 -8l-215 129q-10 6 -10 -6l2 -246q0 -20 -20 -20h-56q-20 0 -20 20l2 246q0 12 -10 6l-215 -127l-11 -4q-10 0 -18 13l-25 47q-4 8 -4 12z" />
<glyph unicode="+" d="M74 608v78q0 20 20 21h320q8 0 8 8v325q0 20 20 21h80q20 0 21 -21v-325q0 -8 8 -8h319q21 -1 21 -21v-78q0 -20 -21 -20h-319q-8 0 -8 -8v-318q0 -20 -21 -20h-80q-20 0 -20 20v318q0 8 -8 8h-320q-20 0 -20 20z" />
<glyph unicode="," horiz-adv-x="452" d="M109 -139l75 438q4 18 23 18h92q10 0 15 -6t1 -16l-102 -438q-4 -18 -23 -19h-63q-10 0 -15.5 6t-2.5 17z" />
<glyph unicode="-" horiz-adv-x="724" d="M74 594v86q0 20 20 20h537q20 0 20 -20v-86q0 -20 -20 -21h-537q-20 1 -20 21z" />
<glyph unicode="." horiz-adv-x="493" d="M123 127q0 49 36 85t85 36q47 0 82.5 -36t35.5 -85q0 -51 -34.5 -86t-83.5 -35q-51 0 -86 35t-35 86z" />
<glyph unicode="/" horiz-adv-x="673" d="M59 23l414 1394q6 16 23 17h100q10 0 15 -6.5t3 -16.5l-411 -1395q-6 -16 -23 -16h-102q-10 0 -15.5 6t-3.5 17z" />
<glyph unicode="0" horiz-adv-x="999" d="M109 371v692q0 176 106.5 282.5t282.5 106.5q178 0 285.5 -106.5t107.5 -282.5v-692q0 -178 -107.5 -284.5t-285.5 -106.5q-176 0 -282.5 106.5t-106.5 284.5zM254 360q0 -113 67.5 -183.5t176.5 -70.5q112 0 179.5 70t67.5 184v711q0 115 -67.5 184.5t-179.5 69.5 q-109 0 -176.5 -69.5t-67.5 -184.5v-711z" />
<glyph unicode="1" horiz-adv-x="606" d="M78 1214v74q0 14 14 25l205 114q11 7 27 7h110q20 0 21 -21v-1393q0 -20 -21 -20h-104q-20 0 -21 20v1256q0 4 -3 6t-7 0l-197 -84l-8 -2q-16 0 -16 18z" />
<glyph unicode="2" horiz-adv-x="960" d="M98 1018v82q4 158 105.5 254t261.5 96q164 0 264 -100.5t100 -262.5q0 -180 -167 -425q-109 -160 -316 -445l-57 -80q-4 -10 6 -10h557q20 0 20 -21v-86q0 -20 -20 -20h-729q-21 0 -21 20v91q0 12 9 26q184 250 411 574q162 236 162 376q0 106 -61.5 171t-161.5 65 q-98 0 -157.5 -64.5t-57.5 -171.5v-69q0 -20 -21 -21h-106q-20 0 -21 21z" />
<glyph unicode="3" horiz-adv-x="948" d="M88 414q0 20 21 20h104q20 0 20 -20q4 -80 15 -121q18 -86 72.5 -134t138.5 -48q156 0 205 159q20 78 20 174q0 123 -31 203q-53 145 -194 146q-33 0 -60 -15q-4 -2 -10 -2q-10 0 -18 8l-52 58q-12 12 -2 28l318 426q4 4 2 7.5t-6 3.5h-510q-20 0 -21 20v86q0 20 21 21 h680q20 0 20 -21v-92q0 -16 -8 -27l-299 -407q-4 -4 -2 -7t6 -3q98 0 166 -48.5t102 -140.5q41 -100 41 -252q0 -129 -34 -223q-41 -113 -125 -171t-209 -58q-137 0 -230.5 73.5t-122.5 200.5q-14 57 -18 156z" />
<glyph unicode="4" horiz-adv-x="974" d="M72 414v78q0 14 4 24l364 901q6 16 23 17h115q10 0 14 -7.5t0 -17.5l-350 -874q-2 -4 0 -7.5t6 -3.5h385q8 0 8 8v324q0 20 21 21h104q20 0 20 -21v-324q0 -8 9 -8h75q21 0 21 -20v-90q0 -20 -21 -21h-75q-8 0 -9 -8v-365q0 -20 -20 -20h-104q-20 0 -21 20v365q0 8 -8 8 h-541q-20 0 -20 21z" />
<glyph unicode="5" horiz-adv-x="944" d="M121 623v790q0 20 20 21h650q20 0 20 -21v-86q0 -20 -20 -20h-517q-8 0 -8 -9v-501q0 -4 3 -5t7 3q41 45 103.5 70.5t134.5 25.5q113 0 191.5 -52.5t111.5 -154.5q39 -115 39 -244q0 -119 -35 -215q-35 -115 -122 -178t-212 -63q-139 0 -231 73.5t-121 206.5 q-10 37 -12 76v4q0 16 18 16h107q18 0 20 -16v-8l8 -41q18 -88 72.5 -135t138.5 -47q82 0 136.5 48t72.5 136q14 57 15 141q0 78 -17 160q-18 82 -71.5 124t-135.5 42q-78 0 -134 -36t-79 -103l-4 -9q-2 -14 -20 -14h-109q-20 0 -20 21z" />
<glyph unicode="6" horiz-adv-x="946" d="M121 436v656q0 164 101.5 261t262.5 97q154 0 250 -96.5t96 -253.5v-31q0 -20 -20 -20h-104q-20 0 -21 20v23q0 102 -57.5 165.5t-145.5 63.5q-94 0 -155.5 -64.5t-61.5 -173.5v-311q0 -6 4 -7t6 5q80 121 240 121q221 0 299 -217q43 -84 43 -236q0 -129 -35 -211 q-39 -119 -122 -181t-209 -62q-123 0 -209 61t-123 174q-39 96 -39 217zM266 442q0 -88 13 -147q18 -86 72.5 -134t137.5 -48q80 0 135.5 48t75.5 140q13 69 13 141q0 92 -19 162q-18 78 -72.5 123t-134.5 45t-133 -46t-71 -126q-16 -57 -17 -158z" />
<glyph unicode="7" horiz-adv-x="858" d="M61 1210v203q0 20 21 21h717q20 0 20 -21v-94q0 -8 -4 -25l-409 -1278q-6 -16 -25 -16h-113q-22 0 -16 23l412 1273q2 4 -1.5 7.5t-7.5 3.5h-462q-8 0 -9 -9v-88q0 -20 -20 -20h-82q-20 0 -21 20z" />
<glyph unicode="8" d="M113 401q0 125 41 213q43 96 127 144q8 6 0 12q-70 37 -115 109q-53 90 -53 204q0 119 51 205q45 80 127 123t188 43q111 0 194 -44t128 -128q47 -88 47 -201q0 -115 -51 -198q-45 -72 -117 -113q-10 -6 0 -12q88 -49 125 -137q43 -88 43 -222q0 -121 -43 -217 q-43 -94 -127 -146t-199 -52q-113 0 -196.5 53t-128.5 151q-41 94 -41 213zM256 1071q0 -86 39 -151q57 -102 184 -103q66 0 115 28.5t76 82.5q35 55 35 145q0 86 -33 144q-29 51 -78 80.5t-115 29.5t-115 -29.5t-75 -83.5q-33 -65 -33 -143zM258 410q0 -98 31 -170 q53 -129 190 -129q68 0 117 32.5t74 96.5q32 72 32 170t-26 159q-23 66 -74 101t-123 35q-139 0 -194 -136q-27 -66 -27 -159z" />
<glyph unicode="9" horiz-adv-x="950" d="M92 995q0 129 35 211q39 119 122 181.5t210 62.5q123 0 209 -61.5t123 -174.5q38 -96 38 -217v-655q0 -164 -101 -261t-263 -97q-154 0 -250 96t-96 254v31q0 20 20 20h105q20 0 20 -20v-23q0 -102 57.5 -165.5t145.5 -63.5q94 0 155.5 64.5t61.5 172.5v312q0 6 -4 7 t-6 -5q-80 -121 -240 -121q-221 0 -299 217q-43 84 -43 235zM238 991q0 -92 18 -162q18 -78 72.5 -122.5t134.5 -44.5t133 46t72 126q16 57 16 157q0 90 -12 148q-18 86 -72.5 134t-138.5 48q-80 0 -135.5 -48t-75.5 -140q-12 -70 -12 -142z" />
<glyph unicode=":" horiz-adv-x="563" d="M162 141q0 49 37 85t84 36t83.5 -36t36.5 -85q0 -51 -34.5 -86t-85.5 -35q-52 0 -86.5 35t-34.5 86zM162 831q0 49 37 85t84 36t83.5 -35.5t36.5 -85.5q0 -51 -34.5 -86.5t-85.5 -35.5q-52 0 -86.5 35.5t-34.5 86.5z" />
<glyph unicode=";" horiz-adv-x="516" d="M141 834q0 49 36 83.5t83 34.5q49 0 85 -34.5t36 -83.5q0 -51 -35 -87t-86 -36t-85 34.5t-34 88.5zM147 -131l52 422q2 18 20 18h94q10 0 15.5 -6t3.5 -16l-78 -422q-2 -18 -23 -19h-63q-10 0 -16.5 7.5t-4.5 15.5z" />
<glyph unicode="&#x3c;" d="M74 510v98q0 16 14 25l778 371q4 2 11 2q14 0 14 -17v-100q0 -14 -14 -23l-650 -301q-8 -6 0 -12l650 -301q14 -8 14 -23v-100q0 -10 -7 -15t-18 1l-778 370q-14 8 -14 25z" />
<glyph unicode="=" d="M74 411v78q0 20 20 21h776q20 0 21 -21v-78q0 -20 -21 -20h-776q-20 0 -20 20zM74 835v78q0 20 20 21h776q20 0 21 -21v-78q0 -20 -21 -20h-776q-20 0 -20 20z" />
<glyph unicode="&#x3e;" d="M74 129v100q0 14 14 23l649 301q10 6 0 12l-649 301q-14 8 -14 23v100q0 10 7 15.5t17 -0.5l779 -371q14 -8 14 -25v-98q0 -16 -14 -25l-779 -370l-10 -4q-6 0 -10 5t-4 13z" />
<glyph unicode="?" horiz-adv-x="849" d="M70 1032v58q0 162 99 262t259 100q158 0 253 -98.5t95 -261.5q0 -90 -26.5 -156t-63.5 -107t-96 -94q-61 -53 -92 -94t-31 -98v-113q0 -20 -21 -20h-106q-21 0 -21 20v121q0 88 38 143.5t116 124.5q78 70 117 126t39 147q0 102 -56.5 164.5t-146.5 62.5 q-94 0 -152.5 -63.5t-58.5 -165.5v-64q0 -20 -20 -20l-105 6q-20 0 -20 20zM287 121q0 47 33.5 82t80.5 35q45 0 80 -35t35 -82q0 -49 -35 -83t-82 -34t-79.5 34t-32.5 83z" />
<glyph unicode="@" horiz-adv-x="1626" d="M117 440q0 25 4 82q18 225 131 394t285 258.5t362 89.5q182 0 320.5 -74t215 -206t76.5 -306q0 -35 -8 -109q-25 -190 -119 -296.5t-235 -106.5q-70 0 -123 26.5t-82 75.5q-6 10 -12 0q-33 -51 -89.5 -77.5t-125.5 -26.5q-94 0 -149.5 56t-57.5 151q-2 57 12 168 q12 92 29 163q23 96 89.5 152.5t158.5 56.5q106 0 157 -71q2 -4 6.5 -2t4.5 6l4 39q2 18 20 18h66q10 0 16 -7t4 -15l-55 -422q-2 -10 -2 -31q0 -74 38 -118t105 -44q86 0 147.5 80t82.5 221q6 53 6 101q0 152 -63.5 264t-179.5 172.5t-267 60.5q-162 0 -308.5 -77.5 t-242.5 -225t-111 -344.5q-2 -25 -2 -70q0 -160 61.5 -279.5t174 -184t260.5 -64.5q100 0 190 25.5t142 64.5q6 6 14 6t14 -10l31 -45q10 -18 -2 -29q-68 -51 -177.5 -82.5t-227.5 -31.5q-174 0 -308.5 78.5t-207 221t-72.5 324.5zM614 387q0 -59 36 -95t95 -36t101.5 38 t56.5 97q13 58 19 105l10 77l8 111q4 59 -31 96t-94 37t-103 -38t-59 -95q-12 -41 -24 -147q-14 -109 -15 -150z" />
<glyph unicode="A" horiz-adv-x="1087" d="M74 23l381 1392q4 18 22 19h131q18 0 23 -19l383 -1392l2 -7q0 -16 -21 -16h-106q-19 0 -23 18l-67 256q-2 6 -11 7h-489q-8 0 -10 -7l-68 -256q-4 -18 -22 -18h-107q-10 0 -15 6t-3 17zM324 408q-2 -2 1 -5.5t7 -3.5h424q4 0 7 3.5t1 5.5l-215 819q-2 4 -4 4t-4 -4z" />
<glyph unicode="B" horiz-adv-x="1101" d="M170 20v1393q0 20 20 21h388q188 0 294.5 -97.5t106.5 -277.5q0 -115 -48 -193t-140 -118q-10 -5 0 -11q96 -47 148 -135t54 -213q0 -184 -109.5 -286.5t-289.5 -102.5h-404q-20 0 -20 20zM315 137q0 -8 9 -8h266q119 0 188.5 73.5t69.5 200.5q0 129 -70.5 203t-191.5 74 h-262q-8 0 -9 -8v-535zM315 805q0 -8 9 -8h256q119 0 187.5 67.5t68.5 182.5q0 121 -69 190.5t-187 69.5h-256q-9 -1 -9 -9v-493z" />
<glyph unicode="C" horiz-adv-x="1077" d="M131 387v662q0 182 113.5 291.5t300.5 109.5q188 0 302 -108.5t114 -288.5v-19q0 -20 -21 -20l-104 -4q-20 0 -21 18v29q0 119 -74.5 192.5t-195.5 73.5t-195 -72.5t-74 -193.5v-680q0 -121 74 -193.5t195 -72.5t195.5 73.5t74.5 192.5v29q0 18 21 18l104 -6q20 0 21 -17 v-18q0 -180 -114 -289.5t-302 -109.5q-187 0 -300.5 110.5t-113.5 292.5z" />
<glyph unicode="D" horiz-adv-x="1110" d="M170 20v1393q0 20 20 21h400q182 0 287.5 -104.5t105.5 -285.5v-655q0 -180 -105.5 -284.5t-287.5 -104.5h-400q-20 0 -20 20zM315 135q1 -8 9 -8h268q113 2 178.5 74.5t67.5 199.5v631q0 127 -65.5 201t-180.5 74h-268q-8 0 -9 -9v-1163z" />
<glyph unicode="E" horiz-adv-x="1058" d="M170 20v1393q0 20 20 21h748q20 0 20 -21v-86q0 -20 -20 -20h-614q-8 0 -9 -9v-507q0 -8 9 -9h413q20 0 21 -20v-86q0 -20 -21 -21h-413q-8 0 -9 -8v-512q0 -8 9 -8h614q20 0 20 -21v-86q0 -20 -20 -20h-748q-20 0 -20 20z" />
<glyph unicode="F" horiz-adv-x="995" d="M170 20v1393q0 20 20 21h746q20 0 20 -21v-86q0 -20 -20 -20h-612q-8 0 -9 -9v-507q0 -8 9 -9h411q20 0 21 -20v-86q0 -20 -21 -21h-411q-8 0 -9 -8v-627q0 -20 -20 -20h-105q-20 0 -20 20z" />
<glyph unicode="G" horiz-adv-x="1075" d="M131 381v672q0 180 113.5 288.5t300.5 108.5q123 0 216 -49t145 -137t52 -203v-57q0 -20 -20 -21h-104q-20 0 -21 21v57q0 117 -73.5 189.5t-194.5 72.5t-195 -72.5t-74 -193.5v-680q0 -119 75 -192.5t196 -73.5t193.5 69.5t72.5 188.5v223q0 8 -8 8h-240q-20 0 -20 21 v86q0 20 20 20h373q20 0 20 -20v-320q0 -186 -112.5 -294.5t-300.5 -108.5q-187 0 -300.5 108.5t-113.5 288.5z" />
<glyph unicode="H" horiz-adv-x="1153" d="M170 20v1393q0 20 20 21h105q20 0 20 -21v-622q0 -8 9 -9h507q8 0 9 9v622q0 21 20 21h105q20 0 20 -21v-1393q0 -20 -20 -20h-105q-20 0 -20 20v627q0 8 -9 8h-507q-8 0 -9 -8v-627q0 -20 -20 -20h-105q-20 0 -20 20z" />
<glyph unicode="I" horiz-adv-x="485" d="M170 20v1393q0 20 20 21h105q20 0 20 -21v-1393q0 -20 -20 -20h-105q-20 0 -20 20z" />
<glyph unicode="J" horiz-adv-x="1030" d="M53 371v135q0 20 21 20h104q20 0 21 -20v-137q0 -115 70.5 -186.5t185.5 -71.5q117 0 188.5 71.5t71.5 186.5v1044q0 20 20 21h105q20 0 20 -21v-1042q0 -174 -111.5 -280.5t-293.5 -106.5q-183 0 -292.5 106.5t-109.5 280.5z" />
<glyph unicode="K" horiz-adv-x="1087" d="M170 20v1393q0 20 20 21h105q20 0 20 -21v-680q0 -4 4.5 -5t6.5 3l520 690q8 12 26 13h115q12 0 16.5 -7.5t-4.5 -17.5l-409 -561q-2 -6 0 -12l446 -811q4 -8 4 -13q0 -12 -18 -12h-119q-18 0 -24 14l-390 707q-4 10 -10 0l-160 -203q-4 -4 -4 -10v-488q0 -20 -20 -20 h-105q-20 0 -20 20z" />
<glyph unicode="L" horiz-adv-x="987" d="M170 20v1393q0 20 20 21h105q20 0 20 -21v-1278q0 -8 9 -8h596q20 0 20 -21v-86q0 -20 -20 -20h-730q-20 0 -20 20z" />
<glyph unicode="M" horiz-adv-x="1259" d="M170 20v1393q0 20 20 21h105q18 0 24 -15l304 -606q2 -4 6 -4t6 4l305 606q6 14 25 15h106q20 0 21 -21v-1393q0 -20 -21 -20h-104q-20 0 -21 20v1084q0 6 -3 7t-7 -3l-256 -506q-6 -14 -25 -14h-47q-18 0 -24 14l-258 508q-4 4 -7.5 4t-3.5 -6v-1088q0 -20 -20 -20h-105 q-20 0 -20 20z" />
<glyph unicode="N" horiz-adv-x="1193" d="M170 20v1393q0 20 20 21h105q18 0 24 -15l551 -1079q4 -4 7.5 -4t3.5 6v1071q0 20 20 21h105q20 0 20 -21v-1393q0 -20 -20 -20h-107q-18 0 -25 14l-550 1084q-4 4 -7.5 3t-3.5 -7l2 -1074q0 -20 -20 -20h-105q-20 0 -20 20z" />
<glyph unicode="O" horiz-adv-x="1103" d="M131 399v633q0 123 52.5 218.5t147.5 147.5t220 52t220 -52t148.5 -147.5t53.5 -218.5v-633q0 -123 -53.5 -217t-148.5 -146t-220 -52t-220 52t-147.5 146t-52.5 217zM276 393q0 -127 76 -204.5t199 -77.5q125 0 200.5 77.5t75.5 204.5v643q0 129 -75.5 208t-200.5 79 q-123 0 -199 -79t-76 -208v-643z" />
<glyph unicode="P" horiz-adv-x="1058" d="M162 20v1395q0 20 20 21h439q163 0 264.5 -109.5t101.5 -290.5q0 -178 -101.5 -285.5t-264.5 -107.5h-306q-8 0 -8 -8v-615q0 -20 -20 -20h-105q-20 0 -20 20zM307 772q0 -8 8 -8h287q109 0 174.5 73.5t65.5 196.5q0 125 -65.5 200t-174.5 75h-287q-8 0 -8 -9v-528z" />
<glyph unicode="Q" horiz-adv-x="1044" d="M117 393v643q0 123 51 217.5t143 145.5t211 51q183 0 294.5 -113.5t111.5 -300.5v-643q0 -162 -87 -270.5t-237 -130.5q-8 -2 -8 -10v-197q0 -20 -21 -21h-106q-20 0 -20 21v197q0 8 -9 10q-147 23 -235 131t-88 270zM262 387q0 -123 72 -199.5t188 -76.5 q117 0 188.5 76.5t71.5 199.5v660q0 123 -71.5 199.5t-188.5 76.5t-188.5 -77t-71.5 -199v-660z" />
<glyph unicode="R" horiz-adv-x="1081" d="M170 20v1395q0 20 20 21h435q164 0 264 -108.5t100 -285.5q0 -141 -68.5 -239t-185.5 -129q-8 -4 -4 -10l266 -639l2 -9q0 -16 -18 -16h-109q-16 0 -22 16l-256 637q-2 6 -8 6h-262q-8 0 -9 -8v-631q0 -20 -20 -20h-105q-20 0 -20 20zM315 784q0 -8 9 -8h282 q106 0 172 73t66 191q0 121 -65.5 195t-172.5 74h-282q-9 -1 -9 -9v-516z" />
<glyph unicode="S" horiz-adv-x="1036" d="M111 356v58q0 20 20 20h100q20 0 21 -20v-49q0 -115 77 -184.5t203 -69.5q121 0 191 65.5t70 171.5q0 70 -33 121t-95.5 94t-181.5 109q-127 68 -199.5 119t-118.5 124.5t-46 180.5q0 166 106.5 260t284.5 94q190 0 303 -104.5t113 -276.5v-47q0 -20 -21 -21h-102 q-20 0 -21 21v45q0 115 -73.5 185.5t-200.5 70.5q-115 0 -180.5 -59.5t-65.5 -167.5q0 -70 31 -117t89 -86t179 -105q139 -78 214 -132t119 -124.5t44 -173.5q0 -170 -111.5 -272t-300.5 -102q-188 0 -301.5 101t-113.5 271z" />
<glyph unicode="T" horiz-adv-x="1015" d="M78 1327v86q0 20 20 21h817q21 -1 21 -21v-86q0 -20 -21 -20h-333q-8 0 -9 -9v-1278q0 -20 -20 -20h-104q-20 0 -21 20v1278q0 8 -8 9h-322q-20 0 -20 20z" />
<glyph unicode="U" horiz-adv-x="1150" d="M156 410v1003q0 20 20 21h105q20 0 20 -21v-1012q0 -131 76 -210.5t198 -79.5q123 0 199 79.5t76 210.5v1012q0 20 20 21h105q20 0 20 -21v-1003q0 -127 -52 -223.5t-147.5 -149.5t-220.5 -53q-124 0 -219.5 53t-147.5 149.5t-52 223.5z" />
<glyph unicode="V" horiz-adv-x="1052" d="M72 1417q0 16 20 17h111q20 0 22 -19l299 -1171q2 -4 4 -4t4 4l299 1171q4 18 23 19h107q10 0 15 -6.5t3 -16.5l-373 -1393q-4 -18 -22 -18h-115q-19 0 -23 18l-372 1393z" />
<glyph unicode="W" horiz-adv-x="1531" d="M55 1419q0 14 19 15h110q18 0 23 -19l250 -1100q2 -6 5 -6t5 6l225 1100q4 18 23 19h102q20 0 23 -19l237 -1100q2 -6 4 -6t4 6l244 1100q4 18 23 19h106q20 0 17 -23l-320 -1393q-4 -18 -22 -18h-105q-18 0 -22 18l-236 1117q-2 6 -4 6t-4 -6l-230 -1117q-2 -18 -22 -18 h-100q-19 0 -23 18l-330 1393z" />
<glyph unicode="X" horiz-adv-x="1046" d="M78 1419q0 14 16 15h113q18 0 24 -15l287 -567q2 -4 6 -4t6 4l287 567q6 14 25 15h112q10 0 14.5 -7.5t0.5 -17.5l-363 -688q-2 -6 0 -12l363 -684q2 -4 2 -11q0 -14 -17 -14h-112q-18 0 -25 14l-287 566q-2 4 -6 4t-6 -4l-287 -566q-6 -14 -24 -14h-113q-10 0 -14 7 t0 18l360 686q4 6 0 12l-360 686q-2 4 -2 10z" />
<glyph unicode="Y" horiz-adv-x="1015" d="M76 1417q0 16 18 17h111q16 0 22 -17l275 -612q2 -4 6 -4t6 4l274 612q6 16 23 17h111q10 0 15 -7.5t1 -17.5l-356 -766q-2 -2 -2 -10v-610q0 -20 -21 -21h-104q-21 1 -21 21v610q0 8 -2 10l-354 766z" />
<glyph unicode="Z" horiz-adv-x="966" d="M80 20v97q0 12 6 26l623 1153q4 10 -4 11h-605q-20 0 -20 20v86q0 20 20 21h752q20 0 20 -21v-96q0 -10 -6 -27l-622 -1153q-4 -10 4 -10h604q20 0 20 -21v-86q0 -20 -20 -20h-752q-20 0 -20 20z" />
<glyph unicode="[" horiz-adv-x="698" d="M59 -227v1792q0 20 21 20h356q20 0 21 -20v-86q0 -20 -21 -21h-223q-8 0 -8 -8v-1563q0 -8 8 -8h225q20 0 21 -20v-86q0 -20 -21 -21h-358q-21 1 -21 21z" />
<glyph unicode="\" horiz-adv-x="673" d="M57 1417q0 16 21 17h100q16 0 23 -17l413 -1394l2 -7q0 -16 -20 -16h-102q-16 0 -23 16l-412 1395z" />
<glyph unicode="]" horiz-adv-x="698" d="M240 -141q0 20 20 20h225q8 0 9 8v1563q0 8 -9 8h-223q-20 0 -20 21v86q0 20 20 20h356q20 0 21 -20v-1792q-1 -21 -21 -21h-358q-20 0 -20 21v86z" />
<glyph unicode="^" horiz-adv-x="866" d="M82 651l280 766q6 16 25 17h92q16 0 23 -17l284 -764l2 -8q0 -16 -18 -16h-86q-18 0 -25 16l-219 627q-2 4 -6 4t-6 -4l-221 -627q-6 -16 -25 -16h-84q-22 -1 -16 22z" />
<glyph unicode="_" horiz-adv-x="880" d="M53 20v76q0 20 21 21h735q20 0 20 -21v-76q0 -20 -20 -20h-735q-21 0 -21 20z" />
<glyph unicode="`" horiz-adv-x="395" d="M65 1432q0 12 17 12h98q14 0 25 -14l125 -224q4 -8 4 -12q0 -12 -19 -12h-80q-14 0 -24 14l-141 223q-4 8 -5 13z" />
<glyph unicode="a" horiz-adv-x="944" d="M86 281q0 164 106.5 248.5t288.5 84.5h191q8 0 8 9v77q0 104 -53.5 165t-153.5 61q-80 0 -134 -40t-63 -106q-2 -18 -22 -18l-113 6q-10 0 -15 6t-3 14q14 119 110.5 192t239.5 73q164 0 258 -94.5t94 -249.5v-689q0 -20 -20 -20h-105q-20 0 -20 20v74q0 4 -3 6t-7 -2 q-47 -57 -118 -85.5t-157 -28.5q-129 0 -219 69.5t-90 227.5zM233 289q0 -90 54.5 -134t140.5 -44q102 0 177 56t75 157v165q0 8 -8 9h-183q-115 0 -185.5 -54.5t-70.5 -154.5z" />
<glyph unicode="b" horiz-adv-x="987" d="M145 20v1393q0 20 21 21h104q20 0 21 -21v-477q0 -6 3 -6t7 4q70 119 234 119q135 0 218 -78t107 -221q14 -84 14 -238q0 -152 -16 -237q-29 -143 -109.5 -219t-207.5 -76q-162 0 -240 118q-2 6 -6 5t-4 -7v-80q0 -20 -21 -20h-104q-20 0 -21 20zM291 518q0 -147 16 -229 t66.5 -130t130.5 -48q84 0 137 48t70 132q18 80 18 227t-22 236q-18 78 -71.5 125t-133.5 47t-129 -47.5t-64 -128.5q-18 -80 -18 -232z" />
<glyph unicode="c" horiz-adv-x="944" d="M117 520q0 104 12 236q18 133 116.5 215t243.5 82t245 -78t116 -195l6 -43v-4q0 -8 -5 -13t-13 -5l-105 -6q-18 0 -22 18q0 18 -2 25q-10 72 -70.5 123t-149.5 51q-90 0 -148 -55.5t-69 -143.5q-10 -88 -10 -209q0 -123 10 -211q10 -90 68.5 -143t148.5 -53t150.5 51 t69.5 125l2 16q4 23 22 19l103 -9q18 -4 18 -18v-8q0 -8 -4 -25q-14 -121 -113.5 -199.5t-247.5 -78.5q-147 0 -243 80.5t-117 218.5q-12 104 -12 237z" />
<glyph unicode="d" horiz-adv-x="987" d="M113 516q0 154 14 238q25 143 107.5 221t218.5 78q164 0 233 -119q4 -4 7 -4t3 6v477q1 21 21 21h104q20 0 21 -21v-1393q0 -20 -21 -20h-104q-20 0 -21 20v80q0 6 -4 7.5t-6 -5.5q-77 -118 -237 -118h-3q-127 0 -207.5 75.5t-109.5 219.5q-16 86 -16 237zM258 518 q0 -147 18 -227q16 -84 69.5 -132t137.5 -48q80 0 130.5 48t66.5 130t16 229q0 152 -18 232q-14 82 -63.5 129t-129.5 47t-133 -47.5t-71 -124.5q-23 -88 -23 -236z" />
<glyph unicode="e" d="M119 520q0 162 8 230q16 137 113.5 220t244.5 83q162 0 256.5 -90.5t108.5 -241.5q8 -96 8 -234q0 -20 -20 -20h-568q-8 0 -8 -8q0 -88 6 -150q10 -90 72.5 -144t155.5 -54q79 0 136.5 41t82.5 108q6 20 24 14l84 -22q20 -6 15 -25q-31 -111 -123 -177t-226 -66 q-143 0 -236 76.5t-116 207.5q-18 94 -18 252zM262 592q0 -8 8 -8h435q8 0 8 8q-4 98 -8 135q-10 88 -70 143.5t-150 55.5t-147 -53.5t-68 -141.5q-4 -43 -8 -139z" />
<glyph unicode="f" horiz-adv-x="647" d="M63 936v80q0 20 21 20h109q8 0 8 8v58q0 182 68.5 260t238.5 78h43q20 0 20 -21v-84q0 -20 -20 -20h-37q-94 0 -131 -51.5t-37 -167.5v-52q0 -8 8 -8h193q20 0 20 -20v-80q0 -20 -20 -21h-193q-8 0 -8 -8v-887q0 -20 -20 -20h-105q-20 0 -20 20v887q0 8 -8 8h-109 q-20 0 -21 21z" />
<glyph unicode="g" horiz-adv-x="970" d="M113 518q0 154 14 242q16 133 103 213t219 80q160 0 241 -113q4 -4 7 -3t3 5v74q1 20 21 20h104q20 0 21 -20v-987q0 -442 -461 -442q-22 0 -45 1q-20 2 -21 23l3 92q0 10 6 15.5t14 2.5h27q172 0 249 71q82 77 82 245v67q0 4 -3 6.5t-7 -1.5q-80 -115 -237 -115 q-131 0 -219.5 79t-108.5 214q-12 90 -12 231zM260 520q0 -102 8 -205q10 -86 69.5 -141t147.5 -55t144.5 55t64.5 141q6 80 6 205q0 123 -6 209q-8 86 -64.5 141.5t-144.5 55.5t-146 -55.5t-71 -141.5q-8 -74 -8 -209z" />
<glyph unicode="h" horiz-adv-x="987" d="M143 20v1393q0 20 21 21h104q20 0 21 -21v-473q0 -4 3 -6t7 2q41 57 103.5 86t140.5 29q143 0 226 -91.5t83 -248.5v-691q0 -20 -21 -20h-104q-20 0 -20 20v670q0 106 -55.5 170t-149.5 64q-96 0 -154.5 -64.5t-58.5 -173.5v-666q0 -20 -21 -20h-104q-20 0 -21 20z" />
<glyph unicode="i" horiz-adv-x="458" d="M123 1329q0 45 29.5 75t76.5 30t76 -29t29 -76t-29 -76.5t-76 -29.5t-76.5 29.5t-29.5 76.5zM158 20v996q0 20 20 20h105q20 0 20 -20v-996q0 -20 -20 -20h-105q-20 0 -20 20z" />
<glyph unicode="j" horiz-adv-x="436" d="M-66 -319q0 20 21 20q96 2 144 55.5t48 153.5v1106q0 20 21 20h104q20 0 21 -20v-1106q0 -172 -77 -254t-261 -82q-21 0 -21 20v87zM115 1327q0 47 30.5 77t73.5 30q45 0 77 -30t32 -77t-31 -76.5t-78 -29.5q-45 0 -74.5 29.5t-29.5 76.5z" />
<glyph unicode="k" horiz-adv-x="927" d="M143 20v1393q0 20 21 21h104q20 0 21 -21v-831q0 -4 4 -6.5t6 2.5l371 446q10 12 24 12h117q12 0 16 -7t-4 -17l-233 -291q-4 -6 -2 -10l276 -686l2 -9q0 -16 -18 -16h-109q-16 0 -22 16l-223 586q-2 4 -6.5 5t-6.5 -3l-188 -227q-4 -8 -4 -10v-347q0 -20 -21 -20h-104 q-21 0 -21 20z" />
<glyph unicode="l" horiz-adv-x="423" d="M139 20v1393q0 20 21 21h104q20 0 21 -21v-1393q0 -20 -21 -20h-104q-21 0 -21 20z" />
<glyph unicode="m" horiz-adv-x="1509" d="M143 20v996q0 20 21 20h104q20 0 21 -20v-72q0 -4 3 -5t7 3q41 55 104.5 82t135.5 27q90 0 157.5 -41t102.5 -115q4 -10 10 0q41 80 113.5 118t160.5 38q138 0 216.5 -91.5t78.5 -250.5v-689q0 -20 -20 -20h-103q-20 0 -20 20v668q0 109 -54.5 172.5t-142.5 63.5 q-92 0 -148 -62.5t-56 -169.5v-672q0 -20 -21 -20h-104q-20 0 -21 20v668q0 109 -54 172.5t-142 63.5q-92 0 -147.5 -62.5t-55.5 -169.5v-672q0 -20 -21 -20h-104q-20 0 -21 20z" />
<glyph unicode="n" horiz-adv-x="987" d="M143 20v996q0 20 21 20h104q20 0 21 -20v-76q0 -4 3 -6t7 2q41 57 103.5 86t140.5 29q143 0 226 -91.5t83 -248.5v-691q0 -20 -21 -20h-104q-20 0 -20 20v670q0 106 -55.5 170t-149.5 64q-96 0 -154.5 -64.5t-58.5 -173.5v-666q0 -20 -21 -20h-104q-20 0 -21 20z" />
<glyph unicode="o" horiz-adv-x="983" d="M117 520q0 141 14 234q18 137 115.5 218t247.5 81q145 0 242.5 -81t115.5 -216q14 -98 14 -236q0 -139 -14 -237q-20 -137 -116.5 -218t-243.5 -81q-148 0 -244 80.5t-117 218.5q-14 94 -14 237zM262 518q0 -133 8 -209q12 -90 72.5 -144t149.5 -54q88 0 148 54t73 144 q8 80 8 209q0 133 -8 209q-12 90 -72.5 144.5t-148.5 54.5t-148.5 -54.5t-73.5 -144.5q-8 -76 -8 -209z" />
<glyph unicode="p" horiz-adv-x="999" d="M158 -377v1393q0 20 20 20h105q20 0 20 -20v-80q0 -6 4 -7t6 5q78 119 240 119q127 0 208 -76t109 -219q17 -86 17 -238q0 -154 -15 -237q-25 -143 -107.5 -221t-217.5 -78q-164 0 -234 118q-4 4 -7 4t-3 -6v-477q0 -20 -20 -20h-105q-20 0 -20 20zM303 518 q0 -152 19 -231q14 -82 63 -129t129 -47t133 47t72 125q22 88 22 235t-18 227q-16 84 -69.5 132.5t-137.5 48.5q-80 0 -130 -48.5t-67 -129.5q-16 -82 -16 -230z" />
<glyph unicode="q" horiz-adv-x="999" d="M113 520q0 152 16 238q29 143 109.5 219t207.5 76q162 0 240 -119q2 -6 6 -5t4 7v80q1 20 21 20h104q20 0 21 -20v-1393q0 -20 -21 -20h-104q-20 0 -21 20v477q0 6 -3 6t-7 -4q-69 -118 -230 -118h-3q-135 0 -218 77.5t-108 221.5q-14 84 -14 237zM258 518 q0 -147 23 -235q18 -78 71.5 -125t132.5 -47q80 0 129.5 47t63.5 129q18 79 18 231q0 147 -16 230q-16 82 -66.5 130t-130.5 48q-84 0 -137 -48.5t-70 -132.5q-18 -80 -18 -227z" />
<glyph unicode="r" horiz-adv-x="671" d="M143 20v996q0 20 21 20h104q20 0 21 -20v-129q0 -6 3 -6t5 4q35 76 93.5 119t137.5 43q60 0 105 -25q14 -6 10 -25l-25 -104q-6 -18 -26 -12q-25 12 -66 12q-20 0 -30 -2q-90 -4 -148.5 -78t-58.5 -182v-611q0 -20 -21 -20h-104q-20 0 -21 20z" />
<glyph unicode="s" horiz-adv-x="876" d="M100 260v19q0 20 21 20h98q20 0 21 -16v-19q0 -66 59 -114t152 -48q90 0 144 47.5t54 118.5q0 51 -30.5 86t-75.5 55.5t-125 47.5q-96 33 -159.5 65.5t-108 91t-44.5 148.5q0 131 93.5 208t244.5 77q156 0 249 -80t93 -205v-4q0 -20 -20 -21h-96q-20 0 -21 15v14 q0 70 -56 116t-149 46q-90 0 -143 -44t-53 -114q0 -72 54 -108.5t171 -77.5q98 -33 163.5 -66t112 -91t46.5 -151q0 -131 -93.5 -208.5t-250.5 -77.5q-158 0 -254.5 75.5t-96.5 194.5z" />
<glyph unicode="t" horiz-adv-x="645" d="M63 942v74q0 20 21 20h102q8 0 9 8v234q0 20 20 20h100q20 0 21 -20v-234q0 -8 8 -8h195q20 0 20 -20v-74q0 -20 -20 -20h-195q-8 0 -8 -9v-612q0 -96 38 -134t122 -38h34q20 0 21 -20v-86q0 -20 -21 -21l-63 -2q-133 0 -202.5 54.5t-69.5 201.5v657q0 8 -9 9h-102 q-20 0 -21 20z" />
<glyph unicode="u" horiz-adv-x="983" d="M131 305v711q0 20 21 20h104q20 0 20 -20v-674q0 -109 53.5 -169t149.5 -60q100 0 157.5 64.5t57.5 172.5v666q1 20 21 20h104q20 0 21 -20v-996q0 -20 -21 -20h-104q-20 0 -21 20v80q0 6 -3 6t-7 -4q-71 -116 -235 -116h-3q-139 0 -227 82t-88 237z" />
<glyph unicode="v" horiz-adv-x="874" d="M57 1020q0 16 21 16h115q18 0 22 -18l217 -801q2 -4 5 -4t5 4l217 801q4 18 23 18l117 -2q10 0 15 -6t3 -16l-297 -996q-6 -16 -22 -16h-119q-17 0 -23 16l-297 998z" />
<glyph unicode="w" horiz-adv-x="1306" d="M57 1022q0 14 19 14h102q18 0 23 -18l184 -803q2 -6 4 -6t4 6l187 803q4 18 22 18h94q18 0 23 -18l190 -805q2 -6 4 -6t5 6l188 805q4 18 22 18l103 -2q10 0 15 -6t1 -16l-256 -994q-2 -18 -22 -18h-107q-18 0 -22 18l-187 758q-2 6 -5 6t-5 -6l-180 -758q-4 -18 -23 -18 h-106q-19 0 -23 18l-252 996z" />
<glyph unicode="x" horiz-adv-x="872" d="M49 1024q0 12 19 12h114q14 0 25 -14l223 -375q2 -2 6 -2t6 2l222 375q10 14 24 14h117q12 0 16 -7t-2 -17l-295 -488q-2 -6 0 -12l295 -487q4 -8 4 -13q0 -12 -18 -12h-113q-14 0 -24 14l-224 377q-2 4 -6 4t-6 -4l-223 -377q-10 -14 -25 -14h-116q-13 0 -17 7t2 18 l295 487q4 6 0 12l-295 488q-4 8 -4 12z" />
<glyph unicode="y" horiz-adv-x="847" d="M43 1020q0 16 20 16h111q18 0 23 -16l223 -811q2 -4 5 -4t5 4l221 809q4 18 23 18h110q10 0 15.5 -6t3.5 -16l-334 -1104q-41 -137 -81 -202.5t-100.5 -91.5t-170.5 -26h-13q-14 1 -14 21v84q0 20 12 20h13q72 0 111.5 22.5t66 80t57.5 176.5q2 2 1 7l-1 5l-305 1008z " />
<glyph unicode="z" horiz-adv-x="825" d="M68 20v99q0 16 8 26l502 748q2 2 -0.5 6t-6.5 4h-475q-20 0 -20 21v92q0 20 20 20h637q20 0 21 -20v-98q0 -16 -9 -27l-505 -748q-2 -2 0 -6t6 -4h489q20 0 21 -20v-93q0 -20 -21 -20h-647q-20 0 -20 20z" />
<glyph unicode="{" horiz-adv-x="589" d="M59 635v82q0 18 19 20q55 8 80.5 53.5t25.5 129.5v434q0 119 50.5 175t156.5 56h119q20 0 20 -20v-86q0 -20 -20 -21h-66q-115 0 -114 -151v-398q0 -94 -23.5 -148t-77.5 -81q-10 -4 0 -10q53 -27 77 -81t24 -149v-407q0 -154 114 -154h66q20 0 20 -20v-86q0 -20 -20 -21 h-119q-106 0 -156.5 57.5t-50.5 176.5v444q0 86 -25.5 131t-80.5 53q-18 4 -19 21z" />
<glyph unicode="|" horiz-adv-x="317" d="M86 -143v1679q0 20 20 20h105q20 0 20 -20v-1679q0 -20 -20 -21h-105q-20 1 -20 21z" />
<glyph unicode="}" horiz-adv-x="589" d="M59 -141q0 20 21 20h65q115 0 115 154v407q0 94 23.5 148.5t76.5 81.5q10 6 0 10q-53 27 -76.5 81t-23.5 148v398q0 152 -115 151h-65q-20 0 -21 21v86q0 20 21 20h119q106 0 156.5 -56t50.5 -175v-434q0 -84 25.5 -129.5t80.5 -53.5q18 -2 18 -20v-82q0 -16 -18 -21 q-55 -8 -80.5 -53t-25.5 -131v-444q0 -119 -50.5 -176.5t-156.5 -57.5h-119q-20 0 -21 21v86z" />
<glyph unicode="~" horiz-adv-x="985" d="M80 569q31 70 94.5 113t140.5 43q51 0 91 -14.5t81 -38.5q59 -35 97.5 -51.5t89.5 -16.5q41 0 69.5 20.5t61.5 59.5q12 16 29 6l61 -41q16 -12 8 -26q-88 -147 -223 -148q-57 0 -100 16.5t-103 51.5q-43 25 -77.5 39t-75.5 14q-92 0 -150 -78l-4 -8q-4 -6 -11 -7t-14 3 l-55 37q-16 12 -10 26z" />
<glyph unicode="&#xa1;" horiz-adv-x="591" d="M172 1329q0 51 34 86t85 35t86 -35t35 -86q0 -49 -36 -85t-85 -36q-47 0 -83 36t-36 85zM223 45l13 926q0 20 20 20h80q20 0 20 -20l13 -926q0 -20 -21 -20h-104q-20 0 -21 20z" />
<glyph unicode="&#xa2;" horiz-adv-x="944" d="M117 705q0 104 12 235q16 115 91 191.5t190 97.5q8 2 8 10l-4 143q0 20 20 21h86q20 0 21 -21l-4 -139q0 -8 8 -8q125 -16 207 -90t98 -180l6 -43v-4q0 -8 -5 -13.5t-13 -5.5l-105 -6q-18 0 -22 18q0 18 -2 25q-10 72 -70.5 123t-149.5 51q-90 0 -148 -55.5t-69 -143.5 q-10 -88 -10 -209q0 -123 10 -210q10 -90 68.5 -143.5t148.5 -53.5t150.5 51t69.5 125l2 16q4 23 22 19l103 -8q18 -4 18 -19v-8q0 -8 -4 -25q-12 -109 -95 -184.5t-210 -91.5q-8 0 -8 -8l4 -139q0 -20 -21 -21h-86q-20 0 -20 21l4 143q0 8 -8 10q-117 20 -191 97t-90 194 q-12 104 -12 238z" />
<glyph unicode="&#xa3;" horiz-adv-x="1136" d="M170 651v80q0 20 20 21h138q8 0 8 8v289q0 188 101.5 294.5t275.5 106.5q129 0 214 -69.5t120 -204.5l2 -9q0 -12 -17 -16l-98 -16h-6q-12 0 -19 14q-47 174 -198 174q-111 0 -171.5 -69.5t-60.5 -200.5v-293q0 -8 8 -8h344q20 0 21 -21v-80q0 -20 -21 -20h-344 q-8 0 -8 -8v-236q0 -80 -21.5 -145.5t-58.5 -104.5q-2 -4 0 -7t7 -3h641q20 0 20 -21v-86q0 -20 -20 -20h-797q-20 0 -21 20v91q0 16 15 24q43 33 67.5 97.5t24.5 150.5v240q0 8 -8 8h-138q-20 0 -20 20z" />
<glyph unicode="&#xa4;" horiz-adv-x="1056" d="M47 1006q0 8 8 16l66 57q6 6 12 6q8 0 17 -8l126 -127q6 -6 13 -2q102 74 231 74q137 0 242 -80q6 -4 12 2l133 133q6 6 14.5 7t14.5 -5l65 -57q16 -14 3 -29l-142 -139q-6 -6 -2 -12q68 -100 68 -226q0 -129 -74 -231q-4 -6 2 -12l133 -131q6 -6 6 -13q0 -8 -8 -16 l-63 -57q-6 -6 -13 -6q-8 0 -16 8l-129 127q-6 6 -12 2q-102 -74 -234 -74q-123 0 -223 68q-6 4 -12 -2l-121 -121q-6 -6 -14.5 -7t-14.5 5l-65 57q-14 16 -2 29l125 123q6 6 2 12q-82 109 -82 239q0 133 75 234q4 6 -2 12l-133 131q-6 6 -6 13zM242 616q0 -75 37.5 -138.5 t102 -101.5t138.5 -38q76 0 140.5 38t102.5 101.5t38 138.5q0 76 -38 140.5t-102.5 102.5t-140.5 38q-74 0 -138.5 -38t-102 -102.5t-37.5 -140.5z" />
<glyph unicode="&#xa5;" horiz-adv-x="1241" d="M186 1417q0 16 19 17h110q16 0 23 -17l274 -612q2 -4 6.5 -4t6.5 4l274 612q6 16 23 17h110q10 0 15.5 -7.5t1.5 -17.5l-328 -702q-2 -4 0 -7.5t6 -3.5h248q20 0 20 -20v-49q0 -20 -20 -21h-277q-8 0 -8 -8v-152q0 -8 8 -8h277q20 0 20 -20v-49q0 -20 -20 -21h-277 q-8 0 -8 -8v-317q0 -20 -20 -21h-105q-20 0 -20 21v317q0 8 -8 8h-275q-20 0 -20 21v49q0 20 20 20h275q8 0 8 8v152q0 8 -8 8h-275q-20 0 -20 21v49q0 20 20 20h246q4 0 6 3t0 8l-326 702z" />
<glyph unicode="&#xa6;" horiz-adv-x="317" d="M86 -143v706q0 20 20 21h105q20 0 20 -21v-706q0 -20 -20 -21h-105q-20 1 -20 21zM86 821v715q0 20 20 20h105q20 0 20 -20v-715q0 -20 -20 -20h-105q-20 0 -20 20z" />
<glyph unicode="&#xa7;" horiz-adv-x="874" d="M111 502q0 106 53 194q51 86 145 117q10 4 0 10q-84 41 -136 120t-52 183q0 90 41 164t114.5 117t167.5 43q139 0 226.5 -91t89.5 -237v-28q0 -20 -21 -21h-104q-20 0 -21 21v20q0 92 -48 150.5t-124 58.5q-78 0 -127 -60.5t-49 -148.5q0 -94 58.5 -148.5t173.5 -97.5 q78 -31 128 -59.5t89 -81.5q61 -78 61 -205q0 -111 -45 -196q-53 -100 -147 -125q-4 0 -4 -3t4 -5q84 -43 133 -117t49 -178q0 -141 -90 -231.5t-234 -90.5q-143 0 -228 90t-87 240v37q0 20 20 20h105q20 0 20 -20v-25q0 -96 47.5 -155.5t124.5 -59.5q78 0 127.5 58.5 t49.5 146.5q0 72 -36 119t-84 72.5t-124 54.5q-86 33 -140.5 70.5t-86.5 101.5q-39 80 -39 176zM258 504q0 -78 29 -129q49 -90 155 -90q111 0 160 92q31 61 31 135q0 88 -43 147q-27 35 -65 54.5t-83 19.5q-51 0 -93 -28.5t-64 -71.5q-27 -55 -27 -129z" />
<glyph unicode="&#xa8;" horiz-adv-x="598" d="M53 1319q0 41 27 67.5t68 26.5q39 0 65.5 -26.5t26.5 -67.5q0 -43 -25.5 -69.5t-66.5 -26.5t-68 26.5t-27 69.5zM361 1319q0 41 26.5 67.5t67.5 26.5q39 0 65.5 -26.5t26.5 -67.5q0 -43 -25.5 -69.5t-66.5 -26.5t-67.5 26.5t-26.5 69.5z" />
<glyph unicode="&#xa9;" horiz-adv-x="1744" d="M131 717q0 205 96.5 372.5t265.5 264t377 96.5q211 0 381 -96.5t266.5 -264t96.5 -372.5t-96.5 -373t-266.5 -264t-381 -96q-208 0 -377 96t-265.5 264t-96.5 373zM223 717q0 -180 84 -327.5t231.5 -231.5t331.5 -84q185 0 332.5 84t232.5 231.5t85 327.5t-85 327.5 t-232.5 231.5t-332.5 84q-184 0 -331.5 -84t-231.5 -231.5t-84 -327.5zM672 549v332q0 84 55 135t145 51q92 0 147.5 -50t55.5 -134v-6q0 -20 -20 -21h-47q-8 0 -14.5 5t-6.5 11v15q0 45 -31.5 73.5t-83.5 28.5q-51 0 -80.5 -27.5t-29.5 -74.5v-346q0 -47 29.5 -75t80.5 -28 t83 29t32 74v12q0 20 21 20l47 -2q20 0 20 -12v-14q0 -82 -56 -133.5t-147 -51.5q-90 0 -145 51.5t-55 137.5z" />
<glyph unicode="&#xaa;" horiz-adv-x="612" d="M43 551v59q0 21 20 21h467q20 0 21 -21v-59q0 -20 -21 -21h-467q-20 0 -20 21zM45 938q0 106 69.5 160.5t190.5 54.5h121q8 0 8 8v53q0 70 -36 111t-103 41q-47 0 -84 -24.5t-47 -65.5q-4 -20 -23 -16l-57 4q-8 0 -14.5 6t-3.5 16q12 74 75.5 119t155.5 45 q109 0 172 -61.5t63 -163.5v-449q0 -20 -20 -20h-57q-20 0 -21 20v35q0 4 -3 6t-7 -2q-57 -70 -170 -70q-88 0 -148.5 45.5t-60.5 147.5zM143 942q0 -59 35 -88t92 -29q68 0 116 37t48 105v98q0 8 -8 8h-117q-76 0 -121 -33.5t-45 -97.5z" />
<glyph unicode="&#xab;" horiz-adv-x="1036" d="M162 561q-8 14 0 29l239 330q8 12 27 12h94q12 0 16.5 -7t-3.5 -18l-238 -325q-2 -6 0 -13l238 -325q4 -5 4 -13q0 -4 -4.5 -8t-12.5 -4h-94q-18 0 -27 12zM477 561q-8 14 0 29l240 330q8 12 26 12h95q12 0 16 -7t-4 -18l-238 -325q-2 -6 0 -13l238 -325q4 -5 4 -13 q0 -4 -4 -8t-12 -4h-95q-18 0 -26 12z" />
<glyph unicode="&#xac;" d="M74 606v78q0 21 20 21h776q20 0 21 -21v-317q0 -20 -21 -21h-82q-20 0 -20 21v211q0 8 -8 8h-666q-20 0 -20 20z" />
<glyph unicode="&#xad;" horiz-adv-x="724" d="M74 594v86q0 20 20 20h537q20 0 20 -20v-86q0 -20 -20 -21h-537q-20 1 -20 21z" />
<glyph unicode="&#xae;" horiz-adv-x="909" d="M53 1065q0 109 53.5 200t145.5 144t203 53q110 0 202.5 -53t146.5 -144t54 -200q0 -111 -53 -203t-146.5 -145t-203.5 -53q-111 0 -203 53t-145.5 145t-53.5 203zM127 1065q0 -90 43 -166t119 -120t166 -44t165.5 44t119.5 120t44 166q0 88 -44 163t-119.5 119t-165.5 44 t-166 -44t-119 -119t-43 -163zM350 899v326q0 20 21 20h106q49 0 79 -30.5t30 -77.5q0 -33 -14.5 -58.5t-41.5 -36.5q-6 -4 -4 -12l54 -127l2 -8q0 -16 -19 -16h-26q-16 0 -23 16l-53 131q-2 6 -8 6h-31q-8 0 -8 -8v-125q0 -20 -21 -20h-22q-20 0 -21 20zM414 1090 q0 -8 8 -9h47q23 0 38 15.5t15 38.5q0 27 -14 41t-39 14h-47q-8 0 -8 -8v-92z" />
<glyph unicode="&#xaf;" horiz-adv-x="778" d="M147 1239v64q0 20 21 20h440q20 0 21 -20v-64q0 -20 -21 -20h-440q-21 0 -21 20z" />
<glyph unicode="&#xb0;" horiz-adv-x="757" d="M53 1327q0 90 43 166t118 119t165 43t164.5 -43t118 -119t43.5 -166t-43.5 -166t-118 -119t-164.5 -43t-165 43t-118 119t-43 166zM156 1327q0 -94 64.5 -158.5t158.5 -64.5q92 0 156.5 64.5t64.5 158.5t-64.5 159.5t-156.5 65.5q-94 0 -158.5 -65.5t-64.5 -159.5z" />
<glyph unicode="&#xb1;" d="M74 49v78q0 20 20 21h776q20 0 21 -21v-78q0 -20 -21 -20h-776q-20 0 -20 20zM74 680v78q0 20 20 21h320q8 0 8 8v325q0 20 20 21h80q20 0 21 -21v-325q0 -8 8 -8h319q21 -1 21 -21v-78q0 -20 -21 -20h-319q-8 0 -8 -8v-318q0 -20 -21 -20h-80q-20 0 -20 20v318q0 8 -8 8 h-320q-20 0 -20 20z" />
<glyph unicode="&#xb2;" horiz-adv-x="583" d="M57 1519v43q2 96 65.5 154.5t162.5 58.5q102 0 164.5 -60t62.5 -165q0 -102 -92 -246q-35 -51 -66.5 -94t-58.5 -82q-25 -31 -90 -123q-6 -10 4 -10h305q20 0 21 -20v-50q0 -20 -21 -20h-434q-21 0 -21 20v56q0 12 9 26q111 143 245 328q94 137 95 217q0 61 -35 96 t-90 35q-53 0 -87 -35.5t-34 -93.5v-35q0 -20 -21 -20h-63q-20 0 -21 20z" />
<glyph unicode="&#xb3;" horiz-adv-x="600" d="M63 1147q0 20 21 20h63q20 0 21 -20q0 -31 6 -54q10 -49 41 -78.5t78 -29.5q76 0 110 72q18 47 19 116q0 74 -19 119q-31 78 -110 78q-16 0 -31 -6q-4 -2 -12 -2q-10 0 -17 8l-30 33q-12 12 0 28l182 232q4 4 2 7t-6 3h-289q-20 0 -20 20v50q0 20 20 20h406q20 0 20 -20 v-56q0 -14 -8 -24l-166 -213q-4 -4 -2 -7.5t6 -3.5q55 -6 94 -40.5t60 -90.5q22 -61 22 -141q0 -76 -22 -133q-23 -68 -76 -104.5t-133 -36.5q-86 0 -144.5 48t-74.5 128q-6 23 -11 78z" />
<glyph unicode="&#xb4;" horiz-adv-x="395" d="M63 1189q-4 7 2 17l125 224q10 14 25 14h98q12 0 15.5 -7t-3.5 -18l-141 -223q-10 -14 -25 -14h-79q-13 0 -17 7z" />
<glyph unicode="&#xb5;" horiz-adv-x="999" d="M143 -389v1405q0 20 21 20h104q20 0 21 -20v-674q0 -109 53 -169t150 -60q100 0 157.5 64.5t57.5 172.5v666q0 20 20 20h104q20 0 21 -20v-996q0 -20 -21 -20h-104q-20 0 -20 20v80q0 6 -3.5 6t-7.5 -4q-72 -117 -237 -116q-88 0 -160 37q-10 4 -10 -7v-405 q0 -20 -21 -21h-104q-20 0 -21 21z" />
<glyph unicode="&#xb6;" horiz-adv-x="1071" d="M72 973q0 129 50 234.5t141 166t208 60.5h414q20 0 20 -21v-1802q0 -20 -20 -21h-76q-20 0 -21 21v1700q0 8 -8 8h-213q-8 0 -8 -8v-1700q0 -20 -20 -21h-78q-20 0 -21 21v893q0 8 -8 8q-104 8 -186 70.5t-128 165t-46 225.5z" />
<glyph unicode="&#xb7;" horiz-adv-x="239" d="M-18 127q0 49 36 85t85 36q47 0 82.5 -36t35.5 -85q0 -51 -34.5 -86t-83.5 -35q-51 0 -86 35t-35 86z" />
<glyph unicode="&#xb8;" horiz-adv-x="266" d="M6 -348l6 45q2 10 9.5 14t15.5 2q12 -4 37 -4q74 0 86 74q2 8 2 24q0 80 -92 168q-8 6 -9 15q0 10 17 10h53q16 0 27 -8q109 -94 108 -205q0 -16 -4 -45q-14 -66 -61 -94.5t-111 -28.5q-29 0 -70 8q-16 7 -14 25z" />
<glyph unicode="&#xb9;" horiz-adv-x="337" d="M66 1667v37q0 18 14 24l63 31q13 6 27 6h70q20 0 20 -20v-820q0 -20 -20 -20h-64q-20 0 -20 20v732q0 4 -3 7t-6 1l-59 -17l-6 -2q-16 0 -16 21z" />
<glyph unicode="&#xba;" horiz-adv-x="643" d="M59 553v61q0 20 21 21h483q20 0 21 -21v-61q0 -20 -21 -21h-483q-21 1 -21 21zM76 1100q0 96 8 153q14 90 77.5 143.5t160.5 53.5q96 0 158.5 -53.5t76.5 -143.5q10 -76 10 -153q0 -78 -10 -154q-12 -90 -75.5 -144t-159.5 -54q-97 0 -159.5 53t-76.5 145q-10 53 -10 154 zM178 1100q0 -78 6 -137q8 -57 45 -92t93 -35q53 0 91 34.5t46 92.5q6 59 6 137t-6 135q-8 57 -45 92t-92 35t-92 -35t-46 -92q-6 -57 -6 -135z" />
<glyph unicode="&#xbb;" horiz-adv-x="1036" d="M184 226q-4 7 4 18l238 325q4 6 0 13l-238 325q-4 4 -4 13q0 4 4.5 8t12.5 4h94q18 0 27 -12l239 -330q8 -14 0 -29l-239 -330q-8 -12 -27 -12h-94q-13 0 -17 7zM499 226q-4 7 4 18l238 325q4 6 0 13l-238 325q-4 4 -4 13q0 4 4.5 8t12.5 4h94q18 0 27 -12l239 -330 q8 -14 0 -29l-239 -330q-8 -12 -27 -12h-94q-13 0 -17 7z" />
<glyph unicode="&#xbc;" horiz-adv-x="1492" d="M66 1335v37q0 18 14 24l63 31q13 6 27 6h70q20 0 20 -20v-820q0 -20 -20 -20h-64q-20 0 -20 20v732q0 4 -3 7t-6 1l-59 -17l-6 -2q-16 0 -16 21zM179 7q-3 7 3 18l877 1394q10 14 24 15h68q12 0 15 -7.5t-3 -17.5l-876 -1395q-10 -14 -25 -14h-67q-13 0 -16 7zM934 252 v47q0 14 4 25l209 520q6 16 22 16h70q10 0 14.5 -7t-0.5 -17l-196 -500q-2 -4 0 -7t6 -3h207q8 0 8 8v172q0 20 21 20h63q20 0 20 -20v-172q0 -8 9 -8h34q21 -1 21 -21v-53q0 -20 -21 -21h-34q-8 0 -9 -8v-203q0 -20 -20 -20h-63q-20 0 -21 20v203q0 8 -8 8h-316 q-20 0 -20 21z" />
<glyph unicode="&#xbd;" horiz-adv-x="1484" d="M66 1335v37q0 18 14 24l63 31q13 6 27 6h70q20 0 20 -20v-820q0 -20 -20 -20h-64q-20 0 -20 20v732q0 4 -3 7t-6 1l-59 -17l-6 -2q-16 0 -16 21zM179 7q-3 7 3 18l877 1394q10 14 24 15h68q12 0 15 -7.5t-3 -17.5l-876 -1395q-10 -14 -25 -14h-67q-13 0 -16 7zM958 614 v43q2 96 65.5 154.5t162.5 58.5q102 0 164.5 -60t62.5 -165q0 -102 -92 -246q-35 -51 -66.5 -94t-58.5 -82q-25 -31 -90 -123q-6 -10 4 -10h305q20 0 21 -20v-50q0 -20 -21 -20h-434q-21 0 -21 20v56q0 12 9 26q111 143 245 328q94 137 95 217q0 61 -35 96t-90 35 q-53 0 -87 -35.5t-34 -93.5v-35q0 -20 -21 -20h-63q-20 0 -21 20z" />
<glyph unicode="&#xbe;" horiz-adv-x="1665" d="M63 822q0 20 21 20h63q20 0 21 -20q0 -31 6 -54q10 -49 41 -78.5t78 -29.5q76 0 110 72q18 47 19 116q0 74 -19 119q-31 78 -110 78q-16 0 -31 -6q-4 -2 -12 -2q-10 0 -17 8l-30 33q-12 12 0 28l182 232q4 4 2 7t-6 3h-289q-20 0 -20 20v50q0 20 20 20h406q20 0 20 -20 v-56q0 -14 -8 -24l-166 -213q-4 -4 -2 -7.5t6 -3.5q55 -6 94 -40.5t60 -90.5q22 -61 22 -141q0 -76 -22 -133q-23 -68 -76 -104.5t-133 -36.5q-86 0 -144.5 48t-74.5 128q-6 23 -11 78zM351 7q-3 7 3 18l877 1394q10 14 24 15h68q12 0 15 -7.5t-3 -17.5l-876 -1395 q-10 -14 -25 -14h-67q-13 0 -16 7zM1106 252v47q0 14 4 25l209 520q6 16 22 16h70q10 0 14.5 -7t-0.5 -17l-196 -500q-2 -4 0 -7t6 -3h207q8 0 8 8v172q0 20 21 20h63q20 0 20 -20v-172q0 -8 9 -8h34q21 -1 21 -21v-53q0 -20 -21 -21h-34q-8 0 -9 -8v-203q0 -20 -20 -20h-63 q-20 0 -21 20v203q0 8 -8 8h-316q-20 0 -20 21z" />
<glyph unicode="&#xbf;" horiz-adv-x="849" d="M74 -68q0 90 26.5 156t63.5 107t96 94q61 53 92 94t31 98v113q0 20 20 20h107q20 0 20 -20v-121q0 -88 -37.5 -143.5t-115.5 -124.5q-78 -70 -117 -126t-39 -147q0 -102 56.5 -164.5t146.5 -62.5q94 0 152.5 63.5t58.5 165.5v64q0 20 20 20l105 -6q20 0 20 -20v-58 q0 -162 -99 -262t-259 -100q-158 0 -253 98.5t-95 261.5zM334 903q0 49 34.5 83t82.5 34q47 0 79.5 -34t32.5 -83q0 -47 -33.5 -82t-80.5 -35q-45 0 -80 35t-35 82z" />
<glyph unicode="&#xc0;" horiz-adv-x="1087" d="M74 23l381 1392q4 18 22 19h131q18 0 23 -19l383 -1392l2 -7q0 -16 -21 -16h-106q-19 0 -23 18l-67 256q-2 6 -11 7h-489q-8 0 -10 -7l-68 -256q-4 -18 -22 -18h-107q-10 0 -15 6t-3 17zM324 408q-2 -2 1 -5.5t7 -3.5h424q4 0 7 3.5t1 5.5l-215 819q-2 4 -4 4t-4 -4z M325 1829q0 12 17 12h98q14 0 25 -14l125 -224q4 -8 4 -12q0 -12 -19 -12h-80q-14 0 -24 14l-141 223q-4 8 -5 13z" />
<glyph unicode="&#xc1;" horiz-adv-x="1087" d="M74 23l381 1392q4 18 22 19h131q18 0 23 -19l383 -1392l2 -7q0 -16 -21 -16h-106q-19 0 -23 18l-67 256q-2 6 -11 7h-489q-8 0 -10 -7l-68 -256q-4 -18 -22 -18h-107q-10 0 -15 6t-3 17zM324 408q-2 -2 1 -5.5t7 -3.5h424q4 0 7 3.5t1 5.5l-215 819q-2 4 -4 4t-4 -4z M454 1586q-4 7 2 17l125 224q10 14 25 14h98q12 0 15.5 -7t-3.5 -18l-141 -223q-10 -14 -25 -14h-79q-13 0 -17 7z" />
<glyph unicode="&#xc2;" horiz-adv-x="1087" d="M74 23l381 1392q4 18 22 19h131q18 0 23 -19l383 -1392l2 -7q0 -16 -21 -16h-106q-19 0 -23 18l-67 256q-2 6 -11 7h-489q-8 0 -10 -7l-68 -256q-4 -18 -22 -18h-107q-10 0 -15 6t-3 17zM303.5 1572.5q-4.5 8.5 4.5 16.5l151 217q8 12 25 12h110q16 0 25 -12l156 -217 q4 -4 4 -12q0 -4 -4.5 -8.5t-12.5 -4.5h-84q-14 0 -24 13l-107 161q-2 4 -6 4.5t-6 -4.5l-107 -161q-8 -12 -24 -13h-84q-12 0 -16.5 8.5zM324 408q-2 -2 1 -5.5t7 -3.5h424q4 0 7 3.5t1 5.5l-215 819q-2 4 -4 4t-4 -4z" />
<glyph unicode="&#xc3;" horiz-adv-x="1087" d="M74 23l381 1392q4 18 22 19h131q18 0 23 -19l383 -1392l2 -7q0 -16 -21 -16h-106q-19 0 -23 18l-67 256q-2 6 -11 7h-489q-8 0 -10 -7l-68 -256q-4 -18 -22 -18h-107q-10 0 -15 6t-3 17zM293 1693q57 109 162 109q33 0 56.5 -11.5t63.5 -35.5q35 -23 54.5 -33t42.5 -10 q55 0 94 57q10 20 29 8l39 -24q8 -6 8 -17q0 -10 -8 -24q-31 -51 -75 -76t-87 -25q-31 0 -57.5 12.5t-59.5 35.5q-6 4 -25.5 16t-35 18.5t-31.5 6.5q-31 0 -52.5 -11.5t-43.5 -42.5q-12 -18 -29 -6l-37 27q-18 10 -8 26zM324 408q-2 -2 1 -5.5t7 -3.5h424q4 0 7 3.5t1 5.5 l-215 819q-2 4 -4 4t-4 -4z" />
<glyph unicode="&#xc4;" horiz-adv-x="1087" d="M74 23l381 1392q4 18 22 19h131q18 0 23 -19l383 -1392l2 -7q0 -16 -21 -16h-106q-19 0 -23 18l-67 256q-2 6 -11 7h-489q-8 0 -10 -7l-68 -256q-4 -18 -22 -18h-107q-10 0 -15 6t-3 17zM297 1716q0 41 27 67.5t68 26.5q39 0 65.5 -26.5t26.5 -67.5q0 -43 -25.5 -69.5 t-66.5 -26.5t-68 26.5t-27 69.5zM324 408q-2 -2 1 -5.5t7 -3.5h424q4 0 7 3.5t1 5.5l-215 819q-2 4 -4 4t-4 -4zM605 1716q0 41 26.5 67.5t67.5 26.5q39 0 65.5 -26.5t26.5 -67.5q0 -43 -25.5 -69.5t-66.5 -26.5t-67.5 26.5t-26.5 69.5z" />
<glyph unicode="&#xc5;" horiz-adv-x="1087" d="M74 23l381 1392q4 18 22 19h131q18 0 23 -19l383 -1392l2 -7q0 -16 -21 -16h-106q-19 0 -23 18l-67 256q-2 6 -11 7h-489q-8 0 -10 -7l-68 -256q-4 -18 -22 -18h-107q-10 0 -15 6t-3 17zM324 408q-2 -2 1 -5.5t7 -3.5h424q4 0 7 3.5t1 5.5l-215 819q-2 4 -4 4t-4 -4z M332 1775q0 90 60.5 150.5t150.5 60.5q88 0 148.5 -61.5t60.5 -149.5t-60.5 -148.5t-148.5 -60.5t-149.5 60.5t-61.5 148.5zM412 1775q0 -55 39 -93t92 -38t91 38t38 93t-38 94t-91 39q-55 0 -93 -37.5t-38 -95.5z" />
<glyph unicode="&#xc6;" horiz-adv-x="1681" d="M80 7q-4 7 0 18l670 1394q6 14 24 15h787q20 0 20 -21v-86q0 -20 -20 -20h-586q-8 0 -8 -9v-507q0 -8 8 -9h385q20 0 20 -20v-86q0 -20 -20 -21h-385q-8 0 -8 -8v-512q0 -8 8 -8h586q20 0 20 -21v-86q0 -20 -20 -20h-721q-20 0 -21 20v252q0 8 -8 9h-449q-4 0 -8 -7 l-123 -260q-6 -14 -24 -14h-113q-10 0 -14 7zM418 402.5q2 -3.5 6 -3.5h387q8 0 8 9l2 827q0 6 -3 6t-7 -4l-393 -827q-2 -4 0 -7.5z" />
<glyph unicode="&#xc7;" horiz-adv-x="1077" d="M131 387v662q0 182 113.5 291.5t300.5 109.5q188 0 302 -108.5t114 -288.5v-19q-1 -20 -21 -20l-104 -4q-20 0 -21 18v29q0 119 -74.5 192.5t-195.5 73.5t-195 -72.5t-74 -193.5v-680q0 -121 74 -193.5t195 -72.5t195.5 73.5t74.5 192.5v29q0 18 21 18l104 -6 q20 0 21 -17v-18q0 -172 -103.5 -279.5t-275.5 -119.5q-14 0 -4 -11q92 -84 92 -186q0 -16 -4 -45q-14 -66 -61.5 -94.5t-110.5 -28.5q-29 0 -70 8q-16 6 -14 25l6 45q2 10 9 14t15 2q12 -4 37 -4q74 0 86 74q2 8 2 24q0 88 -106 181q-2 4 -10 4q-145 27 -231.5 132 t-86.5 263z" />
<glyph unicode="&#xc8;" horiz-adv-x="1058" d="M170 20v1393q0 20 20 21h748q20 0 20 -21v-86q0 -20 -20 -20h-614q-8 0 -9 -9v-507q0 -8 9 -9h413q20 0 21 -20v-86q0 -20 -21 -21h-413q-8 0 -9 -8v-512q0 -8 9 -8h614q20 0 20 -21v-86q0 -20 -20 -20h-748q-20 0 -20 20zM342 1852q0 12 17 12h98q14 0 25 -14l125 -224 q4 -8 4 -12q0 -12 -19 -12h-80q-14 0 -24 14l-141 223q-4 8 -5 13z" />
<glyph unicode="&#xc9;" horiz-adv-x="1058" d="M170 20v1393q0 20 20 21h748q20 0 20 -21v-86q0 -20 -20 -20h-614q-8 0 -9 -9v-507q0 -8 9 -9h413q20 0 21 -20v-86q0 -20 -21 -21h-413q-8 0 -9 -8v-512q0 -8 9 -8h614q20 0 20 -21v-86q0 -20 -20 -20h-748q-20 0 -20 20zM471 1609q-4 7 2 17l125 224q10 14 25 14h98 q12 0 15.5 -7t-3.5 -18l-141 -223q-10 -14 -25 -14h-79q-13 0 -17 7z" />
<glyph unicode="&#xca;" horiz-adv-x="1058" d="M170 20v1393q0 20 20 21h748q20 0 20 -21v-86q0 -20 -20 -20h-614q-8 0 -9 -9v-507q0 -8 9 -9h413q20 0 21 -20v-86q0 -20 -21 -21h-413q-8 0 -9 -8v-512q0 -8 9 -8h614q20 0 20 -21v-86q0 -20 -20 -20h-748q-20 0 -20 20zM319.5 1595.5q-4.5 8.5 4.5 16.5l151 217 q8 12 25 12h110q16 0 25 -12l156 -217q4 -4 4 -12q0 -4 -4.5 -8.5t-12.5 -4.5h-84q-14 0 -24 13l-107 161q-2 4 -6 4.5t-6 -4.5l-107 -161q-8 -12 -24 -13h-84q-12 0 -16.5 8.5z" />
<glyph unicode="&#xcb;" horiz-adv-x="1058" d="M170 20v1393q0 20 20 21h748q20 0 20 -21v-86q0 -20 -20 -20h-614q-8 0 -9 -9v-507q0 -8 9 -9h413q20 0 21 -20v-86q0 -20 -21 -21h-413q-8 0 -9 -8v-512q0 -8 9 -8h614q20 0 20 -21v-86q0 -20 -20 -20h-748q-20 0 -20 20zM313 1739q0 41 27 67.5t68 26.5 q39 0 65.5 -26.5t26.5 -67.5q0 -43 -25.5 -69.5t-66.5 -26.5t-68 26.5t-27 69.5zM621 1739q0 41 26.5 67.5t67.5 26.5q39 0 65.5 -26.5t26.5 -67.5q0 -43 -25.5 -69.5t-66.5 -26.5t-67.5 26.5t-26.5 69.5z" />
<glyph unicode="&#xcc;" horiz-adv-x="485" d="M24 1852q0 12 17 12h98q14 0 25 -14l125 -224q4 -8 4 -12q0 -12 -19 -12h-80q-14 0 -24 14l-141 223q-4 8 -5 13zM170 20v1393q0 20 20 21h105q20 0 20 -21v-1393q0 -20 -20 -20h-105q-20 0 -20 20z" />
<glyph unicode="&#xcd;" horiz-adv-x="485" d="M153 1609q-4 7 2 17l125 224q10 14 25 14h98q12 0 15.5 -7t-3.5 -18l-141 -223q-10 -14 -25 -14h-79q-13 0 -17 7zM170 20v1393q0 20 20 21h105q20 0 20 -21v-1393q0 -20 -20 -20h-105q-20 0 -20 20z" />
<glyph unicode="&#xce;" horiz-adv-x="485" d="M2.5 1595.5q-4.5 8.5 4.5 16.5l151 217q8 12 25 12h110q16 0 25 -12l156 -217q4 -4 4 -12q0 -4 -4.5 -8.5t-12.5 -4.5h-84q-14 0 -24 13l-107 161q-2 4 -6 4.5t-6 -4.5l-107 -161q-8 -12 -24 -13h-84q-12 0 -16.5 8.5zM170 20v1393q0 20 20 21h105q20 0 20 -21v-1393 q0 -20 -20 -20h-105q-20 0 -20 20z" />
<glyph unicode="&#xcf;" horiz-adv-x="485" d="M-5 1739q0 41 27 67.5t68 26.5q39 0 65.5 -26.5t26.5 -67.5q0 -43 -25.5 -69.5t-66.5 -26.5t-68 26.5t-27 69.5zM170 20v1393q0 20 20 21h105q20 0 20 -21v-1393q0 -20 -20 -20h-105q-20 0 -20 20zM303 1739q0 41 26.5 67.5t67.5 26.5q39 0 65.5 -26.5t26.5 -67.5 q0 -43 -25.5 -69.5t-66.5 -26.5t-67.5 26.5t-26.5 69.5z" />
<glyph unicode="&#xd0;" horiz-adv-x="1220" d="M170 719v57q0 20 20 21h82q8 0 9 8v608q0 20 20 21h399q183 0 288.5 -104.5t105.5 -285.5v-655q0 -180 -105.5 -284.5t-288.5 -104.5h-399q-20 0 -20 20v670q0 8 -9 8h-82q-20 0 -20 21zM426 135q0 -8 8 -8h268q113 2 178.5 74.5t67.5 199.5v631q0 127 -65.5 201 t-180.5 74h-268q-8 0 -8 -9v-493q0 -8 8 -8h199q20 0 20 -21v-57q0 -20 -20 -21h-199q-8 0 -8 -8v-555z" />
<glyph unicode="&#xd1;" horiz-adv-x="1193" d="M170 20v1393q0 20 20 21h105q18 0 24 -15l551 -1079q4 -4 7.5 -4t3.5 6v1071q0 20 20 21h105q20 0 20 -21v-1393q0 -20 -20 -20h-107q-18 0 -25 14l-550 1084q-4 4 -7.5 3t-3.5 -7l2 -1074q0 -20 -20 -20h-105q-20 0 -20 20zM346 1716q57 109 162 109q33 0 56.5 -11.5 t63.5 -35.5q35 -23 54.5 -33t42.5 -10q55 0 94 57q10 20 29 8l39 -24q8 -6 8 -17q0 -10 -8 -24q-31 -51 -75 -76t-87 -25q-31 0 -57.5 12.5t-59.5 35.5q-6 4 -25.5 16t-35 18.5t-31.5 6.5q-31 0 -52.5 -11.5t-43.5 -42.5q-12 -18 -29 -6l-37 27q-18 10 -8 26z" />
<glyph unicode="&#xd2;" horiz-adv-x="1103" d="M131 399v633q0 123 52.5 218.5t147.5 147.5t220 52t220 -52t148.5 -147.5t53.5 -218.5v-633q0 -123 -53.5 -217t-148.5 -146t-220 -52t-220 52t-147.5 146t-52.5 217zM276 393q0 -127 76 -204.5t199 -77.5q125 0 200.5 77.5t75.5 204.5v643q0 129 -75.5 208t-200.5 79 q-123 0 -199 -79t-76 -208v-643zM333 1840q0 12 17 12h98q14 0 25 -14l125 -224q4 -8 4 -12q0 -12 -19 -12h-80q-14 0 -24 14l-141 223q-4 8 -5 13z" />
<glyph unicode="&#xd3;" horiz-adv-x="1103" d="M131 399v633q0 123 52.5 218.5t147.5 147.5t220 52t220 -52t148.5 -147.5t53.5 -218.5v-633q0 -123 -53.5 -217t-148.5 -146t-220 -52t-220 52t-147.5 146t-52.5 217zM276 393q0 -127 76 -204.5t199 -77.5q125 0 200.5 77.5t75.5 204.5v643q0 129 -75.5 208t-200.5 79 q-123 0 -199 -79t-76 -208v-643zM463 1597q-4 7 2 17l125 224q10 14 25 14h98q12 0 15.5 -7t-3.5 -18l-141 -223q-10 -14 -25 -14h-79q-13 0 -17 7z" />
<glyph unicode="&#xd4;" horiz-adv-x="1103" d="M131 399v633q0 123 52.5 218.5t147.5 147.5t220 52t220 -52t148.5 -147.5t53.5 -218.5v-633q0 -123 -53.5 -217t-148.5 -146t-220 -52t-220 52t-147.5 146t-52.5 217zM276 393q0 -127 76 -204.5t199 -77.5q125 0 200.5 77.5t75.5 204.5v643q0 129 -75.5 208t-200.5 79 q-123 0 -199 -79t-76 -208v-643zM311.5 1583.5q-4.5 8.5 4.5 16.5l151 217q8 12 25 12h110q16 0 25 -12l156 -217q4 -4 4 -12q0 -4 -4.5 -8.5t-12.5 -4.5h-84q-14 0 -24 13l-107 161q-2 4 -6 4.5t-6 -4.5l-107 -161q-8 -12 -24 -13h-84q-12 0 -16.5 8.5z" />
<glyph unicode="&#xd5;" horiz-adv-x="1103" d="M131 399v633q0 123 52.5 218.5t147.5 147.5t220 52t220 -52t148.5 -147.5t53.5 -218.5v-633q0 -123 -53.5 -217t-148.5 -146t-220 -52t-220 52t-147.5 146t-52.5 217zM276 393q0 -127 76 -204.5t199 -77.5q125 0 200.5 77.5t75.5 204.5v643q0 129 -75.5 208t-200.5 79 q-123 0 -199 -79t-76 -208v-643zM301 1704q57 109 162 109q33 0 56.5 -11.5t63.5 -35.5q35 -23 54.5 -33t42.5 -10q55 0 94 57q10 20 29 8l39 -24q8 -6 8 -17q0 -10 -8 -24q-31 -51 -75 -76t-87 -25q-31 0 -57.5 12.5t-59.5 35.5q-6 4 -25.5 16t-35 18.5t-31.5 6.5 q-31 0 -52.5 -11.5t-43.5 -42.5q-12 -18 -29 -6l-37 27q-18 10 -8 26z" />
<glyph unicode="&#xd6;" horiz-adv-x="1103" d="M131 399v633q0 123 52.5 218.5t147.5 147.5t220 52t220 -52t148.5 -147.5t53.5 -218.5v-633q0 -123 -53.5 -217t-148.5 -146t-220 -52t-220 52t-147.5 146t-52.5 217zM276 393q0 -127 76 -204.5t199 -77.5q125 0 200.5 77.5t75.5 204.5v643q0 129 -75.5 208t-200.5 79 q-123 0 -199 -79t-76 -208v-643zM305 1727q0 41 27 67.5t68 26.5q39 0 65.5 -26.5t26.5 -67.5q0 -43 -25.5 -69.5t-66.5 -26.5t-68 26.5t-27 69.5zM613 1727q0 41 26.5 67.5t67.5 26.5q39 0 65.5 -26.5t26.5 -67.5q0 -43 -25.5 -69.5t-66.5 -26.5t-67.5 26.5t-26.5 69.5z " />
<glyph unicode="&#xd7;" horiz-adv-x="811" d="M80 895q0 8 6 14l57 58q6 6 14.5 6t14.5 -6l231 -232q6 -6 13 0l225 228q6 6 14.5 6t14.5 -6l55 -56q6 -6 6 -14t-6 -14l-225 -228q-6 -6 0 -12l223 -223q6 -6 6 -14.5t-6 -14.5l-57 -57q-6 -6 -14.5 -6t-14.5 6l-223 223q-6 6 -13 0l-225 -225q-6 -6 -14 -6t-15 6 l-55 55q-6 6 -6 14.5t6 14.5l225 225q6 6 0 12l-231 232q-6 6 -6 14z" />
<glyph unicode="&#xd8;" horiz-adv-x="1144" d="M145 399v633q0 123 52.5 218.5t147.5 147.5t220 52q127 0 221 -53q10 -4 13 4l49 108q6 16 22 17h72q10 0 15.5 -7.5t0.5 -17.5l-77 -170q-2 -6 2 -10q104 -111 104 -289v-633q0 -123 -53 -217t-148.5 -146t-220.5 -52q-141 0 -243 67q-10 4 -13 -4l-51 -110 q-6 -16 -22 -17h-70q-10 0 -15.5 7t-0.5 18l79 178q2 4 -2 12q-82 104 -82 264zM291 393q0 -53 10 -86q2 -4 5 -4t5 4l426 955q2 6 -4 10q-68 51 -168 51q-123 0 -198.5 -79t-75.5 -208v-643zM373 190q-2 -6 2 -10q74 -70 190 -69q125 0 201 77.5t76 204.5v643q0 70 -23 127 q-2 4 -6 4t-6 -4z" />
<glyph unicode="&#xd9;" horiz-adv-x="1150" d="M156 410v1003q0 20 20 21h105q20 0 20 -21v-1012q0 -131 76 -210.5t198 -79.5q123 0 199 79.5t76 210.5v1012q0 20 20 21h105q20 0 20 -21v-1003q0 -127 -52 -223.5t-147.5 -149.5t-220.5 -53q-124 0 -219.5 53t-147.5 149.5t-52 223.5zM358 1854q0 12 17 12h98 q14 0 25 -14l125 -224q4 -8 4 -12q0 -12 -19 -12h-80q-14 0 -24 14l-141 223q-4 8 -5 13z" />
<glyph unicode="&#xda;" horiz-adv-x="1150" d="M156 410v1003q0 20 20 21h105q20 0 20 -21v-1012q0 -131 76 -210.5t198 -79.5q123 0 199 79.5t76 210.5v1012q0 20 20 21h105q20 0 20 -21v-1003q0 -127 -52 -223.5t-147.5 -149.5t-220.5 -53q-124 0 -219.5 53t-147.5 149.5t-52 223.5zM487 1611q-4 7 2 17l125 224 q10 14 25 14h98q12 0 15.5 -7t-3.5 -18l-141 -223q-10 -14 -25 -14h-79q-13 0 -17 7z" />
<glyph unicode="&#xdb;" horiz-adv-x="1150" d="M156 410v1003q0 20 20 21h105q20 0 20 -21v-1012q0 -131 76 -210.5t198 -79.5q123 0 199 79.5t76 210.5v1012q0 20 20 21h105q20 0 20 -21v-1003q0 -127 -52 -223.5t-147.5 -149.5t-220.5 -53q-124 0 -219.5 53t-147.5 149.5t-52 223.5zM335.5 1597.5q-4.5 8.5 4.5 16.5 l151 217q8 12 25 12h110q16 0 25 -12l156 -217q4 -4 4 -12q0 -4 -4.5 -8.5t-12.5 -4.5h-84q-14 0 -24 13l-107 161q-2 4 -6 4.5t-6 -4.5l-107 -161q-8 -12 -24 -13h-84q-12 0 -16.5 8.5z" />
<glyph unicode="&#xdc;" horiz-adv-x="1150" d="M156 410v1003q0 20 20 21h105q20 0 20 -21v-1012q0 -131 76 -210.5t198 -79.5q123 0 199 79.5t76 210.5v1012q0 20 20 21h105q20 0 20 -21v-1003q0 -127 -52 -223.5t-147.5 -149.5t-220.5 -53q-124 0 -219.5 53t-147.5 149.5t-52 223.5zM329 1741q0 41 27 67.5t68 26.5 q39 0 65.5 -26.5t26.5 -67.5q0 -43 -25.5 -69.5t-66.5 -26.5t-68 26.5t-27 69.5zM637 1741q0 41 26.5 67.5t67.5 26.5q39 0 65.5 -26.5t26.5 -67.5q0 -43 -25.5 -69.5t-66.5 -26.5t-67.5 26.5t-26.5 69.5z" />
<glyph unicode="&#xdd;" horiz-adv-x="1015" d="M76 1417q0 16 18 17h111q16 0 22 -17l275 -612q2 -4 6 -4t6 4l274 612q6 16 23 17h111q10 0 15 -7.5t1 -17.5l-356 -766q-2 -2 -2 -10v-610q0 -20 -21 -21h-104q-21 1 -21 21v610q0 8 -2 10l-354 766zM420 1586q-4 7 2 17l125 224q10 14 25 14h98q12 0 15.5 -7t-3.5 -18 l-141 -223q-10 -14 -25 -14h-79q-13 0 -17 7z" />
<glyph unicode="&#xde;" horiz-adv-x="1034" d="M162 20v1393q0 20 20 21h105q20 0 20 -21v-291q0 -8 8 -8h281q164 0 265.5 -110.5t101.5 -288.5q0 -117 -47.5 -205t-130.5 -137t-189 -49h-281q-8 0 -8 -9v-295q0 -20 -20 -20h-105q-20 0 -20 20zM307 451q0 -8 8 -9h263q108 0 173.5 74t65.5 197q0 125 -65.5 198.5 t-173.5 73.5h-263q-8 0 -8 -8v-526z" />
<glyph unicode="&#xdf;" horiz-adv-x="1044" d="M145 20v1024q0 190 100.5 299t272.5 109q188 0 290.5 -104.5t102.5 -288.5q0 -104 -42 -181t-115 -112q-8 -2 -2 -10q82 -39 128 -132.5t46 -224.5q0 -188 -107.5 -293.5t-314.5 -105.5h-103q-20 0 -20 20v84q0 20 20 21l111 2q133 0 201.5 73.5t68.5 211.5 q0 137 -59 212.5t-176 77.5h-107q-20 0 -20 21v76q0 20 20 20h109q104 0 161.5 62.5t57.5 175.5q0 127 -62.5 197.5t-181.5 70.5q-102 0 -167.5 -70.5t-65.5 -195.5v-1039q0 -20 -21 -20h-104q-21 0 -21 20z" />
<glyph unicode="&#xe0;" horiz-adv-x="944" d="M86 281q0 164 106.5 248.5t288.5 84.5h191q8 0 8 9v77q0 104 -53.5 165t-153.5 61q-80 0 -134 -40t-63 -106q-2 -18 -22 -18l-113 6q-10 0 -15 6t-3 14q14 119 110.5 192t239.5 73q164 0 258 -94.5t94 -249.5v-689q0 -20 -20 -20h-105q-20 0 -20 20v74q0 4 -3 6t-7 -2 q-47 -57 -118 -85.5t-157 -28.5q-129 0 -219 69.5t-90 227.5zM233 289q0 -90 54.5 -134t140.5 -44q102 0 177 56t75 157v165q0 8 -8 9h-183q-115 0 -185.5 -54.5t-70.5 -154.5zM256 1448q0 12 17 12h98q14 0 25 -14l125 -224q4 -8 4 -12q0 -12 -19 -12h-80q-14 0 -24 14 l-141 223q-4 8 -5 13z" />
<glyph unicode="&#xe1;" horiz-adv-x="944" d="M86 281q0 164 106.5 248.5t288.5 84.5h191q8 0 8 9v77q0 104 -53.5 165t-153.5 61q-80 0 -134 -40t-63 -106q-2 -18 -22 -18l-113 6q-10 0 -15 6t-3 14q14 119 110.5 192t239.5 73q164 0 258 -94.5t94 -249.5v-689q0 -20 -20 -20h-105q-20 0 -20 20v74q0 4 -3 6t-7 -2 q-47 -57 -118 -85.5t-157 -28.5q-129 0 -219 69.5t-90 227.5zM233 289q0 -90 54.5 -134t140.5 -44q102 0 177 56t75 157v165q0 8 -8 9h-183q-115 0 -185.5 -54.5t-70.5 -154.5zM385 1205q-4 7 2 17l125 224q10 14 25 14h98q12 0 15.5 -7t-3.5 -18l-141 -223q-10 -14 -25 -14 h-79q-13 0 -17 7z" />
<glyph unicode="&#xe2;" horiz-adv-x="944" d="M86 281q0 164 106.5 248.5t288.5 84.5h191q8 0 8 9v77q0 104 -53.5 165t-153.5 61q-80 0 -134 -40t-63 -106q-2 -18 -22 -18l-113 6q-10 0 -15 6t-3 14q14 119 110.5 192t239.5 73q164 0 258 -94.5t94 -249.5v-689q0 -20 -20 -20h-105q-20 0 -20 20v74q0 4 -3 6t-7 -2 q-47 -57 -118 -85.5t-157 -28.5q-129 0 -219 69.5t-90 227.5zM233 289q0 -90 54.5 -134t140.5 -44q102 0 177 56t75 157v165q0 8 -8 9h-183q-115 0 -185.5 -54.5t-70.5 -154.5zM233.5 1191.5q-4.5 8.5 4.5 16.5l151 217q8 12 25 12h110q16 0 25 -12l156 -217q4 -4 4 -12 q0 -4 -4.5 -8.5t-12.5 -4.5h-84q-14 0 -24 13l-107 161q-2 4 -6 4.5t-6 -4.5l-107 -161q-8 -12 -24 -13h-84q-12 0 -16.5 8.5z" />
<glyph unicode="&#xe3;" horiz-adv-x="944" d="M86 281q0 164 106.5 248.5t288.5 84.5h191q8 0 8 9v77q0 104 -53.5 165t-153.5 61q-80 0 -134 -40t-63 -106q-2 -18 -22 -18l-113 6q-10 0 -15 6t-3 14q14 119 110.5 192t239.5 73q164 0 258 -94.5t94 -249.5v-689q0 -20 -20 -20h-105q-20 0 -20 20v74q0 4 -3 6t-7 -2 q-47 -57 -118 -85.5t-157 -28.5q-129 0 -219 69.5t-90 227.5zM223 1312q57 109 162 109q33 0 56.5 -11.5t63.5 -35.5q35 -23 54.5 -33t42.5 -10q55 0 94 57q10 20 29 8l39 -24q8 -6 8 -17q0 -10 -8 -24q-31 -51 -75 -76t-87 -25q-31 0 -57.5 12.5t-59.5 35.5q-6 4 -25.5 16 t-35 18.5t-31.5 6.5q-31 0 -52.5 -11.5t-43.5 -42.5q-12 -18 -29 -6l-37 27q-18 10 -8 26zM233 289q0 -90 54.5 -134t140.5 -44q102 0 177 56t75 157v165q0 8 -8 9h-183q-115 0 -185.5 -54.5t-70.5 -154.5z" />
<glyph unicode="&#xe4;" horiz-adv-x="944" d="M86 281q0 164 106.5 248.5t288.5 84.5h191q8 0 8 9v77q0 104 -53.5 165t-153.5 61q-80 0 -134 -40t-63 -106q-2 -18 -22 -18l-113 6q-10 0 -15 6t-3 14q14 119 110.5 192t239.5 73q164 0 258 -94.5t94 -249.5v-689q0 -20 -20 -20h-105q-20 0 -20 20v74q0 4 -3 6t-7 -2 q-47 -57 -118 -85.5t-157 -28.5q-129 0 -219 69.5t-90 227.5zM227 1335q0 41 27 67.5t68 26.5q39 0 65.5 -26.5t26.5 -67.5q0 -43 -25.5 -69.5t-66.5 -26.5t-68 26.5t-27 69.5zM233 289q0 -90 54.5 -134t140.5 -44q102 0 177 56t75 157v165q0 8 -8 9h-183 q-115 0 -185.5 -54.5t-70.5 -154.5zM535 1335q0 41 26.5 67.5t67.5 26.5q39 0 65.5 -26.5t26.5 -67.5q0 -43 -25.5 -69.5t-66.5 -26.5t-67.5 26.5t-26.5 69.5z" />
<glyph unicode="&#xe5;" horiz-adv-x="944" d="M86 281q0 164 106.5 248.5t288.5 84.5h191q8 0 8 9v77q0 104 -53.5 165t-153.5 61q-80 0 -134 -40t-63 -106q-2 -18 -22 -18l-113 6q-10 0 -15 6t-3 14q14 119 110.5 192t239.5 73q164 0 258 -94.5t94 -249.5v-689q0 -20 -20 -20h-105q-20 0 -20 20v74q0 4 -3 6t-7 -2 q-47 -57 -118 -85.5t-157 -28.5q-129 0 -219 69.5t-90 227.5zM233 289q0 -90 54.5 -134t140.5 -44q102 0 177 56t75 157v165q0 8 -8 9h-183q-115 0 -185.5 -54.5t-70.5 -154.5zM262 1394q0 90 60.5 150.5t150.5 60.5q88 0 148.5 -61.5t60.5 -149.5t-60.5 -148.5 t-148.5 -60.5t-149.5 60.5t-61.5 148.5zM342 1394q0 -55 39 -93t92 -38t91 38t38 93t-38 94t-91 39q-55 0 -93 -37.5t-38 -95.5z" />
<glyph unicode="&#xe6;" horiz-adv-x="1519" d="M86 272q0 162 102.5 242t284.5 80h197q8 0 8 8v94q0 104 -53.5 167t-157.5 63q-80 0 -136.5 -40t-68.5 -106q-4 -23 -22 -18l-105 10q-20 4 -18 23q14 115 112.5 186.5t237.5 71.5q100 0 174 -43t111 -117q4 -10 10 0q39 70 115.5 115t173.5 45q139 0 237 -83t115 -216 q10 -106 10 -265q0 -20 -20 -20h-557q-8 0 -9 -8l2 -142q2 -92 67 -145t163 -53q80 0 134 39t79 104q6 18 24 12l88 -24q18 -6 15 -25q-31 -111 -122 -177t-222 -66q-106 0 -188.5 45t-112.5 116q-2 4 -4 6.5t-5 -1.5q-37 -78 -129 -122t-210 -44q-138 0 -229 65.5 t-91 222.5zM233 281q0 -88 54.5 -133.5t142.5 -45.5q100 0 174 54.5t74 154.5v150q0 8 -8 8h-183q-117 0 -185.5 -47t-68.5 -141zM827 602q1 -8 9 -8h424q8 0 8 8q0 51 -4 125q-10 88 -68.5 143.5t-148.5 55.5q-88 0 -146.5 -55.5t-69.5 -143.5q-4 -78 -4 -125z" />
<glyph unicode="&#xe7;" horiz-adv-x="944" d="M117 520q0 104 12 236q18 133 116.5 215t243.5 82t245 -78t116 -195l6 -43v-4q0 -8 -5 -13t-13 -5l-105 -6q-18 0 -22 18q0 18 -2 25q-10 72 -70.5 123t-149.5 51q-90 0 -148 -55.5t-69 -143.5q-10 -88 -10 -209q0 -123 10 -211q10 -90 68.5 -143t148.5 -53t150.5 51 t69.5 125l2 16q4 23 22 19l103 -9q18 -4 18 -18v-8q0 -8 -4 -25q-12 -109 -95 -184.5t-210 -89.5q-12 -4 -2 -11q92 -86 92 -188q0 -33 -4 -47q-14 -66 -61.5 -94.5t-110.5 -28.5q-29 0 -70 8q-16 6 -14 25l6 45q2 10 9 14t16 2q12 -4 36 -4q74 0 86 74q2 8 2 24 q0 84 -102 177q-2 4 -10 4q-119 20 -195 98t-94 197q-12 104 -12 237z" />
<glyph unicode="&#xe8;" d="M119 520q0 162 8 230q16 137 113.5 220t244.5 83q162 0 256.5 -90.5t108.5 -241.5q8 -96 8 -234q0 -20 -20 -20h-568q-8 0 -8 -8q0 -88 6 -150q10 -90 72.5 -144t155.5 -54q79 0 136.5 41t82.5 108q6 20 24 14l84 -22q20 -6 15 -25q-31 -111 -123 -177t-226 -66 q-143 0 -236 76.5t-116 207.5q-18 94 -18 252zM262 592q0 -8 8 -8h435q8 0 8 8q-4 98 -8 135q-10 88 -70 143.5t-150 55.5t-147 -53.5t-68 -141.5q-4 -43 -8 -139zM268 1448q0 12 17 12h98q14 0 25 -14l125 -224q4 -8 4 -12q0 -12 -19 -12h-80q-14 0 -24 14l-141 223 q-4 8 -5 13z" />
<glyph unicode="&#xe9;" d="M119 520q0 162 8 230q16 137 113.5 220t244.5 83q162 0 256.5 -90.5t108.5 -241.5q8 -96 8 -234q0 -20 -20 -20h-568q-8 0 -8 -8q0 -88 6 -150q10 -90 72.5 -144t155.5 -54q79 0 136.5 41t82.5 108q6 20 24 14l84 -22q20 -6 15 -25q-31 -111 -123 -177t-226 -66 q-143 0 -236 76.5t-116 207.5q-18 94 -18 252zM262 592q0 -8 8 -8h435q8 0 8 8q-4 98 -8 135q-10 88 -70 143.5t-150 55.5t-147 -53.5t-68 -141.5q-4 -43 -8 -139zM397 1205q-4 7 2 17l125 224q10 14 25 14h98q12 0 15.5 -7t-3.5 -18l-141 -223q-10 -14 -25 -14h-79 q-13 0 -17 7z" />
<glyph unicode="&#xea;" d="M119 520q0 162 8 230q16 137 113.5 220t244.5 83q162 0 256.5 -90.5t108.5 -241.5q8 -96 8 -234q0 -20 -20 -20h-568q-8 0 -8 -8q0 -88 6 -150q10 -90 72.5 -144t155.5 -54q79 0 136.5 41t82.5 108q6 20 24 14l84 -22q20 -6 15 -25q-31 -111 -123 -177t-226 -66 q-143 0 -236 76.5t-116 207.5q-18 94 -18 252zM245.5 1191.5q-4.5 8.5 4.5 16.5l151 217q8 12 25 12h110q16 0 25 -12l156 -217q4 -4 4 -12q0 -4 -4.5 -8.5t-12.5 -4.5h-84q-14 0 -24 13l-107 161q-2 4 -6 4.5t-6 -4.5l-107 -161q-8 -12 -24 -13h-84q-12 0 -16.5 8.5z M262 592q0 -8 8 -8h435q8 0 8 8q-4 98 -8 135q-10 88 -70 143.5t-150 55.5t-147 -53.5t-68 -141.5q-4 -43 -8 -139z" />
<glyph unicode="&#xeb;" d="M119 520q0 162 8 230q16 137 113.5 220t244.5 83q162 0 256.5 -90.5t108.5 -241.5q8 -96 8 -234q0 -20 -20 -20h-568q-8 0 -8 -8q0 -88 6 -150q10 -90 72.5 -144t155.5 -54q79 0 136.5 41t82.5 108q6 20 24 14l84 -22q20 -6 15 -25q-31 -111 -123 -177t-226 -66 q-143 0 -236 76.5t-116 207.5q-18 94 -18 252zM239 1335q0 41 27 67.5t68 26.5q39 0 65.5 -26.5t26.5 -67.5q0 -43 -25.5 -69.5t-66.5 -26.5t-68 26.5t-27 69.5zM262 592q0 -8 8 -8h435q8 0 8 8q-4 98 -8 135q-10 88 -70 143.5t-150 55.5t-147 -53.5t-68 -141.5 q-4 -43 -8 -139zM547 1335q0 41 26.5 67.5t67.5 26.5q39 0 65.5 -26.5t26.5 -67.5q0 -43 -25.5 -69.5t-66.5 -26.5t-67.5 26.5t-26.5 69.5z" />
<glyph unicode="&#xec;" horiz-adv-x="417" d="M-13 1452q0 12 17 12h98q14 0 25 -14l125 -224q4 -8 4 -12q0 -12 -19 -12h-80q-14 0 -24 14l-141 223q-4 8 -5 13zM133 20v996q0 20 21 20h104q20 0 21 -20v-996q0 -20 -21 -20h-104q-21 0 -21 20z" />
<glyph unicode="&#xed;" horiz-adv-x="417" d="M117 1209q-4 7 2 17l125 224q10 14 25 14h98q12 0 15.5 -7t-3.5 -18l-141 -223q-10 -14 -25 -14h-79q-13 0 -17 7zM133 20v996q0 20 21 20h104q20 0 21 -20v-996q0 -20 -21 -20h-104q-21 0 -21 20z" />
<glyph unicode="&#xee;" horiz-adv-x="417" d="M-34.5 1195.5q-4.5 8.5 4.5 16.5l151 217q8 12 25 12h110q16 0 25 -12l156 -217q4 -4 4 -12q0 -4 -4.5 -8.5t-12.5 -4.5h-84q-14 0 -24 13l-107 161q-2 4 -6 4.5t-6 -4.5l-107 -161q-8 -12 -24 -13h-84q-12 0 -16.5 8.5zM133 20v996q0 20 21 20h104q20 0 21 -20v-996 q0 -20 -21 -20h-104q-21 0 -21 20z" />
<glyph unicode="&#xef;" horiz-adv-x="417" d="M-41 1339q0 41 27 67.5t68 26.5q39 0 65.5 -26.5t26.5 -67.5q0 -43 -25.5 -69.5t-66.5 -26.5t-68 26.5t-27 69.5zM133 20v996q0 20 21 20h104q20 0 21 -20v-996q0 -20 -21 -20h-104q-21 0 -21 20zM267 1339q0 41 26.5 67.5t67.5 26.5q39 0 65.5 -26.5t26.5 -67.5 q0 -43 -25.5 -69.5t-66.5 -26.5t-67.5 26.5t-26.5 69.5z" />
<glyph unicode="&#xf0;" horiz-adv-x="980" d="M113 502q0 68 2 124t8 101q12 121 94 197.5t203 81.5q12 2 35 2q61 0 115.5 -18.5t88.5 -51.5q8 -6 7 4q-29 117 -109 234q-4 8 -10 4l-170 -50l-8 -2q-12 0 -19 17l-10 37l-2 8q0 12 16 18l135 41q10 4 5 11q-57 72 -140 149q-8 6 -8 12q0 12 19 13h104q10 0 25 -11 l38 -43l80 -88q4 -8 11 -4l163 49l9 2q12 0 18 -16l10 -41v-6q0 -12 -14 -19l-127 -38q-8 -4 -6 -9q145 -207 162 -489q6 -67 6 -219q0 -160 -10 -226q-16 -131 -113.5 -211.5t-243.5 -80.5q-145 0 -240.5 79.5t-113.5 212.5q-10 68 -10 226zM258 500q0 -115 6 -199 q10 -88 67.5 -142.5t145.5 -54.5t146.5 54.5t68.5 142.5q6 84 6 199q0 119 -6 198q-10 88 -68.5 142.5t-146.5 54.5t-145.5 -54.5t-67.5 -142.5q-6 -55 -6 -198z" />
<glyph unicode="&#xf1;" horiz-adv-x="987" d="M143 20v996q0 20 21 20h104q20 0 21 -20v-76q0 -4 3 -6t7 2q41 57 103.5 86t140.5 29q143 0 226 -91.5t83 -248.5v-691q0 -20 -21 -20h-104q-20 0 -20 20v670q0 106 -55.5 170t-149.5 64q-96 0 -154.5 -64.5t-58.5 -173.5v-666q0 -20 -21 -20h-104q-20 0 -21 20z M266 1300q55 109 152 109q29 0 51.5 -10t60.5 -37q33 -23 50.5 -33t40.5 -10q27 0 47 12t41 45q8 18 28 6l35 -22q16 -10 8 -29q-29 -57 -72.5 -84.5t-86.5 -27.5q-29 0 -53.5 12t-55.5 35q-6 4 -24.5 16t-34 18.5t-29.5 6.5q-29 0 -48.5 -11.5t-39.5 -42.5q-12 -18 -29 -6 l-35 27q-16 10 -6 26z" />
<glyph unicode="&#xf2;" horiz-adv-x="983" d="M117 520q0 141 14 234q18 137 115.5 218t247.5 81q145 0 242.5 -81t115.5 -216q14 -98 14 -236q0 -139 -14 -237q-20 -137 -116.5 -218t-243.5 -81q-148 0 -244 80.5t-117 218.5q-14 94 -14 237zM262 518q0 -133 8 -209q12 -90 72.5 -144t149.5 -54q88 0 148 54t73 144 q8 80 8 209q0 133 -8 209q-12 90 -72.5 144.5t-148.5 54.5t-148.5 -54.5t-73.5 -144.5q-8 -76 -8 -209zM274 1448q0 12 17 12h98q14 0 25 -14l125 -224q4 -8 4 -12q0 -12 -19 -12h-80q-14 0 -24 14l-141 223q-4 8 -5 13z" />
<glyph unicode="&#xf3;" horiz-adv-x="983" d="M117 520q0 141 14 234q18 137 115.5 218t247.5 81q145 0 242.5 -81t115.5 -216q14 -98 14 -236q0 -139 -14 -237q-20 -137 -116.5 -218t-243.5 -81q-148 0 -244 80.5t-117 218.5q-14 94 -14 237zM262 518q0 -133 8 -209q12 -90 72.5 -144t149.5 -54q88 0 148 54t73 144 q8 80 8 209q0 133 -8 209q-12 90 -72.5 144.5t-148.5 54.5t-148.5 -54.5t-73.5 -144.5q-8 -76 -8 -209zM403 1205q-4 7 2 17l125 224q10 14 25 14h98q12 0 15.5 -7t-3.5 -18l-141 -223q-10 -14 -25 -14h-79q-13 0 -17 7z" />
<glyph unicode="&#xf4;" horiz-adv-x="983" d="M117 520q0 141 14 234q18 137 115.5 218t247.5 81q145 0 242.5 -81t115.5 -216q14 -98 14 -236q0 -139 -14 -237q-20 -137 -116.5 -218t-243.5 -81q-148 0 -244 80.5t-117 218.5q-14 94 -14 237zM251.5 1191.5q-4.5 8.5 4.5 16.5l151 217q8 12 25 12h110q16 0 25 -12 l156 -217q4 -4 4 -12q0 -4 -4.5 -8.5t-12.5 -4.5h-84q-14 0 -24 13l-107 161q-2 4 -6 4.5t-6 -4.5l-107 -161q-8 -12 -24 -13h-84q-12 0 -16.5 8.5zM262 518q0 -133 8 -209q12 -90 72.5 -144t149.5 -54q88 0 148 54t73 144q8 80 8 209q0 133 -8 209q-12 90 -72.5 144.5 t-148.5 54.5t-148.5 -54.5t-73.5 -144.5q-8 -76 -8 -209z" />
<glyph unicode="&#xf5;" horiz-adv-x="983" d="M117 520q0 141 14 234q18 137 115.5 218t247.5 81q145 0 242.5 -81t115.5 -216q14 -98 14 -236q0 -139 -14 -237q-20 -137 -116.5 -218t-243.5 -81q-148 0 -244 80.5t-117 218.5q-14 94 -14 237zM242 1312q57 109 162 109q33 0 56.5 -11.5t63.5 -35.5q35 -23 54.5 -33 t42.5 -10q55 0 94 57q10 20 29 8l39 -24q8 -6 8 -17q0 -10 -8 -24q-31 -51 -75 -76t-87 -25q-31 0 -57.5 12.5t-59.5 35.5q-6 4 -25.5 16t-35 18.5t-31.5 6.5q-31 0 -52.5 -11.5t-43.5 -42.5q-12 -18 -29 -6l-37 27q-18 10 -8 26zM262 518q0 -133 8 -209q12 -90 72.5 -144 t149.5 -54q88 0 148 54t73 144q8 80 8 209q0 133 -8 209q-12 90 -72.5 144.5t-148.5 54.5t-148.5 -54.5t-73.5 -144.5q-8 -76 -8 -209z" />
<glyph unicode="&#xf6;" horiz-adv-x="983" d="M117 520q0 141 14 234q18 137 115.5 218t247.5 81q145 0 242.5 -81t115.5 -216q14 -98 14 -236q0 -139 -14 -237q-20 -137 -116.5 -218t-243.5 -81q-148 0 -244 80.5t-117 218.5q-14 94 -14 237zM245 1335q0 41 27 67.5t68 26.5q39 0 65.5 -26.5t26.5 -67.5 q0 -43 -25.5 -69.5t-66.5 -26.5t-68 26.5t-27 69.5zM262 518q0 -133 8 -209q12 -90 72.5 -144t149.5 -54q88 0 148 54t73 144q8 80 8 209q0 133 -8 209q-12 90 -72.5 144.5t-148.5 54.5t-148.5 -54.5t-73.5 -144.5q-8 -76 -8 -209zM553 1335q0 41 26.5 67.5t67.5 26.5 q39 0 65.5 -26.5t26.5 -67.5q0 -43 -25.5 -69.5t-66.5 -26.5t-67.5 26.5t-26.5 69.5z" />
<glyph unicode="&#xf7;" d="M74 627v78q0 20 20 20h776q20 0 21 -20v-78q0 -20 -21 -21h-776q-20 1 -20 21zM373 358q0 43 31.5 75t76.5 32q43 0 76 -32t33 -75t-33 -74.5t-76 -31.5q-45 0 -76.5 30.5t-31.5 75.5zM373 995q0 43 31.5 74t76.5 31q43 0 76 -31t33 -74q0 -45 -33 -76.5t-76 -31.5 q-45 0 -76.5 31.5t-31.5 76.5z" />
<glyph unicode="&#xf8;" horiz-adv-x="1005" d="M131 10l68 117q4 6 0 12q-39 59 -52 144q-14 94 -14 237q0 141 14 234q18 137 115.5 218t247.5 81q109 0 192 -47q8 -4 11 2l49 84q4 8 12 10t17 -2l65 -43q16 -10 6 -27l-57 -102q-4 -6 0 -10q51 -70 63 -162q15 -99 15 -236q0 -139 -15 -237q-20 -137 -116.5 -218 t-243.5 -81q-121 0 -213 57q-6 4 -10 -4l-54 -90q-8 -18 -28 -6l-66 43q-16 10 -6 26zM279 518q0 -133 8 -209l2 -8q0 -6 4 -7t6 5l338 580q2 8 -2 10q-55 37 -127 37q-88 0 -148.5 -54.5t-72.5 -144.5q-8 -76 -8 -209zM362 172q-4 -8 3 -10q57 -51 143 -51q88 0 148.5 54 t72.5 144q8 80 8 209q0 133 -8 209q-4 25 -8 39q-4 10 -10 0z" />
<glyph unicode="&#xf9;" horiz-adv-x="983" d="M131 305v711q0 20 21 20h104q20 0 20 -20v-674q0 -109 53.5 -169t149.5 -60q100 0 157.5 64.5t57.5 172.5v666q1 20 21 20h104q20 0 21 -20v-996q0 -20 -21 -20h-104q-20 0 -21 20v80q0 6 -3 6t-7 -4q-72 -117 -238 -116q-139 0 -227 82t-88 237zM270 1432q0 12 17 12h98 q14 0 25 -14l125 -224q4 -8 4 -12q0 -12 -19 -12h-80q-14 0 -24 14l-141 223q-4 8 -5 13z" />
<glyph unicode="&#xfa;" horiz-adv-x="983" d="M131 305v711q0 20 21 20h104q20 0 20 -20v-674q0 -109 53.5 -169t149.5 -60q100 0 157.5 64.5t57.5 172.5v666q1 20 21 20h104q20 0 21 -20v-996q0 -20 -21 -20h-104q-20 0 -21 20v80q0 6 -3 6t-7 -4q-72 -117 -238 -116q-139 0 -227 82t-88 237zM399 1189q-4 7 2 17 l125 224q10 14 25 14h98q12 0 15.5 -7t-3.5 -18l-141 -223q-10 -14 -25 -14h-79q-13 0 -17 7z" />
<glyph unicode="&#xfb;" horiz-adv-x="983" d="M131 305v711q0 20 21 20h104q20 0 20 -20v-674q0 -109 53.5 -169t149.5 -60q100 0 157.5 64.5t57.5 172.5v666q1 20 21 20h104q20 0 21 -20v-996q0 -20 -21 -20h-104q-20 0 -21 20v80q0 6 -3 6t-7 -4q-72 -117 -238 -116q-139 0 -227 82t-88 237zM247.5 1175.5 q-4.5 8.5 4.5 16.5l151 217q8 12 25 12h110q16 0 25 -12l156 -217q4 -4 4 -12q0 -4 -4.5 -8.5t-12.5 -4.5h-84q-14 0 -24 13l-107 161q-2 4 -6 4.5t-6 -4.5l-107 -161q-8 -12 -24 -13h-84q-12 0 -16.5 8.5z" />
<glyph unicode="&#xfc;" horiz-adv-x="983" d="M131 305v711q0 20 21 20h104q20 0 20 -20v-674q0 -109 53.5 -169t149.5 -60q100 0 157.5 64.5t57.5 172.5v666q1 20 21 20h104q20 0 21 -20v-996q0 -20 -21 -20h-104q-20 0 -21 20v80q0 6 -3 6t-7 -4q-72 -117 -238 -116q-139 0 -227 82t-88 237zM241 1319q0 41 27 67.5 t68 26.5q39 0 65.5 -26.5t26.5 -67.5q0 -43 -25.5 -69.5t-66.5 -26.5t-68 26.5t-27 69.5zM549 1319q0 41 26.5 67.5t67.5 26.5q39 0 65.5 -26.5t26.5 -67.5q0 -43 -25.5 -69.5t-66.5 -26.5t-67.5 26.5t-26.5 69.5z" />
<glyph unicode="&#xfd;" horiz-adv-x="847" d="M43 1020q0 16 20 16h111q18 0 23 -16l223 -811q2 -4 5 -4t5 4l221 809q4 18 23 18h110q10 0 15.5 -6t3.5 -16l-334 -1104q-41 -137 -81 -202.5t-100.5 -91.5t-170.5 -26h-13q-14 1 -14 21v84q0 20 12 20h13q72 0 111.5 22.5t66 80t57.5 176.5q2 2 1 7l-1 5l-305 1008z M336 1193q-4 7 2 17l125 224q10 14 25 14h98q12 0 15.5 -7t-3.5 -18l-141 -223q-10 -14 -25 -14h-79q-13 0 -17 7z" />
<glyph unicode="&#xfe;" horiz-adv-x="976" d="M139 -389v1802q0 20 21 21h104q20 0 21 -21v-469q0 -6 4 -7t6 5q74 111 229 111q135 0 218 -78t108 -221q14 -84 14 -238q0 -152 -16 -237q-29 -143 -110 -219t-208 -76q-158 0 -235 114q-2 4 -6 2t-4 -6v-483q0 -20 -21 -21h-104q-20 0 -21 21zM285 381q4 -49 12 -92 q16 -82 66.5 -130t130.5 -48q84 0 137 48t69 132q19 80 19 227t-23 236q-18 78 -71.5 125t-132.5 47q-80 0 -129.5 -47.5t-63.5 -128.5q-12 -61 -14 -97v-272z" />
<glyph unicode="&#xff;" horiz-adv-x="847" d="M43 1020q0 16 20 16h111q18 0 23 -16l223 -811q2 -4 5 -4t5 4l221 809q4 18 23 18h110q10 0 15.5 -6t3.5 -16l-334 -1104q-41 -137 -81 -202.5t-100.5 -91.5t-170.5 -26h-13q-14 1 -14 21v84q0 20 12 20h13q72 0 111.5 22.5t66 80t57.5 176.5q2 2 1 7l-1 5l-305 1008z M178 1323q0 41 27 67.5t68 26.5q39 0 65.5 -26.5t26.5 -67.5q0 -43 -25.5 -69.5t-66.5 -26.5t-68 26.5t-27 69.5zM486 1323q0 41 26.5 67.5t67.5 26.5q39 0 65.5 -26.5t26.5 -67.5q0 -43 -25.5 -69.5t-66.5 -26.5t-67.5 26.5t-26.5 69.5z" />
<glyph unicode="&#x152;" horiz-adv-x="1646" d="M131 385v662q0 117 48 209t134 143t193 51q86 0 158.5 -32t123.5 -89q4 -4 7.5 -2t3.5 6v80q0 20 20 21h705q20 0 20 -21v-86q0 -20 -20 -20h-572q-8 0 -8 -9v-507q0 -8 8 -9h371q20 0 20 -20v-86q0 -20 -20 -21h-371q-8 0 -8 -8v-512q0 -8 8 -8h572q20 0 20 -21v-86 q0 -20 -20 -20h-705q-20 0 -20 20v80q0 4 -3 5t-8 -3q-51 -55 -124.5 -86.5t-157.5 -31.5q-106 0 -192.5 51t-134.5 142t-48 208zM276 379q0 -117 72 -192.5t189 -75.5q116 0 189 75.5t73 192.5v672q0 119 -73 195.5t-189 76.5q-117 0 -189 -77t-72 -195v-672z" />
<glyph unicode="&#x153;" horiz-adv-x="1552" d="M117 520q0 168 10 236q16 133 112.5 215t241.5 82q96 0 171 -43t124 -119q6 -6 12 0q47 76 121 119t168 43q147 0 244.5 -83t114.5 -216q10 -86 10 -258q0 -20 -21 -21h-559q-8 0 -8 -8q0 -92 6 -158q10 -90 70.5 -145t155.5 -55q73 0 130.5 40.5t82.5 108.5q6 18 24 12 l82 -20q20 -6 14 -27q-31 -111 -120 -175t-220 -64q-98 0 -173.5 43t-121.5 118q-6 6 -12 0q-49 -76 -123.5 -118.5t-171.5 -42.5q-145 0 -240.5 81.5t-113.5 217.5q-10 70 -10 237zM262 518q0 -125 6 -209q10 -88 67.5 -143t145.5 -55t146.5 55t68.5 143q6 55 6 209t-6 209 q-10 88 -68.5 143.5t-146.5 55.5t-145 -55.5t-68 -143.5q-6 -55 -6 -209zM858 586q0 -8 8 -8h426q8 0 8 8q0 80 -6 141q-10 88 -68.5 143.5t-146.5 55.5q-90 0 -147.5 -55.5t-67.5 -143.5z" />
<glyph unicode="&#x178;" horiz-adv-x="1015" d="M76 1417q0 16 18 17h111q16 0 22 -17l275 -612q2 -4 6 -4t6 4l274 612q6 16 23 17h111q10 0 15 -7.5t1 -17.5l-356 -766q-2 -2 -2 -10v-610q0 -20 -21 -21h-104q-21 1 -21 21v610q0 8 -2 10l-354 766zM262 1716q0 41 27 67.5t68 26.5q39 0 65.5 -26.5t26.5 -67.5 q0 -43 -25.5 -69.5t-66.5 -26.5t-68 26.5t-27 69.5zM570 1716q0 41 26.5 67.5t67.5 26.5q39 0 65.5 -26.5t26.5 -67.5q0 -43 -25.5 -69.5t-66.5 -26.5t-67.5 26.5t-26.5 69.5z" />
<glyph unicode="&#x2c6;" horiz-adv-x="503" d="M14.5 1175.5q-4.5 8.5 4.5 16.5l151 217q8 12 25 12h110q16 0 25 -12l156 -217q4 -4 4 -12q0 -4 -4.5 -8.5t-12.5 -4.5h-84q-14 0 -24 13l-107 161q-2 4 -6 4.5t-6 -4.5l-107 -161q-8 -12 -24 -13h-84q-12 0 -16.5 8.5z" />
<glyph unicode="&#x2dc;" horiz-adv-x="669" d="M62 1296q57 109 162 109q33 0 56.5 -11.5t63.5 -35.5q35 -23 54.5 -33t42.5 -10q55 0 94 57q10 20 29 8l39 -24q8 -6 8 -17q0 -10 -8 -24q-31 -51 -75 -76t-87 -25q-31 0 -57.5 12.5t-59.5 35.5q-6 4 -25.5 16t-35 18.5t-31.5 6.5q-31 0 -52.5 -11.5t-43.5 -42.5 q-12 -18 -29 -6l-37 27q-18 10 -8 26z" />
<glyph unicode="&#x2000;" horiz-adv-x="993" />
<glyph unicode="&#x2001;" horiz-adv-x="1986" />
<glyph unicode="&#x2002;" horiz-adv-x="993" />
<glyph unicode="&#x2003;" horiz-adv-x="1986" />
<glyph unicode="&#x2004;" horiz-adv-x="662" />
<glyph unicode="&#x2005;" horiz-adv-x="496" />
<glyph unicode="&#x2006;" horiz-adv-x="331" />
<glyph unicode="&#x2007;" horiz-adv-x="331" />
<glyph unicode="&#x2008;" horiz-adv-x="248" />
<glyph unicode="&#x2009;" horiz-adv-x="397" />
<glyph unicode="&#x200a;" horiz-adv-x="110" />
<glyph unicode="&#x2010;" horiz-adv-x="724" d="M74 594v86q0 20 20 20h537q20 0 20 -20v-86q0 -20 -20 -21h-537q-20 1 -20 21z" />
<glyph unicode="&#x2011;" horiz-adv-x="724" d="M74 594v86q0 20 20 20h537q20 0 20 -20v-86q0 -20 -20 -21h-537q-20 1 -20 21z" />
<glyph unicode="&#x2012;" horiz-adv-x="724" d="M74 594v86q0 20 20 20h537q20 0 20 -20v-86q0 -20 -20 -21h-537q-20 1 -20 21z" />
<glyph unicode="&#x2013;" horiz-adv-x="841" d="M74 537v86q0 20 20 20h656q20 0 20 -20v-86q0 -20 -20 -21h-656q-20 1 -20 21z" />
<glyph unicode="&#x2014;" horiz-adv-x="1308" d="M74 537v86q0 20 20 20h1120q20 0 21 -20v-86q0 -20 -21 -21h-1120q-20 1 -20 21z" />
<glyph unicode="&#x2018;" horiz-adv-x="270" d="M8 1036l137 381q6 16 25 17h76q10 0 15 -6.5t3 -16.5l-108 -381q-6 -16 -23 -16h-108q-23 -1 -17 22z" />
<glyph unicode="&#x2019;" horiz-adv-x="270" d="M6 1036l109 381q6 16 22 17h109q22 0 16 -23l-137 -381q-6 -16 -25 -16h-75q-10 0 -15.5 6t-3.5 16z" />
<glyph unicode="&#x201a;" horiz-adv-x="1228" d="M109 -139l75 438q4 18 23 18h92q10 0 15 -6t1 -16l-102 -438q-4 -18 -23 -19h-63q-10 0 -15.5 6t-2.5 17z" />
<glyph unicode="&#x201c;" horiz-adv-x="530" d="M8 1036l139 381q6 16 25 17h72q10 0 15 -6.5t3 -16.5l-112 -381q-6 -16 -23 -16h-102q-23 -1 -17 22zM270 1036l140 381q6 16 24 17h72q10 0 15 -6.5t3 -16.5l-110 -381q-6 -16 -23 -16h-104q-23 -1 -17 22z" />
<glyph unicode="&#x201d;" horiz-adv-x="530" d="M6 1036l111 381q6 16 22 17h105q22 0 16 -23l-139 -381q-6 -16 -25 -16h-71q-10 0 -15.5 6t-3.5 16zM268 1036l113 381q6 16 22 17h103q22 0 16 -23l-139 -381q-6 -16 -25 -16h-71q-10 0 -15.5 6t-3.5 16z" />
<glyph unicode="&#x201e;" horiz-adv-x="524" d="M6 -135l111 381q6 16 22 17h105q22 0 16 -23l-139 -381q-6 -16 -25 -16h-71q-10 0 -15.5 6t-3.5 16zM268 -135l113 381q6 16 22 17h103q22 0 16 -23l-139 -381q-6 -16 -25 -16h-71q-10 0 -15.5 6t-3.5 16z" />
<glyph unicode="&#x2022;" horiz-adv-x="618" d="M74 547q0 98 69.5 166.5t167.5 68.5q96 0 165 -68.5t69 -166.5q0 -96 -69.5 -167t-164.5 -71q-98 0 -167.5 71t-69.5 167z" />
<glyph unicode="&#x2026;" horiz-adv-x="1468" d="M123 127q0 49 36 85t85 36q47 0 82.5 -36t35.5 -85q0 -51 -34.5 -86t-83.5 -35q-51 0 -86 35t-35 86zM612 127q0 49 36 85t85 36q47 0 82.5 -36t35.5 -85q0 -51 -34.5 -86t-83.5 -35q-51 0 -86 35t-35 86zM1098 127q0 49 36 85t85 36q47 0 82.5 -36t35.5 -85 q0 -51 -34.5 -86t-83.5 -35q-51 0 -86 35t-35 86z" />
<glyph unicode="&#x202f;" horiz-adv-x="397" />
<glyph unicode="&#x2039;" horiz-adv-x="688" d="M127 561q-8 14 0 29l240 330q8 12 26 12h94q12 0 16.5 -7t-3.5 -18l-238 -325q-2 -6 0 -13l238 -325q4 -5 4 -13q0 -4 -4 -8t-13 -4h-94q-18 0 -26 12z" />
<glyph unicode="&#x203a;" horiz-adv-x="737" d="M184 226q-4 7 4 18l238 325q4 6 0 13l-238 325q-4 4 -4 13q0 4 4.5 8t12.5 4h94q18 0 27 -12l239 -330q8 -14 0 -29l-239 -330q-8 -12 -27 -12h-94q-13 0 -17 7z" />
<glyph unicode="&#x205f;" horiz-adv-x="496" />
<glyph unicode="&#x20ac;" horiz-adv-x="1148" d="M131 573v48q0 20 21 20h127q8 0 8 8v131q0 8 -8 8h-127q-20 0 -21 21v45q0 20 21 20h127q8 0 8 9v186q0 174 101 277.5t271 103.5q154 0 253.5 -87t117.5 -235v-4q0 -14 -18 -18l-107 -14h-4q-14 0 -18 18q-8 96 -68.5 154.5t-155.5 58.5q-102 0 -164.5 -67.5 t-62.5 -178.5v-194q0 -8 8 -9h422q23 0 17 -22l-17 -47q-6 -16 -24 -17h-398q-8 0 -8 -8v-131q0 -8 8 -8h357q10 0 15 -7t1 -18l-18 -47q-6 -16 -23 -16h-332q-8 0 -8 -8v-189q0 -111 62.5 -178t164.5 -67q95 0 155 57t71 154q4 20 22 16l103 -16q20 -4 18 -23 q-20 -145 -118.5 -230t-250.5 -85q-168 0 -270 104.5t-102 278.5v178q0 8 -8 8h-127q-20 0 -21 20z" />
<glyph unicode="&#x2122;" horiz-adv-x="1200" d="M39 1374v39q0 20 20 21h422q20 0 21 -21v-39q0 -20 -21 -20h-162q-8 0 -8 -8v-611q0 -20 -20 -20h-49q-20 0 -21 20v611q0 8 -8 8h-154q-20 0 -20 20zM629 735v678q0 20 20 21h53q14 0 25 -15l137 -239q2 -2 6 -2t7 2l141 239q10 15 24 15h54q20 0 20 -21v-678 q0 -20 -20 -20h-52q-20 0 -20 20v529q0 6 -4 8t-6 -4l-117 -205q-10 -14 -23 -14q-14 0 -24 14l-121 205q-2 6 -6 5t-4 -7v-531q0 -20 -21 -20h-49q-20 0 -20 20z" />
<glyph unicode="&#x25fc;" horiz-adv-x="1034" d="M0 0v1034h1034v-1034h-1034z" />
</font>
</defs>
</svg>
