<?xml version="1.0" standalone="no"?>
<!DOCTYPE svg PUBLIC "-//W3C//DTD SVG 1.1//EN" "http://www.w3.org/Graphics/SVG/1.1/DTD/svg11.dtd" >
<svg xmlns="http://www.w3.org/2000/svg" xmlns:xlink="http://www.w3.org/1999/xlink" version="1.1">
<metadata></metadata>
<defs>
<font id="barlow_semi_condensedsemibold" horiz-adv-x="976" >
<font-face units-per-em="2048" ascent="1638" descent="-410" />
<missing-glyph horiz-adv-x="409" />
<glyph horiz-adv-x="0" />
<glyph unicode="&#xd;" horiz-adv-x="409" />
<glyph unicode=" "  horiz-adv-x="409" />
<glyph unicode="&#x09;" horiz-adv-x="409" />
<glyph unicode="&#xa0;" horiz-adv-x="409" />
<glyph unicode="!" horiz-adv-x="624" d="M150 162q0 66 48 111.5t111 45.5t111.5 -46t48.5 -111q0 -66 -46 -112t-114 -46q-67 0 -113 46t-46 112zM195 1409q0 10 7 17.5t17 7.5h189q10 0 17 -7.5t7 -17.5l-24 -901q0 -10 -7.5 -17.5t-17.5 -7.5h-141q-11 0 -18 7.5t-7 17.5z" />
<glyph unicode="&#x22;" horiz-adv-x="645" d="M39 1403q0 25 22 24h181q23 0 22 -24l-20 -402q0 -10 -8.5 -17t-18.5 -7h-129q-10 0 -18.5 7t-8.5 17zM383 1403q0 25 23 24h180q23 0 22 -24l-22 -402q0 -10 -8.5 -17t-18.5 -7h-129q-10 0 -18.5 7t-8.5 17z" />
<glyph unicode="#" horiz-adv-x="1314" d="M100 401v154q0 10 7.5 17.5t17.5 7.5h137q12 0 12 10l37 246q0 10 -8 10h-106q-10 0 -17.5 7t-7.5 17v156q0 10 7 17.5t18 7.5h137q12 0 12 10l45 297q2 23 27 22l188 -2q25 0 23 -26l-43 -291q0 -10 8 -10h229q12 0 13 10l43 297q2 23 26 22l191 -2q25 0 22 -26 l-43 -291q0 -10 8 -10h107q10 0 17 -7.5t7 -17.5l-2 -156q0 -10 -7 -17t-17 -7h-137q-12 0 -13 -10l-34 -246q0 -10 8 -10h104q10 0 17.5 -7.5t7.5 -17.5v-154q0 -10 -7.5 -17t-17.5 -7h-135q-12 0 -12 -10l-45 -297q-2 -23 -27 -23l-188 2q-25 0 -23 27l43 291q0 10 -8 10 h-229q-12 0 -13 -10l-45 -297q-2 -23 -26 -23l-189 2q-25 0 -22 27l43 291q0 10 -9 10h-106q-10 0 -17.5 7t-7.5 17zM514 590q0 -10 8 -10h230q12 0 12 10l37 246q0 10 -8 10h-232q-12 0 -12 -10z" />
<glyph unicode="$" horiz-adv-x="1013" d="M90 354v74q0 10 7 17.5t18 7.5h184q10 0 17.5 -7.5t7.5 -17.5v-41q0 -88 52 -143.5t142 -55.5q86 0 134 50.5t48 130.5q0 68 -48 110.5t-158 104.5q-66 37 -125 75q-137 90 -208 179.5t-71 230.5q0 152 85 251t237 122q10 4 10 12l-2 127q0 10 7 17.5t17 7.5h107 q10 0 17 -7.5t7 -17.5l-2 -125q0 -8 11 -12q160 -18 252 -120.5t92 -258.5v-61q0 -10 -7.5 -17.5t-17.5 -7.5h-184q-10 0 -17.5 7t-7.5 18v38q0 90 -51 146.5t-143 56.5q-80 0 -128 -46t-48 -126q0 -49 23.5 -85t64.5 -63.5t120 -72.5q16 -8 82 -45q172 -100 248 -194.5 t76 -231.5q0 -164 -93 -267.5t-257 -123.5q-10 -4 -10 -13l2 -110q0 -10 -7.5 -17.5t-17.5 -7.5h-106q-10 0 -17.5 7.5t-7.5 17.5l2 113q0 8 -10 12q-152 23 -239 120t-87 242z" />
<glyph unicode="%" horiz-adv-x="1642" d="M131 1141q0 84 41 155.5t112.5 113.5t155.5 42t156 -42t113 -113.5t41 -155.5q0 -86 -41 -158t-113 -114t-156 -42t-155.5 42t-112.5 114t-41 158zM260 1141q0 -78 52.5 -132.5t127.5 -54.5q76 0 128.5 54.5t52.5 132.5t-52.5 131t-128.5 53t-128 -53t-52 -131zM354 8 q-4 8 2 21l758 1388q10 16 31 17h121q14 0 18 -8.5t-2 -20.5l-758 -1389q-10 -16 -30 -16h-121q-15 0 -19 8zM897 295q0 84 42 155.5t113.5 113.5t155.5 42t156 -42t113 -113.5t41 -155.5q0 -86 -41 -157.5t-113 -113.5t-156 -42t-155.5 42t-113.5 113.5t-42 157.5z M1028 295q0 -78 52.5 -132t127.5 -54q76 0 127 54t51 132q0 76 -52 130t-126 54q-76 0 -128 -53t-52 -131z" />
<glyph unicode="&#x26;" horiz-adv-x="1306" d="M84 334q0 137 68.5 233.5t187.5 177.5q6 6 2 15q-104 135 -136 199.5t-32 136.5q0 160 101.5 257t269.5 97q111 0 198.5 -44t137 -124t49.5 -184q0 -127 -69.5 -217t-190.5 -168q-6 -6 -2 -15q78 -88 178 -215l35 -45q8 -6 14 0q53 66 109 158q14 20 32 8l140 -80 q23 -14 10 -32q-82 -137 -156 -226q-6 -6 0 -14q88 -109 178 -221q6 -9 6 -15q0 -16 -22 -16h-207q-16 0 -31 14l-77 90q-6 8 -15 2q-166 -125 -375 -124q-180 0 -291.5 90t-111.5 262zM324 344q0 -72 47 -115t131 -43q110 0 225 84q10 6 2 15l-102 123q-59 70 -95 114 l-45 53q-6 8 -14 3q-72 -55 -110.5 -110.5t-38.5 -123.5zM412 1092q0 -39 20.5 -80t91.5 -131q6 -8 15 -2q74 53 113.5 104t39.5 113q0 61 -40 99t-101 38q-64 0 -101.5 -39t-37.5 -102z" />
<glyph unicode="'" horiz-adv-x="313" d="M39 1407q0 25 22 25h193q23 0 22 -25l-22 -399q0 -10 -8 -17.5t-19 -7.5h-141q-10 0 -18.5 7t-8.5 18z" />
<glyph unicode="(" horiz-adv-x="610" d="M-2 676q0 264 63.5 487t167.5 377q8 16 29 16h182q14 0 19.5 -8t-0.5 -20q-84 -168 -139.5 -385t-55.5 -467q0 -248 55.5 -463t139.5 -381q4 -8 4 -12q0 -16 -23 -17h-184q-21 1 -29 17q-104 156 -166.5 375t-62.5 481z" />
<glyph unicode=")" horiz-adv-x="610" d="M147 1540q0 16 23 16h182q20 0 29 -16q104 -154 167.5 -377t63.5 -487q0 -262 -62.5 -481.5t-166.5 -374.5q-9 -17 -29 -17h-184q-14 0 -19.5 8.5t1.5 20.5q84 166 139 381t55 463q0 250 -55 467t-139 385q-4 8 -5 12z" />
<glyph unicode="*" horiz-adv-x="778" d="M49 1038q0 12 12 21l183 104q10 6 0 13l-183 100q-8 6 -10 15t2 20l43 82q6 10 15.5 13t19.5 -3l176 -105q4 -4 8 -2t4 9v198q0 10 7.5 17.5t17.5 7.5h90q10 0 17.5 -7.5t7.5 -17.5l-2 -198q0 -6 4 -8.5t8 1.5l176 105q8 4 12 4q14 0 23 -14l45 -82q4 -8 4 -15 q0 -10 -12 -20l-182 -100q-8 -6 0 -13l182 -104q20 -14 8 -33l-45 -84q-6 -10 -15.5 -13t-19.5 3l-176 106q-4 4 -8 2t-4 -8l2 -201q0 -10 -7.5 -17t-17.5 -7h-90q-10 0 -17.5 7t-7.5 17v201q0 6 -4 8t-8 -2l-176 -104q-8 -4 -12 -4q-14 0 -23 14l-43 82q-4 8 -4 12z" />
<glyph unicode="+" horiz-adv-x="952" d="M61 563v142q0 10 7.5 17t17.5 7h285q10 0 10 10v289q0 10 7 17.5t18 7.5h141q10 0 17 -7.5t7 -17.5v-289q0 -10 11 -10h286q11 0 18 -7t7 -17v-142q0 -10 -7 -17t-18 -7h-286q-10 0 -11 -11v-284q0 -10 -7 -17.5t-17 -7.5h-141q-10 0 -17.5 7t-7.5 18v284q0 10 -10 11 h-285q-10 0 -17.5 7t-7.5 17z" />
<glyph unicode="," horiz-adv-x="475" d="M86 -160l61 459q2 23 27 23h164q29 0 22 -27l-110 -461q-6 -20 -29 -20h-112q-25 -1 -23 26z" />
<glyph unicode="-" horiz-adv-x="745" d="M61 539v155q0 10 7.5 17.5t17.5 7.5h576q10 0 17 -7t7 -18v-155q0 -10 -7 -17.5t-17 -7.5h-576q-10 0 -17.5 7t-7.5 18z" />
<glyph unicode="." horiz-adv-x="528" d="M100 156q0 63 48.5 109t111.5 46t111.5 -46t48.5 -109q0 -66 -46 -112t-114 -46q-67 0 -113.5 46t-46.5 112z" />
<glyph unicode="/" horiz-adv-x="792" d="M51 29l459 1384q6 20 27 21h188q12 0 17.5 -7.5t0.5 -21.5l-458 -1385q-6 -20 -27 -20h-188q-13 0 -18 7t-1 22z" />
<glyph unicode="0" horiz-adv-x="1021" d="M86 401v631q0 193 115.5 307.5t308.5 114.5q195 0 310.5 -114.5t115.5 -307.5v-631q0 -193 -115.5 -308.5t-310.5 -115.5q-193 0 -308.5 116t-115.5 308zM324 387q0 -92 51 -147.5t135 -55.5q86 0 137 55.5t51 147.5v655q0 94 -51 149.5t-137 55.5q-84 0 -135 -55 t-51 -150v-655z" />
<glyph unicode="1" horiz-adv-x="620" d="M55 1176v135q0 20 19 28l182 88q11 7 31 7h196q10 0 17.5 -7.5t7.5 -17.5v-1384q0 -10 -7 -17.5t-18 -7.5h-188q-10 0 -17.5 7t-7.5 18v1171q0 4 -4 7t-8 1l-176 -49l-8 -2q-18 0 -19 23z" />
<glyph unicode="2" horiz-adv-x="999" d="M78 997v88q8 164 122.5 264.5t291.5 100.5q123 0 215 -50t142 -138t50 -199q0 -94 -40 -192.5t-122 -211.5q-84 -117 -309 -397l-37 -45q-4 -4 -2 -8t8 -4h508q10 0 17.5 -7.5t7.5 -17.5v-155q0 -10 -7.5 -17.5t-17.5 -7.5h-796q-11 0 -18 7t-7 18v157q0 14 10 31 q223 270 412 520q154 211 153 328q0 84 -47 134t-125 50q-76 0 -123 -49t-47 -131v-68q0 -10 -7 -17t-17 -7h-191q-10 0 -17 7t-7 17z" />
<glyph unicode="3" horiz-adv-x="1015" d="M68 428q0 25 24 25h191q25 0 24 -25q2 -45 10 -92q16 -68 63.5 -108t117.5 -40q68 0 114.5 37t63.5 101q14 59 14 141q0 96 -16 151q-18 63 -64.5 99.5t-111.5 36.5q-35 0 -76 -23q-10 -6 -16 -6t-17 10l-94 105q-8 12 -8 18q0 8 8 16l319 343q10 12 -4 12h-495 q-10 0 -17.5 7t-7.5 17v156q0 10 7 17.5t18 7.5h772q10 0 17 -7.5t7 -17.5v-162q0 -18 -12 -30l-266 -304q-6 -10 6 -12q98 -16 166.5 -86t93.5 -170q25 -86 25 -192q0 -100 -29 -193q-35 -129 -139.5 -202.5t-257.5 -73.5q-162 0 -272.5 83t-139.5 222q-14 55 -18 139z" />
<glyph unicode="4" horiz-adv-x="1060" d="M57 399v133q0 12 6 31l334 852q6 18 29 19h201q31 0 20 -29l-313 -805q-2 -12 8 -12h293q10 0 10 10v264q0 10 7 17.5t18 7.5h188q10 0 17.5 -7.5t7.5 -17.5v-264q0 -10 10 -10h74q10 0 17 -7.5t7 -17.5v-164q0 -10 -7 -17t-17 -7h-74q-10 0 -10 -10v-340 q0 -10 -7.5 -17.5t-17.5 -7.5h-188q-10 0 -17.5 7t-7.5 18v340q0 10 -10 10h-553q-10 0 -17.5 7t-7.5 17z" />
<glyph unicode="5" horiz-adv-x="978" d="M92 602v807q0 10 7 17.5t18 7.5h733q10 0 17 -7.5t7 -17.5v-156q0 -10 -7 -17t-17 -7h-510q-10 0 -10 -10v-381q0 -6 4 -7.5t8 3.5q41 35 96.5 53t114.5 18q106 0 184 -46t117 -136q57 -114 57 -274q0 -143 -51 -246q-47 -104 -139 -160.5t-221 -56.5q-152 0 -255.5 75.5 t-135.5 217.5q-12 53 -15 81v5q0 20 25 20h190q20 0 25 -23l4 -24l10 -29q16 -57 55 -88t97 -31q61 0 102 36t55 102q14 45 15 118q0 74 -15 129q-14 61 -55 92t-102 31q-55 0 -97.5 -25.5t-62.5 -74.5q-6 -20 -27 -20h-196q-10 0 -17.5 7t-7.5 17z" />
<glyph unicode="6" horiz-adv-x="980" d="M92 1085q0 166 111.5 265.5t292.5 99.5q172 0 280.5 -99.5t108.5 -260.5v-48q0 -10 -7.5 -17t-17.5 -7h-188q-10 0 -17.5 7t-7.5 17v27q0 76 -43 124t-108 48q-72 0 -118 -48t-46 -128v-221q0 -6 4 -8t8 2q74 74 193 73q121 0 205.5 -61.5t121.5 -169.5q49 -102 49 -231 q0 -111 -36 -207q-35 -125 -131.5 -190.5t-241.5 -65.5q-141 0 -237.5 65.5t-135.5 188.5l-4 12q-33 74 -33 188zM332 451q0 -80 16 -138q35 -123 154 -123t153 127q19 66 19 138q0 84 -25 151q-39 109 -147 109q-111 0 -150 -111q-20 -59 -20 -153z" />
<glyph unicode="7" horiz-adv-x="901" d="M43 1137l2 272q0 10 7 17.5t18 7.5h776q10 0 17 -7.5t7 -17.5v-164q0 -18 -4 -31l-397 -1194q-6 -20 -27 -20h-202q-13 0 -18 7t-1 22l395 1188q4 12 -8 12h-360q-10 0 -10 -10v-82q0 -10 -7.5 -17.5t-17.5 -7.5h-145q-10 0 -17.5 7t-7.5 18z" />
<glyph unicode="8" horiz-adv-x="991" d="M84 412q0 113 41 209q39 82 111 129q10 6 2 14q-68 43 -105 113q-45 84 -45 192q0 123 51 207q49 86 142.5 134t212.5 48q127 0 221 -50t143 -148q43 -80 43 -193q0 -106 -45 -186q-45 -76 -106 -115q-8 -8 0 -14q72 -43 110 -127q43 -90 43 -215q0 -113 -41 -205 q-47 -102 -143 -161.5t-227 -59.5q-127 0 -222.5 58t-144.5 165q-41 94 -41 205zM322 1044q0 -66 26 -118q20 -43 57 -66.5t89 -23.5q104 0 151 96q23 43 23 115q0 68 -23 110q-20 45 -59 71.5t-92 26.5t-91 -26.5t-59 -71.5q-22 -50 -22 -113zM324 428q0 -78 22 -135 q20 -51 58 -79t90 -28q51 0 89 28t58 77q27 59 27 139q0 66 -21 123q-18 53 -57 83t-96 30q-53 0 -92.5 -30t-57.5 -83q-20 -53 -20 -125z" />
<glyph unicode="9" horiz-adv-x="972" d="M59 985q0 111 37 207q35 125 131.5 190.5t241.5 65.5q141 0 237.5 -65.5t135.5 -188.5q2 -2 2 -5t2 -5q33 -78 33 -191l2 -645q0 -166 -112 -265t-292 -99q-172 0 -280.5 99t-108.5 261v47q0 10 7 17.5t18 7.5h188q10 0 17.5 -7.5t7.5 -17.5v-26q0 -76 43 -124t108 -48 q72 0 118 48t46 128v221q0 6 -4 8t-8 -2q-74 -74 -193 -74q-121 0 -206 61.5t-121 170.5q-49 102 -50 231zM299 979q0 -84 25 -152q39 -109 147 -108q111 0 150 110q20 60 20 154q0 80 -16 137q-35 123 -154 123t-154 -127q-18 -63 -18 -137z" />
<glyph unicode=":" horiz-adv-x="622" d="M154 170q0 63 48 109.5t111 46.5q61 0 110.5 -46.5t49.5 -109.5q0 -66 -46 -112t-114 -46q-67 0 -113 46t-46 112zM154 848q0 63 48 109.5t111 46.5q61 0 110.5 -46.5t49.5 -109.5q0 -66 -46 -113t-114 -47q-67 0 -113 46t-46 114z" />
<glyph unicode=";" horiz-adv-x="544" d="M115 825q0 63 48 109.5t111 46.5t111.5 -46t48.5 -110q0 -68 -46 -113.5t-114 -45.5q-67 0 -113 46t-46 113zM127 -156l45 449q4 23 25 22h165q27 0 21 -26l-94 -449q-4 -23 -27 -22h-110q-13 0 -20 7t-5 19z" />
<glyph unicode="&#x3c;" horiz-adv-x="952" d="M59 487v166q0 20 19 29l784 362q4 2 10 3q18 0 19 -23v-176q0 -18 -19 -29l-563 -244q-12 -6 0 -12l563 -241q18 -8 19 -29v-176q0 -15 -8.5 -21t-20.5 0l-784 363q-18 10 -19 28z" />
<glyph unicode="=" horiz-adv-x="952" d="M61 368v141q0 10 7.5 17.5t17.5 7.5h782q10 0 17.5 -7t7.5 -18v-141q0 -10 -7 -17t-18 -7h-782q-10 0 -17.5 7t-7.5 17zM61 768v141q0 10 7.5 17.5t17.5 7.5h782q10 0 17.5 -7t7.5 -18v-141q0 -10 -7 -17t-18 -7h-782q-10 0 -17.5 7t-7.5 17z" />
<glyph unicode="&#x3e;" horiz-adv-x="952" d="M61 117v176q0 20 19 29l563 241q12 6 0 12l-563 244q-18 10 -19 29v176q0 14 8.5 20.5t20.5 -0.5l784 -362q18 -8 19 -29v-166q0 -18 -19 -28l-784 -363q-4 -2 -10 -2q-18 0 -19 23z" />
<glyph unicode="?" horiz-adv-x="933" d="M53 1024v31q0 117 53.5 208t149.5 141t219 50q182 0 292 -105.5t110 -279.5q0 -90 -28 -155.5t-67 -106.5t-102 -92q-66 -51 -96.5 -89t-30.5 -94v-69q0 -10 -7 -17.5t-18 -7.5h-188q-10 0 -17.5 7.5t-7.5 17.5v84q0 70 25 121t58.5 85.5t90.5 80.5q74 59 111 107t37 120 q0 80 -46 128t-122 48q-80 0 -129 -51t-49 -131v-43q0 -23 -25 -23l-188 8q-10 0 -17.5 8.5t-7.5 18.5zM299 145q0 61 44 104.5t103 43.5t104.5 -43t45.5 -105q0 -61 -45 -104t-107 -43q-61 0 -103 43t-42 104z" />
<glyph unicode="@" horiz-adv-x="1615" d="M88 461q0 53 6 104q23 221 137.5 392t289.5 264.5t374 93.5q186 0 330.5 -75t224.5 -212t80 -317q0 -35 -8 -109q-27 -199 -126.5 -308.5t-252.5 -109.5q-137 0 -211 86q-6 6 -14 0q-35 -43 -86.5 -63.5t-108.5 -20.5q-111 0 -176.5 62.5t-65.5 171.5q0 41 13 147 q10 94 28 152q27 106 95.5 163.5t164.5 57.5q86 0 142 -53q4 -4 8 -3t4 7l2 14q2 23 25 23h112q25 0 23 -27l-51 -387q-2 -12 -3 -33q0 -68 31 -105.5t88 -37.5q74 0 122 70.5t65 191.5q6 53 6 100q0 217 -129 341t-346 124q-156 0 -292 -75.5t-225.5 -216t-107.5 -322.5 q-4 -29 -4 -82q0 -150 60.5 -260.5t165 -169.5t235.5 -59q94 0 174 23.5t129 59.5q6 4 16 5q14 0 19 -11l55 -80q6 -10 6 -16q0 -12 -10 -18q-76 -53 -185.5 -86t-228.5 -33q-174 0 -310 79t-213 224t-77 334zM643 428q2 -47 28.5 -75.5t71.5 -28.5q48 0 79.5 28.5 t43.5 75.5q12 45 25 133q10 109 10 139q0 43 -26.5 71t-71.5 28t-79 -29t-46 -74q-16 -59 -25 -137q-12 -98 -10 -131z" />
<glyph unicode="A" horiz-adv-x="1159" d="M61 27l371 1386q6 20 29 21h235q23 0 29 -21l373 -1386l2 -9q0 -18 -23 -18h-196q-23 0 -29 20l-51 220q-2 8 -10 8h-422q-8 0 -11 -8l-53 -220q-6 -20 -29 -20h-194q-27 0 -21 27zM410 446q-2 -6 2 -9t8 -3h319q4 0 8.5 3t2.5 9l-162 664q-2 6 -6 6t-7 -6z" />
<glyph unicode="B" horiz-adv-x="1110" d="M131 25v1384q0 10 7 17.5t18 7.5h411q207 0 323 -97.5t116 -289.5q0 -211 -166 -299q-10 -6 -2 -13q186 -100 186 -342q0 -190 -120 -291.5t-312 -101.5h-436q-10 0 -17.5 7t-7.5 18zM369 217q0 -10 10 -10h205q94 0 148 57.5t54 159.5t-55 160.5t-149 58.5h-203 q-10 0 -10 -10v-416zM369 838q0 -10 10 -11h190q96 0 150.5 52.5t54.5 146.5q0 96 -54 149.5t-151 53.5h-190q-10 0 -10 -10v-381z" />
<glyph unicode="C" horiz-adv-x="1091" d="M100 418v602q0 129 56.5 226t159 150.5t235.5 53.5t235.5 -52t158.5 -147.5t56 -222.5v-12q0 -10 -7 -18.5t-17 -8.5l-191 -8q-10 0 -17 7t-7 18v24q0 96 -58.5 155.5t-152.5 59.5q-96 0 -154.5 -59.5t-58.5 -155.5v-629q0 -96 58.5 -154.5t154.5 -58.5q94 0 152.5 58.5 t58.5 154.5v27q0 23 24 23l191 -9q25 0 24 -16v-16q0 -127 -56 -224.5t-158.5 -149.5t-235.5 -52t-235.5 54t-159 152.5t-56.5 227.5z" />
<glyph unicode="D" horiz-adv-x="1116" d="M131 25v1384q0 10 7 17.5t18 7.5h424q199 0 318.5 -111t119.5 -295v-622q0 -184 -120 -295t-318 -111h-424q-11 0 -18 7t-7 18zM369 215q0 -10 10 -10l203 2q88 0 141 60.5t57 164.5v569q0 104 -54 166t-144 62h-203q-10 0 -10 -10v-1004z" />
<glyph unicode="E" horiz-adv-x="1050" d="M131 25v1384q0 10 7 17.5t18 7.5h792q10 0 17.5 -7.5t7.5 -17.5v-156q0 -10 -7.5 -17t-17.5 -7h-569q-10 0 -10 -10v-385q0 -10 10 -11h364q10 0 17.5 -7t7.5 -17v-156q0 -10 -7 -17.5t-18 -7.5h-364q-10 0 -10 -10v-393q0 -10 10 -10h569q10 0 17.5 -7.5t7.5 -17.5v-155 q0 -10 -7.5 -17.5t-17.5 -7.5h-792q-10 0 -17.5 7t-7.5 18z" />
<glyph unicode="F" horiz-adv-x="1001" d="M131 25v1384q0 10 7 17.5t18 7.5h790q10 0 17.5 -7.5t7.5 -17.5v-156q0 -10 -7.5 -17t-17.5 -7h-567q-10 0 -10 -10v-385q0 -10 10 -11h364q10 0 17.5 -7t7.5 -17v-156q0 -10 -7 -17.5t-18 -7.5h-364q-10 0 -10 -10v-583q0 -10 -7.5 -17.5t-17.5 -7.5h-188q-10 0 -17.5 7 t-7.5 18z" />
<glyph unicode="G" horiz-adv-x="1089" d="M100 412v610q0 127 56.5 224t158 150.5t234.5 53.5t235.5 -52t158.5 -146.5t56 -215.5v-47q0 -10 -7 -17t-17 -7h-189q-10 0 -17 7t-7 17v47q0 92 -58.5 150.5t-154.5 58.5q-94 0 -152.5 -60.5t-58.5 -158.5v-618q0 -98 60.5 -159t156.5 -61q94 0 150.5 54.5t56.5 148.5 v162q0 10 -10 10h-187q-10 0 -17 7.5t-7 17.5v149q0 10 7 17.5t17 7.5h410q10 0 17 -7t7 -18v-319q0 -203 -122.5 -318.5t-327.5 -115.5q-133 0 -234.5 53t-158 150.5t-56.5 224.5z" />
<glyph unicode="H" horiz-adv-x="1140" d="M131 25v1384q0 10 7 17.5t18 7.5h188q10 0 17.5 -7.5t7.5 -17.5v-575q0 -10 10 -11h389q10 0 10 11v575q0 10 7.5 17.5t17.5 7.5h188q10 0 17.5 -7.5t7.5 -17.5v-1384q0 -10 -7.5 -17.5t-17.5 -7.5h-188q-10 0 -17.5 7t-7.5 18v581q0 10 -10 10h-389q-10 0 -10 -10v-581 q0 -10 -7.5 -17.5t-17.5 -7.5h-188q-10 0 -17.5 7t-7.5 18z" />
<glyph unicode="I" horiz-adv-x="497" d="M131 25v1384q0 10 7 17.5t18 7.5h188q10 0 17.5 -7.5t7.5 -17.5v-1384q0 -10 -7.5 -17.5t-17.5 -7.5h-188q-11 0 -18 7t-7 18z" />
<glyph unicode="J" horiz-adv-x="1054" d="M41 395v119q0 10 7 17.5t18 7.5h188q10 0 17.5 -7.5t7.5 -17.5v-121q0 -92 55 -148.5t147 -56.5t148.5 56.5t56.5 148.5v1016q0 10 7 17.5t18 7.5h188q10 0 17.5 -7.5t7.5 -17.5v-1014q0 -123 -55.5 -216t-156 -144t-231.5 -51t-230 51t-154.5 144t-55.5 216z" />
<glyph unicode="K" horiz-adv-x="1124" d="M131 25v1384q0 10 7 17.5t18 7.5h188q10 0 17.5 -7.5t7.5 -17.5v-590q0 -6 4 -8t8 4l420 602q10 16 28 17h207q14 0 19.5 -9.5t-2.5 -21.5l-387 -576q-2 -6 0 -14l415 -784q4 -8 4 -13q0 -16 -20 -16h-209q-20 0 -31 18l-323 611q-2 6 -6 6t-9 -4l-114 -158q-4 -8 -4 -12 v-436q0 -10 -7.5 -17.5t-17.5 -7.5h-188q-11 0 -18 7t-7 18z" />
<glyph unicode="L" horiz-adv-x="1009" d="M131 25v1384q0 10 7 17.5t18 7.5h188q10 0 17.5 -7.5t7.5 -17.5v-1194q0 -10 10 -10h563q10 0 17.5 -7.5t7.5 -17.5v-155q0 -10 -7.5 -17.5t-17.5 -7.5h-786q-11 0 -18 7t-7 18z" />
<glyph unicode="M" horiz-adv-x="1271" d="M129 25v1384q0 10 7 17.5t18 7.5h186q20 0 29 -19l260 -506q6 -8 12 0l262 506q10 18 29 19h186q10 0 17.5 -7.5t7.5 -17.5v-1384q0 -10 -7.5 -17.5t-17.5 -7.5h-188q-10 0 -17.5 7t-7.5 18v923q0 8 -5 9t-7 -7l-195 -375q-8 -18 -28 -18h-68q-18 0 -29 18l-194 377 q-2 8 -7 7t-5 -9v-925q0 -10 -7.5 -17.5t-17.5 -7.5h-188q-11 0 -18 7t-7 18z" />
<glyph unicode="N" horiz-adv-x="1198" d="M131 25v1384q0 10 7 17.5t18 7.5h188q20 0 29 -19l448 -891q2 -8 7.5 -7t5.5 9v883q0 10 7 17.5t17 7.5h186q10 0 17.5 -7.5t7.5 -17.5v-1384q0 -10 -7 -17.5t-18 -7.5h-188q-18 0 -29 18l-450 895q-2 8 -7 7.5t-5 -9.5l2 -886q0 -10 -7.5 -17.5t-17.5 -7.5h-186 q-11 0 -18 7t-7 18z" />
<glyph unicode="O" horiz-adv-x="1114" d="M100 428v578q0 131 56.5 232t160 156.5t238.5 55.5q137 0 240.5 -55.5t161 -156.5t57.5 -232v-578q0 -133 -57.5 -234.5t-161 -156.5t-240.5 -55q-135 0 -238.5 55t-160 156.5t-56.5 234.5zM338 418q0 -102 59.5 -167t157.5 -65q100 0 160.5 64.5t60.5 167.5v594 q0 104 -60.5 168.5t-160.5 64.5q-98 0 -157.5 -64.5t-59.5 -168.5v-594z" />
<glyph unicode="P" horiz-adv-x="1077" d="M123 25v1386q0 10 7 17.5t17 7.5h474q118 0 209.5 -53.5t141.5 -150.5t50 -222q0 -123 -50 -217.5t-141.5 -146.5t-207.5 -52h-252q-10 0 -11 -10v-559q0 -10 -7 -17.5t-17 -7.5h-189q-10 0 -17 7t-7 18zM360 795q0 -10 11 -11h215q90 0 144 60.5t54 161.5 q0 102 -54 163.5t-144 61.5h-215q-10 0 -11 -10v-426z" />
<glyph unicode="Q" horiz-adv-x="1067" d="M92 424v577q0 133 55.5 234.5t154.5 158t230 56.5q132 0 232 -56.5t155.5 -157.5t55.5 -235v-577q0 -162 -84 -275.5t-229 -150.5q-8 -2 -9 -10v-176q0 -10 -7 -17.5t-17 -7.5h-191q-10 0 -17 7t-7 18v176q0 8 -8 10q-145 35 -229.5 148.5t-84.5 277.5zM330 414 q0 -100 56 -163t146 -63q92 0 148.5 62.5t56.5 163.5v606q0 100 -56 162.5t-149 62.5q-90 0 -146 -62.5t-56 -162.5v-606z" />
<glyph unicode="R" horiz-adv-x="1099" d="M131 25v1386q0 10 7 17.5t18 7.5h473q117 0 207 -52.5t139 -147.5t49 -218q0 -135 -61.5 -231.5t-167.5 -139.5q-10 -4 -7 -14l242 -604q2 -4 2 -13q0 -16 -20 -16h-197q-23 0 -29 20l-223 590q-4 8 -10 8h-174q-10 0 -10 -10v-583q0 -10 -7.5 -17.5t-17.5 -7.5h-188 q-10 0 -17.5 7t-7.5 18zM369 813q0 -10 10 -10h215q86 0 139 57.5t53 153.5q0 98 -53 157.5t-139 59.5h-215q-10 0 -10 -10v-408z" />
<glyph unicode="S" horiz-adv-x="1054" d="M86 375v53q0 10 7 17.5t18 7.5h184q10 0 17 -7.5t7 -17.5v-41q0 -88 61.5 -143.5t164.5 -55.5q94 0 146 49.5t52 129.5q0 55 -28.5 95t-80.5 73.5t-163 91.5q-125 63 -200.5 115.5t-127 132t-51.5 194.5q0 176 117 278.5t309 102.5q133 0 235.5 -50t159 -142.5 t56.5 -210.5v-43q0 -10 -7.5 -17.5t-17.5 -7.5h-186q-10 0 -17.5 7t-7.5 18v38q0 88 -58.5 145.5t-160.5 57.5q-88 0 -138 -46t-50 -128q0 -55 26.5 -94t80.5 -74t163 -90q147 -84 217 -131t118 -122t48 -183q0 -178 -121 -285.5t-323 -107.5q-134 0 -236 48t-157.5 137 t-55.5 206z" />
<glyph unicode="T" horiz-adv-x="1056" d="M63 1251v158q0 10 7.5 17.5t17.5 7.5h881q10 0 17 -7.5t7 -17.5v-158q0 -10 -7 -17t-17 -7h-318q-10 0 -10 -10v-1192q0 -10 -7 -17.5t-18 -7.5h-188q-10 0 -17.5 7t-7.5 18v1192q0 10 -10 10h-305q-10 0 -17.5 7t-7.5 17z" />
<glyph unicode="U" horiz-adv-x="1140" d="M119 430v979q0 10 7 17.5t17 7.5h189q10 0 17 -7.5t7 -17.5v-991q0 -102 58.5 -166t154.5 -64t155.5 63.5t59.5 166.5v991q0 10 7.5 17.5t17.5 7.5h188q10 0 17.5 -7.5t7.5 -17.5v-979q0 -133 -56.5 -234.5t-158.5 -156.5t-238 -55q-133 0 -235.5 55t-158.5 156.5 t-56 234.5z" />
<glyph unicode="V" horiz-adv-x="1105" d="M59 1407v8q0 18 23 19h203q20 0 26 -21l242 -1030q2 -8 6 -8t6 8l236 1028q6 23 26 23h199q27 0 21 -27l-363 -1387q-6 -20 -29 -20h-204q-23 0 -29 20z" />
<glyph unicode="W" horiz-adv-x="1568" d="M45 1407v8q0 18 23 19h196q23 0 27 -23l190 -895q2 -6 6.5 -6t6.5 8l176 893q2 23 26 23h181q23 0 26 -23l189 -895q2 -8 6 -8t6 8l180 895q4 23 27 23h190q29 0 23 -27l-307 -1384q-4 -23 -27 -23h-182q-23 0 -27 23l-190 923q-2 6 -6.5 6t-6.5 -6l-178 -923 q-2 -23 -27 -23h-176q-20 0 -26 20z" />
<glyph unicode="X" horiz-adv-x="1101" d="M63 1417q0 16 23 17h199q20 0 28 -19l234 -477q6 -8 12 0l232 477q10 18 28 19h197q14 0 19 -7.5t-1 -21.5l-344 -682q-2 -6 0 -12l344 -682q4 -8 4 -13q0 -16 -22 -16h-197q-18 0 -28 18l-232 476q-6 10 -12 0l-234 -476q-8 -18 -28 -18h-199q-14 0 -19.5 7t1.5 22 l344 682q2 6 0 12l-344 682q-4 8 -5 12z" />
<glyph unicode="Y" horiz-adv-x="1081" d="M63 1417q0 16 21 17h201q23 0 28 -19l222 -553q6 -14 12 0l219 553q6 18 29 19h202q14 0 18.5 -8.5t0.5 -20.5l-357 -813l-2 -12v-553q0 -10 -7 -17.5t-17 -7.5h-187q-10 0 -17 7t-7 18v553l-2 12l-354 813q-2 4 -3 12z" />
<glyph unicode="Z" horiz-adv-x="983" d="M63 25v170q0 16 9 30l575 992q6 12 -8 12h-551q-10 0 -17.5 7t-7.5 17v156q0 10 7.5 17.5t17.5 7.5h797q10 0 17 -7.5t7 -17.5v-170q0 -16 -8 -31l-575 -991q-6 -12 8 -12h551q10 0 17 -7.5t7 -17.5v-155q0 -10 -7 -17.5t-17 -7.5h-797q-10 0 -17.5 7t-7.5 18z" />
<glyph unicode="[" horiz-adv-x="749" d="M63 -258v1853q0 10 7.5 17.5t17.5 7.5h414q10 0 17 -7t7 -18v-155q0 -10 -7 -17.5t-17 -7.5h-191q-10 0 -10 -10v-1471q0 -10 10 -10h193q10 0 17 -7t7 -17v-158q0 -10 -7 -17.5t-17 -7.5h-416q-10 0 -17.5 7.5t-7.5 17.5z" />
<glyph unicode="\" horiz-adv-x="792" d="M47 1415q0 18 21 19h188q20 0 27 -21l458 -1384q2 -5 2 -11q0 -18 -20 -18h-188q-20 0 -27 20l-459 1385q-2 4 -2 10z" />
<glyph unicode="]" horiz-adv-x="749" d="M221 -100q0 10 7.5 17t17.5 7h192q10 0 11 10v1471q0 10 -11 10h-190q-10 0 -17.5 7.5t-7.5 17.5v155q0 10 7.5 17.5t17.5 7.5h414q10 0 17 -7t7 -18v-1853q0 -10 -7 -17.5t-17 -7.5h-416q-10 0 -17.5 7.5t-7.5 17.5v158z" />
<glyph unicode="^" horiz-adv-x="899" d="M72 645l268 768q6 20 27 21h161q20 0 27 -21l272 -768q2 -4 2 -10q0 -18 -22 -19h-152q-20 0 -26 21l-174 532q-2 8 -6.5 8.5t-6.5 -8.5l-172 -532q-6 -20 -26 -21h-152q-12 0 -18 7.5t-2 21.5z" />
<glyph unicode="_" horiz-adv-x="935" d="M41 25v133q0 10 7 17t18 7h806q10 0 17.5 -7t7.5 -17v-133q0 -10 -7 -17.5t-18 -7.5h-806q-11 0 -18 7t-7 18z" />
<glyph unicode="`" horiz-adv-x="456" d="M58 1417q0 16 20 17h174q20 0 31 -17l119 -211l4 -12q0 -16 -23 -16h-147q-18 0 -29 16l-145 209q-4 6 -4 14z" />
<glyph unicode="a" d="M61 293q0 172 110 256t304 84h162q10 0 10 10v51q0 76 -42 120t-118 44q-59 0 -97 -27.5t-48 -74.5q-2 -23 -27 -23l-200 12q-27 4 -23 23q14 131 123 213t272 82q117 0 207 -44t140.5 -122t50.5 -178v-694q0 -10 -7.5 -17.5t-17.5 -7.5h-188q-10 0 -17.5 7t-7.5 18v51 q0 6 -4 7t-8 -3q-90 -96 -252 -96q-135 0 -228.5 72.5t-93.5 236.5zM303 309q0 -66 40 -99.5t106 -33.5q79 0 138.5 46t59.5 122v107q0 10 -10 10h-139q-90 0 -142.5 -39t-52.5 -113z" />
<glyph unicode="b" horiz-adv-x="1011" d="M113 25v1384q0 10 7 17.5t17 7.5h189q10 0 17 -7.5t7 -17.5v-436q0 -6 4 -8t8 4q72 94 218 94q266 0 329 -311q19 -91 19 -226q0 -137 -23 -231q-35 -156 -112.5 -233.5t-206.5 -77.5q-145 0 -224 98q-4 6 -8 4t-4 -8v-53q0 -10 -7 -17.5t-17 -7.5h-189q-10 0 -17 7 t-7 18zM352 524q0 -135 21 -207q37 -129 143 -129q115 0 152 131q22 80 22 205q0 135 -26 213q-41 121 -150 121q-106 0 -139 -123q-23 -72 -23 -211z" />
<glyph unicode="c" d="M88 526q0 129 16 224q23 143 129.5 228t270.5 85q158 0 266.5 -81t130.5 -212q2 -8 4 -20.5t2 -30.5v-4q0 -18 -22 -23l-187 -18h-4q-18 0 -22 22q0 14 -4 31q-10 55 -54.5 93t-111.5 38q-68 0 -112 -41t-54 -108q-10 -78 -10 -185q0 -117 12 -188q10 -68 53 -108 t111 -40q70 0 113.5 40t52.5 98l2 20q2 10 10 17.5t18 5.5l185 -17q25 -4 24 -26l-4 -35q-18 -139 -126.5 -223t-272.5 -84q-166 0 -271.5 85t-128.5 232q-16 84 -16 225z" />
<glyph unicode="d" horiz-adv-x="1011" d="M84 526q0 135 18 226q63 311 330 311q147 0 217 -94q4 -6 8.5 -4t4.5 8v436q0 10 7 17.5t17 7.5h188q10 0 17.5 -7.5t7.5 -17.5v-1384q0 -10 -7 -17.5t-18 -7.5h-188q-10 0 -17 7t-7 18v53q0 6 -4.5 8t-8.5 -4q-78 -98 -223 -98q-129 0 -207 77.5t-113 233.5 q-22 90 -22 220v11zM322 524q0 -125 22 -205q37 -131 152 -131q106 0 143 129q20 72 20 207q0 139 -22 211q-33 123 -139 123q-109 0 -150 -121q-26 -75 -26 -203v-10z" />
<glyph unicode="e" horiz-adv-x="991" d="M90 532q0 125 10 199q18 152 125 242t275 90q186 0 286.5 -98.5t116.5 -276.5q10 -117 10 -223q0 -25 -24 -25h-551q-10 0 -10 -10q0 -51 6 -92q10 -68 60 -110t124 -42q62 2 106 33t66 82q10 23 31 16l151 -38q25 -6 19 -31q-37 -123 -136.5 -193.5t-248.5 -70.5 q-156 0 -257.5 78.5t-129.5 213.5q-29 106 -29 256zM328 621q0 -10 10 -11h326q10 0 10 11q-4 61 -8 88q-10 70 -53.5 109.5t-114.5 39.5q-66 0 -109 -39t-53 -104q-8 -57 -8 -94z" />
<glyph unicode="f" horiz-adv-x="681" d="M51 883v139q0 10 7.5 17.5t17.5 7.5h98q10 0 10 10v45q0 129 36 201.5t115 104.5q74 30 197 30h15h43q10 0 17 -7.5t7 -17.5v-141q0 -10 -7 -17.5t-17 -7.5h-33q-76 -2 -106.5 -37.5t-30.5 -122.5v-30q0 -10 10 -10h166q10 0 17.5 -7.5t7.5 -17.5v-139q0 -10 -7.5 -17.5 t-17.5 -7.5h-166q-10 0 -10 -10v-823q0 -10 -7 -17.5t-18 -7.5h-186q-10 0 -17.5 7t-7.5 18v823q0 10 -10 10h-98q-10 0 -17.5 7t-7.5 18z" />
<glyph unicode="g" horiz-adv-x="1003" d="M86 526q0 170 16 234q20 139 106.5 221t221.5 82q141 0 223 -92q4 -4 8.5 -3t4.5 7v47q0 10 7 17.5t17 7.5h189q10 0 17 -7.5t7 -17.5v-967q0 -238 -129 -353.5t-373 -115.5q-29 0 -90 4q-25 2 -24 27l6 164q0 25 26 22q20 -2 62 -2q154 0 219.5 63.5t65.5 205.5v18 q0 6 -4.5 8t-8.5 -4q-78 -90 -215 -90q-133 0 -225 79t-115 224q-12 61 -12 221zM324 526q0 -100 10 -178q10 -66 55 -106.5t111 -40.5q68 0 109.5 41t49.5 106q7 78 7 178q0 117 -9 185q-8 66 -51 106.5t-108 40.5q-66 0 -109 -41t-53 -106q-12 -76 -12 -185z" />
<glyph unicode="h" horiz-adv-x="1005" d="M111 25v1384q0 10 7 17.5t17 7.5h189q10 0 17 -7.5t7 -17.5v-440q0 -6 4 -8.5t8 4.5q82 98 226 98q149 0 233 -94.5t84 -259.5v-684q0 -10 -7 -17.5t-17 -7.5h-189q-10 0 -17 7t-7 18v651q0 84 -42 133t-116 49q-66 0 -109 -41t-51 -110v-682q0 -10 -7 -17.5t-17 -7.5 h-189q-10 0 -17 7t-7 18z" />
<glyph unicode="i" horiz-adv-x="483" d="M94 1325q0 66 42 107t108 41t106.5 -41t40.5 -107t-41 -106.5t-106 -40.5q-66 0 -108 41t-42 106zM125 25v997q0 10 7 17.5t18 7.5h188q10 0 17 -7.5t7 -17.5v-997q0 -10 -7 -17.5t-17 -7.5h-188q-11 0 -18 7t-7 18z" />
<glyph unicode="j" horiz-adv-x="462" d="M-100 -242q0 25 32 25q98 0 141.5 45t43.5 137v1057q0 10 7 17.5t17 7.5h189q10 0 17 -7.5t7 -17.5v-1055q0 -141 -34.5 -224t-127.5 -124q-90 -39 -252 -39h-16q-24 0 -24 25v153zM86 1325q0 61 45 104.5t105 43.5q59 0 104 -43.5t45 -104.5q0 -63 -42 -106t-107 -43 q-66 0 -108 43t-42 106z" />
<glyph unicode="k" horiz-adv-x="978" d="M111 25v1384q0 10 7 17.5t17 7.5h189q10 0 17 -7.5t7 -17.5v-733q0 -6 4 -7t8 3l277 360q12 14 31 15h206q20 0 21 -15q0 -6 -6 -16l-238 -318q-4 -6 0 -14l275 -655q2 -4 2 -13q0 -16 -21 -16h-196q-23 0 -29 20l-186 490q-2 6 -5.5 6t-7.5 -4l-131 -166q-4 -8 -4 -12 v-309q0 -10 -7 -17.5t-17 -7.5h-189q-10 0 -17 7t-7 18z" />
<glyph unicode="l" horiz-adv-x="452" d="M109 25v1384q0 10 7 17.5t17 7.5h189q10 0 17 -7.5t7 -17.5v-1384q0 -10 -7 -17.5t-17 -7.5h-189q-10 0 -17 7t-7 18z" />
<glyph unicode="m" horiz-adv-x="1529" d="M111 25v997q0 10 7 17.5t17 7.5h187q10 0 17 -7.5t7 -17.5v-51q0 -6 4 -7t8 3q84 96 228 96q90 0 155.5 -38t102.5 -107q4 -4 8 -4.5t6 8.5q47 74 118 107.5t150 33.5q146 0 225 -94.5t79 -261.5v-682q0 -10 -7.5 -17.5t-17.5 -7.5h-186q-10 0 -17.5 7t-7.5 18v649 q0 86 -41 135t-109 49q-72 0 -113.5 -49t-41.5 -133v-651q0 -10 -7.5 -17.5t-17.5 -7.5h-188q-10 0 -17.5 7t-7.5 18v649q0 86 -41 135t-108 49q-72 0 -114 -49t-42 -133v-651q0 -10 -7 -17.5t-17 -7.5h-187q-10 0 -17 7t-7 18z" />
<glyph unicode="n" horiz-adv-x="1005" d="M111 25v997q0 10 7 17.5t17 7.5h189q10 0 17 -7.5t7 -17.5v-53q0 -6 4 -8.5t8 4.5q82 98 226 98q149 0 233 -94.5t84 -259.5v-684q0 -10 -7 -17.5t-17 -7.5h-189q-10 0 -17 7t-7 18v651q0 84 -42 133t-116 49q-66 0 -109 -41t-51 -110v-682q0 -10 -7 -17.5t-17 -7.5h-189 q-10 0 -17 7t-7 18z" />
<glyph unicode="o" horiz-adv-x="1013" d="M88 524q0 123 16 221q23 145 130.5 231.5t275.5 86.5q162 0 268.5 -86t128.5 -229q18 -98 19 -222q0 -123 -19 -221q-23 -150 -129 -235.5t-270 -85.5q-166 0 -273.5 86t-130.5 235q-16 98 -16 219zM326 524q0 -90 10 -182q12 -72 58 -113t114 -41q65 0 110.5 41 t57.5 113q10 70 10 182q0 115 -10 181q-10 72 -56.5 112.5t-113.5 40.5q-68 0 -113 -41t-57 -112q-10 -88 -10 -181z" />
<glyph unicode="p" horiz-adv-x="1019" d="M121 -362v1384q0 10 7 17.5t17 7.5h189q10 0 17 -7.5t7 -17.5v-53q0 -6 4.5 -8.5t8.5 4.5q78 98 223 98q129 0 207 -78t112 -233q23 -95 23 -232q0 -135 -18 -225q-63 -311 -330 -311q-145 0 -217 94q-4 6 -8.5 4t-4.5 -8v-436q0 -10 -7 -17.5t-17 -7.5h-189q-10 0 -17 7 t-7 18zM360 522q0 -139 23 -211q33 -123 139 -123q109 0 150 121q26 78 26 213q0 127 -22 205q-37 131 -152 131q-106 0 -143 -129q-20 -72 -21 -207z" />
<glyph unicode="q" horiz-adv-x="1019" d="M84 520q0 137 22 232q35 156 113 233.5t207 77.5q145 0 223 -98q4 -6 8.5 -4t4.5 8v53q0 10 7 17.5t17 7.5h188q10 0 17.5 -7.5t7.5 -17.5v-1384q0 -10 -7 -17.5t-18 -7.5h-188q-10 0 -17 7t-7 18v436q0 6 -4.5 8t-8.5 -4q-70 -94 -217 -94q-266 0 -330 311 q-18 90 -18 225zM322 522q0 -135 26 -213q41 -121 150 -121q106 0 139 123q22 72 22 211q0 135 -20 207q-37 129 -143 129q-115 0 -152 -131q-22 -75 -22 -195v-10z" />
<glyph unicode="r" horiz-adv-x="706" d="M111 25v997q0 10 7 17.5t17 7.5h189q10 0 17 -7.5t7 -17.5v-94q0 -8 3 -9t7 5q74 135 211 135q58 0 101 -25q16 -8 12 -30l-35 -187q-2 -25 -29 -14q-31 10 -67 10q-10 0 -39 -4q-72 -8 -118 -64.5t-46 -140.5v-579q0 -10 -7 -17.5t-17 -7.5h-189q-10 0 -17 7t-7 18z" />
<glyph unicode="s" horiz-adv-x="913" d="M76 276v17q0 10 7 17t17 7h179q10 0 17 -4t7 -10v-16q0 -49 46 -85t118 -36q68 0 108.5 32.5t40.5 82.5q0 49 -42 75.5t-130 57.5l-53 18q-139 45 -223 113.5t-84 204.5q0 143 102.5 226t272.5 83q172 0 276.5 -86t104.5 -225v-3q0 -10 -7.5 -17t-17.5 -7h-172 q-25 0 -25 16v17q0 51 -44 84.5t-113 33.5q-68 0 -109 -31.5t-41 -80.5q0 -39 29 -64.5t64.5 -40t125.5 -45.5q96 -33 163 -67.5t114 -96t47 -155.5q0 -141 -105.5 -222t-281.5 -81q-178 0 -284.5 79.5t-106.5 208.5z" />
<glyph unicode="t" horiz-adv-x="671" d="M47 891v131q0 10 7 17.5t18 7.5h94q10 0 10 10v233q0 10 7 17.5t18 7.5h180q10 0 17.5 -7.5t7.5 -17.5v-233q0 -10 10 -10h166q10 0 17 -7.5t7 -17.5v-131q0 -10 -7 -17.5t-17 -7.5h-166q-10 0 -10 -10v-512q0 -76 29.5 -106.5t92.5 -30.5h37q10 0 17.5 -7t7.5 -18v-153 q0 -23 -25 -27h-86q-152 0 -227.5 53.5t-75.5 200.5v600q0 10 -10 10h-94q-10 0 -17.5 7.5t-7.5 17.5z" />
<glyph unicode="u" horiz-adv-x="1001" d="M100 311v711q0 10 7.5 17.5t17.5 7.5h188q10 0 17.5 -7.5t7.5 -17.5v-651q0 -86 40 -134.5t116 -48.5t118.5 50.5t42.5 136.5v647q0 10 7.5 17.5t17.5 7.5h188q10 0 17.5 -7.5t7.5 -17.5v-997q0 -10 -7 -17.5t-18 -7.5h-188q-10 0 -17.5 7t-7.5 18v55q0 6 -4 7t-8 -5 q-70 -96 -219 -96q-139 0 -231.5 83t-92.5 242z" />
<glyph unicode="v" horiz-adv-x="942" d="M47 1028q0 18 23 19h206q20 0 27 -21l162 -680q2 -8 6 -8t6 8l162 680q6 20 27 21l206 -3q27 0 21 -26l-287 -998q-6 -20 -28 -20h-213q-23 0 -29 20l-287 1000z" />
<glyph unicode="w" horiz-adv-x="1386" d="M47 1020v8q0 18 23 19h184q23 0 27 -23l141 -678q2 -8 6 -8t6 8l146 678q4 23 26 23h166q23 0 27 -23l149 -678q2 -8 6 -8t7 8l145 678q4 23 27 23l184 -3q29 0 22 -26l-256 -998q-6 -20 -28 -20h-191q-20 0 -26 20l-146 615q-2 8 -6 8t-6 -8l-137 -612q-4 -23 -27 -23 h-186q-23 0 -29 20z" />
<glyph unicode="x" horiz-adv-x="954" d="M43 1030q0 16 23 17h200q23 0 31 -17l172 -297q6 -12 12 0l168 297q10 16 31 17h211q14 0 20.5 -8.5t-2.5 -20.5l-286 -488q-2 -6 0 -12l286 -489l4 -13q0 -16 -22 -16h-203q-20 0 -31 16l-170 301q-6 10 -12 0l-170 -301q-10 -16 -31 -16h-208q-15 0 -21 8t2 21l287 489 q4 6 0 12l-287 488z" />
<glyph unicode="y" horiz-adv-x="913" d="M37 1026q0 20 22 21h201q23 0 29 -21l164 -684q2 -8 6 -8t6 8l160 684q6 20 26 21h203q12 0 18.5 -8.5t1.5 -20.5l-317 -1075q-45 -145 -91 -217t-128 -103t-232 -31h-12q-12 0 -12 25v147q0 10 4 17.5t8 7.5h10q76 0 119 16.5t68.5 59.5t44.5 129q2 4 0 12l-297 1012z " />
<glyph unicode="z" horiz-adv-x="843" d="M53 25v174q0 14 10 30l429 590q4 4 0.5 8t-9.5 4h-395q-10 0 -17.5 7.5t-7.5 17.5v166q0 10 7.5 17.5t17.5 7.5h668q10 0 17 -7.5t7 -17.5v-174q0 -16 -10 -31l-438 -590q-4 -4 -2 -8t8 -4h426q10 0 17 -7t7 -18v-165q0 -10 -7 -17.5t-17 -7.5h-686q-10 0 -17.5 7 t-7.5 18z" />
<glyph unicode="{" horiz-adv-x="684" d="M63 604v141q0 25 25 27q113 14 113 180v422q0 121 61.5 183.5t179.5 62.5h156q10 0 17.5 -7t7.5 -18v-155q0 -10 -7.5 -17.5t-17.5 -7.5h-53q-49 0 -78 -36t-29 -101v-354q0 -186 -110 -242q-10 -6 0 -12q111 -57 110 -246v-363q0 -66 29 -101.5t78 -35.5h53 q10 0 17.5 -7t7.5 -17v-158q0 -10 -7.5 -17.5t-17.5 -7.5h-156q-118 0 -179.5 62.5t-61.5 183.5v432q0 86 -28 130t-87 55q-23 4 -23 24z" />
<glyph unicode="|" horiz-adv-x="368" d="M66 -139v1671q0 10 7 17t17 7h189q10 0 17 -7t7 -17v-1671q0 -10 -7 -17.5t-17 -7.5h-189q-10 0 -17 7t-7 18z" />
<glyph unicode="}" horiz-adv-x="684" d="M61 -100q0 10 7.5 17t17.5 7h53q49 0 78 36t29 101v363q0 188 110 246q10 6 0 12q-111 55 -110 242v354q0 66 -29 101.5t-78 35.5h-53q-10 0 -17.5 7.5t-7.5 17.5v155q0 10 7.5 17.5t17.5 7.5h156q119 0 180 -62.5t61 -183.5v-422q0 -166 113 -180q25 -2 25 -27v-141 q0 -20 -23 -24q-59 -10 -87 -54.5t-28 -130.5v-432q0 -121 -61.5 -183.5t-179.5 -62.5h-156q-10 0 -17.5 7.5t-7.5 17.5v158z" />
<glyph unicode="~" horiz-adv-x="1026" d="M68 567q33 86 107.5 139.5t162.5 53.5q49 0 89 -14.5t81 -38.5q12 -6 46 -25.5t63.5 -30t60.5 -10.5q39 0 66.5 19.5t52.5 54.5q14 20 34 8l113 -72q23 -14 10 -33q-41 -82 -109.5 -133t-150.5 -51q-53 0 -93 15.5t-91 46.5q-51 29 -85 43t-71 14q-88 0 -139 -76 q-14 -20 -33 -8l-102 66q-18 12 -12 32z" />
<glyph unicode="&#xa1;" horiz-adv-x="624" d="M150 1292q0 66 46 112t113 46q68 0 114 -46t46 -112t-48 -111.5t-112 -45.5q-63 0 -111 46t-48 111zM195 45l22 901q0 10 7 17.5t18 7.5h141q10 0 17.5 -7.5t7.5 -17.5l24 -901q0 -10 -7 -17.5t-17 -7.5h-189q-10 0 -17 7.5t-7 17.5z" />
<glyph unicode="&#xa2;" d="M88 711q0 129 16 223q18 115 92 194.5t193 106.5q8 4 8 12l-6 142q0 10 7.5 17t17.5 7h153q10 0 17.5 -7t7.5 -17l-6 -138q0 -8 10 -12q121 -23 202 -98.5t101 -186.5q2 -8 4 -20t2 -31v-4q0 -18 -22 -22l-187 -19h-4q-18 0 -22 23q0 14 -4 30q-10 55 -54.5 93t-111.5 38 q-68 0 -112 -40.5t-54 -108.5q-10 -78 -10 -184q0 -117 12 -189q10 -68 53 -107.5t111 -39.5q70 0 113.5 40t52.5 97l2 20q2 10 10 17.5t18 5.5l185 -16q25 -4 24 -27l-4 -35q-14 -119 -96 -197.5t-209 -101.5q-10 -4 -10 -12l6 -137q0 -10 -7 -17.5t-18 -7.5h-153 q-10 0 -17.5 7t-7.5 18l6 141q0 8 -10 12q-117 27 -190.5 107t-92.5 198q-16 84 -16 226z" />
<glyph unicode="&#xa3;" horiz-adv-x="1148" d="M131 629v143q0 10 7 17.5t18 7.5h123q10 0 10 10v213q0 203 109.5 316.5t297.5 113.5q147 0 244.5 -81t138.5 -228l2 -8q0 -16 -22 -21l-178 -27h-7q-16 0 -22 19q-23 74 -60.5 107.5t-95.5 33.5q-82 0 -126 -54t-44 -163v-221q0 -10 11 -10h325q10 0 17.5 -7.5 t7.5 -17.5v-143q0 -10 -7.5 -17.5t-17.5 -7.5h-325q-10 0 -11 -10v-164q0 -135 -67 -213q-4 -4 -3 -8t7 -4h604q10 0 17.5 -7.5t7.5 -17.5v-155q0 -10 -7.5 -17.5t-17.5 -7.5h-848q-10 0 -17 7t-7 18v161q0 16 14 29q80 66 80 213v166q0 10 -10 10h-123q-10 0 -17.5 7 t-7.5 18z" />
<glyph unicode="&#xa4;" horiz-adv-x="1128" d="M41 1001q0 8 8 17l117 100q8 8 18 8q8 0 17 -8l123 -123q6 -4 14 -2q96 59 219 60q127 0 227 -66q10 -2 15 2l131 129q8 8 16 8q10 0 19 -8l114 -100q8 -8 8 -17q0 -10 -8 -18l-139 -139q-4 -4 -2 -15q55 -98 55 -208q0 -124 -59 -220q-2 -8 2 -14l131 -131q8 -8 8 -18 q0 -8 -8 -17l-117 -100q-8 -8 -18 -8q-8 0 -17 8l-124 123q-4 6 -15 2q-96 -59 -219 -60q-117 0 -211 56q-8 2 -14 -2l-119 -119q-8 -8 -16 -8q-6 0 -19 8l-117 100q-8 6 -8 17q0 10 8 18l123 123q6 6 2 14q-66 104 -65 228q0 117 61 217q4 10 -2 14l-131 131q-8 8 -8 18z M326 621q0 -95 68.5 -163.5t162.5 -68.5q96 0 163.5 67.5t67.5 164.5q0 94 -68.5 162.5t-162.5 68.5t-162.5 -67.5t-68.5 -163.5z" />
<glyph unicode="&#xa5;" horiz-adv-x="1243" d="M145 1417q0 16 21 17h201q23 0 28 -19l221 -553q6 -14 13 0l219 553q6 18 29 19h202q15 0 20 -7.5t-1 -21.5l-307 -703q-2 -4 0 -8t6 -4h207q10 0 17 -7t7 -17v-86q0 -10 -7 -17.5t-17 -7.5h-254q-10 0 -11 -10v-111q0 -10 11 -10h254q10 0 17 -7t7 -18v-86q0 -10 -7 -17 t-17 -7h-254q-10 0 -11 -10v-252q0 -10 -7 -17.5t-17 -7.5h-187q-10 0 -17 7t-7 18v252q0 10 -10 10h-256q-10 0 -17.5 7t-7.5 17v86q0 10 7 17.5t18 7.5h256q10 0 10 10v111q0 10 -10 10h-256q-10 0 -17.5 7t-7.5 18v86q0 10 7 17t18 7h208q4 0 6.5 4t0.5 8l-306 703 q-2 4 -2 12z" />
<glyph unicode="&#xa6;" horiz-adv-x="368" d="M66 -139v698q0 10 7 17.5t17 7.5h189q10 0 17 -7.5t7 -17.5v-698q0 -10 -7 -17.5t-17 -7.5h-189q-10 0 -17 7t-7 18zM66 829v703q0 10 7 17t17 7h189q10 0 17 -7t7 -17v-703q0 -10 -7 -17t-17 -7h-189q-10 0 -17 7t-7 17z" />
<glyph unicode="&#xa7;" horiz-adv-x="929" d="M88 500q0 111 55 194q53 78 127 105q6 2 6 6t-4 8q-82 49 -131 124t-49 173q0 94 48 172t134 123t195 45q164 0 266.5 -96.5t104.5 -249.5v-31q0 -10 -7.5 -17t-17.5 -7h-188q-10 0 -17.5 6t-7.5 14v18q0 70 -38 114t-97 44q-61 0 -99 -44t-38 -109q0 -74 52 -118 t161 -89q90 -39 146 -70t95 -80q70 -84 70 -205q0 -104 -49 -190q-51 -94 -133 -121q-6 -2 -6 -5t6 -7q174 -102 174 -291q0 -152 -106.5 -245t-274.5 -93q-166 0 -264.5 92t-102.5 244v49q0 10 7.5 17.5t17.5 7.5h188q10 0 17.5 -7.5t7.5 -17.5v-22q0 -72 37 -115t98 -43 q59 0 98 43t39 104q0 53 -32.5 91t-78.5 63t-130 59q-92 43 -148.5 84t-91.5 105q-39 72 -39 168zM326 510q0 -59 24 -100q41 -63 121 -64q84 0 121 66q25 41 24 100q0 68 -32 111q-45 55 -115 55q-39 0 -70.5 -20.5t-48.5 -51.5q-25 -39 -24 -96z" />
<glyph unicode="&#xa8;" horiz-adv-x="677" d="M41 1313q0 57 36 92t91 35t89 -35t34 -92q0 -55 -34 -91t-89 -36t-91 35.5t-36 91.5zM389 1313q0 57 34 92t91 35q55 0 90 -35t35 -92q0 -55 -35 -91t-90 -36t-90 35.5t-35 91.5z" />
<glyph unicode="&#xa9;" horiz-adv-x="1681" d="M100 721q0 205 96.5 372t265.5 262t378 95q211 0 380 -95t265 -262t96 -372q0 -209 -96 -377t-265 -264t-380 -96q-209 0 -378 96t-265.5 264t-96.5 377zM238 721q0 -170 77.5 -308.5t216 -216t308.5 -77.5t308 77.5t216 216t78 308.5q0 166 -78 302t-216 214t-308 78 t-308.5 -78t-216 -214t-77.5 -302zM625 567v299q0 94 59 148.5t160 54.5q98 0 158.5 -53t60.5 -146q0 -23 -25 -22l-82 -4q-12 0 -18 5t-6 11v14q0 37 -24.5 60.5t-63.5 23.5q-41 0 -65.5 -23.5t-24.5 -60.5v-317q0 -37 25.5 -60.5t64.5 -23.5t63.5 23.5t24.5 60.5v6 q0 10 7 17.5t17 7.5l82 -4q25 0 25 -11v-12q0 -90 -60.5 -144.5t-158.5 -54.5q-101 0 -160 55.5t-59 149.5z" />
<glyph unicode="&#xaa;" horiz-adv-x="626" d="M33 530v88q0 11 7 18t17 7h498q10 0 17.5 -7t7.5 -18v-88q0 -10 -7.5 -17t-17.5 -7h-498q-10 0 -17 7t-7 17zM33 940q0 111 72.5 164t199.5 53h103q10 0 10 10v37q0 55 -30 88t-85 33q-39 0 -66.5 -18.5t-37.5 -46.5q-6 -23 -27 -21l-98 6q-10 0 -17.5 7.5t-5.5 19.5 q12 78 82 128t168 50q117 0 188.5 -62.5t71.5 -164.5v-449q0 -10 -7 -17t-17 -7h-95q-10 0 -17 7t-7 17v17q0 6 -4 7t-8 -3q-51 -57 -152 -58q-94 0 -157.5 48.5t-63.5 154.5zM178 944q0 -88 103 -88q57 0 97 31t40 82v63q0 10 -10 10h-95q-61 0 -98 -24.5t-37 -73.5z" />
<glyph unicode="&#xab;" horiz-adv-x="1007" d="M115 575q0 8 4 17l200 323q8 16 29 17h168q14 0 19.5 -7t-3.5 -22l-204 -321q-2 -6 0 -13l204 -321q5 -13 5 -15q0 -14 -21 -14h-168q-20 0 -29 17l-200 323q-4 12 -4 16zM446 575q0 8 5 17l200 323q8 16 29 17h168q14 0 19 -7t-3 -22l-205 -321q-2 -6 0 -13l205 -321 q4 -13 4 -15q0 -14 -20 -14h-168q-20 0 -29 17l-200 323q-4 12 -5 16z" />
<glyph unicode="&#xac;" horiz-adv-x="952" d="M61 561v141q0 10 7.5 17.5t17.5 7.5h782q11 0 18 -7t7 -18v-151v-14h-2v-197q0 -10 -7 -17.5t-18 -7.5h-143q-10 0 -17.5 7.5t-7.5 17.5v186q0 10 -10 11h-602q-10 0 -17.5 7t-7.5 17z" />
<glyph unicode="&#xad;" horiz-adv-x="745" d="M61 539v155q0 10 7.5 17.5t17.5 7.5h576q10 0 17 -7t7 -18v-155q0 -10 -7 -17.5t-17 -7.5h-576q-10 0 -17.5 7t-7.5 18z" />
<glyph unicode="&#xae;" horiz-adv-x="903" d="M41 1055q0 113 54.5 204t148.5 144t209 53q114 0 208.5 -53t148.5 -144.5t54 -203.5q0 -117 -54 -211t-148.5 -148.5t-208.5 -54.5q-115 0 -209 54.5t-148.5 148.5t-54.5 211zM141 1055q0 -88 41 -161t113 -114t158 -41t157.5 41t112.5 114t41 161q0 84 -41 154.5 t-112.5 110.5t-157.5 40t-158 -40t-113 -110.5t-41 -154.5zM336 889v325q0 10 7 17.5t17 7.5h115q51 0 84 -34t33 -83q0 -63 -51 -96q-8 -2 -4 -12l45 -121q2 -4 2 -10q0 -18 -23 -19h-39q-20 0 -26 21l-43 119q-4 8 -11 8h-12q-10 0 -10 -11v-112q0 -10 -7 -17.5t-18 -7.5 h-35q-10 0 -17 7.5t-7 17.5zM420 1085q0 -10 10 -10h33q20 0 32.5 13.5t12.5 31.5q0 20 -12.5 33.5t-32.5 13.5h-33q-10 0 -10 -10v-72z" />
<glyph unicode="&#xaf;" horiz-adv-x="692" d="M90 1223v114q0 10 7 17.5t18 7.5h460q10 0 17.5 -7t7.5 -18v-114q0 -10 -7 -17.5t-18 -7.5h-460q-11 0 -18 7t-7 18z" />
<glyph unicode="&#xb0;" horiz-adv-x="753" d="M41 1317q0 94 45 171t122 122t169 45t170 -45t123 -122t45 -171t-45 -172t-123 -123t-170 -45t-169 45t-122 123t-45 172zM199 1317q0 -76 52 -128t126 -52q76 0 127 52t51 128q0 78 -51 130t-127 52q-74 0 -126 -53t-52 -129z" />
<glyph unicode="&#xb1;" horiz-adv-x="952" d="M61 43v141q0 10 7.5 17.5t17.5 7.5h782q10 0 17.5 -7t7.5 -18v-141q0 -10 -7 -17t-18 -7h-782q-10 0 -17.5 7t-7.5 17zM61 702v142q0 10 7.5 17t17.5 7h285q10 0 10 10v289q0 10 7 17.5t18 7.5h141q10 0 17 -7.5t7 -17.5v-289q0 -10 11 -10h286q11 0 18 -7t7 -17v-142 q0 -10 -7 -17t-18 -7h-286q-10 0 -11 -11v-284q0 -10 -7 -17.5t-17 -7.5h-141q-10 0 -17.5 7t-7.5 18v284q0 10 -10 11h-285q-10 0 -17.5 7t-7.5 17z" />
<glyph unicode="&#xb2;" horiz-adv-x="610" d="M47 1474v45q4 102 75 161.5t181 59.5q113 0 181.5 -64.5t68.5 -174.5q0 -109 -84 -230q-68 -96 -199 -254q-4 -4 -2 -8t8 -4h271q10 0 17 -7t7 -17v-86q0 -10 -7 -17.5t-17 -7.5h-471q-10 0 -17.5 7t-7.5 18v94q0 14 10 28l29 35q162 190 215 262q90 117 90 189 q0 47 -25.5 74.5t-68.5 27.5t-69.5 -27.5t-26.5 -72.5v-31q0 -10 -7.5 -17t-17.5 -7h-108q-10 0 -17.5 7t-7.5 17z" />
<glyph unicode="&#xb3;" horiz-adv-x="612" d="M55 1120q0 25 25 24h106q25 0 25 -24q4 -33 8 -43q10 -39 32.5 -60.5t57.5 -21.5q59 0 84 59q14 37 15 101q0 68 -17 102q-23 59 -82 59q-18 0 -33 -8q-8 -4 -12 -4q-4 -2 -10 -2q-8 0 -16 8l-52 58q-8 12 -8 18q0 8 8 16l166 181q10 12 -4 12h-256q-10 0 -17 7t-7 18v86 q0 10 7 17t17 7h436q10 0 17.5 -7t7.5 -17v-95q0 -16 -12 -28l-140 -160q-6 -8 5 -12q47 -10 81.5 -46t53.5 -92q20 -61 20 -129t-18 -116q-23 -80 -83.5 -124t-150.5 -44q-94 0 -159.5 51t-83.5 135q-6 25 -11 74z" />
<glyph unicode="&#xb4;" horiz-adv-x="456" d="M54 1186q-6 8 2 20l119 211q10 16 30 17h174q14 0 19.5 -9.5t-2.5 -21.5l-146 -209q-10 -16 -28 -16h-148q-14 0 -20 8z" />
<glyph unicode="&#xb5;" horiz-adv-x="1015" d="M111 -385v1407q0 10 7 17.5t17 7.5h189q10 0 17 -7.5t7 -17.5v-651q0 -86 40 -134.5t116 -48.5t119 50.5t43 136.5v647q0 10 7 17.5t17 7.5h189q10 0 17 -7.5t7 -17.5v-997q0 -10 -7 -17.5t-17 -7.5h-189q-10 0 -17 7t-7 18v55q0 6 -4.5 7t-8.5 -5q-70 -96 -219 -96 q-39 0 -76 6q-4 2 -7 -2t-3 -8v-367q0 -10 -7 -17.5t-17 -7.5h-189q-10 0 -17 7.5t-7 17.5z" />
<glyph unicode="&#xb6;" horiz-adv-x="1132" d="M55 973q0 131 53.5 236.5t152.5 165t228 59.5h494q10 0 17.5 -7.5t7.5 -17.5v-1794q0 -10 -7.5 -17.5t-17.5 -7.5h-137q-10 0 -17.5 7.5t-7.5 17.5v1626q0 10 -10 10h-170q-10 0 -10 -10v-1626q0 -10 -7.5 -17.5t-17.5 -7.5h-139q-10 0 -17.5 7.5t-7.5 17.5v889 q0 8 -10 12q-170 20 -273.5 145t-103.5 312z" />
<glyph unicode="&#xb7;" horiz-adv-x="317" d="M-13 156q0 63 48.5 109t111.5 46t111.5 -46t48.5 -109q0 -66 -46 -112t-114 -46q-67 0 -113.5 46t-46.5 112z" />
<glyph unicode="&#xb8;" horiz-adv-x="307" d="M8 -344l10 76q2 25 31 18q20 -4 29 -4q31 0 51.5 19.5t20.5 58.5q0 66 -87 145q-12 8 -12 19q0 12 21 12h100q18 0 31 -12q104 -92 104 -199q0 -27 -6 -51q-16 -68 -65.5 -97.5t-114.5 -29.5q-51 0 -94 14q-21 8 -19 31z" />
<glyph unicode="&#xb9;" horiz-adv-x="352" d="M53 1603v68q0 20 19 28l47 25q11 6 31 6h116q10 0 17.5 -7t7.5 -17v-811q0 -10 -7.5 -17.5t-17.5 -7.5h-108q-10 0 -17.5 7t-7.5 18v684q0 4 -3 8t-7 2l-43 -8h-8q-18 0 -19 22z" />
<glyph unicode="&#xba;" horiz-adv-x="663" d="M49 530v91q0 10 7 17t18 7h520q10 0 17 -7t7 -17v-91q0 -10 -7 -17t-17 -7h-520q-11 0 -18 7t-7 17zM59 1096q0 88 13 149q16 94 84.5 149.5t175.5 55.5q102 0 169.5 -55.5t84.5 -149.5q14 -76 14 -147q0 -88 -14 -148q-14 -98 -83 -153.5t-173 -55.5q-105 0 -173.5 56.5 t-84.5 152.5q-12 61 -13 146zM215 1096q0 -74 8 -123q6 -45 36 -72t71 -27t69.5 27t36.5 72q8 51 8 123q0 74 -8 123q-8 45 -36.5 71.5t-69.5 26.5t-70 -26.5t-37 -71.5q-8 -49 -8 -123z" />
<glyph unicode="&#xbb;" horiz-adv-x="1007" d="M143 918q0 14 21 14h168q20 0 28 -17l201 -323q4 -4 4 -17q0 -10 -4 -16l-201 -323q-8 -16 -28 -17h-168q-14 0 -19.5 7t2.5 22l205 321q4 6 0 13l-205 321q-4 12 -4 15zM475 918q0 14 21 14h168q20 0 28 -17l201 -323q4 -4 4 -17q0 -10 -4 -16l-201 -323q-8 -16 -28 -17 h-168q-14 0 -19.5 7t2.5 22l205 321q4 6 0 13l-205 321q-4 12 -4 15z" />
<glyph unicode="&#xbc;" horiz-adv-x="1546" d="M53 1306v68q0 20 19 28l47 25q11 6 31 6h116q10 0 17.5 -7t7.5 -17v-811q0 -10 -7.5 -17.5t-17.5 -7.5h-108q-10 0 -17.5 7t-7.5 18v684q0 4 -3 8t-7 2l-43 -8h-8q-18 0 -19 22zM175 7q-5 7 3 22l839 1388q8 16 29 17h121q14 0 19.5 -7.5t-3.5 -21.5l-837 -1389 q-8 -16 -29 -16h-123q-14 0 -19 7zM928 246v73q0 12 6 31l192 492q6 18 29 18h113q31 0 20 -29l-176 -456q-2 -12 8 -13h156q10 0 10 11v137q0 10 7 17.5t18 7.5h106q10 0 17.5 -7.5t7.5 -17.5v-137q0 -10 10 -11h31q10 0 17 -7t7 -17v-92q0 -10 -7 -17.5t-17 -7.5h-31 q-10 0 -10 -10v-186q0 -10 -7.5 -17.5t-17.5 -7.5h-106q-10 0 -17.5 7t-7.5 18v186q0 10 -10 10h-324q-10 0 -17 7.5t-7 17.5z" />
<glyph unicode="&#xbd;" horiz-adv-x="1511" d="M53 1306v68q0 20 19 28l47 25q11 6 31 6h116q10 0 17.5 -7t7.5 -17v-811q0 -10 -7.5 -17.5t-17.5 -7.5h-108q-10 0 -17.5 7t-7.5 18v684q0 4 -3 8t-7 2l-43 -8h-8q-18 0 -19 22zM175 7q-5 7 3 22l839 1388q8 16 29 17h121q14 0 19.5 -7.5t-3.5 -21.5l-837 -1389 q-8 -16 -29 -16h-123q-14 0 -19 7zM948 604v45q4 102 75 161.5t181 59.5q113 0 181.5 -64.5t68.5 -174.5q0 -109 -84 -230q-68 -96 -199 -254q-4 -4 -2 -8t8 -4h271q10 0 17 -7t7 -17v-86q0 -10 -7 -17.5t-17 -7.5h-471q-10 0 -17.5 7t-7.5 18v94q0 14 10 28l29 35 q162 190 215 262q90 117 90 189q0 47 -25.5 74.5t-68.5 27.5t-69.5 -27.5t-26.5 -72.5v-31q0 -10 -7.5 -17t-17.5 -7h-108q-10 0 -17.5 7t-7.5 17z" />
<glyph unicode="&#xbe;" horiz-adv-x="1716" d="M55 828q0 25 25 24h106q25 0 25 -24q4 -33 8 -43q10 -39 32.5 -60.5t57.5 -21.5q59 0 84 59q14 37 15 101q0 68 -17 102q-23 59 -82 59q-18 0 -33 -8q-8 -4 -12 -4q-4 -2 -10 -2q-8 0 -16 8l-52 58q-8 12 -8 18q0 8 8 16l166 181q10 12 -4 12h-256q-10 0 -17 7t-7 18v86 q0 10 7 17t17 7h436q10 0 17.5 -7t7.5 -17v-95q0 -16 -12 -28l-140 -160q-6 -8 5 -12q47 -10 81.5 -46t53.5 -92q20 -61 20 -129t-18 -116q-23 -80 -83.5 -124t-150.5 -44q-94 0 -159.5 51t-83.5 135q-6 25 -11 74zM345 7q-5 7 3 22l839 1388q8 16 29 17h121q14 0 19.5 -7.5 t-3.5 -21.5l-837 -1389q-8 -16 -29 -16h-123q-14 0 -19 7zM1098 246v73q0 12 6 31l192 492q6 18 29 18h113q31 0 20 -29l-176 -456q-2 -12 8 -13h156q10 0 10 11v137q0 10 7 17.5t18 7.5h106q10 0 17.5 -7.5t7.5 -17.5v-137q0 -10 10 -11h31q10 0 17 -7t7 -17v-92 q0 -10 -7 -17.5t-17 -7.5h-31q-10 0 -10 -10v-186q0 -10 -7.5 -17.5t-17.5 -7.5h-106q-10 0 -17.5 7t-7.5 18v186q0 10 -10 10h-324q-10 0 -17 7.5t-7 17.5z" />
<glyph unicode="&#xbf;" horiz-adv-x="933" d="M57 -45q0 90 28 155.5t66.5 106.5t102.5 92q66 51 96.5 89t30.5 94v69q0 10 7 17.5t18 7.5h188q10 0 17 -7.5t7 -17.5v-84q0 -70 -24.5 -121t-58 -85.5t-91.5 -80.5q-74 -59 -110.5 -107t-36.5 -120q0 -80 46 -128t122 -48q80 0 129 51t49 131v43q0 23 25 23l188 -8 q10 0 17.5 -8.5t7.5 -18.5v-31q0 -117 -53.5 -208t-149.5 -141t-219 -50q-182 0 -292 105.5t-110 279.5zM338 879q0 61 45 104t106 43q62 0 104 -43t42 -104t-44 -104.5t-104 -43.5q-59 0 -104 43t-45 105z" />
<glyph unicode="&#xc0;" horiz-adv-x="1159" d="M61 27l371 1386q6 20 29 21h235q23 0 29 -21l373 -1386l2 -9q0 -18 -23 -18h-196q-23 0 -29 20l-51 220q-2 8 -10 8h-422q-8 0 -11 -8l-53 -220q-6 -20 -29 -20h-194q-27 0 -21 27zM322 1804q0 16 20 17h174q20 0 31 -17l119 -211l4 -12q0 -16 -23 -16h-147q-18 0 -29 16 l-145 209q-4 6 -4 14zM410 446q-2 -6 2 -9t8 -3h319q4 0 8.5 3t2.5 9l-162 664q-2 6 -6 6t-7 -6z" />
<glyph unicode="&#xc1;" horiz-adv-x="1159" d="M61 27l371 1386q6 20 29 21h235q23 0 29 -21l373 -1386l2 -9q0 -18 -23 -18h-196q-23 0 -29 20l-51 220q-2 8 -10 8h-422q-8 0 -11 -8l-53 -220q-6 -20 -29 -20h-194q-27 0 -21 27zM410 446q-2 -6 2 -9t8 -3h319q4 0 8.5 3t2.5 9l-162 664q-2 6 -6 6t-7 -6zM457 1573 q-6 8 2 20l119 211q10 16 30 17h174q14 0 19.5 -9.5t-2.5 -21.5l-146 -209q-10 -16 -28 -16h-148q-14 0 -20 8z" />
<glyph unicode="&#xc2;" horiz-adv-x="1159" d="M61 27l371 1386q6 20 29 21h235q23 0 29 -21l373 -1386l2 -9q0 -18 -23 -18h-196q-23 0 -29 20l-51 220q-2 8 -10 8h-422q-8 0 -11 -8l-53 -220q-6 -20 -29 -20h-194q-27 0 -21 27zM297.5 1565.5q-5.5 9.5 3.5 21.5l145 211q10 16 29 16h194q18 0 29 -16l151 -211 q6 -8 7 -14q0 -16 -23 -17h-139q-20 0 -29 17l-84 131q-6 12 -12 0l-84 -131q-8 -16 -29 -17h-139q-14 0 -19.5 9.5zM410 446q-2 -6 2 -9t8 -3h319q4 0 8.5 3t2.5 9l-162 664q-2 6 -6 6t-7 -6z" />
<glyph unicode="&#xc3;" horiz-adv-x="1159" d="M61 27l371 1386q6 20 29 21h235q23 0 29 -21l373 -1386l2 -9q0 -18 -23 -18h-196q-23 0 -29 20l-51 220q-2 8 -10 8h-422q-8 0 -11 -8l-53 -220q-6 -20 -29 -20h-194q-27 0 -21 27zM312 1690q29 63 75 96t101 33q35 0 63.5 -12.5t65.5 -35.5q31 -20 50.5 -29t41.5 -9 q51 0 82 47q12 23 33 8l67 -45q10 -6 11 -21q0 -12 -9 -26q-35 -59 -83 -87t-97 -28q-33 0 -60.5 12.5t-60.5 32.5q-6 4 -25.5 15.5t-32.5 16.5t-28 5q-27 0 -46 -10.5t-38 -36.5q-16 -23 -34 -8l-66 49q-18 14 -10 33zM410 446q-2 -6 2 -9t8 -3h319q4 0 8.5 3t2.5 9 l-162 664q-2 6 -6 6t-7 -6z" />
<glyph unicode="&#xc4;" horiz-adv-x="1159" d="M61 27l371 1386q6 20 29 21h235q23 0 29 -21l373 -1386l2 -9q0 -18 -23 -18h-196q-23 0 -29 20l-51 220q-2 8 -10 8h-422q-8 0 -11 -8l-53 -220q-6 -20 -29 -20h-194q-27 0 -21 27zM281 1700q0 57 36 92t91 35t89 -35t34 -92q0 -55 -34 -91t-89 -36t-91 35.5t-36 91.5z M410 446q-2 -6 2 -9t8 -3h319q4 0 8.5 3t2.5 9l-162 664q-2 6 -6 6t-7 -6zM629 1700q0 57 34 92t91 35q55 0 90 -35t35 -92q0 -55 -35 -91t-90 -36t-90 35.5t-35 91.5z" />
<glyph unicode="&#xc5;" horiz-adv-x="1159" d="M61 27l371 1386q6 20 29 21h235q23 0 29 -21l373 -1386l2 -9q0 -18 -23 -18h-196q-23 0 -29 20l-51 220q-2 8 -10 8h-422q-8 0 -11 -8l-53 -220q-6 -20 -29 -20h-194q-27 0 -21 27zM357 1765q0 92 64.5 155.5t156.5 63.5q94 0 158.5 -63.5t64.5 -155.5 q0 -94 -64.5 -158.5t-158.5 -64.5q-92 0 -156.5 64.5t-64.5 158.5zM410 446q-2 -6 2 -9t8 -3h319q4 0 8.5 3t2.5 9l-162 664q-2 6 -6 6t-7 -6zM469 1765q0 -45 32 -77.5t77 -32.5t76.5 31.5t31.5 78.5t-31.5 78t-76.5 31t-77 -32t-32 -77z" />
<glyph unicode="&#xc6;" horiz-adv-x="1736" d="M66.5 7q-5.5 7 1.5 22l649 1386q8 18 28 19h887q10 0 17.5 -7.5t7.5 -17.5v-156q0 -10 -7.5 -17t-17.5 -7h-553q-10 0 -10 -10v-385q0 -10 10 -11h348q10 0 17.5 -7t7.5 -17v-156q0 -10 -7 -17.5t-18 -7.5h-348q-10 0 -10 -10v-393q0 -10 10 -10h553q10 0 17.5 -7.5 t7.5 -17.5v-155q0 -10 -7.5 -17.5t-17.5 -7.5h-778q-10 0 -17.5 7t-7.5 18v213q0 10 -10 10h-389q-8 0 -12 -8l-101 -222q-8 -18 -28 -18h-203q-14 0 -19.5 7zM512 438q2 -4 6 -4h301q10 0 10 10l2 676q0 8 -4 8t-8 -6l-307 -676q-2 -4 0 -8z" />
<glyph unicode="&#xc7;" horiz-adv-x="1091" d="M100 418v602q0 129 56.5 226t159 150.5t235.5 53.5t235.5 -52t158.5 -147.5t56 -222.5v-18q0 -9 -7 -15t-17 -6l-191 -8q-10 0 -17 7t-7 18v24q0 96 -58.5 155.5t-152.5 59.5q-96 0 -154.5 -59.5t-58.5 -155.5v-629q0 -96 58.5 -154.5t154.5 -58.5q94 0 152.5 58.5 t58.5 154.5v27q0 23 24 23l191 -9q25 0 24 -16v-16q0 -174 -103 -288t-275 -134q-14 -2 -5 -13q82 -88 82 -180q0 -25 -6 -49q-16 -68 -65 -97.5t-115 -29.5q-51 0 -94 14q-20 8 -19 31l11 76q2 25 30 18q20 -4 29 -4q57 0 70 58q2 8 2 22q0 70 -101 156l-12 6 q-152 35 -241 146.5t-89 275.5z" />
<glyph unicode="&#xc8;" horiz-adv-x="1050" d="M131 25v1384q0 10 7 17.5t18 7.5h792q10 0 17.5 -7.5t7.5 -17.5v-156q0 -10 -7.5 -17t-17.5 -7h-569q-10 0 -10 -10v-385q0 -10 10 -11h364q10 0 17.5 -7t7.5 -17v-156q0 -10 -7 -17.5t-18 -7.5h-364q-10 0 -10 -10v-393q0 -10 10 -10h569q10 0 17.5 -7.5t7.5 -17.5v-155 q0 -10 -7.5 -17.5t-17.5 -7.5h-792q-10 0 -17.5 7t-7.5 18zM293 1829q0 16 20 17h174q20 0 31 -17l119 -211l4 -12q0 -16 -23 -16h-147q-18 0 -29 16l-145 209q-4 6 -4 14z" />
<glyph unicode="&#xc9;" horiz-adv-x="1050" d="M131 25v1384q0 10 7 17.5t18 7.5h792q10 0 17.5 -7.5t7.5 -17.5v-156q0 -10 -7.5 -17t-17.5 -7h-569q-10 0 -10 -10v-385q0 -10 10 -11h364q10 0 17.5 -7t7.5 -17v-156q0 -10 -7 -17.5t-18 -7.5h-364q-10 0 -10 -10v-393q0 -10 10 -10h569q10 0 17.5 -7.5t7.5 -17.5v-155 q0 -10 -7.5 -17.5t-17.5 -7.5h-792q-10 0 -17.5 7t-7.5 18zM428 1598q-6 8 2 20l119 211q10 16 30 17h174q14 0 19.5 -9.5t-2.5 -21.5l-146 -209q-10 -16 -28 -16h-148q-14 0 -20 8z" />
<glyph unicode="&#xca;" horiz-adv-x="1050" d="M131 25v1384q0 10 7 17.5t18 7.5h792q10 0 17.5 -7.5t7.5 -17.5v-156q0 -10 -7.5 -17t-17.5 -7h-569q-10 0 -10 -10v-385q0 -10 10 -11h364q10 0 17.5 -7t7.5 -17v-156q0 -10 -7 -17.5t-18 -7.5h-364q-10 0 -10 -10v-393q0 -10 10 -10h569q10 0 17.5 -7.5t7.5 -17.5v-155 q0 -10 -7.5 -17.5t-17.5 -7.5h-792q-10 0 -17.5 7t-7.5 18zM269.5 1590.5q-5.5 9.5 3.5 21.5l145 211q10 16 29 16h194q18 0 29 -16l151 -211q6 -8 7 -14q0 -16 -23 -17h-139q-20 0 -29 17l-84 131q-6 12 -12 0l-84 -131q-8 -16 -29 -17h-139q-14 0 -19.5 9.5z" />
<glyph unicode="&#xcb;" horiz-adv-x="1050" d="M131 25v1384q0 10 7 17.5t18 7.5h792q10 0 17.5 -7.5t7.5 -17.5v-156q0 -10 -7.5 -17t-17.5 -7h-569q-10 0 -10 -10v-385q0 -10 10 -11h364q10 0 17.5 -7t7.5 -17v-156q0 -10 -7 -17.5t-18 -7.5h-364q-10 0 -10 -10v-393q0 -10 10 -10h569q10 0 17.5 -7.5t7.5 -17.5v-155 q0 -10 -7.5 -17.5t-17.5 -7.5h-792q-10 0 -17.5 7t-7.5 18zM252 1725q0 57 36 92t91 35t89 -35t34 -92q0 -55 -34 -91t-89 -36t-91 35.5t-36 91.5zM600 1725q0 57 34 92t91 35q55 0 90 -35t35 -92q0 -55 -35 -91t-90 -36t-90 35.5t-35 91.5z" />
<glyph unicode="&#xcc;" horiz-adv-x="497" d="M-6 1829q0 16 20 17h174q20 0 31 -17l119 -211l4 -12q0 -16 -23 -16h-147q-18 0 -29 16l-145 209q-4 6 -4 14zM131 25v1384q0 10 7 17.5t18 7.5h188q10 0 17.5 -7.5t7.5 -17.5v-1384q0 -10 -7.5 -17.5t-17.5 -7.5h-188q-11 0 -18 7t-7 18z" />
<glyph unicode="&#xcd;" horiz-adv-x="497" d="M129 1598q-6 8 2 20l119 211q10 16 30 17h174q14 0 19.5 -9.5t-2.5 -21.5l-146 -209q-10 -16 -28 -16h-148q-14 0 -20 8zM131 25v1384q0 10 7 17.5t18 7.5h188q10 0 17.5 -7.5t7.5 -17.5v-1384q0 -10 -7.5 -17.5t-17.5 -7.5h-188q-11 0 -18 7t-7 18z" />
<glyph unicode="&#xce;" horiz-adv-x="497" d="M-29.5 1590.5q-5.5 9.5 3.5 21.5l145 211q10 16 29 16h194q18 0 29 -16l151 -211q6 -8 7 -14q0 -16 -23 -17h-139q-20 0 -29 17l-84 131q-6 12 -12 0l-84 -131q-8 -16 -29 -17h-139q-14 0 -19.5 9.5zM131 25v1384q0 10 7 17.5t18 7.5h188q10 0 17.5 -7.5t7.5 -17.5v-1384 q0 -10 -7.5 -17.5t-17.5 -7.5h-188q-11 0 -18 7t-7 18z" />
<glyph unicode="&#xcf;" horiz-adv-x="497" d="M-47 1725q0 57 36 92t91 35t89 -35t34 -92q0 -55 -34 -91t-89 -36t-91 35.5t-36 91.5zM131 25v1384q0 10 7 17.5t18 7.5h188q10 0 17.5 -7.5t7.5 -17.5v-1384q0 -10 -7.5 -17.5t-17.5 -7.5h-188q-11 0 -18 7t-7 18zM301 1725q0 57 34 92t91 35q55 0 90 -35t35 -92 q0 -55 -35 -91t-90 -36t-90 35.5t-35 91.5z" />
<glyph unicode="&#xd0;" horiz-adv-x="1210" d="M131 694v103q0 10 7 17t18 7h59q10 0 10 10v578q0 10 7.5 17.5t17.5 7.5h424q198 0 318 -111t120 -295v-622q0 -184 -120 -295t-318 -111h-424q-10 0 -17.5 7t-7.5 18v634q0 10 -10 11h-59q-10 0 -17.5 7t-7.5 17zM463 215q0 -10 10 -10l203 2q88 0 141 60.5t57 164.5 v569q0 104 -54 166t-144 62h-203q-10 0 -10 -10v-388q0 -10 10 -10h143q10 0 17.5 -7t7.5 -17v-103q0 -10 -7 -17t-18 -7h-143q-10 0 -10 -11v-444z" />
<glyph unicode="&#xd1;" horiz-adv-x="1198" d="M131 25v1384q0 10 7 17.5t18 7.5h188q20 0 29 -19l448 -891q2 -8 7.5 -7t5.5 9v883q0 10 7 17.5t17 7.5h186q10 0 17.5 -7.5t7.5 -17.5v-1384q0 -10 -7 -17.5t-18 -7.5h-188q-18 0 -29 18l-450 895q-2 8 -7 7.5t-5 -9.5l2 -886q0 -10 -7.5 -17.5t-17.5 -7.5h-186 q-11 0 -18 7t-7 18zM328 1715q29 63 75 96t101 33q35 0 63.5 -12.5t65.5 -35.5q31 -20 50.5 -29t41.5 -9q51 0 82 47q12 23 33 8l67 -45q10 -6 11 -21q0 -12 -9 -26q-35 -59 -83 -87t-97 -28q-33 0 -60.5 12.5t-60.5 32.5q-6 4 -25.5 15.5t-32.5 16.5t-28 5q-27 0 -46 -10.5 t-38 -36.5q-16 -23 -34 -8l-66 49q-18 14 -10 33z" />
<glyph unicode="&#xd2;" horiz-adv-x="1114" d="M100 428v578q0 131 56.5 232t160 156.5t238.5 55.5q137 0 240.5 -55.5t161 -156.5t57.5 -232v-578q0 -133 -57.5 -234.5t-161 -156.5t-240.5 -55q-135 0 -238.5 55t-160 156.5t-56.5 234.5zM299 1816q0 16 20 17h174q20 0 31 -17l119 -211l4 -12q0 -16 -23 -16h-147 q-18 0 -29 16l-145 209q-4 6 -4 14zM338 418q0 -102 59.5 -167t157.5 -65q100 0 160.5 64.5t60.5 167.5v594q0 104 -60.5 168.5t-160.5 64.5q-98 0 -157.5 -64.5t-59.5 -168.5v-594z" />
<glyph unicode="&#xd3;" horiz-adv-x="1114" d="M100 428v578q0 131 56.5 232t160 156.5t238.5 55.5q137 0 240.5 -55.5t161 -156.5t57.5 -232v-578q0 -133 -57.5 -234.5t-161 -156.5t-240.5 -55q-135 0 -238.5 55t-160 156.5t-56.5 234.5zM338 418q0 -102 59.5 -167t157.5 -65q100 0 160.5 64.5t60.5 167.5v594 q0 104 -60.5 168.5t-160.5 64.5q-98 0 -157.5 -64.5t-59.5 -168.5v-594zM434 1585q-6 8 2 20l119 211q10 16 30 17h174q14 0 19.5 -9.5t-2.5 -21.5l-146 -209q-10 -16 -28 -16h-148q-14 0 -20 8z" />
<glyph unicode="&#xd4;" horiz-adv-x="1114" d="M100 428v578q0 131 56.5 232t160 156.5t238.5 55.5q137 0 240.5 -55.5t161 -156.5t57.5 -232v-578q0 -133 -57.5 -234.5t-161 -156.5t-240.5 -55q-135 0 -238.5 55t-160 156.5t-56.5 234.5zM275.5 1577.5q-5.5 9.5 3.5 21.5l145 211q10 16 29 16h194q18 0 29 -16 l151 -211q6 -8 7 -14q0 -16 -23 -17h-139q-20 0 -29 17l-84 131q-6 12 -12 0l-84 -131q-8 -16 -29 -17h-139q-14 0 -19.5 9.5zM338 418q0 -102 59.5 -167t157.5 -65q100 0 160.5 64.5t60.5 167.5v594q0 104 -60.5 168.5t-160.5 64.5q-98 0 -157.5 -64.5t-59.5 -168.5v-594z " />
<glyph unicode="&#xd5;" horiz-adv-x="1114" d="M100 428v578q0 131 56.5 232t160 156.5t238.5 55.5q137 0 240.5 -55.5t161 -156.5t57.5 -232v-578q0 -133 -57.5 -234.5t-161 -156.5t-240.5 -55q-135 0 -238.5 55t-160 156.5t-56.5 234.5zM289 1702q29 63 75 96t101 33q35 0 63.5 -12.5t65.5 -35.5q31 -20 50.5 -29 t41.5 -9q51 0 82 47q12 23 33 8l67 -45q10 -6 11 -21q0 -12 -9 -26q-35 -59 -83 -87t-97 -28q-33 0 -60.5 12.5t-60.5 32.5q-6 4 -25.5 15.5t-32.5 16.5t-28 5q-27 0 -46 -10.5t-38 -36.5q-16 -23 -34 -8l-66 49q-18 14 -10 33zM338 418q0 -102 59.5 -167t157.5 -65 q100 0 160.5 64.5t60.5 167.5v594q0 104 -60.5 168.5t-160.5 64.5q-98 0 -157.5 -64.5t-59.5 -168.5v-594z" />
<glyph unicode="&#xd6;" horiz-adv-x="1114" d="M100 428v578q0 131 56.5 232t160 156.5t238.5 55.5q137 0 240.5 -55.5t161 -156.5t57.5 -232v-578q0 -133 -57.5 -234.5t-161 -156.5t-240.5 -55q-135 0 -238.5 55t-160 156.5t-56.5 234.5zM258 1712q0 57 36 92t91 35t89 -35t34 -92q0 -55 -34 -91t-89 -36t-91 35.5 t-36 91.5zM338 418q0 -102 59.5 -167t157.5 -65q100 0 160.5 64.5t60.5 167.5v594q0 104 -60.5 168.5t-160.5 64.5q-98 0 -157.5 -64.5t-59.5 -168.5v-594zM606 1712q0 57 34 92t91 35q55 0 90 -35t35 -92q0 -55 -35 -91t-90 -36t-90 35.5t-35 91.5z" />
<glyph unicode="&#xd7;" horiz-adv-x="845" d="M68 870q0 8 8 17l102 102q8 8 17 8q10 0 16 -8l205 -205q8 -8 16 0l203 203q8 8 16 8q10 0 17 -8l100 -100q8 -9 8 -19q0 -8 -8 -16l-201 -201q-4 -4 -4 -8t4 -8l201 -201q8 -8 8 -18q0 -8 -8 -17l-100 -100q-8 -8 -19 -8q-10 0 -16 8l-201 201q-4 4 -8 4t-8 -4 l-203 -203q-8 -8 -16 -8q-4 0 -17 8l-100 100q-8 8 -8 19q0 8 8 16l201 201q8 8 0 16l-205 205q-8 12 -8 16z" />
<glyph unicode="&#xd8;" horiz-adv-x="1155" d="M113 428v578q0 131 56 232t159.5 156.5t238.5 55.5q131 0 226 -49q10 -4 14 6l47 100q8 18 29 19h102q14 0 19.5 -7.5t-0.5 -21.5l-82 -178q-4 -8 2 -14q102 -121 102 -299v-578q0 -133 -57.5 -234.5t-160.5 -156.5t-241 -55q-133 0 -235 53q-2 4 -6 2t-7 -6l-47 -97 q-8 -18 -28 -18h-101q-14 0 -19 7t1 22l82 180q4 8 -2 14q-92 117 -92 289zM350 459q0 -8 4 -8t8 6l343 733q4 8 -3 14q-57 41 -135 41q-98 0 -157.5 -64.5t-59.5 -168.5v-553zM422 252q-4 -8 2 -14q57 -51 143 -52q100 0 160.5 64.5t60.5 167.5v588q0 8 -4 8t-8 -6z" />
<glyph unicode="&#xd9;" horiz-adv-x="1140" d="M119 430v979q0 10 7 17.5t17 7.5h189q10 0 17 -7.5t7 -17.5v-991q0 -102 58.5 -166t154.5 -64t155.5 63.5t59.5 166.5v991q0 10 7.5 17.5t17.5 7.5h188q10 0 17.5 -7.5t7.5 -17.5v-979q0 -133 -56.5 -234.5t-158.5 -156.5t-238 -55q-133 0 -235.5 55t-158.5 156.5 t-56 234.5zM314 1829q0 16 20 17h174q20 0 31 -17l119 -211l4 -12q0 -16 -23 -16h-147q-18 0 -29 16l-145 209q-4 6 -4 14z" />
<glyph unicode="&#xda;" horiz-adv-x="1140" d="M119 430v979q0 10 7 17.5t17 7.5h189q10 0 17 -7.5t7 -17.5v-991q0 -102 58.5 -166t154.5 -64t155.5 63.5t59.5 166.5v991q0 10 7.5 17.5t17.5 7.5h188q10 0 17.5 -7.5t7.5 -17.5v-979q0 -133 -56.5 -234.5t-158.5 -156.5t-238 -55q-133 0 -235.5 55t-158.5 156.5 t-56 234.5zM449 1598q-6 8 2 20l119 211q10 16 30 17h174q14 0 19.5 -9.5t-2.5 -21.5l-146 -209q-10 -16 -28 -16h-148q-14 0 -20 8z" />
<glyph unicode="&#xdb;" horiz-adv-x="1140" d="M119 430v979q0 10 7 17.5t17 7.5h189q10 0 17 -7.5t7 -17.5v-991q0 -102 58.5 -166t154.5 -64t155.5 63.5t59.5 166.5v991q0 10 7.5 17.5t17.5 7.5h188q10 0 17.5 -7.5t7.5 -17.5v-979q0 -133 -56.5 -234.5t-158.5 -156.5t-238 -55q-133 0 -235.5 55t-158.5 156.5 t-56 234.5zM289.5 1590.5q-5.5 9.5 3.5 21.5l145 211q10 16 29 16h194q18 0 29 -16l151 -211q6 -8 7 -14q0 -16 -23 -17h-139q-20 0 -29 17l-84 131q-6 12 -12 0l-84 -131q-8 -16 -29 -17h-139q-14 0 -19.5 9.5z" />
<glyph unicode="&#xdc;" horiz-adv-x="1140" d="M119 430v979q0 10 7 17.5t17 7.5h189q10 0 17 -7.5t7 -17.5v-991q0 -102 58.5 -166t154.5 -64t155.5 63.5t59.5 166.5v991q0 10 7.5 17.5t17.5 7.5h188q10 0 17.5 -7.5t7.5 -17.5v-979q0 -133 -56.5 -234.5t-158.5 -156.5t-238 -55q-133 0 -235.5 55t-158.5 156.5 t-56 234.5zM272 1725q0 57 36 92t91 35t89 -35t34 -92q0 -55 -34 -91t-89 -36t-91 35.5t-36 91.5zM620 1725q0 57 34 92t91 35q55 0 90 -35t35 -92q0 -55 -35 -91t-90 -36t-90 35.5t-35 91.5z" />
<glyph unicode="&#xdd;" horiz-adv-x="1081" d="M63 1417q0 16 21 17h201q23 0 28 -19l222 -553q6 -14 12 0l219 553q6 18 29 19h202q14 0 18.5 -8.5t0.5 -20.5l-357 -813l-2 -12v-553q0 -10 -7 -17.5t-17 -7.5h-187q-10 0 -17 7t-7 18v553l-2 12l-354 813q-2 4 -3 12zM420 1573q-6 8 2 20l119 211q10 16 30 17h174 q14 0 19.5 -9.5t-2.5 -21.5l-146 -209q-10 -16 -28 -16h-148q-14 0 -20 8z" />
<glyph unicode="&#xde;" horiz-adv-x="1056" d="M123 25v1384q0 10 7 17.5t17 7.5h189q10 0 17 -7.5t7 -17.5v-262q0 -10 11 -10h231q119 0 209 -53.5t140 -149.5t50 -221q0 -123 -51 -217.5t-142 -145.5t-206 -51h-231q-10 0 -11 -10v-264q0 -10 -7 -17.5t-17 -7.5h-189q-10 0 -17 7t-7 18zM360 502q0 -10 11 -10h194 q90 0 144.5 57t54.5 160q0 102 -54.5 161.5t-144.5 59.5h-194q-10 0 -11 -10v-418z" />
<glyph unicode="&#xdf;" horiz-adv-x="1077" d="M113 27v983q0 209 110.5 324.5t306.5 115.5q205 0 321 -105.5t116 -289.5q0 -197 -146 -277q-10 -6 0 -12q78 -45 122 -137t44 -217q0 -197 -119.5 -304.5t-351.5 -107.5h-59q-10 0 -17.5 7t-7.5 18v153q0 10 7 17.5t18 7.5h78q106 2 161.5 62.5t55.5 170.5 q0 113 -50.5 173.5t-146.5 64.5h-76q-10 0 -17 7t-7 17v138q0 10 7 17t17 7h78q82 0 129 50.5t47 136.5q0 94 -48 147t-144 53q-84 0 -137.5 -55t-53.5 -154v-1013q0 -10 -7 -17.5t-17 -7.5l-189 2q-10 0 -17 7t-7 18z" />
<glyph unicode="&#xe0;" d="M61 293q0 172 110 256t304 84h162q10 0 10 10v51q0 76 -42 120t-118 44q-59 0 -97 -27.5t-48 -74.5q-2 -23 -27 -23l-200 12q-27 4 -23 23q14 131 123 213t272 82q117 0 207 -44t140.5 -122t50.5 -178v-694q0 -10 -7.5 -17.5t-17.5 -7.5h-188q-10 0 -17.5 7t-7.5 18v51 q0 6 -4 7t-8 -3q-90 -96 -252 -96q-135 0 -228.5 72.5t-93.5 236.5zM232 1433q0 16 20 17h174q20 0 31 -17l119 -211l4 -12q0 -16 -23 -16h-147q-18 0 -29 16l-145 209q-4 6 -4 14zM303 309q0 -66 40 -99.5t106 -33.5q79 0 138.5 46t59.5 122v107q0 10 -10 10h-139 q-90 0 -142.5 -39t-52.5 -113z" />
<glyph unicode="&#xe1;" d="M61 293q0 172 110 256t304 84h162q10 0 10 10v51q0 76 -42 120t-118 44q-59 0 -97 -27.5t-48 -74.5q-2 -23 -27 -23l-200 12q-27 4 -23 23q14 131 123 213t272 82q117 0 207 -44t140.5 -122t50.5 -178v-694q0 -10 -7.5 -17.5t-17.5 -7.5h-188q-10 0 -17.5 7t-7.5 18v51 q0 6 -4 7t-8 -3q-90 -96 -252 -96q-135 0 -228.5 72.5t-93.5 236.5zM303 309q0 -66 40 -99.5t106 -33.5q79 0 138.5 46t59.5 122v107q0 10 -10 10h-139q-90 0 -142.5 -39t-52.5 -113zM367 1202q-6 8 2 20l119 211q10 16 30 17h174q14 0 19.5 -9.5t-2.5 -21.5l-146 -209 q-10 -16 -28 -16h-148q-14 0 -20 8z" />
<glyph unicode="&#xe2;" d="M61 293q0 172 110 256t304 84h162q10 0 10 10v51q0 76 -42 120t-118 44q-59 0 -97 -27.5t-48 -74.5q-2 -23 -27 -23l-200 12q-27 4 -23 23q14 131 123 213t272 82q117 0 207 -44t140.5 -122t50.5 -178v-694q0 -10 -7.5 -17.5t-17.5 -7.5h-188q-10 0 -17.5 7t-7.5 18v51 q0 6 -4 7t-8 -3q-90 -96 -252 -96q-135 0 -228.5 72.5t-93.5 236.5zM207.5 1194.5q-5.5 9.5 3.5 21.5l145 211q10 16 29 16h194q18 0 29 -16l151 -211q6 -8 7 -14q0 -16 -23 -17h-139q-20 0 -29 17l-84 131q-6 12 -12 0l-84 -131q-8 -16 -29 -17h-139q-14 0 -19.5 9.5z M303 309q0 -66 40 -99.5t106 -33.5q79 0 138.5 46t59.5 122v107q0 10 -10 10h-139q-90 0 -142.5 -39t-52.5 -113z" />
<glyph unicode="&#xe3;" d="M61 293q0 172 110 256t304 84h162q10 0 10 10v51q0 76 -42 120t-118 44q-59 0 -97 -27.5t-48 -74.5q-2 -23 -27 -23l-200 12q-27 4 -23 23q14 131 123 213t272 82q117 0 207 -44t140.5 -122t50.5 -178v-694q0 -10 -7.5 -17.5t-17.5 -7.5h-188q-10 0 -17.5 7t-7.5 18v51 q0 6 -4 7t-8 -3q-90 -96 -252 -96q-135 0 -228.5 72.5t-93.5 236.5zM221 1319q29 63 75 96t101 33q35 0 63.5 -12.5t65.5 -35.5q31 -20 50.5 -29t41.5 -9q51 0 82 47q12 23 33 8l67 -45q10 -6 11 -21q0 -12 -9 -26q-35 -59 -83 -87t-97 -28q-33 0 -60.5 12.5t-60.5 32.5 q-6 4 -25.5 15.5t-32.5 16.5t-28 5q-27 0 -46 -10.5t-38 -36.5q-16 -23 -34 -8l-66 49q-18 14 -10 33zM303 309q0 -66 40 -99.5t106 -33.5q79 0 138.5 46t59.5 122v107q0 10 -10 10h-139q-90 0 -142.5 -39t-52.5 -113z" />
<glyph unicode="&#xe4;" d="M61 293q0 172 110 256t304 84h162q10 0 10 10v51q0 76 -42 120t-118 44q-59 0 -97 -27.5t-48 -74.5q-2 -23 -27 -23l-200 12q-27 4 -23 23q14 131 123 213t272 82q117 0 207 -44t140.5 -122t50.5 -178v-694q0 -10 -7.5 -17.5t-17.5 -7.5h-188q-10 0 -17.5 7t-7.5 18v51 q0 6 -4 7t-8 -3q-90 -96 -252 -96q-135 0 -228.5 72.5t-93.5 236.5zM190 1329q0 57 36 92t91 35t89 -35t34 -92q0 -55 -34 -91t-89 -36t-91 35.5t-36 91.5zM303 309q0 -66 40 -99.5t106 -33.5q79 0 138.5 46t59.5 122v107q0 10 -10 10h-139q-90 0 -142.5 -39t-52.5 -113z M538 1329q0 57 34 92t91 35q55 0 90 -35t35 -92q0 -55 -35 -91t-90 -36t-90 35.5t-35 91.5z" />
<glyph unicode="&#xe5;" d="M61 293q0 172 110 256t304 84h162q10 0 10 10v51q0 76 -42 120t-118 44q-59 0 -97 -27.5t-48 -74.5q-2 -23 -27 -23l-200 12q-27 4 -23 23q14 131 123 213t272 82q117 0 207 -44t140.5 -122t50.5 -178v-694q0 -10 -7.5 -17.5t-17.5 -7.5h-188q-10 0 -17.5 7t-7.5 18v51 q0 6 -4 7t-8 -3q-90 -96 -252 -96q-135 0 -228.5 72.5t-93.5 236.5zM267 1394q0 92 64.5 155.5t156.5 63.5q94 0 158.5 -63.5t64.5 -155.5q0 -94 -64.5 -158.5t-158.5 -64.5q-92 0 -156.5 64.5t-64.5 158.5zM303 309q0 -66 40 -99.5t106 -33.5q79 0 138.5 46t59.5 122v107 q0 10 -10 10h-139q-90 0 -142.5 -39t-52.5 -113zM379 1394q0 -45 32 -77.5t77 -32.5t76.5 31.5t31.5 78.5t-31.5 78t-76.5 31t-77 -32t-32 -77z" />
<glyph unicode="&#xe6;" horiz-adv-x="1544" d="M61 287q0 166 105.5 246.5t298.5 80.5h170q10 0 10 11v61q0 80 -42 126t-122 46q-59 0 -102 -27.5t-53 -74.5q-6 -27 -29 -23l-188 17q-25 4 -23 26q12 127 122.5 207t264.5 80q96 0 173 -38t118 -99q6 -8 12 0q43 57 121 97t170 40q150 0 257.5 -86t127.5 -227 q14 -119 14 -291q0 -25 -24 -25h-541q-10 0 -10 -10l2 -74q6 -70 58.5 -110.5t129.5 -40.5q61 0 105.5 28.5t66.5 75.5q12 23 33 14l146 -53q10 -2 15 -11t1 -20q-35 -113 -132 -181t-239 -68q-109 0 -191.5 42t-115.5 101q-8 12 -10 6q-37 -66 -133.5 -107.5t-220.5 -41.5 q-150 0 -247.5 68.5t-97.5 234.5zM301 297q0 -61 42 -96t108 -35q77 0 135.5 43t58.5 119v96q0 10 -10 10h-139q-90 0 -142.5 -34.5t-52.5 -102.5zM891 625q0 -11 10 -11h318q10 0 10 11q-6 78 -6 84q-8 68 -52.5 108.5t-111.5 40.5q-66 0 -110 -41t-54 -108q-4 -57 -4 -84z " />
<glyph unicode="&#xe7;" d="M88 526q0 129 16 224q23 143 129.5 228t270.5 85q158 0 266.5 -81t130.5 -212q2 -8 4 -20.5t2 -30.5v-4q0 -18 -22 -23l-187 -18h-4q-18 0 -22 22q0 14 -4 31q-10 55 -54.5 93t-111.5 38q-68 0 -112 -41t-54 -108q-10 -78 -10 -185q0 -117 12 -188q10 -68 53 -108 t111 -40q70 0 113.5 40t52.5 98l2 20q2 10 10 17.5t18 5.5l185 -17q25 -4 24 -26l-4 -35q-16 -119 -99 -199t-212 -102q-12 -4 -4 -13q86 -86 86 -182q0 -25 -6 -49q-16 -68 -65.5 -97.5t-115.5 -29.5q-51 0 -94 14q-20 8 -18 31l10 76q2 25 31 18q20 -4 28 -4 q31 0 51.5 19.5t20.5 58.5q0 66 -94 156l-12 6q-127 23 -207 102.5t-99 204.5q-16 84 -16 225z" />
<glyph unicode="&#xe8;" horiz-adv-x="991" d="M90 532q0 125 10 199q18 152 125 242t275 90q186 0 286.5 -98.5t116.5 -276.5q10 -117 10 -223q0 -25 -24 -25h-551q-10 0 -10 -10q0 -51 6 -92q10 -68 60 -110t124 -42q62 2 106 33t66 82q10 23 31 16l151 -38q25 -6 19 -31q-37 -123 -136.5 -193.5t-248.5 -70.5 q-156 0 -257.5 78.5t-129.5 213.5q-29 106 -29 256zM242 1433q0 16 20 17h174q20 0 31 -17l119 -211l4 -12q0 -16 -23 -16h-147q-18 0 -29 16l-145 209q-4 6 -4 14zM328 621q0 -10 10 -11h326q10 0 10 11q-4 61 -8 88q-10 70 -53.5 109.5t-114.5 39.5q-66 0 -109 -39 t-53 -104q-8 -57 -8 -94z" />
<glyph unicode="&#xe9;" horiz-adv-x="991" d="M90 532q0 125 10 199q18 152 125 242t275 90q186 0 286.5 -98.5t116.5 -276.5q10 -117 10 -223q0 -25 -24 -25h-551q-10 0 -10 -10q0 -51 6 -92q10 -68 60 -110t124 -42q62 2 106 33t66 82q10 23 31 16l151 -38q25 -6 19 -31q-37 -123 -136.5 -193.5t-248.5 -70.5 q-156 0 -257.5 78.5t-129.5 213.5q-29 106 -29 256zM328 621q0 -10 10 -11h326q10 0 10 11q-4 61 -8 88q-10 70 -53.5 109.5t-114.5 39.5q-66 0 -109 -39t-53 -104q-8 -57 -8 -94zM377 1202q-6 8 2 20l119 211q10 16 30 17h174q14 0 19.5 -9.5t-2.5 -21.5l-146 -209 q-10 -16 -28 -16h-148q-14 0 -20 8z" />
<glyph unicode="&#xea;" horiz-adv-x="991" d="M90 532q0 125 10 199q18 152 125 242t275 90q186 0 286.5 -98.5t116.5 -276.5q10 -117 10 -223q0 -25 -24 -25h-551q-10 0 -10 -10q0 -51 6 -92q10 -68 60 -110t124 -42q62 2 106 33t66 82q10 23 31 16l151 -38q25 -6 19 -31q-37 -123 -136.5 -193.5t-248.5 -70.5 q-156 0 -257.5 78.5t-129.5 213.5q-29 106 -29 256zM218.5 1194.5q-5.5 9.5 3.5 21.5l145 211q10 16 29 16h194q18 0 29 -16l151 -211q6 -8 7 -14q0 -16 -23 -17h-139q-20 0 -29 17l-84 131q-6 12 -12 0l-84 -131q-8 -16 -29 -17h-139q-14 0 -19.5 9.5zM328 621 q0 -10 10 -11h326q10 0 10 11q-4 61 -8 88q-10 70 -53.5 109.5t-114.5 39.5q-66 0 -109 -39t-53 -104q-8 -57 -8 -94z" />
<glyph unicode="&#xeb;" horiz-adv-x="991" d="M90 532q0 125 10 199q18 152 125 242t275 90q186 0 286.5 -98.5t116.5 -276.5q10 -117 10 -223q0 -25 -24 -25h-551q-10 0 -10 -10q0 -51 6 -92q10 -68 60 -110t124 -42q62 2 106 33t66 82q10 23 31 16l151 -38q25 -6 19 -31q-37 -123 -136.5 -193.5t-248.5 -70.5 q-156 0 -257.5 78.5t-129.5 213.5q-29 106 -29 256zM201 1329q0 57 36 92t91 35t89 -35t34 -92q0 -55 -34 -91t-89 -36t-91 35.5t-36 91.5zM328 621q0 -10 10 -11h326q10 0 10 11q-4 61 -8 88q-10 70 -53.5 109.5t-114.5 39.5q-66 0 -109 -39t-53 -104q-8 -57 -8 -94z M549 1329q0 57 34 92t91 35q55 0 90 -35t35 -92q0 -55 -35 -91t-90 -36t-90 35.5t-35 91.5z" />
<glyph unicode="&#xec;" horiz-adv-x="450" d="M-34 1440q0 16 20 17h174q20 0 31 -17l119 -211l4 -12q0 -16 -23 -16h-147q-18 0 -29 16l-145 209q-4 6 -4 14zM104 25v997q0 10 7.5 17.5t17.5 7.5h188q10 0 17.5 -7.5t7.5 -17.5v-997q0 -10 -7 -17.5t-18 -7.5h-188q-10 0 -17.5 7t-7.5 18z" />
<glyph unicode="&#xed;" horiz-adv-x="450" d="M101 1209q-6 8 2 20l119 211q10 16 30 17h174q14 0 19.5 -9.5t-2.5 -21.5l-146 -209q-10 -16 -28 -16h-148q-14 0 -20 8zM104 25v997q0 10 7.5 17.5t17.5 7.5h188q10 0 17.5 -7.5t7.5 -17.5v-997q0 -10 -7 -17.5t-18 -7.5h-188q-10 0 -17.5 7t-7.5 18z" />
<glyph unicode="&#xee;" horiz-adv-x="450" d="M-58.5 1201.5q-5.5 9.5 3.5 21.5l145 211q10 16 29 16h194q18 0 29 -16l151 -211q6 -8 7 -14q0 -16 -23 -17h-139q-20 0 -29 17l-84 131q-6 12 -12 0l-84 -131q-8 -16 -29 -17h-139q-14 0 -19.5 9.5zM104 25v997q0 10 7.5 17.5t17.5 7.5h188q10 0 17.5 -7.5t7.5 -17.5 v-997q0 -10 -7 -17.5t-18 -7.5h-188q-10 0 -17.5 7t-7.5 18z" />
<glyph unicode="&#xef;" horiz-adv-x="450" d="M-76 1336q0 57 36 92t91 35t89 -35t34 -92q0 -55 -34 -91t-89 -36t-91 35.5t-36 91.5zM104 25v997q0 10 7.5 17.5t17.5 7.5h188q10 0 17.5 -7.5t7.5 -17.5v-997q0 -10 -7 -17.5t-18 -7.5h-188q-10 0 -17.5 7t-7.5 18zM272 1336q0 57 34 92t91 35q55 0 90 -35t35 -92 q0 -55 -35 -91t-90 -36t-90 35.5t-35 91.5z" />
<glyph unicode="&#xf0;" horiz-adv-x="1003" d="M80 494q0 119 14 204q14 115 92 191t193 86q23 4 70 4q100 0 161 -37q6 -4 9.5 -2t1.5 8q-25 74 -86 178q-2 4 -5.5 6.5t-7.5 0.5l-174 -48l-8 -2q-16 0 -23 21l-18 67l-2 9q0 16 20 22l127 35q10 4 5 14q-41 49 -132 152q-8 12 -8 16q0 14 23 15h188q18 0 31 -15 q59 -74 92 -119q8 -8 14 -4l164 45l8 2q16 0 23 -20l16 -72l2 -8q0 -16 -18 -22l-115 -31q-12 -4 -6 -10q68 -109 107 -220.5t49 -246.5q10 -84 10 -219q0 -133 -12 -205q-23 -139 -128.5 -222t-267.5 -83t-267 81.5t-128 223.5q-14 72 -14 205zM319 489q0 -98 9 -165 q10 -68 53 -108t108 -40q63 0 107.5 41t54.5 107q8 67 8 165t-8 164q-10 68 -54 108t-108 40q-66 0 -108.5 -40t-52.5 -108q-8 -66 -9 -164z" />
<glyph unicode="&#xf1;" horiz-adv-x="1005" d="M111 25v997q0 10 7 17.5t17 7.5h189q10 0 17 -7.5t7 -17.5v-53q0 -6 4 -8.5t8 4.5q82 98 226 98q149 0 233 -94.5t84 -259.5v-684q0 -10 -7 -17.5t-17 -7.5h-189q-10 0 -17 7t-7 18v651q0 84 -42 133t-116 49q-66 0 -109 -41t-51 -110v-682q0 -10 -7 -17.5t-17 -7.5h-189 q-10 0 -17 7t-7 18zM254 1307q27 63 71 96t97 33q33 0 61.5 -12.5t63.5 -34.5q33 -20 50 -29.5t38 -9.5q49 0 80 47q12 23 33 8l63 -45q20 -12 8 -33q-33 -68 -82 -98.5t-98 -30.5q-31 0 -57.5 11.5t-59.5 33.5q-8 4 -24.5 16.5t-29.5 16.5t-28 4q-49 0 -80 -47 q-10 -12 -20 -12q-8 0 -14 6l-64 47q-16 12 -8 33z" />
<glyph unicode="&#xf2;" horiz-adv-x="1013" d="M88 524q0 123 16 221q23 145 130.5 231.5t275.5 86.5q162 0 268.5 -86t128.5 -229q18 -98 19 -222q0 -123 -19 -221q-23 -150 -129 -235.5t-270 -85.5q-166 0 -273.5 86t-130.5 235q-16 98 -16 219zM250 1433q0 16 20 17h174q20 0 31 -17l119 -211l4 -12q0 -16 -23 -16 h-147q-18 0 -29 16l-145 209q-4 6 -4 14zM326 524q0 -90 10 -182q12 -72 58 -113t114 -41q65 0 110.5 41t57.5 113q10 70 10 182q0 115 -10 181q-10 72 -56.5 112.5t-113.5 40.5q-68 0 -113 -41t-57 -112q-10 -88 -10 -181z" />
<glyph unicode="&#xf3;" horiz-adv-x="1013" d="M88 524q0 123 16 221q23 145 130.5 231.5t275.5 86.5q162 0 268.5 -86t128.5 -229q18 -98 19 -222q0 -123 -19 -221q-23 -150 -129 -235.5t-270 -85.5q-166 0 -273.5 86t-130.5 235q-16 98 -16 219zM326 524q0 -90 10 -182q12 -72 58 -113t114 -41q65 0 110.5 41 t57.5 113q10 70 10 182q0 115 -10 181q-10 72 -56.5 112.5t-113.5 40.5q-68 0 -113 -41t-57 -112q-10 -88 -10 -181zM385 1202q-6 8 2 20l119 211q10 16 30 17h174q14 0 19.5 -9.5t-2.5 -21.5l-146 -209q-10 -16 -28 -16h-148q-14 0 -20 8z" />
<glyph unicode="&#xf4;" horiz-adv-x="1013" d="M88 524q0 123 16 221q23 145 130.5 231.5t275.5 86.5q162 0 268.5 -86t128.5 -229q18 -98 19 -222q0 -123 -19 -221q-23 -150 -129 -235.5t-270 -85.5q-166 0 -273.5 86t-130.5 235q-16 98 -16 219zM226.5 1194.5q-5.5 9.5 3.5 21.5l145 211q10 16 29 16h194q18 0 29 -16 l151 -211q6 -8 7 -14q0 -16 -23 -17h-139q-20 0 -29 17l-84 131q-6 12 -12 0l-84 -131q-8 -16 -29 -17h-139q-14 0 -19.5 9.5zM326 524q0 -90 10 -182q12 -72 58 -113t114 -41q65 0 110.5 41t57.5 113q10 70 10 182q0 115 -10 181q-10 72 -56.5 112.5t-113.5 40.5 q-68 0 -113 -41t-57 -112q-10 -88 -10 -181z" />
<glyph unicode="&#xf5;" horiz-adv-x="1013" d="M88 524q0 123 16 221q23 145 130.5 231.5t275.5 86.5q162 0 268.5 -86t128.5 -229q18 -98 19 -222q0 -123 -19 -221q-23 -150 -129 -235.5t-270 -85.5q-166 0 -273.5 86t-130.5 235q-16 98 -16 219zM240 1319q29 63 75 96t101 33q35 0 63.5 -12.5t65.5 -35.5 q31 -20 50.5 -29t41.5 -9q51 0 82 47q12 23 33 8l67 -45q10 -6 11 -21q0 -12 -9 -26q-35 -59 -83 -87t-97 -28q-33 0 -60.5 12.5t-60.5 32.5q-6 4 -25.5 15.5t-32.5 16.5t-28 5q-27 0 -46 -10.5t-38 -36.5q-16 -23 -34 -8l-66 49q-18 14 -10 33zM326 524q0 -90 10 -182 q12 -72 58 -113t114 -41q65 0 110.5 41t57.5 113q10 70 10 182q0 115 -10 181q-10 72 -56.5 112.5t-113.5 40.5q-68 0 -113 -41t-57 -112q-10 -88 -10 -181z" />
<glyph unicode="&#xf6;" horiz-adv-x="1013" d="M88 524q0 123 16 221q23 145 130.5 231.5t275.5 86.5q162 0 268.5 -86t128.5 -229q18 -98 19 -222q0 -123 -19 -221q-23 -150 -129 -235.5t-270 -85.5q-166 0 -273.5 86t-130.5 235q-16 98 -16 219zM209 1329q0 57 36 92t91 35t89 -35t34 -92q0 -55 -34 -91t-89 -36 t-91 35.5t-36 91.5zM326 524q0 -90 10 -182q12 -72 58 -113t114 -41q65 0 110.5 41t57.5 113q10 70 10 182q0 115 -10 181q-10 72 -56.5 112.5t-113.5 40.5q-68 0 -113 -41t-57 -112q-10 -88 -10 -181zM557 1329q0 57 34 92t91 35q55 0 90 -35t35 -92q0 -55 -35 -91t-90 -36 t-90 35.5t-35 91.5z" />
<glyph unicode="&#xf7;" horiz-adv-x="952" d="M61 578v141q0 10 7.5 17t17.5 7h782q10 0 17.5 -7t7.5 -17v-141q0 -10 -7 -17.5t-18 -7.5h-782q-10 0 -17.5 7t-7.5 18zM346 322q0 51 38 89t91 38t91 -38t38 -89q0 -53 -38 -91t-91 -38t-91 37.5t-38 91.5zM346 991q0 51 38 89t91 38t91 -38t38 -89q0 -53 -38 -91 t-91 -38t-91 38t-38 91z" />
<glyph unicode="&#xf8;" horiz-adv-x="1042" d="M108.5 4q-2.5 10 4.5 19l69 112q4 8 0 15q-41 66 -57 155q-16 98 -16 219q0 123 16 221q23 145 130 231.5t275 86.5q111 0 191 -39q8 -2 12 4l53 86q14 20 33 6l90 -59q20 -14 9 -33l-62 -96q-4 -6 0 -14q57 -72 72 -170q18 -99 18 -222t-18 -221q-23 -150 -129.5 -235.5 t-270.5 -85.5q-123 0 -213 47q-10 4 -14 -4l-57 -93q-14 -20 -33 -6l-90 60q-10 6 -12.5 16zM346 524l2 -94q2 -8 6 -9t8 5l246 401q4 4 2 7.5t-6 5.5q-35 18 -78 18q-68 0 -112.5 -41t-57.5 -112q-10 -88 -10 -181zM428 231q-4 -10 2 -14q41 -29 98 -29q66 0 111 41t57 113 q11 69 11 182q0 49 -5 131q-2 6 -6 7.5t-6 -5.5z" />
<glyph unicode="&#xf9;" horiz-adv-x="1001" d="M100 311v711q0 10 7.5 17.5t17.5 7.5h188q10 0 17.5 -7.5t7.5 -17.5v-651q0 -86 40 -134.5t116 -48.5t118.5 50.5t42.5 136.5v647q0 10 7.5 17.5t17.5 7.5h188q10 0 17.5 -7.5t7.5 -17.5v-997q0 -10 -7 -17.5t-18 -7.5h-188q-10 0 -17.5 7t-7.5 18v55q0 6 -4 7t-8 -5 q-70 -96 -219 -96q-139 0 -231.5 83t-92.5 242zM240 1417q0 16 20 17h174q20 0 31 -17l119 -211l4 -12q0 -16 -23 -16h-147q-18 0 -29 16l-145 209q-4 6 -4 14z" />
<glyph unicode="&#xfa;" horiz-adv-x="1001" d="M100 311v711q0 10 7.5 17.5t17.5 7.5h188q10 0 17.5 -7.5t7.5 -17.5v-651q0 -86 40 -134.5t116 -48.5t118.5 50.5t42.5 136.5v647q0 10 7.5 17.5t17.5 7.5h188q10 0 17.5 -7.5t7.5 -17.5v-997q0 -10 -7 -17.5t-18 -7.5h-188q-10 0 -17.5 7t-7.5 18v55q0 6 -4 7t-8 -5 q-70 -96 -219 -96q-139 0 -231.5 83t-92.5 242zM375 1186q-6 8 2 20l119 211q10 16 30 17h174q14 0 19.5 -9.5t-2.5 -21.5l-146 -209q-10 -16 -28 -16h-148q-14 0 -20 8z" />
<glyph unicode="&#xfb;" horiz-adv-x="1001" d="M100 311v711q0 10 7.5 17.5t17.5 7.5h188q10 0 17.5 -7.5t7.5 -17.5v-651q0 -86 40 -134.5t116 -48.5t118.5 50.5t42.5 136.5v647q0 10 7.5 17.5t17.5 7.5h188q10 0 17.5 -7.5t7.5 -17.5v-997q0 -10 -7 -17.5t-18 -7.5h-188q-10 0 -17.5 7t-7.5 18v55q0 6 -4 7t-8 -5 q-70 -96 -219 -96q-139 0 -231.5 83t-92.5 242zM216.5 1178.5q-5.5 9.5 3.5 21.5l145 211q10 16 29 16h194q18 0 29 -16l151 -211q6 -8 7 -14q0 -16 -23 -17h-139q-20 0 -29 17l-84 131q-6 12 -12 0l-84 -131q-8 -16 -29 -17h-139q-14 0 -19.5 9.5z" />
<glyph unicode="&#xfc;" horiz-adv-x="1001" d="M100 311v711q0 10 7.5 17.5t17.5 7.5h188q10 0 17.5 -7.5t7.5 -17.5v-651q0 -86 40 -134.5t116 -48.5t118.5 50.5t42.5 136.5v647q0 10 7.5 17.5t17.5 7.5h188q10 0 17.5 -7.5t7.5 -17.5v-997q0 -10 -7 -17.5t-18 -7.5h-188q-10 0 -17.5 7t-7.5 18v55q0 6 -4 7t-8 -5 q-70 -96 -219 -96q-139 0 -231.5 83t-92.5 242zM199 1313q0 57 36 92t91 35t89 -35t34 -92q0 -55 -34 -91t-89 -36t-91 35.5t-36 91.5zM547 1313q0 57 34 92t91 35q55 0 90 -35t35 -92q0 -55 -35 -91t-90 -36t-90 35.5t-35 91.5z" />
<glyph unicode="&#xfd;" horiz-adv-x="913" d="M37 1026q0 20 22 21h201q23 0 29 -21l164 -684q2 -8 6 -8t6 8l160 684q6 20 26 21h203q12 0 18.5 -8.5t1.5 -20.5l-317 -1075q-45 -145 -91 -217t-128 -103t-232 -31h-12q-12 0 -12 25v147q0 10 4 17.5t8 7.5h10q76 0 119 16.5t68.5 59.5t44.5 129q2 4 0 12l-297 1012z M336 1194q-6 8 2 20l119 211q10 16 30 17h174q14 0 19.5 -9.5t-2.5 -21.5l-146 -209q-10 -16 -28 -16h-148q-14 0 -20 8z" />
<glyph unicode="&#xfe;" horiz-adv-x="997" d="M109 -385v1794q0 10 7 17.5t17 7.5h189q10 0 17 -7.5t7 -17.5v-424q0 -6 4 -8t8 4q70 82 207 82q266 0 330 -311q18 -91 18 -226q0 -137 -22 -231q-35 -156 -113 -233.5t-207 -77.5q-139 0 -213 86q-4 4 -8 3t-4 -7v-451q0 -10 -7 -17.5t-17 -7.5h-189q-10 0 -17 7.5 t-7 17.5zM346 377q4 -33 12 -60q37 -129 144 -129q115 0 151 131q23 80 23 205q0 135 -27 213q-41 121 -149 121q-106 0 -140 -123q-8 -27 -12 -59q-2 -4 -2 -12v-287z" />
<glyph unicode="&#xff;" horiz-adv-x="913" d="M37 1026q0 20 22 21h201q23 0 29 -21l164 -684q2 -8 6 -8t6 8l160 684q6 20 26 21h203q12 0 18.5 -8.5t1.5 -20.5l-317 -1075q-45 -145 -91 -217t-128 -103t-232 -31h-12q-12 0 -12 25v147q0 10 4 17.5t8 7.5h10q76 0 119 16.5t68.5 59.5t44.5 129q2 4 0 12l-297 1012z M160 1321q0 57 36 92t91 35t89 -35t34 -92q0 -55 -34 -91t-89 -36t-91 35.5t-36 91.5zM508 1321q0 57 34 92t91 35q55 0 90 -35t35 -92q0 -55 -35 -91t-90 -36t-90 35.5t-35 91.5z" />
<glyph unicode="&#x152;" horiz-adv-x="1654" d="M100 420v594q0 127 52.5 226t141.5 154.5t195 55.5q154 0 259 -92q4 -4 8 -2t4 8v45q0 10 7 17.5t17 7.5h768q10 0 17.5 -7.5t7.5 -17.5v-156q0 -10 -7 -17t-18 -7h-544q-10 0 -11 -10v-385q0 -10 11 -11h340q10 0 17 -7t7 -17v-156q0 -10 -7 -17.5t-17 -7.5h-340 q-10 0 -11 -10v-393q0 -10 11 -10h544q10 0 17.5 -7.5t7.5 -17.5v-155q0 -10 -7 -17.5t-18 -7.5h-768q-10 0 -17 7t-7 18v43q0 6 -4 8t-8 -2q-104 -92 -259 -92q-106 0 -195 55t-141.5 155.5t-52.5 227.5zM338 410q0 -98 57.5 -161t151.5 -63t153.5 62.5t59.5 161.5v610 q0 98 -59.5 161.5t-153.5 63.5q-92 0 -150.5 -63.5t-58.5 -161.5v-610z" />
<glyph unicode="&#x153;" horiz-adv-x="1583" d="M88 524q0 154 14 226q23 143 128.5 228t265.5 85q180 0 292 -143q8 -6 15 2q115 141 291 141q162 0 269 -87t128 -228q14 -129 14 -279q0 -25 -24 -25h-543q-10 0 -10 -10q0 -53 6 -96q10 -70 58 -111t126 -41q53 0 97.5 31t68.5 80q10 23 31 14l147 -51q23 -10 17 -31 q-39 -117 -135.5 -181t-239.5 -64q-190 0 -301 141q-6 8 -15 0q-111 -141 -292 -141q-160 0 -265.5 85t-128.5 230q-14 76 -14 225zM326 524q0 -98 10 -186q8 -68 51 -109t109 -41t108.5 41t52.5 109q9 67 9 186t-9 185q-10 68 -53 108.5t-108 40.5q-66 0 -109 -41t-53 -108 q-8 -68 -8 -185zM928 616q0 -10 10 -10h319q10 0 11 10q-4 61 -8 93q-10 68 -54.5 108.5t-109.5 40.5q-68 0 -111 -41t-51 -108q-6 -43 -6 -93z" />
<glyph unicode="&#x178;" horiz-adv-x="1081" d="M63 1417q0 16 21 17h201q23 0 28 -19l222 -553q6 -14 12 0l219 553q6 18 29 19h202q14 0 18.5 -8.5t0.5 -20.5l-357 -813l-2 -12v-553q0 -10 -7 -17.5t-17 -7.5h-187q-10 0 -17 7t-7 18v553l-2 12l-354 813q-2 4 -3 12zM244 1700q0 57 36 92t91 35t89 -35t34 -92 q0 -55 -34 -91t-89 -36t-91 35.5t-36 91.5zM592 1700q0 57 34 92t91 35q55 0 90 -35t35 -92q0 -55 -35 -91t-90 -36t-90 35.5t-35 91.5z" />
<glyph unicode="&#x2c6;" horiz-adv-x="589" d="M17.5 1178.5q-5.5 9.5 3.5 21.5l145 211q10 16 29 16h194q18 0 29 -16l151 -211q6 -8 7 -14q0 -16 -23 -17h-139q-20 0 -29 17l-84 131q-6 12 -12 0l-84 -131q-8 -16 -29 -17h-139q-14 0 -19.5 9.5z" />
<glyph unicode="&#x2dc;" horiz-adv-x="686" d="M47 1303q29 63 75 96t101 33q35 0 63.5 -12.5t65.5 -35.5q31 -20 50.5 -29t41.5 -9q51 0 82 47q12 23 33 8l67 -45q10 -6 11 -21q0 -12 -9 -26q-35 -59 -83 -87t-97 -28q-33 0 -60.5 12.5t-60.5 32.5q-6 4 -25.5 15.5t-32.5 16.5t-28 5q-27 0 -46 -10.5t-38 -36.5 q-16 -23 -34 -8l-66 49q-18 14 -10 33z" />
<glyph unicode="&#x2000;" horiz-adv-x="992" />
<glyph unicode="&#x2001;" horiz-adv-x="1984" />
<glyph unicode="&#x2002;" horiz-adv-x="992" />
<glyph unicode="&#x2003;" horiz-adv-x="1984" />
<glyph unicode="&#x2004;" horiz-adv-x="661" />
<glyph unicode="&#x2005;" horiz-adv-x="496" />
<glyph unicode="&#x2006;" horiz-adv-x="330" />
<glyph unicode="&#x2007;" horiz-adv-x="330" />
<glyph unicode="&#x2008;" horiz-adv-x="248" />
<glyph unicode="&#x2009;" horiz-adv-x="396" />
<glyph unicode="&#x200a;" horiz-adv-x="110" />
<glyph unicode="&#x2010;" horiz-adv-x="745" d="M61 539v155q0 10 7.5 17.5t17.5 7.5h576q10 0 17 -7t7 -18v-155q0 -10 -7 -17.5t-17 -7.5h-576q-10 0 -17.5 7t-7.5 18z" />
<glyph unicode="&#x2011;" horiz-adv-x="745" d="M61 539v155q0 10 7.5 17.5t17.5 7.5h576q10 0 17 -7t7 -18v-155q0 -10 -7 -17.5t-17 -7.5h-576q-10 0 -17.5 7t-7.5 18z" />
<glyph unicode="&#x2012;" horiz-adv-x="745" d="M61 539v155q0 10 7.5 17.5t17.5 7.5h576q10 0 17 -7t7 -18v-155q0 -10 -7 -17.5t-17 -7.5h-576q-10 0 -17.5 7t-7.5 18z" />
<glyph unicode="&#x2013;" horiz-adv-x="864" d="M61 504v155q0 10 7.5 17.5t17.5 7.5h694q10 0 17.5 -7t7.5 -18v-155q0 -10 -7 -17.5t-18 -7.5h-694q-10 0 -17.5 7.5t-7.5 17.5z" />
<glyph unicode="&#x2014;" horiz-adv-x="1290" d="M61 504v155q0 10 7.5 17.5t17.5 7.5h1120q10 0 17.5 -7t7.5 -18v-155q0 -10 -7 -17.5t-18 -7.5h-1120q-10 0 -17.5 7.5t-7.5 17.5z" />
<glyph unicode="&#x2018;" horiz-adv-x="354" d="M10 1016l148 397q6 20 28 21h140q29 0 22 -27l-100 -399q-6 -20 -29 -21h-188q-31 0 -21 29z" />
<glyph unicode="&#x2019;" horiz-adv-x="354" d="M6 1014l100 399q6 20 29 21h189q30 0 20 -29l-147 -397q-6 -20 -29 -21h-139q-29 0 -23 27z" />
<glyph unicode="&#x201a;" horiz-adv-x="1228" d="M86 -160l61 459q2 23 27 23h164q29 0 22 -27l-110 -461q-6 -20 -29 -20h-112q-25 -1 -23 26z" />
<glyph unicode="&#x201c;" horiz-adv-x="659" d="M10 1016l142 397q6 20 26 21h135q29 0 23 -27l-96 -399q-6 -20 -29 -21h-180q-13 0 -19 7t-2 22zM332 1016l139 397q6 20 27 21h133q29 0 22 -27l-94 -399q-6 -20 -27 -21h-180q-12 0 -18 7t-2 22z" />
<glyph unicode="&#x201d;" horiz-adv-x="659" d="M6 1014l94 399q6 20 27 21h180q12 0 18.5 -7.5t2.5 -21.5l-140 -397q-6 -20 -26 -21h-133q-29 0 -23 27zM324 1014l96 399q6 20 29 21h180q12 0 18 -7.5t2 -21.5l-141 -397q-6 -20 -27 -21h-135q-29 0 -22 27z" />
<glyph unicode="&#x201e;" horiz-adv-x="667" d="M6 -157l94 399q6 20 27 21h180q12 0 18.5 -7.5t2.5 -21.5l-140 -397q-6 -20 -26 -21h-133q-29 0 -23 27zM324 -157l96 399q6 20 29 21h180q12 0 18 -7.5t2 -21.5l-141 -397q-6 -20 -27 -21h-135q-29 0 -22 27z" />
<glyph unicode="&#x2022;" horiz-adv-x="630" d="M61 559q0 106 74 180t182 74q104 0 178 -73.5t74 -180.5q0 -70 -33.5 -128t-92 -93t-126.5 -35q-69 0 -128.5 35t-93.5 93t-34 128z" />
<glyph unicode="&#x2026;" horiz-adv-x="1579" d="M100 156q0 63 48.5 109t111.5 46t111.5 -46t48.5 -109q0 -66 -46 -112t-114 -46q-67 0 -113.5 46t-46.5 112zM626 156q0 63 48.5 109t111.5 46t111.5 -46t48.5 -109q0 -66 -46 -112t-114 -46q-67 0 -113.5 46t-46.5 112zM1151 156q0 63 48.5 109t111.5 46t111.5 -46 t48.5 -109q0 -66 -46 -112t-114 -46q-67 0 -113.5 46t-46.5 112z" />
<glyph unicode="&#x202f;" horiz-adv-x="396" />
<glyph unicode="&#x2039;" horiz-adv-x="657" d="M92 575q0 8 4 17l201 323q8 16 29 17h168q14 0 19 -7t-3 -22l-205 -321q-2 -6 0 -13l205 -321q4 -13 4 -15q0 -14 -20 -14h-168q-20 0 -29 17l-201 323q-4 12 -4 16z" />
<glyph unicode="&#x203a;" horiz-adv-x="696" d="M143 918q0 14 21 14h168q20 0 28 -17l201 -323q4 -4 4 -17q0 -10 -4 -16l-201 -323q-8 -16 -28 -17h-168q-14 0 -19.5 7t2.5 22l205 321q4 6 0 13l-205 321q-4 12 -4 15z" />
<glyph unicode="&#x205f;" horiz-adv-x="496" />
<glyph unicode="&#x20ac;" horiz-adv-x="1157" d="M100 559v80q0 10 7.5 17.5t17.5 7.5h117q10 0 10 10v84q0 10 -10 10h-117q-10 0 -17.5 7t-7.5 18v79q0 10 7.5 17.5t17.5 7.5h117q10 0 10 10v133q0 186 111.5 298t295.5 112q168 0 275.5 -88t130.5 -242v-4q0 -18 -23 -22l-188 -23h-4q-20 0 -23 21q-10 70 -55 111.5 t-113 41.5q-76 0 -123 -53t-47 -141v-144q0 -10 11 -10h372q12 0 18.5 -8t2.5 -21l-25 -80q-6 -20 -26 -20h-342q-10 0 -11 -10v-84q0 -10 11 -10h307q12 0 18 -7.5t2 -21.5l-26 -80q-6 -20 -27 -20h-274q-10 0 -11 -11v-143q0 -86 47.5 -139.5t122.5 -53.5q68 0 114 42 t56 114q2 25 27 21l184 -31q12 -2 17.5 -9.5t3.5 -19.5q-23 -150 -130.5 -235.5t-271.5 -85.5q-184 0 -295.5 112.5t-111.5 300.5v127q0 10 -10 11h-117q-10 0 -17.5 7t-7.5 17z" />
<glyph unicode="&#x2122;" horiz-adv-x="1226" d="M31 1343v66q0 10 7 17.5t17 7.5h451q10 0 17 -7.5t7 -17.5v-66q0 -10 -7 -17t-17 -7h-152q-10 0 -10 -10v-570q0 -10 -7 -17t-18 -7h-83q-10 0 -17.5 7t-7.5 17v570q0 10 -10 10h-146q-10 0 -17 7t-7 17zM629 739v670q0 10 7 17.5t17 7.5h90q20 0 29 -17l117 -190 q4 -6 8 -6t6 6l119 190q9 17 29 17h86q10 0 17 -7.5t7 -17.5v-670q0 -10 -7 -17t-17 -7h-84q-10 0 -17.5 7t-7.5 17v467q0 8 -4 9.5t-8 -5.5l-92 -149q-8 -16 -27 -17q-20 0 -29 17l-92 149q-4 6 -8 5t-4 -9v-467q0 -10 -7 -17t-18 -7h-86q-10 0 -17 7t-7 17z" />
<glyph unicode="&#x25fc;" horiz-adv-x="1044" d="M0 0v1044h1044v-1044h-1044z" />
</font>
</defs>
</svg>
